<?xml version="1.0" encoding="utf-8"?>
<!-- Generator: Adobe Illustrator 23.0.3, SVG Export Plug-In . SVG Version: 6.00 Build 0)  -->
<svg version="1.1" id="Layer_1" xmlns="http://www.w3.org/2000/svg" xmlns:xlink="http://www.w3.org/1999/xlink" x="0px" y="0px"
	 viewBox="0 0 120 120" style="enable-background:new 0 0 120 120;" xml:space="preserve">
<style type="text/css">
	.st0{fill:#FBB03B;}
	.st1{fill:#1B1F3B;}
</style>
<title>logomark</title>
<desc>Created with Sketch.</desc>
<g id="logo-assets">
	<g id="logomark" transform="translate(-1.000000, 0.000000)">
		<path id="Shape" class="st0" d="M61,119.9c-3.9,0-7.6-1.5-10.3-4.3L5.3,70.3C2.5,67.5,1,63.8,1,60s1.5-7.6,4.3-10.3L50.6,4.3
			c5.7-5.7,14.9-5.7,20.6,0l45.4,45.4c2.7,2.7,4.3,6.4,4.3,10.3s-1.5,7.6-4.3,10.3l-45.4,45.4C68.6,118.4,64.9,119.9,61,119.9z"/>
		<path class="st1" d="M43.4,42.2c-0.1,0.2-0.3,0.5-0.5,0.6c-0.2,0.2-0.5,0.2-0.8,0.2c-0.3,0-0.6-0.1-0.9-0.3l-1.1-0.6
			c-0.4-0.2-0.9-0.4-1.3-0.6c-0.6-0.2-1.1-0.3-1.7-0.3c-0.9-0.1-1.8,0.2-2.5,0.7c-0.5,0.5-0.8,1.2-0.8,1.9c0,0.5,0.2,0.9,0.5,1.3
			c0.4,0.4,0.8,0.7,1.3,0.9c0.6,0.3,1.2,0.5,1.8,0.7c0.7,0.2,1.4,0.4,2.1,0.7c0.7,0.3,1.4,0.6,2.1,0.9c0.7,0.3,1.3,0.8,1.8,1.3
			c0.5,0.6,1,1.2,1.3,1.9c0.3,0.9,0.5,1.8,0.5,2.7c0,1.1-0.2,2.3-0.6,3.3c-0.4,1-1,1.9-1.8,2.7c-0.8,0.8-1.8,1.4-2.9,1.8
			c-1.2,0.5-2.6,0.7-3.9,0.7c-0.8,0-1.6-0.1-2.4-0.2c-1.6-0.3-3.2-0.9-4.6-1.8c-0.6-0.4-1.2-0.8-1.8-1.4l1.7-2.8
			c0.1-0.2,0.3-0.4,0.5-0.5c0.2-0.1,0.5-0.2,0.8-0.2c0.4,0,0.7,0.1,1.1,0.3l1.2,0.7c0.5,0.3,1,0.5,1.5,0.7c0.7,0.2,1.4,0.3,2.1,0.3
			c0.9,0.1,1.8-0.2,2.5-0.7c0.6-0.6,1-1.4,0.9-2.3c0-0.5-0.2-1.1-0.5-1.5c-0.4-0.4-0.8-0.7-1.3-0.9c-0.6-0.3-1.2-0.5-1.8-0.7
			c-0.7-0.2-1.4-0.4-2.1-0.6c-0.7-0.2-1.4-0.5-2.1-0.9c-0.7-0.3-1.3-0.8-1.8-1.3c-0.6-0.6-1-1.3-1.3-2c-0.4-1-0.5-2-0.5-3
			c0-1,0.2-1.9,0.6-2.8c0.4-0.9,1-1.8,1.7-2.4c0.8-0.7,1.7-1.3,2.8-1.7c1.2-0.4,2.5-0.7,3.8-0.6c0.8,0,1.5,0.1,2.3,0.2
			c0.7,0.1,1.4,0.3,2.1,0.5c0.6,0.2,1.3,0.5,1.9,0.9c0.6,0.3,1.1,0.7,1.6,1.1L43.4,42.2z"/>
		<path class="st1" d="M93.2,42.2c-0.1,0.2-0.3,0.5-0.5,0.6c-0.2,0.2-0.5,0.2-0.8,0.2c-0.3,0-0.6-0.1-0.9-0.3l-1-0.6
			c-0.4-0.2-0.9-0.4-1.3-0.6c-0.6-0.2-1.1-0.3-1.7-0.3c-0.9-0.1-1.8,0.2-2.5,0.7c-0.5,0.5-0.9,1.2-0.8,1.9c0,0.5,0.2,0.9,0.5,1.3
			c0.4,0.4,0.8,0.7,1.3,0.9c0.6,0.3,1.2,0.5,1.8,0.7c0.7,0.2,1.4,0.4,2.1,0.7c0.7,0.3,1.4,0.6,2.1,0.9c0.7,0.3,1.3,0.8,1.8,1.3
			c0.5,0.6,1,1.2,1.3,1.9c0.4,0.9,0.5,1.8,0.5,2.7c0,1.1-0.2,2.3-0.6,3.3c-0.4,1-1,1.9-1.8,2.7c-0.8,0.8-1.8,1.4-2.9,1.8
			c-1.2,0.5-2.6,0.7-3.9,0.7c-0.8,0-1.6-0.1-2.4-0.2c-1.6-0.3-3.2-0.9-4.6-1.8c-0.6-0.4-1.2-0.8-1.8-1.4l1.8-2.8
			c0.1-0.2,0.3-0.4,0.5-0.5c0.2-0.1,0.5-0.2,0.8-0.2c0.4,0,0.7,0.1,1.1,0.3l1.2,0.7c0.5,0.3,1,0.5,1.6,0.7c0.7,0.2,1.3,0.4,2,0.4
			c0.9,0.1,1.8-0.2,2.5-0.7c0.6-0.6,1-1.4,0.9-2.3c0-0.5-0.1-1-0.4-1.5c-0.4-0.4-0.8-0.7-1.3-0.9c-0.6-0.3-1.2-0.5-1.8-0.7
			c-0.7-0.2-1.4-0.4-2.1-0.6c-0.7-0.2-1.4-0.5-2.1-0.9c-0.7-0.3-1.3-0.8-1.8-1.3c-0.6-0.6-1-1.3-1.3-2c-0.3-1-0.5-2-0.5-3
			c0-1,0.2-1.9,0.6-2.8c0.4-0.9,1-1.8,1.7-2.4c0.8-0.7,1.7-1.3,2.8-1.7c1.2-0.4,2.5-0.7,3.8-0.6c0.8,0,1.5,0.1,2.3,0.2
			c0.7,0.1,1.4,0.3,2.1,0.5c0.6,0.2,1.3,0.5,1.9,0.9c0.6,0.3,1.1,0.7,1.6,1.1L93.2,42.2z"/>
		<polygon class="st1" points="38.6,69.4 38.6,71.9 34.8,71.9 34.8,82.9 31.6,82.9 31.6,71.9 27.8,71.9 27.8,69.4 		"/>
		<polygon class="st1" points="44,82.9 40.9,82.9 40.9,69.4 44,69.4 		"/>
		<path class="st1" d="M56.4,79.4c0.1,0,0.1,0,0.2,0c0.1,0,0.2,0.1,0.2,0.1l1.2,1.3c-0.5,0.7-1.2,1.2-2,1.6
			c-0.9,0.4-1.9,0.6-2.9,0.5c-0.9,0-1.9-0.2-2.8-0.5c-0.8-0.3-1.5-0.8-2.1-1.4c-0.6-0.6-1-1.4-1.3-2.2c-0.3-0.9-0.5-1.8-0.5-2.8
			c0-0.9,0.1-1.9,0.5-2.8c0.3-0.8,0.8-1.6,1.5-2.2c0.6-0.6,1.4-1.1,2.2-1.4c0.9-0.3,1.9-0.5,2.9-0.5c0.5,0,1,0,1.4,0.1
			c0.4,0.1,0.9,0.2,1.3,0.4c0.4,0.2,0.7,0.3,1.1,0.6c0.3,0.2,0.6,0.5,0.9,0.7l-1,1.4c-0.1,0.1-0.2,0.2-0.2,0.2
			c-0.1,0.1-0.3,0.1-0.4,0.1c-0.1,0-0.2,0-0.3-0.1c-0.1-0.1-0.2-0.1-0.3-0.2l-0.4-0.2c-0.1-0.1-0.3-0.2-0.5-0.2
			c-0.2-0.1-0.4-0.1-0.6-0.2c-0.3-0.1-0.6-0.1-0.9-0.1c-0.5,0-1.1,0.1-1.6,0.3c-0.5,0.2-0.9,0.5-1.2,0.9c-0.3,0.4-0.6,0.9-0.8,1.4
			c-0.2,0.6-0.3,1.2-0.3,1.8c0,0.6,0.1,1.2,0.3,1.8c0.2,0.5,0.4,1,0.8,1.4c0.3,0.4,0.7,0.6,1.1,0.8c0.4,0.2,0.9,0.3,1.4,0.3
			c0.3,0,0.5,0,0.8,0c0.2,0,0.4-0.1,0.6-0.1c0.2-0.1,0.4-0.2,0.6-0.3c0.2-0.1,0.4-0.3,0.5-0.4c0.1-0.1,0.2-0.1,0.2-0.1
			C56.2,79.4,56.3,79.4,56.4,79.4z"/>
		<path class="st1" d="M63.3,74.9h0.5c0.4,0,0.8-0.1,1-0.4l3-4.4c0.1-0.2,0.3-0.4,0.6-0.5c0.3-0.1,0.5-0.1,0.8-0.1H72l-4,5.5
			c-0.1,0.2-0.3,0.3-0.4,0.5c-0.1,0.1-0.3,0.2-0.5,0.3c0.2,0.1,0.4,0.2,0.6,0.4c0.2,0.2,0.4,0.4,0.5,0.6l4.1,6.3h-2.8
			c-0.2,0-0.3,0-0.5,0c-0.1,0-0.2-0.1-0.3-0.1c-0.1,0-0.2-0.1-0.2-0.2c-0.1-0.1-0.1-0.2-0.2-0.2l-3.1-4.7c-0.1-0.2-0.2-0.3-0.4-0.4
			c-0.2-0.1-0.5-0.1-0.7-0.1h-0.8V83h-3.1V69.4h3.1V74.9z"/>
		<polygon class="st1" points="82.9,69.4 82.9,71.8 77.3,71.8 77.3,75 81.6,75 81.6,77.3 77.3,77.3 77.3,80.5 82.9,80.5 82.9,82.9 
			74.2,82.9 74.2,69.4 		"/>
		<polygon class="st1" points="95.2,69.4 95.2,71.9 91.4,71.9 91.4,82.9 88.3,82.9 88.3,71.9 84.5,71.9 84.5,69.4 		"/>
		<path class="st1" d="M74.8,50.2c0,6.6-4.8,12.2-11.3,13.1s-12.7-2.9-14.7-9.2s1-13,6.9-15.9c5.9-2.8,13-0.9,16.7,4.5L61.4,53.9
			l-5-5.1L54.2,51l7.2,7.2L74,45.6C74.5,47.1,74.8,48.7,74.8,50.2z"/>
	</g>
</g>
</svg>
