<svg xmlns="http://www.w3.org/2000/svg" viewBox="0 0 378.13 89.84"><defs><style>.cls-1{fill:#fbb03b;}.cls-2{fill:#212121;}.cls-3{fill:#fff;}</style></defs><title>logo-light</title><g id="Layer_2" data-name="Layer 2"><g id="round_2" data-name="round 2"><path class="cls-1" d="M44.92,89.84a10.87,10.87,0,0,1-7.73-3.2l-34-34a10.93,10.93,0,0,1,0-15.46l34-34a10.93,10.93,0,0,1,15.46,0l34,34a10.93,10.93,0,0,1,0,15.46h0l-34,34A10.87,10.87,0,0,1,44.92,89.84Z"/><path class="cls-2" d="M66.82,44.92a21.91,21.91,0,1,1-3.9-12.48L44.41,51l-8.35-8.37-3.57,3.58L44.41,58.08l21-21A22.14,22.14,0,0,1,66.82,44.92Z"/><path class="cls-3" d="M136.19,18.9a3.05,3.05,0,0,1-.73.83,1.73,1.73,0,0,1-1,.28,2.44,2.44,0,0,1-1.14-.34l-1.39-.75a11,11,0,0,0-1.76-.75,7,7,0,0,0-2.27-.34,4.84,4.84,0,0,0-3.27.94,3.17,3.17,0,0,0-1.07,2.53,2.35,2.35,0,0,0,.64,1.69,5.61,5.61,0,0,0,1.7,1.15,18.82,18.82,0,0,0,2.41.89c.9.27,1.82.57,2.75.9a26,26,0,0,1,2.76,1.17,9.05,9.05,0,0,1,2.4,1.71,7.78,7.78,0,0,1,1.7,2.53,9,9,0,0,1,.65,3.59,11.68,11.68,0,0,1-.81,4.37,10.13,10.13,0,0,1-2.34,3.54,10.85,10.85,0,0,1-3.8,2.38,14.14,14.14,0,0,1-5.12.87,15.73,15.73,0,0,1-3.2-.33,19.22,19.22,0,0,1-3.15-.91,18.93,18.93,0,0,1-2.86-1.4,12.78,12.78,0,0,1-2.34-1.8L117.27,38a2,2,0,0,1,.72-.67,2,2,0,0,1,1-.26,2.66,2.66,0,0,1,1.4.44c.47.29,1,.62,1.6,1a11.91,11.91,0,0,0,2,1,7.7,7.7,0,0,0,2.73.44,5.24,5.24,0,0,0,3.3-.93,3.6,3.6,0,0,0,1.19-3,2.79,2.79,0,0,0-.65-1.92,5.19,5.19,0,0,0-1.7-1.23A16.55,16.55,0,0,0,126.5,32c-.9-.25-1.81-.52-2.76-.82A19.76,19.76,0,0,1,121,30.05a8.7,8.7,0,0,1-2.39-1.73,8.3,8.3,0,0,1-1.7-2.68,11,11,0,0,1-.65-4,9.58,9.58,0,0,1,3-6.91,11,11,0,0,1,3.63-2.25,13.31,13.31,0,0,1,4.92-.84,18,18,0,0,1,3,.24,15.76,15.76,0,0,1,5.24,1.85,11.54,11.54,0,0,1,2.05,1.49Z"/><path class="cls-3" d="M176.63,28.88a18.14,18.14,0,0,1-1.26,6.79,16.11,16.11,0,0,1-9.06,9.11,20.08,20.08,0,0,1-14.32,0,16.1,16.1,0,0,1-9.09-9.11,18.93,18.93,0,0,1,0-13.58,16,16,0,0,1,3.56-5.46A16.45,16.45,0,0,1,152,13a18.91,18.91,0,0,1,7.17-1.31A18.67,18.67,0,0,1,166.31,13a16.55,16.55,0,0,1,5.51,3.64,16.3,16.3,0,0,1,3.55,5.45A18.23,18.23,0,0,1,176.63,28.88Zm-8,0a14.63,14.63,0,0,0-.65-4.5A9.42,9.42,0,0,0,166.12,21a8,8,0,0,0-3-2.13,10.33,10.33,0,0,0-4-.74,10.48,10.48,0,0,0-4,.74,8.09,8.09,0,0,0-3,2.13,9.57,9.57,0,0,0-1.86,3.38,16.09,16.09,0,0,0,0,9,9.57,9.57,0,0,0,1.86,3.38,8,8,0,0,0,3,2.12,10.53,10.53,0,0,0,4,.72,10.31,10.31,0,0,0,4-.72,8,8,0,0,0,3-2.12A9.42,9.42,0,0,0,168,33.4,14.76,14.76,0,0,0,168.63,28.88Z"/><path class="cls-3" d="M200.06,18.9a3.05,3.05,0,0,1-.73.83,1.72,1.72,0,0,1-1,.28,2.44,2.44,0,0,1-1.15-.34l-1.38-.75a11.46,11.46,0,0,0-1.77-.75,7,7,0,0,0-2.27-.34,4.87,4.87,0,0,0-3.27.94,3.2,3.2,0,0,0-1.07,2.53,2.32,2.32,0,0,0,.65,1.69,5.57,5.57,0,0,0,1.69,1.15,18.82,18.82,0,0,0,2.41.89c.9.27,1.82.57,2.75.9a26,26,0,0,1,2.76,1.17,9.26,9.26,0,0,1,2.41,1.71,7.75,7.75,0,0,1,1.69,2.53,9,9,0,0,1,.65,3.59,11.68,11.68,0,0,1-.81,4.37,10.13,10.13,0,0,1-2.34,3.54,10.9,10.9,0,0,1-3.79,2.38,14.21,14.21,0,0,1-5.12.87,15.59,15.59,0,0,1-3.2-.33,18.94,18.94,0,0,1-3.15-.91,18.58,18.58,0,0,1-2.87-1.4,12.38,12.38,0,0,1-2.33-1.8L181.15,38a1.9,1.9,0,0,1,.71-.67,2.07,2.07,0,0,1,1-.26,2.69,2.69,0,0,1,1.4.44l1.59,1a12.27,12.27,0,0,0,2,1,7.7,7.7,0,0,0,2.73.44,5.27,5.27,0,0,0,3.31-.93,3.59,3.59,0,0,0,1.18-3,2.79,2.79,0,0,0-.65-1.92,5.08,5.08,0,0,0-1.7-1.23,16.55,16.55,0,0,0-2.39-.85c-.89-.25-1.81-.52-2.75-.82a19.76,19.76,0,0,1-2.75-1.11,8.7,8.7,0,0,1-2.39-1.73,8.14,8.14,0,0,1-1.7-2.68,10.75,10.75,0,0,1-.65-4,9.6,9.6,0,0,1,.76-3.7,9.72,9.72,0,0,1,2.25-3.21,11,11,0,0,1,3.63-2.25,13.31,13.31,0,0,1,4.92-.84,18,18,0,0,1,3,.24A15.76,15.76,0,0,1,200,13.76,11.54,11.54,0,0,1,202,15.25Z"/><path class="cls-3" d="M241.56,12.06v6.19h-9.48V45.72h-7.81V18.25H214.8V12.06Z"/><path class="cls-3" d="M254.27,45.72h-7.86V12.06h7.86Z"/><path class="cls-3" d="M284.06,37a1.5,1.5,0,0,1,.55.11,1.47,1.47,0,0,1,.53.36l3.1,3.26a12.91,12.91,0,0,1-5.1,4,18,18,0,0,1-7.24,1.36A17.27,17.27,0,0,1,269,44.78a15,15,0,0,1-5.15-3.6,16,16,0,0,1-3.25-5.45,20.27,20.27,0,0,1-1.13-6.86,17.84,17.84,0,0,1,1.3-6.92,16.18,16.18,0,0,1,3.61-5.44A16.39,16.39,0,0,1,270,13a19.35,19.35,0,0,1,7.14-1.27,18.61,18.61,0,0,1,3.57.34,17,17,0,0,1,3.13.91,14.89,14.89,0,0,1,2.68,1.41,13.09,13.09,0,0,1,2.17,1.82L286,19.69a3.35,3.35,0,0,1-.6.59,1.54,1.54,0,0,1-1,.27,1.84,1.84,0,0,1-.79-.19,8.89,8.89,0,0,1-.79-.45l-.92-.58a7.18,7.18,0,0,0-1.18-.58,9.92,9.92,0,0,0-3.73-.63,9.75,9.75,0,0,0-3.88.75,8.61,8.61,0,0,0-3,2.15,10.18,10.18,0,0,0-2,3.38,13.32,13.32,0,0,0-.71,4.47,14,14,0,0,0,.71,4.59,9.83,9.83,0,0,0,1.92,3.39,8.12,8.12,0,0,0,2.83,2.09,8.58,8.58,0,0,0,3.46.72,15.93,15.93,0,0,0,1.95-.11,7.45,7.45,0,0,0,1.62-.36,6.91,6.91,0,0,0,1.44-.65,9.14,9.14,0,0,0,1.37-1,3.19,3.19,0,0,1,.6-.38A1.68,1.68,0,0,1,284.06,37Z"/><path class="cls-3" d="M300.53,25.69h1.25a2.81,2.81,0,0,0,2.49-1.09l7.58-11a3.33,3.33,0,0,1,1.43-1.22,5.16,5.16,0,0,1,2-.32H322L312,25.67a6.71,6.71,0,0,1-1.1,1.22,7.34,7.34,0,0,1-1.19.81,5.66,5.66,0,0,1,2.94,2.4l10.17,15.63h-7a6.27,6.27,0,0,1-1.14-.1,2.93,2.93,0,0,1-.82-.27,2.25,2.25,0,0,1-.6-.45,4.17,4.17,0,0,1-.49-.62l-7.62-11.71a2.34,2.34,0,0,0-1-.92,4.44,4.44,0,0,0-1.73-.26h-1.89V45.72h-7.81V12.06h7.81Z"/><path class="cls-3" d="M348.32,12.06v6H334.5v7.86h10.59V31.7H334.5v8h13.82v6H326.65V12.06Z"/><path class="cls-3" d="M378.13,12.06v6.19h-9.47V45.72h-7.82V18.25h-9.47V12.06Z"/><path class="cls-3" d="M131.87,77h-2.56a1.11,1.11,0,0,1-.7-.21,1.44,1.44,0,0,1-.4-.54l-1.32-3.62h-7.36l-1.32,3.62a1.23,1.23,0,0,1-.38.52,1.05,1.05,0,0,1-.7.23h-2.58l7-17.74h3.35ZM126,70.3l-2.16-5.91a9.66,9.66,0,0,1-.33-.93c-.12-.36-.23-.75-.34-1.16-.11.41-.22.8-.34,1.17s-.22.68-.33,1l-2.15,5.88Z"/><path class="cls-3" d="M148.48,59.25,141.31,77h-3l-7.16-17.74h2.65a1.11,1.11,0,0,1,.7.21,1.2,1.2,0,0,1,.4.54l4.19,10.82c.13.35.27.74.39,1.16s.25.86.36,1.32c.1-.46.2-.9.32-1.32a9.82,9.82,0,0,1,.38-1.16L144.72,60a1.12,1.12,0,0,1,.39-.52,1.06,1.06,0,0,1,.71-.23Z"/><path class="cls-3" d="M167.64,68.12a9.68,9.68,0,0,1-.64,3.61,8.69,8.69,0,0,1-1.82,2.88,8.39,8.39,0,0,1-2.84,1.9,10.24,10.24,0,0,1-7.35,0,8.39,8.39,0,0,1-2.84-1.9,8.65,8.65,0,0,1-1.84-2.88,10.42,10.42,0,0,1,0-7.22,8.6,8.6,0,0,1,1.84-2.87,8.25,8.25,0,0,1,2.84-1.9,9.41,9.41,0,0,1,3.67-.68,9.87,9.87,0,0,1,2.54.31,9,9,0,0,1,2.18.88,8.35,8.35,0,0,1,1.79,1.39,8.22,8.22,0,0,1,1.34,1.82,8.55,8.55,0,0,1,.84,2.19A10.3,10.3,0,0,1,167.64,68.12Zm-3.37,0a8.32,8.32,0,0,0-.39-2.62,5.85,5.85,0,0,0-1.12-2A5,5,0,0,0,161,62.29a6.62,6.62,0,0,0-4.68,0,5,5,0,0,0-1.76,1.24,5.54,5.54,0,0,0-1.13,2,9,9,0,0,0,0,5.24,5.5,5.5,0,0,0,1.13,2,4.8,4.8,0,0,0,1.76,1.23,6.51,6.51,0,0,0,4.68,0,4.8,4.8,0,0,0,1.76-1.23,5.72,5.72,0,0,0,1.12-2,8,8,0,0,0,.38-2.62Z"/><path class="cls-3" d="M183.71,72.81a.64.64,0,0,1,.48.2l1.31,1.42a7.41,7.41,0,0,1-2.66,2,9.29,9.29,0,0,1-3.79.71,8.87,8.87,0,0,1-3.55-.68,7.79,7.79,0,0,1-2.69-1.88,8.21,8.21,0,0,1-1.71-2.87,10.49,10.49,0,0,1-.59-3.64,10.14,10.14,0,0,1,.63-3.66,8.44,8.44,0,0,1,1.8-2.87,8.17,8.17,0,0,1,2.77-1.87,9.23,9.23,0,0,1,3.56-.67,8.86,8.86,0,0,1,3.44.64,8.16,8.16,0,0,1,2.55,1.67l-1.1,1.53a1.27,1.27,0,0,1-.25.27.78.78,0,0,1-.42.11.88.88,0,0,1-.39-.11l-.42-.26-.54-.34a5.93,5.93,0,0,0-.72-.34,5.82,5.82,0,0,0-.93-.26,6.42,6.42,0,0,0-1.24-.1,5.46,5.46,0,0,0-2.18.42,4.7,4.7,0,0,0-1.69,1.23,5.53,5.53,0,0,0-1.11,2,8.16,8.16,0,0,0-.39,2.64,7.81,7.81,0,0,0,.42,2.67,5.79,5.79,0,0,0,1.15,2,4.92,4.92,0,0,0,1.7,1.22,5.15,5.15,0,0,0,2.12.42,8.4,8.4,0,0,0,1.22-.07,4.84,4.84,0,0,0,1-.23,5,5,0,0,0,.87-.41,5.52,5.52,0,0,0,.82-.62,1.51,1.51,0,0,1,.26-.18A.66.66,0,0,1,183.71,72.81Z"/><path class="cls-3" d="M204,77H201.4a1.09,1.09,0,0,1-.7-.21,1.37,1.37,0,0,1-.41-.54L199,72.62h-7.35l-1.33,3.62a1.23,1.23,0,0,1-.38.52,1.05,1.05,0,0,1-.7.23h-2.58l7-17.74H197Zm-5.83-6.69L196,64.39c-.1-.26-.22-.57-.33-.93s-.23-.75-.34-1.16c-.11.41-.22.8-.34,1.17s-.22.68-.33,1l-2.14,5.88Z"/><path class="cls-3" d="M217.43,62h-5.35V77h-3.3V62h-5.35V59.25h14Z"/><path class="cls-3" d="M230.15,62.47a1,1,0,0,1-.31.38.73.73,0,0,1-.41.12,1.14,1.14,0,0,1-.56-.19c-.2-.14-.44-.27-.71-.43a6,6,0,0,0-1-.42,4,4,0,0,0-1.32-.19,3.75,3.75,0,0,0-1.2.17,2.58,2.58,0,0,0-.87.45,1.82,1.82,0,0,0-.52.71,2.15,2.15,0,0,0-.17.9,1.54,1.54,0,0,0,.35,1,2.78,2.78,0,0,0,.92.71,7.91,7.91,0,0,0,1.32.53l1.51.5a13.86,13.86,0,0,1,1.5.61,5.34,5.34,0,0,1,1.32.88,4.08,4.08,0,0,1,.92,1.32,4.45,4.45,0,0,1,.35,1.87,6.4,6.4,0,0,1-.41,2.25,5.22,5.22,0,0,1-1.21,1.83,5.53,5.53,0,0,1-1.93,1.23,7.24,7.24,0,0,1-2.61.45,8.52,8.52,0,0,1-1.67-.17,9.57,9.57,0,0,1-1.58-.47,8.62,8.62,0,0,1-1.41-.74,6,6,0,0,1-1.18-1l1-1.58a1,1,0,0,1,.32-.29.84.84,0,0,1,.41-.11,1.17,1.17,0,0,1,.67.25l.84.56a7.18,7.18,0,0,0,1.15.56,4.65,4.65,0,0,0,1.57.25,3.26,3.26,0,0,0,2.19-.67,2.44,2.44,0,0,0,.77-1.92,1.79,1.79,0,0,0-.35-1.14,2.83,2.83,0,0,0-.93-.75,6.93,6.93,0,0,0-1.31-.5c-.49-.15-1-.29-1.5-.46a11.26,11.26,0,0,1-1.49-.59,4.72,4.72,0,0,1-1.32-.89,4.23,4.23,0,0,1-.92-1.38,5.33,5.33,0,0,1-.35-2,4.91,4.91,0,0,1,.38-1.89,5,5,0,0,1,1.13-1.63,5.61,5.61,0,0,1,1.81-1.14,6.75,6.75,0,0,1,2.48-.43,8.42,8.42,0,0,1,2.9.49A6.46,6.46,0,0,1,231,60.93Z"/><path class="cls-3" d="M243.72,77a1.55,1.55,0,0,1-.67.84,1.82,1.82,0,0,1-.93.29h-1.29L248,59.83a1.57,1.57,0,0,1,1.55-1.07h1.3Z"/><path class="cls-3" d="M271.84,74.27V77H261.45V59.25h3.3v15Z"/><path class="cls-3" d="M290.38,77h-2.55a1.09,1.09,0,0,1-.7-.21,1.37,1.37,0,0,1-.41-.54l-1.32-3.62h-7.35l-1.33,3.62a1.09,1.09,0,0,1-.38.52,1,1,0,0,1-.7.23h-2.57l7-17.74h3.36Zm-5.83-6.69-2.16-5.91q-.15-.39-.33-.93c-.11-.36-.23-.75-.34-1.16q-.17.62-.33,1.17c-.12.36-.23.68-.33,1l-2.15,5.88Z"/><path class="cls-3" d="M315.64,59.25,310.13,77h-3l-3.88-12.12a8.2,8.2,0,0,1-.29-1.08l-.15.58c-.05.18-.1.34-.16.5L298.76,77h-3l-5.49-17.74H293a1.21,1.21,0,0,1,.72.2,1,1,0,0,1,.39.55l3,10.61c.06.26.13.55.19.85s.12.63.19,1c.06-.35.14-.67.21-1s.17-.59.25-.85L301.48,60a1.18,1.18,0,0,1,.38-.52,1.16,1.16,0,0,1,.71-.23h1a1.09,1.09,0,0,1,.7.21,1.2,1.2,0,0,1,.4.54l3.48,10.61a15.55,15.55,0,0,1,.46,1.75c.11-.64.23-1.23.36-1.75L312,60a1,1,0,0,1,.37-.53,1.16,1.16,0,0,1,.72-.22Z"/><path class="cls-3" d="M326.43,70.12V77h-3.29V70.12l-6.46-10.87h2.9a1,1,0,0,1,.68.21,1.66,1.66,0,0,1,.43.52l3.24,5.93c.19.35.35.68.49,1a9.35,9.35,0,0,1,.39.94,9.15,9.15,0,0,1,.37-.94q.21-.47.48-1L328.88,60a1.64,1.64,0,0,1,.41-.5,1,1,0,0,1,.68-.23h2.92Z"/><path class="cls-3" d="M339,61.88v4.91h6.21v2.54H339v5h7.88V77H335.69V59.25h11.19v2.63Z"/><path class="cls-3" d="M364.64,77h-3a1.31,1.31,0,0,1-1.22-.66l-3.73-5.68a1.35,1.35,0,0,0-.46-.46,1.75,1.75,0,0,0-.75-.13h-1.41V77h-3.3V59.25h5.41a11.54,11.54,0,0,1,3.1.37,6,6,0,0,1,2.12,1.05,4,4,0,0,1,1.22,1.62,5.52,5.52,0,0,1,.13,3.76,4.74,4.74,0,0,1-.76,1.44,5.09,5.09,0,0,1-1.22,1.14,6,6,0,0,1-1.67.77,2.93,2.93,0,0,1,.59.44,3.48,3.48,0,0,1,.5.59Zm-8.5-9.3a5.31,5.31,0,0,0,1.63-.23,3.16,3.16,0,0,0,1.14-.65,2.6,2.6,0,0,0,.67-1,3.31,3.31,0,0,0,.22-1.24,2.53,2.53,0,0,0-.89-2.08,4.29,4.29,0,0,0-2.72-.72h-2.11v5.89Z"/><path class="cls-3" d="M377,62.47a1.15,1.15,0,0,1-.31.38.75.75,0,0,1-.41.12,1.1,1.1,0,0,1-.56-.19c-.2-.14-.44-.27-.72-.43a5.67,5.67,0,0,0-1-.42,4.16,4.16,0,0,0-1.31-.19,3.81,3.81,0,0,0-1.21.17,2.53,2.53,0,0,0-.86.45,2,2,0,0,0-.53.71,2.52,2.52,0,0,0-.17.9,1.59,1.59,0,0,0,.35,1,2.81,2.81,0,0,0,.93.71,7.81,7.81,0,0,0,1.31.53l1.51.5a13.23,13.23,0,0,1,1.51.61,5.28,5.28,0,0,1,1.31.88,3.79,3.79,0,0,1,.92,1.32,4.45,4.45,0,0,1,.35,1.87,6,6,0,0,1-.41,2.25,5.06,5.06,0,0,1-1.2,1.83,5.68,5.68,0,0,1-1.93,1.23,7.3,7.3,0,0,1-2.62.45A8.42,8.42,0,0,1,370.3,77a9.57,9.57,0,0,1-1.58-.47,8.23,8.23,0,0,1-1.41-.74,6.42,6.42,0,0,1-1.19-1l1-1.58a1.26,1.26,0,0,1,.32-.29.88.88,0,0,1,.42-.11,1.14,1.14,0,0,1,.66.25l.85.56a6.7,6.7,0,0,0,1.14.56,4.71,4.71,0,0,0,1.58.25,3.24,3.24,0,0,0,2.18-.67,2.4,2.4,0,0,0,.77-1.92,1.74,1.74,0,0,0-.35-1.14,2.79,2.79,0,0,0-.92-.75,6.93,6.93,0,0,0-1.31-.5c-.49-.15-1-.29-1.5-.46a11.26,11.26,0,0,1-1.49-.59,4.74,4.74,0,0,1-1.31-.89,4.23,4.23,0,0,1-.92-1.38,5.3,5.3,0,0,1-.35-2,4.91,4.91,0,0,1,.38-1.89,4.83,4.83,0,0,1,1.13-1.63,5.61,5.61,0,0,1,1.81-1.14,6.75,6.75,0,0,1,2.48-.43,8.42,8.42,0,0,1,2.9.49,6.55,6.55,0,0,1,2.25,1.38Z"/></g></g></svg>