<?xml version="1.0" encoding="utf-8"?>
<!-- Generator: Adobe Illustrator 23.0.3, SVG Export Plug-In . SVG Version: 6.00 Build 0)  -->
<svg version="1.1" id="Layer_1" xmlns="http://www.w3.org/2000/svg" xmlns:xlink="http://www.w3.org/1999/xlink" x="0px" y="0px"
	 viewBox="0 0 378.1 89.8" style="enable-background:new 0 0 378.1 89.8;" xml:space="preserve">
<style type="text/css">
	.st0{fill:#FBB03B;}
	.st1{fill:#FFFFFF;}
</style>
<title>logo-light</title>
<g>
	<g id="round_2">
		<g>
			<g>
				<path class="st0" d="M86.7,37.2l-34-34c-4.3-4.3-11.2-4.3-15.5,0l-34,34c0,0,0,0,0,0c-4.3,4.3-4.3,11.2,0,15.5l34,34
					c2,2.1,4.8,3.2,7.7,3.2c2.9,0,5.7-1.1,7.7-3.2l34-34c0,0,0,0,0,0C90.9,48.4,90.9,41.4,86.7,37.2z M44.9,66.8
					C32.8,66.8,23,57,23,44.9C23,32.8,32.8,23,44.9,23c7.2,0,13.9,3.5,18,9.4L44.4,51l-8.3-8.4l-3.6,3.6l11.9,11.9l21-21
					c0.9,2.5,1.4,5.2,1.4,7.8C66.8,57,57,66.8,44.9,66.8z"/>
			</g>
		</g>
		<path class="st1" d="M136.2,18.9c-0.2,0.3-0.4,0.6-0.7,0.8c-0.3,0.2-0.6,0.3-1,0.3c-0.4,0-0.8-0.1-1.1-0.3l-1.4-0.8
			c-0.6-0.3-1.2-0.6-1.8-0.8c-0.7-0.2-1.5-0.4-2.3-0.3c-1.2-0.1-2.3,0.2-3.3,0.9c-0.7,0.6-1.1,1.6-1.1,2.5c0,0.6,0.2,1.2,0.6,1.7
			c0.5,0.5,1.1,0.9,1.7,1.1c0.8,0.4,1.6,0.6,2.4,0.9c0.9,0.3,1.8,0.6,2.8,0.9c0.9,0.3,1.9,0.7,2.8,1.2c0.9,0.4,1.7,1,2.4,1.7
			c0.7,0.7,1.3,1.6,1.7,2.5c0.5,1.1,0.7,2.4,0.6,3.6c0,1.5-0.3,3-0.8,4.4c-0.5,1.3-1.3,2.5-2.3,3.5c-1.1,1-2.4,1.9-3.8,2.4
			c-1.6,0.6-3.4,0.9-5.1,0.9c-1.1,0-2.1-0.1-3.2-0.3c-1.1-0.2-2.1-0.5-3.2-0.9c-1-0.4-1.9-0.9-2.9-1.4c-0.8-0.5-1.6-1.1-2.3-1.8
			l2.3-3.6c0.2-0.3,0.4-0.5,0.7-0.7c0.3-0.2,0.6-0.3,1-0.3c0.5,0,1,0.2,1.4,0.4c0.5,0.3,1,0.6,1.6,1c0.6,0.4,1.3,0.7,2,1
			c0.9,0.3,1.8,0.5,2.7,0.4c1.2,0.1,2.3-0.3,3.3-0.9c0.8-0.8,1.3-1.9,1.2-3c0-0.7-0.2-1.4-0.6-1.9c-0.5-0.5-1.1-0.9-1.7-1.2
			c-0.8-0.3-1.6-0.6-2.4-0.9c-0.9-0.2-1.8-0.5-2.8-0.8c-0.9-0.3-1.9-0.7-2.7-1.1c-0.9-0.4-1.7-1-2.4-1.7c-0.7-0.8-1.3-1.7-1.7-2.7
			c-0.5-1.3-0.7-2.6-0.7-4c0-2.6,1.1-5.1,3-6.9c1.1-1,2.3-1.7,3.6-2.2c1.6-0.6,3.2-0.9,4.9-0.8c1,0,2,0.1,3,0.2
			c1.8,0.3,3.6,0.9,5.2,1.9c0.7,0.4,1.4,0.9,2.1,1.5L136.2,18.9z"/>
		<path class="st1" d="M176.6,28.9c0,2.3-0.4,4.6-1.3,6.8c-1.6,4.2-4.9,7.5-9.1,9.1c-4.6,1.8-9.7,1.8-14.3,0
			c-4.2-1.6-7.5-4.9-9.1-9.1c-1.7-4.4-1.7-9.2,0-13.6c0.8-2,2-3.9,3.6-5.5c1.6-1.6,3.5-2.8,5.5-3.6c2.3-0.9,4.7-1.3,7.2-1.3
			c2.4,0,4.9,0.4,7.1,1.3c2.1,0.8,3.9,2.1,5.5,3.6c1.5,1.6,2.7,3.4,3.6,5.5C176.2,24.3,176.6,26.6,176.6,28.9z M168.6,28.9
			c0-1.5-0.2-3-0.6-4.5c-0.4-1.2-1-2.4-1.9-3.4c-0.8-0.9-1.8-1.7-3-2.1c-1.3-0.5-2.6-0.8-4-0.7c-1.4,0-2.7,0.2-4,0.7
			c-1.2,0.5-2.2,1.2-3,2.1c-0.8,1-1.5,2.1-1.9,3.4c-0.9,2.9-0.9,6.1,0,9c0.4,1.2,1,2.4,1.9,3.4c0.8,0.9,1.8,1.7,3,2.1
			c1.3,0.5,2.6,0.7,4,0.7c1.4,0,2.7-0.2,4-0.7c1.2-0.5,2.2-1.2,3-2.1c0.9-1,1.5-2.1,1.9-3.4C168.4,31.9,168.7,30.4,168.6,28.9z"/>
		<path class="st1" d="M200.1,18.9c-0.2,0.3-0.4,0.6-0.7,0.8c-0.3,0.2-0.6,0.3-1,0.3c-0.4,0-0.8-0.1-1.1-0.3l-1.4-0.8
			c-0.6-0.3-1.2-0.6-1.8-0.8c-0.7-0.2-1.5-0.4-2.3-0.3c-1.2-0.1-2.3,0.2-3.3,0.9c-0.7,0.6-1.1,1.6-1.1,2.5c0,0.6,0.2,1.2,0.6,1.7
			c0.5,0.5,1.1,0.9,1.7,1.1c0.8,0.4,1.6,0.6,2.4,0.9c0.9,0.3,1.8,0.6,2.8,0.9c0.9,0.3,1.9,0.7,2.8,1.2c0.9,0.4,1.7,1,2.4,1.7
			c0.7,0.7,1.3,1.6,1.7,2.5c0.5,1.1,0.7,2.4,0.6,3.6c0,1.5-0.3,3-0.8,4.4c-0.5,1.3-1.3,2.5-2.3,3.5c-1.1,1-2.4,1.9-3.8,2.4
			c-1.6,0.6-3.4,0.9-5.1,0.9c-1.1,0-2.1-0.1-3.2-0.3c-1.1-0.2-2.1-0.5-3.1-0.9c-1-0.4-2-0.9-2.9-1.4c-0.8-0.5-1.6-1.1-2.3-1.8
			l2.3-3.6c0.2-0.3,0.4-0.5,0.7-0.7c0.3-0.2,0.7-0.3,1-0.3c0.5,0,1,0.2,1.4,0.4l1.6,1c0.6,0.4,1.3,0.7,2,1c0.9,0.3,1.8,0.5,2.7,0.4
			c1.2,0.1,2.3-0.3,3.3-0.9c0.8-0.8,1.3-1.9,1.2-3c0-0.7-0.2-1.4-0.6-1.9c-0.5-0.5-1.1-0.9-1.7-1.2c-0.8-0.3-1.6-0.6-2.4-0.8
			c-0.9-0.2-1.8-0.5-2.8-0.8c-0.9-0.3-1.9-0.7-2.8-1.1c-0.9-0.4-1.7-1-2.4-1.7c-0.7-0.8-1.3-1.7-1.7-2.7c-0.5-1.3-0.7-2.6-0.6-4
			c0-1.3,0.3-2.5,0.8-3.7c0.5-1.2,1.3-2.3,2.2-3.2c1.1-1,2.3-1.7,3.6-2.2c1.6-0.6,3.2-0.9,4.9-0.8c1,0,2,0.1,3,0.2
			c1.9,0.3,3.7,0.9,5.4,1.8c0.7,0.4,1.4,0.9,2,1.5L200.1,18.9z"/>
		<path class="st1" d="M241.6,12.1v6.2h-9.5v27.5h-7.8V18.2h-9.5v-6.2H241.6z"/>
		<path class="st1" d="M254.3,45.7h-7.9V12.1h7.9V45.7z"/>
		<path class="st1" d="M284.1,37c0.2,0,0.4,0,0.5,0.1c0.2,0.1,0.4,0.2,0.5,0.4l3.1,3.3c-1.3,1.7-3.1,3.1-5.1,4
			c-2.3,0.9-4.8,1.4-7.2,1.4c-2.4,0-4.7-0.4-6.9-1.3c-2-0.8-3.7-2-5.1-3.6c-1.4-1.6-2.5-3.4-3.2-5.5c-0.8-2.2-1.2-4.5-1.1-6.9
			c0-2.4,0.4-4.7,1.3-6.9c0.8-2,2-3.9,3.6-5.4c1.6-1.5,3.5-2.7,5.6-3.5c2.3-0.9,4.7-1.3,7.1-1.3c1.2,0,2.4,0.1,3.6,0.3
			c1.1,0.2,2.1,0.5,3.1,0.9c0.9,0.4,1.8,0.9,2.7,1.4c0.8,0.5,1.5,1.1,2.2,1.8l-2.7,3.5c-0.2,0.2-0.4,0.4-0.6,0.6
			c-0.3,0.2-0.6,0.3-1,0.3c-0.3,0-0.5-0.1-0.8-0.2c-0.3-0.1-0.5-0.3-0.8-0.5l-0.9-0.6c-0.4-0.2-0.8-0.4-1.2-0.6
			c-1.2-0.4-2.5-0.7-3.7-0.6c-1.3,0-2.7,0.2-3.9,0.8c-1.1,0.5-2.2,1.2-3,2.1c-0.9,1-1.6,2.1-2,3.4c-0.5,1.4-0.7,3-0.7,4.5
			c0,1.6,0.2,3.1,0.7,4.6c0.4,1.2,1.1,2.4,1.9,3.4c0.8,0.9,1.7,1.6,2.8,2.1c1.1,0.5,2.3,0.7,3.5,0.7c0.7,0,1.3,0,2-0.1
			c0.6-0.1,1.1-0.2,1.6-0.4c0.5-0.2,1-0.4,1.4-0.7c0.5-0.3,0.9-0.6,1.4-1c0.2-0.1,0.4-0.3,0.6-0.4C283.5,37,283.8,37,284.1,37z"/>
		<path class="st1" d="M300.5,25.7h1.2c1,0.1,1.9-0.3,2.5-1.1l7.6-11c0.3-0.5,0.8-1,1.4-1.2c0.6-0.2,1.3-0.3,2-0.3h6.7l-10,13.6
			c-0.3,0.5-0.7,0.9-1.1,1.2c-0.4,0.3-0.8,0.6-1.2,0.8c1.2,0.4,2.3,1.3,2.9,2.4l10.2,15.6h-7c-0.4,0-0.8,0-1.1-0.1
			c-0.3,0-0.6-0.1-0.8-0.3c-0.2-0.1-0.4-0.3-0.6-0.5c-0.2-0.2-0.3-0.4-0.5-0.6l-7.6-11.7c-0.2-0.4-0.6-0.7-1-0.9
			c-0.6-0.2-1.1-0.3-1.7-0.3h-1.9v14.3h-7.8V12.1h7.8L300.5,25.7z"/>
		<path class="st1" d="M348.3,12.1v6h-13.8v7.9h10.6v5.8h-10.6v8h13.8v6h-21.7V12.1H348.3z"/>
		<path class="st1" d="M378.1,12.1v6.2h-9.5v27.5h-7.8V18.2h-9.5v-6.2H378.1z"/>
		<path class="st1" d="M131.9,77h-2.6c-0.3,0-0.5-0.1-0.7-0.2c-0.2-0.1-0.3-0.3-0.4-0.5l-1.3-3.6h-7.4l-1.3,3.6
			c-0.1,0.2-0.2,0.4-0.4,0.5c-0.2,0.2-0.4,0.2-0.7,0.2h-2.6l7-17.7h3.3L131.9,77z M126,70.3l-2.2-5.9c-0.1-0.3-0.2-0.6-0.3-0.9
			c-0.1-0.4-0.2-0.8-0.3-1.2c-0.1,0.4-0.2,0.8-0.3,1.2s-0.2,0.7-0.3,1l-2.2,5.9L126,70.3z"/>
		<path class="st1" d="M148.5,59.2L141.3,77h-3l-7.2-17.7h2.6c0.3,0,0.5,0.1,0.7,0.2c0.2,0.1,0.3,0.3,0.4,0.5l4.2,10.8
			c0.1,0.3,0.3,0.7,0.4,1.2s0.2,0.9,0.4,1.3c0.1-0.5,0.2-0.9,0.3-1.3c0.1-0.4,0.2-0.8,0.4-1.2l4.2-10.8c0.1-0.2,0.2-0.4,0.4-0.5
			c0.2-0.2,0.5-0.2,0.7-0.2H148.5z"/>
		<path class="st1" d="M167.6,68.1c0,1.2-0.2,2.5-0.6,3.6c-0.4,1.1-1,2-1.8,2.9c-0.8,0.8-1.8,1.5-2.8,1.9c-2.4,0.9-5,0.9-7.4,0
			c-1.1-0.4-2-1.1-2.8-1.9c-0.8-0.8-1.4-1.8-1.8-2.9c-0.9-2.3-0.9-4.9,0-7.2c0.4-1.1,1-2,1.8-2.9c0.8-0.8,1.8-1.5,2.8-1.9
			c1.2-0.5,2.4-0.7,3.7-0.7c0.9,0,1.7,0.1,2.5,0.3c0.8,0.2,1.5,0.5,2.2,0.9c0.7,0.4,1.3,0.8,1.8,1.4c0.5,0.5,1,1.2,1.3,1.8
			c0.4,0.7,0.7,1.4,0.8,2.2C167.5,66.5,167.6,67.3,167.6,68.1z M164.3,68.1c0-0.9-0.1-1.8-0.4-2.6c-0.2-0.7-0.6-1.4-1.1-2
			c-0.5-0.5-1.1-0.9-1.8-1.2c-1.5-0.6-3.2-0.6-4.7,0c-0.7,0.3-1.3,0.7-1.8,1.2c-0.5,0.6-0.9,1.3-1.1,2c-0.5,1.7-0.5,3.5,0,5.2
			c0.2,0.7,0.6,1.4,1.1,2c0.5,0.5,1.1,1,1.8,1.2c1.5,0.6,3.2,0.6,4.7,0c0.7-0.3,1.3-0.7,1.8-1.2c0.5-0.6,0.9-1.3,1.1-2
			C164.2,69.9,164.3,69,164.3,68.1L164.3,68.1z"/>
		<path class="st1" d="M183.7,72.8c0.2,0,0.4,0.1,0.5,0.2l1.3,1.4c-0.7,0.9-1.6,1.5-2.7,2c-1.2,0.5-2.5,0.7-3.8,0.7
			c-1.2,0-2.4-0.2-3.6-0.7c-1-0.4-1.9-1.1-2.7-1.9c-0.8-0.8-1.3-1.8-1.7-2.9c-0.4-1.2-0.6-2.4-0.6-3.6c0-1.2,0.2-2.5,0.6-3.7
			c0.4-1.1,1-2,1.8-2.9c0.8-0.8,1.7-1.4,2.8-1.9c1.1-0.5,2.3-0.7,3.6-0.7c1.2,0,2.3,0.2,3.4,0.6c0.9,0.4,1.8,1,2.6,1.7l-1.1,1.5
			c-0.1,0.1-0.2,0.2-0.2,0.3c-0.1,0.1-0.3,0.1-0.4,0.1c-0.1,0-0.3,0-0.4-0.1l-0.4-0.3l-0.5-0.3c-0.2-0.1-0.5-0.2-0.7-0.3
			c-0.3-0.1-0.6-0.2-0.9-0.3c-0.4-0.1-0.8-0.1-1.2-0.1c-0.7,0-1.5,0.1-2.2,0.4c-0.6,0.3-1.2,0.7-1.7,1.2c-0.5,0.6-0.9,1.3-1.1,2
			c-0.3,0.9-0.4,1.7-0.4,2.6c0,0.9,0.1,1.8,0.4,2.7c0.2,0.7,0.6,1.4,1.1,2c0.5,0.5,1.1,0.9,1.7,1.2c0.7,0.3,1.4,0.4,2.1,0.4
			c0.4,0,0.8,0,1.2-0.1c0.3,0,0.7-0.1,1-0.2c0.3-0.1,0.6-0.2,0.9-0.4c0.3-0.2,0.6-0.4,0.8-0.6c0.1-0.1,0.2-0.1,0.3-0.2
			C183.5,72.9,183.6,72.8,183.7,72.8z"/>
		<path class="st1" d="M204,77h-2.6c-0.3,0-0.5-0.1-0.7-0.2c-0.2-0.1-0.3-0.3-0.4-0.5l-1.3-3.6h-7.4l-1.3,3.6
			c-0.1,0.2-0.2,0.4-0.4,0.5c-0.2,0.2-0.4,0.2-0.7,0.2h-2.6l7-17.7h3.3L204,77z M198.2,70.3l-2.2-5.9c-0.1-0.3-0.2-0.6-0.3-0.9
			s-0.2-0.8-0.3-1.2c-0.1,0.4-0.2,0.8-0.3,1.2s-0.2,0.7-0.3,1l-2.1,5.9L198.2,70.3z"/>
		<path class="st1" d="M217.4,62h-5.4v15h-3.3V62h-5.4v-2.8h14L217.4,62z"/>
		<path class="st1" d="M230.1,62.5c-0.1,0.2-0.2,0.3-0.3,0.4c-0.1,0.1-0.3,0.1-0.4,0.1c-0.2,0-0.4-0.1-0.6-0.2
			c-0.2-0.1-0.4-0.3-0.7-0.4c-0.3-0.2-0.7-0.3-1-0.4c-0.4-0.1-0.9-0.2-1.3-0.2c-0.4,0-0.8,0-1.2,0.2c-0.3,0.1-0.6,0.2-0.9,0.5
			c-0.2,0.2-0.4,0.4-0.5,0.7c-0.1,0.3-0.2,0.6-0.2,0.9c0,0.4,0.1,0.7,0.4,1c0.3,0.3,0.6,0.5,0.9,0.7c0.4,0.2,0.9,0.4,1.3,0.5
			l1.5,0.5c0.5,0.2,1,0.4,1.5,0.6c0.5,0.2,0.9,0.5,1.3,0.9c0.4,0.4,0.7,0.8,0.9,1.3c0.3,0.6,0.4,1.2,0.4,1.9c0,0.8-0.1,1.5-0.4,2.2
			c-0.3,0.7-0.7,1.3-1.2,1.8c-0.6,0.5-1.2,1-1.9,1.2c-0.8,0.3-1.7,0.5-2.6,0.4c-0.6,0-1.1-0.1-1.7-0.2c-0.5-0.1-1.1-0.3-1.6-0.5
			c-0.5-0.2-1-0.5-1.4-0.7c-0.4-0.3-0.8-0.6-1.2-1l1-1.6c0.1-0.1,0.2-0.2,0.3-0.3c0.1-0.1,0.3-0.1,0.4-0.1c0.2,0,0.5,0.1,0.7,0.2
			l0.8,0.6c0.4,0.2,0.8,0.4,1.1,0.6c0.5,0.2,1,0.3,1.6,0.2c0.8,0,1.6-0.2,2.2-0.7c0.5-0.5,0.8-1.2,0.8-1.9c0-0.4-0.1-0.8-0.4-1.1
			c-0.3-0.3-0.6-0.6-0.9-0.8c-0.4-0.2-0.9-0.4-1.3-0.5c-0.5-0.2-1-0.3-1.5-0.5c-0.5-0.2-1-0.4-1.5-0.6c-0.5-0.2-0.9-0.5-1.3-0.9
			c-0.4-0.4-0.7-0.9-0.9-1.4c-0.2-0.6-0.4-1.3-0.4-2c0-0.6,0.1-1.3,0.4-1.9c0.3-0.6,0.6-1.2,1.1-1.6c0.5-0.5,1.1-0.9,1.8-1.1
			c0.8-0.3,1.6-0.4,2.5-0.4c1,0,2,0.2,2.9,0.5c0.9,0.3,1.6,0.8,2.3,1.4L230.1,62.5z"/>
		<path class="st1" d="M243.7,77c-0.1,0.4-0.4,0.6-0.7,0.8c-0.3,0.2-0.6,0.3-0.9,0.3h-1.3l7.2-18.3c0.2-0.7,0.9-1.1,1.6-1.1h1.3
			L243.7,77z"/>
		<path class="st1" d="M271.8,74.3V77h-10.4V59.2h3.3v15L271.8,74.3z"/>
		<path class="st1" d="M290.4,77h-2.5c-0.3,0-0.5-0.1-0.7-0.2c-0.2-0.1-0.3-0.3-0.4-0.5l-1.3-3.6H278l-1.3,3.6
			c-0.1,0.2-0.2,0.4-0.4,0.5c-0.2,0.2-0.4,0.2-0.7,0.2h-2.6l7-17.7h3.4L290.4,77z M284.6,70.3l-2.2-5.9c-0.1-0.3-0.2-0.6-0.3-0.9
			c-0.1-0.4-0.2-0.8-0.3-1.2c-0.1,0.4-0.2,0.8-0.3,1.2c-0.1,0.4-0.2,0.7-0.3,1l-2.1,5.9L284.6,70.3z"/>
		<path class="st1" d="M315.6,59.2L310.1,77h-3l-3.9-12.1c-0.1-0.4-0.2-0.7-0.3-1.1l-0.1,0.6c0,0.2-0.1,0.3-0.2,0.5L298.8,77h-3
			l-5.5-17.7h2.7c0.3,0,0.5,0.1,0.7,0.2c0.2,0.1,0.3,0.3,0.4,0.5l3,10.6c0.1,0.3,0.1,0.6,0.2,0.8s0.1,0.6,0.2,1
			c0.1-0.3,0.1-0.7,0.2-1s0.2-0.6,0.2-0.8l3.5-10.6c0.1-0.2,0.2-0.4,0.4-0.5c0.2-0.2,0.5-0.2,0.7-0.2h1c0.3,0,0.5,0.1,0.7,0.2
			c0.2,0.1,0.3,0.3,0.4,0.5l3.5,10.6c0.2,0.6,0.3,1.2,0.5,1.8c0.1-0.6,0.2-1.2,0.4-1.8l3-10.6c0.1-0.2,0.2-0.4,0.4-0.5
			c0.2-0.2,0.5-0.2,0.7-0.2H315.6z"/>
		<path class="st1" d="M326.4,70.1V77h-3.3v-6.9l-6.5-10.9h2.9c0.2,0,0.5,0.1,0.7,0.2c0.2,0.1,0.3,0.3,0.4,0.5l3.2,5.9
			c0.2,0.3,0.4,0.7,0.5,1c0.1,0.3,0.3,0.6,0.4,0.9c0.1-0.3,0.2-0.6,0.4-0.9c0.1-0.3,0.3-0.6,0.5-1l3.2-5.9c0.1-0.2,0.2-0.4,0.4-0.5
			c0.2-0.2,0.4-0.2,0.7-0.2h2.9L326.4,70.1z"/>
		<path class="st1" d="M339,61.9v4.9h6.2v2.5H339v5h7.9V77h-11.2V59.2h11.2v2.6H339z"/>
		<path class="st1" d="M364.6,77h-3c-0.5,0-1-0.2-1.2-0.7l-3.7-5.7c-0.1-0.2-0.3-0.3-0.5-0.5c-0.2-0.1-0.5-0.1-0.8-0.1h-1.4V77h-3.3
			V59.2h5.4c1,0,2.1,0.1,3.1,0.4c0.8,0.2,1.5,0.6,2.1,1c0.5,0.4,1,1,1.2,1.6c0.5,1.2,0.5,2.5,0.1,3.8c-0.2,0.5-0.4,1-0.8,1.4
			c-0.3,0.4-0.8,0.8-1.2,1.1c-0.5,0.3-1.1,0.6-1.7,0.8c0.2,0.1,0.4,0.3,0.6,0.4c0.2,0.2,0.4,0.4,0.5,0.6L364.6,77z M356.1,67.7
			c0.6,0,1.1-0.1,1.6-0.2c0.4-0.1,0.8-0.4,1.1-0.7c0.3-0.3,0.5-0.6,0.7-1c0.2-0.4,0.2-0.8,0.2-1.2c0-0.8-0.3-1.6-0.9-2.1
			c-0.8-0.5-1.8-0.8-2.7-0.7h-2.1v5.9L356.1,67.7z"/>
		<path class="st1" d="M377,62.5c-0.1,0.1-0.2,0.3-0.3,0.4c-0.1,0.1-0.3,0.1-0.4,0.1c-0.2,0-0.4-0.1-0.6-0.2
			c-0.2-0.1-0.4-0.3-0.7-0.4c-0.3-0.2-0.7-0.3-1-0.4c-0.4-0.1-0.9-0.2-1.3-0.2c-0.4,0-0.8,0-1.2,0.2c-0.3,0.1-0.6,0.2-0.9,0.5
			c-0.2,0.2-0.4,0.4-0.5,0.7c-0.1,0.3-0.2,0.6-0.2,0.9c0,0.4,0.1,0.7,0.4,1c0.3,0.3,0.6,0.5,0.9,0.7c0.4,0.2,0.9,0.4,1.3,0.5
			l1.5,0.5c0.5,0.2,1,0.4,1.5,0.6c0.5,0.2,0.9,0.5,1.3,0.9c0.4,0.4,0.7,0.8,0.9,1.3c0.3,0.6,0.4,1.2,0.4,1.9c0,0.8-0.1,1.5-0.4,2.2
			c-0.3,0.7-0.7,1.3-1.2,1.8c-0.6,0.5-1.2,1-1.9,1.2c-0.8,0.3-1.7,0.5-2.6,0.4c-0.6,0-1.1,0-1.7-0.2c-0.5-0.1-1.1-0.3-1.6-0.5
			c-0.5-0.2-1-0.4-1.4-0.7c-0.4-0.3-0.8-0.6-1.2-1l1-1.6c0.1-0.1,0.2-0.2,0.3-0.3c0.1-0.1,0.3-0.1,0.4-0.1c0.2,0,0.5,0.1,0.7,0.2
			l0.9,0.6c0.4,0.2,0.7,0.4,1.1,0.6c0.5,0.2,1,0.3,1.6,0.2c0.8,0,1.6-0.2,2.2-0.7c0.5-0.5,0.8-1.2,0.8-1.9c0-0.4-0.1-0.8-0.4-1.1
			c-0.2-0.3-0.6-0.6-0.9-0.8c-0.4-0.2-0.9-0.4-1.3-0.5c-0.5-0.2-1-0.3-1.5-0.5c-0.5-0.2-1-0.4-1.5-0.6c-0.5-0.2-0.9-0.5-1.3-0.9
			c-0.4-0.4-0.7-0.9-0.9-1.4c-0.2-0.6-0.4-1.3-0.4-2c0-0.6,0.1-1.3,0.4-1.9c0.3-0.6,0.6-1.2,1.1-1.6c0.5-0.5,1.1-0.9,1.8-1.1
			c0.8-0.3,1.6-0.4,2.5-0.4c1,0,2,0.2,2.9,0.5c0.8,0.3,1.6,0.8,2.2,1.4L377,62.5z"/>
	</g>
</g>
</svg>
