<svg xmlns="http://www.w3.org/2000/svg" xmlns:xlink="http://www.w3.org/1999/xlink" width="328.128" height="110.84" viewBox="0 0 328.128 110.84"><defs><style>.a{fill:#fbb03b;}.b{fill:#212121;}.c{filter:url(#a);}</style><filter id="a" x="0" y="0" width="110.842" height="110.84" filterUnits="userSpaceOnUse"><feOffset dy="3" input="SourceAlpha"/><feGaussianBlur stdDeviation="3.5" result="b"/><feFlood flood-opacity="0.2"/><feComposite operator="in" in2="b"/><feComposite in="SourceGraphic"/></filter></defs><g transform="translate(-1464.891 -962.271)"><g transform="translate(-15.678 -15.678)"><g class="c" transform="matrix(1, 0, 0, 1, 1480.57, 977.95)"><path class="a" d="M1535.989,1075.289a10.859,10.859,0,0,1-7.731-3.2l-33.985-33.984a10.938,10.938,0,0,1,0-15.467l33.984-33.984a10.938,10.938,0,0,1,15.467,0l33.984,33.984a10.934,10.934,0,0,1,0,15.467l-33.984,33.984A10.865,10.865,0,0,1,1535.989,1075.289Z" transform="translate(-1480.57 -977.95)"/></g><g transform="translate(1514.082 1008.462)"><path class="b" d="M1549.86,1022.335a21.912,21.912,0,1,1-3.9-12.473l-18.51,18.51-8.356-8.372-3.564,3.579,11.92,11.92,20.984-20.984A22.008,22.008,0,0,1,1549.86,1022.335Z" transform="translate(-1506.05 -1000.43)"/></g></g><g transform="translate(27)"><path class="b" d="M1581.712,994.867a2.258,2.258,0,0,1-.555.634,1.247,1.247,0,0,1-.748.211,1.836,1.836,0,0,1-.872-.255c-.31-.17-.663-.362-1.056-.573a8.876,8.876,0,0,0-1.346-.572,5.4,5.4,0,0,0-1.726-.255,3.71,3.71,0,0,0-2.49.713,2.425,2.425,0,0,0-.819,1.928,1.776,1.776,0,0,0,.493,1.285,4.24,4.24,0,0,0,1.294.88,13.86,13.86,0,0,0,1.831.678q1.029.307,2.1.686a18.852,18.852,0,0,1,2.1.889,7.02,7.02,0,0,1,1.831,1.3,6.1,6.1,0,0,1,1.294,1.927,6.868,6.868,0,0,1,.492,2.738,8.916,8.916,0,0,1-.616,3.327,7.784,7.784,0,0,1-1.786,2.7,8.323,8.323,0,0,1-2.888,1.813,10.8,10.8,0,0,1-3.9.661,12.523,12.523,0,0,1-2.439-.248,14.4,14.4,0,0,1-2.4-.7,13.979,13.979,0,0,1-2.183-1.064,9.233,9.233,0,0,1-1.777-1.373l1.76-2.782a1.413,1.413,0,0,1,.545-.51,1.552,1.552,0,0,1,.757-.2,2.017,2.017,0,0,1,1.066.335q.535.335,1.215.74a9.82,9.82,0,0,0,1.557.739,5.839,5.839,0,0,0,2.077.335,3.967,3.967,0,0,0,2.518-.713,2.715,2.715,0,0,0,.9-2.263,2.137,2.137,0,0,0-.493-1.461,3.8,3.8,0,0,0-1.294-.932,11.9,11.9,0,0,0-1.821-.652q-1.022-.281-2.1-.625a15.325,15.325,0,0,1-2.095-.845,6.6,6.6,0,0,1-1.822-1.32,6.168,6.168,0,0,1-1.294-2.042,8.1,8.1,0,0,1-.493-3.019,7.152,7.152,0,0,1,.581-2.817,7.285,7.285,0,0,1,1.707-2.447,8.4,8.4,0,0,1,2.765-1.716,10.191,10.191,0,0,1,3.749-.642,14.1,14.1,0,0,1,2.3.184,12.114,12.114,0,0,1,2.121.546,11.59,11.59,0,0,1,1.874.862,8.649,8.649,0,0,1,1.558,1.136Z"/><path class="b" d="M1612.518,1002.471a13.8,13.8,0,0,1-.96,5.176,12.24,12.24,0,0,1-6.9,6.936,15.308,15.308,0,0,1-10.905,0,12.246,12.246,0,0,1-6.927-6.936,14.431,14.431,0,0,1,0-10.351,12.321,12.321,0,0,1,2.711-4.155,12.511,12.511,0,0,1,4.216-2.763,14.343,14.343,0,0,1,5.457-1,14.177,14.177,0,0,1,5.448,1.011,12.575,12.575,0,0,1,4.2,2.773,12.366,12.366,0,0,1,2.7,4.155A13.745,13.745,0,0,1,1612.518,1002.471Zm-6.091,0a11.114,11.114,0,0,0-.493-3.424,7.267,7.267,0,0,0-1.417-2.579,6.13,6.13,0,0,0-2.262-1.619,7.782,7.782,0,0,0-3.046-.563,7.885,7.885,0,0,0-3.071.563,6.1,6.1,0,0,0-2.272,1.619,7.253,7.253,0,0,0-1.417,2.579,12.2,12.2,0,0,0,0,6.866,7.245,7.245,0,0,0,1.417,2.579,6.012,6.012,0,0,0,2.272,1.611,8.017,8.017,0,0,0,3.071.554,7.912,7.912,0,0,0,3.046-.554,6.045,6.045,0,0,0,2.262-1.611,7.258,7.258,0,0,0,1.417-2.579A11.169,11.169,0,0,0,1606.427,1002.471Z"/><path class="b" d="M1630.367,994.867a2.239,2.239,0,0,1-.554.634,1.25,1.25,0,0,1-.749.211,1.833,1.833,0,0,1-.871-.255c-.311-.17-.663-.362-1.056-.573a8.89,8.89,0,0,0-1.347-.572,5.4,5.4,0,0,0-1.725-.255,3.714,3.714,0,0,0-2.491.713,2.424,2.424,0,0,0-.818,1.928,1.776,1.776,0,0,0,.493,1.285,4.234,4.234,0,0,0,1.293.88,13.912,13.912,0,0,0,1.831.678q1.031.307,2.1.686a18.826,18.826,0,0,1,2.1.889,7,7,0,0,1,1.831,1.3,6.082,6.082,0,0,1,1.294,1.927,6.867,6.867,0,0,1,.493,2.738,8.938,8.938,0,0,1-.616,3.327,7.8,7.8,0,0,1-1.787,2.7,8.291,8.291,0,0,1-2.887,1.813,10.8,10.8,0,0,1-3.9.661,12.521,12.521,0,0,1-2.438-.248,14.351,14.351,0,0,1-2.4-.7,14.022,14.022,0,0,1-2.183-1.064,9.3,9.3,0,0,1-1.778-1.373l1.761-2.782a1.416,1.416,0,0,1,.546-.51,1.544,1.544,0,0,1,.757-.2,2.01,2.01,0,0,1,1.064.335q.537.335,1.215.74a9.9,9.9,0,0,0,1.557.739,5.845,5.845,0,0,0,2.078.335,3.96,3.96,0,0,0,2.517-.713,2.716,2.716,0,0,0,.9-2.263,2.137,2.137,0,0,0-.493-1.461,3.8,3.8,0,0,0-1.294-.932,11.869,11.869,0,0,0-1.822-.652q-1.02-.281-2.095-.625a15.413,15.413,0,0,1-2.094-.845,6.629,6.629,0,0,1-1.823-1.32,6.18,6.18,0,0,1-1.293-2.042,8.1,8.1,0,0,1-.493-3.019,7.187,7.187,0,0,1,.58-2.817,7.29,7.29,0,0,1,1.708-2.447,8.4,8.4,0,0,1,2.764-1.716,10.2,10.2,0,0,1,3.75-.642,14.078,14.078,0,0,1,2.3.184,12.11,12.11,0,0,1,2.121.546,11.636,11.636,0,0,1,1.875.862,8.615,8.615,0,0,1,1.558,1.136Z"/><path class="b" d="M1661.982,989.656v4.718h-7.217v20.93h-5.951v-20.93H1641.6v-4.718Z"/><path class="b" d="M1671.665,1015.3h-5.985V989.656h5.985Z"/><path class="b" d="M1694.355,1008.668a1.173,1.173,0,0,1,.423.08,1.134,1.134,0,0,1,.405.272l2.359,2.483a9.794,9.794,0,0,1-3.882,3.053,13.576,13.576,0,0,1-5.518,1.031,13.148,13.148,0,0,1-5.238-1,11.329,11.329,0,0,1-3.925-2.746,12.09,12.09,0,0,1-2.474-4.154,15.369,15.369,0,0,1-.862-5.22,13.747,13.747,0,0,1,.986-5.272,12.288,12.288,0,0,1,2.755-4.146,12.44,12.44,0,0,1,4.233-2.711,14.786,14.786,0,0,1,5.44-.967,13.935,13.935,0,0,1,2.719.254,13.376,13.376,0,0,1,2.386.7,11.193,11.193,0,0,1,2.042,1.074,9.875,9.875,0,0,1,1.654,1.382l-2.006,2.693a2.572,2.572,0,0,1-.458.449,1.191,1.191,0,0,1-.74.2,1.331,1.331,0,0,1-.6-.14,6.587,6.587,0,0,1-.6-.344l-.7-.44a5.3,5.3,0,0,0-.9-.44,7.476,7.476,0,0,0-1.215-.344,8.339,8.339,0,0,0-1.628-.14,7.451,7.451,0,0,0-2.957.572,6.485,6.485,0,0,0-2.3,1.637,7.583,7.583,0,0,0-1.5,2.579,10.089,10.089,0,0,0-.538,3.4,10.526,10.526,0,0,0,.538,3.5,7.666,7.666,0,0,0,1.46,2.579,6.2,6.2,0,0,0,2.157,1.594,6.458,6.458,0,0,0,2.64.545,12.583,12.583,0,0,0,1.479-.079,6.117,6.117,0,0,0,1.241-.273,5.592,5.592,0,0,0,1.092-.5,7.259,7.259,0,0,0,1.047-.765,2.1,2.1,0,0,1,.458-.29A1.2,1.2,0,0,1,1694.355,1008.668Z"/><path class="b" d="M1706.906,1000.043h.951a2.159,2.159,0,0,0,1.9-.829l5.774-8.378a2.473,2.473,0,0,1,1.083-.933,3.951,3.951,0,0,1,1.488-.247h5.174l-7.6,10.369a5.107,5.107,0,0,1-.845.933,5.4,5.4,0,0,1-.9.616,4.292,4.292,0,0,1,2.235,1.831l7.745,11.9H1718.6a4.622,4.622,0,0,1-.872-.07,2.227,2.227,0,0,1-.625-.211,1.776,1.776,0,0,1-.457-.344,3.337,3.337,0,0,1-.371-.466l-5.809-8.925a1.759,1.759,0,0,0-.8-.7,3.491,3.491,0,0,0-1.311-.2h-1.444V1015.3h-5.95V989.656h5.95Z"/><path class="b" d="M1743.311,989.656v4.577h-10.528v5.985h8.063v4.4h-8.063v6.108h10.528v4.577H1726.8V989.656Z"/><path class="b" d="M1766.019,989.656v4.718H1758.8v20.93h-5.95v-20.93h-7.217v-4.718Z"/></g><g transform="translate(27)"><path class="b" d="M1578.421,1039.121h-1.943a.829.829,0,0,1-.533-.164,1,1,0,0,1-.308-.406l-1.009-2.758h-5.6l-1.009,2.758a.889.889,0,0,1-.291.392.805.805,0,0,1-.533.178h-1.963l5.32-13.514h2.559Zm-4.439-5.1-1.645-4.495c-.08-.2-.166-.435-.253-.71s-.173-.57-.26-.888c-.082.318-.166.615-.253.893s-.172.519-.252.724l-1.636,4.476Z"/><path class="b" d="M1591.076,1025.607l-5.459,13.514h-2.271l-5.458-13.514h2.02a.844.844,0,0,1,.533.159.968.968,0,0,1,.308.41l3.187,8.244q.159.4.3.883c.1.32.188.656.276,1.005.075-.349.155-.685.242-1.005a8.306,8.306,0,0,1,.291-.883l3.167-8.244a.887.887,0,0,1,.3-.392.829.829,0,0,1,.538-.177Z"/><path class="b" d="M1605.675,1032.363a7.529,7.529,0,0,1-.49,2.752,6.435,6.435,0,0,1-1.389,2.193,6.291,6.291,0,0,1-2.158,1.444,7.806,7.806,0,0,1-5.6,0,6.355,6.355,0,0,1-2.164-1.444,6.484,6.484,0,0,1-1.4-2.193,7.883,7.883,0,0,1,0-5.5,6.494,6.494,0,0,1,1.4-2.191,6.357,6.357,0,0,1,2.164-1.444,7.28,7.28,0,0,1,2.794-.519,7.637,7.637,0,0,1,1.936.237,6.8,6.8,0,0,1,1.663.674,6.179,6.179,0,0,1,1.36,1.056,6.452,6.452,0,0,1,1.023,1.388,6.835,6.835,0,0,1,.64,1.663A7.952,7.952,0,0,1,1605.675,1032.363Zm-2.57,0a6.188,6.188,0,0,0-.3-1.995,4.315,4.315,0,0,0-.85-1.5,3.66,3.66,0,0,0-1.343-.943,4.991,4.991,0,0,0-3.559,0,3.687,3.687,0,0,0-1.346.943,4.263,4.263,0,0,0-.856,1.5,6.81,6.81,0,0,0,0,3.992,4.2,4.2,0,0,0,.856,1.495,3.7,3.7,0,0,0,1.346.938,4.991,4.991,0,0,0,3.559,0,3.671,3.671,0,0,0,1.343-.938,4.25,4.25,0,0,0,.85-1.495A6.2,6.2,0,0,0,1603.1,1032.363Z"/><path class="b" d="M1617.918,1035.934a.509.509,0,0,1,.366.158l.991,1.075a5.463,5.463,0,0,1-2.023,1.562,6.978,6.978,0,0,1-2.885.542,6.811,6.811,0,0,1-2.706-.514,5.987,5.987,0,0,1-2.052-1.431,6.274,6.274,0,0,1-1.3-2.187,8.186,8.186,0,0,1-.452-2.776,7.779,7.779,0,0,1,.484-2.79,6.451,6.451,0,0,1,1.37-2.182,6.23,6.23,0,0,1,2.108-1.426,7.019,7.019,0,0,1,2.71-.508,6.7,6.7,0,0,1,2.622.485,6.287,6.287,0,0,1,1.948,1.271l-.841,1.17a.807.807,0,0,1-.191.2.549.549,0,0,1-.322.083.607.607,0,0,1-.291-.08,3.469,3.469,0,0,1-.326-.2c-.119-.077-.257-.162-.412-.257a3.519,3.519,0,0,0-.542-.256,4.292,4.292,0,0,0-.715-.2,4.849,4.849,0,0,0-.939-.081,4.2,4.2,0,0,0-1.66.323,3.632,3.632,0,0,0-1.294.936,4.266,4.266,0,0,0-.841,1.494,6.253,6.253,0,0,0-.3,2.014,5.946,5.946,0,0,0,.321,2.029,4.442,4.442,0,0,0,.875,1.495,3.751,3.751,0,0,0,1.3.931,4.04,4.04,0,0,0,1.608.321,6.923,6.923,0,0,0,.93-.056,3.862,3.862,0,0,0,.767-.178,3.382,3.382,0,0,0,.663-.312,4.226,4.226,0,0,0,.622-.472.926.926,0,0,1,.2-.136A.478.478,0,0,1,1617.918,1035.934Z"/><path class="b" d="M1633.331,1039.121h-1.943a.827.827,0,0,1-.533-.164,1,1,0,0,1-.309-.406l-1.009-2.758h-5.6l-1.009,2.758a.886.886,0,0,1-.29.392.806.806,0,0,1-.533.178h-1.963l5.319-13.514h2.56Zm-4.439-5.1-1.645-4.495q-.121-.3-.254-.71c-.087-.274-.172-.57-.26-.888-.082.318-.166.615-.253.893s-.171.519-.251.724l-1.637,4.476Z"/><path class="b" d="M1643.6,1027.671h-4.075v11.45h-2.515v-11.45h-4.075v-2.064H1643.6Z"/><path class="b" d="M1653.294,1028.063a.86.86,0,0,1-.237.286.531.531,0,0,1-.314.089.809.809,0,0,1-.426-.145c-.151-.1-.335-.2-.545-.322a4.534,4.534,0,0,0-.744-.323,3.138,3.138,0,0,0-1.005-.144,2.97,2.97,0,0,0-.916.126,1.9,1.9,0,0,0-.658.35,1.4,1.4,0,0,0-.4.538,1.765,1.765,0,0,0-.13.686,1.194,1.194,0,0,0,.266.8,2.208,2.208,0,0,0,.706.542,6.3,6.3,0,0,0,1,.4c.374.12.756.246,1.15.38a10.8,10.8,0,0,1,1.149.467,3.986,3.986,0,0,1,1,.672,3.022,3.022,0,0,1,.7,1,3.426,3.426,0,0,1,.268,1.429,4.658,4.658,0,0,1-.314,1.715,3.921,3.921,0,0,1-.916,1.392,4.3,4.3,0,0,1-1.471.936,5.432,5.432,0,0,1-1.991.341,6.424,6.424,0,0,1-1.271-.127,6.592,6.592,0,0,1-1.2-.36,6.289,6.289,0,0,1-1.079-.56,5.246,5.246,0,0,1-.9-.729l.738-1.207a.786.786,0,0,1,.244-.219.613.613,0,0,1,.317-.089.886.886,0,0,1,.505.193c.18.126.4.269.645.424a5.1,5.1,0,0,0,.873.426,3.363,3.363,0,0,0,1.2.191,2.47,2.47,0,0,0,1.663-.508,1.834,1.834,0,0,0,.588-1.464,1.349,1.349,0,0,0-.265-.868,2.174,2.174,0,0,0-.706-.567,5.249,5.249,0,0,0-1-.387c-.375-.107-.754-.221-1.141-.346a9.712,9.712,0,0,1-1.139-.449,3.643,3.643,0,0,1-1-.683,3.087,3.087,0,0,1-.706-1.051,3.988,3.988,0,0,1-.266-1.555,3.683,3.683,0,0,1,.294-1.44,3.743,3.743,0,0,1,.854-1.243,4.229,4.229,0,0,1,1.384-.869,5.083,5.083,0,0,1,1.887-.327,6.341,6.341,0,0,1,2.207.373,4.986,4.986,0,0,1,1.72,1.048Z"/><path class="b" d="M1663.629,1039.149a1.215,1.215,0,0,1-.508.644,1.345,1.345,0,0,1-.714.216h-.983l5.459-13.963a1.2,1.2,0,0,1,1.178-.813h.989Z"/><path class="b" d="M1685.053,1037.046v2.075h-7.917v-13.514h2.515v11.439Z"/><path class="b" d="M1699.173,1039.121h-1.943a.827.827,0,0,1-.533-.164,1.006,1.006,0,0,1-.309-.406l-1.009-2.758h-5.6l-1.009,2.758a.886.886,0,0,1-.29.392.805.805,0,0,1-.533.178h-1.963l5.319-13.514h2.56Zm-4.439-5.1-1.645-4.495c-.08-.2-.166-.435-.253-.71s-.173-.57-.261-.888c-.082.318-.165.615-.253.893s-.171.519-.251.724l-1.637,4.476Z"/><path class="b" d="M1718.418,1025.607l-4.2,13.514h-2.271l-2.953-9.234a6.084,6.084,0,0,1-.225-.824c-.037.157-.075.3-.112.441s-.079.265-.121.383l-2.983,9.234h-2.28l-4.187-13.514h2.1a.934.934,0,0,1,.548.153.754.754,0,0,1,.294.416l2.3,8.086q.075.3.146.648c.046.234.094.478.144.735.05-.262.105-.508.164-.74s.123-.444.191-.643l2.654-8.086a.891.891,0,0,1,.294-.392.836.836,0,0,1,.539-.177h.738a.845.845,0,0,1,.533.159.968.968,0,0,1,.308.41l2.645,8.086a11.338,11.338,0,0,1,.355,1.335c.08-.492.171-.938.271-1.335l2.3-8.086a.7.7,0,0,1,.285-.4.887.887,0,0,1,.545-.168Z"/><path class="b" d="M1726.634,1033.887v5.234h-2.505v-5.234l-4.925-8.28h2.214a.78.78,0,0,1,.519.159,1.316,1.316,0,0,1,.322.4l2.467,4.515c.145.267.271.519.38.756s.207.474.294.711c.08-.237.175-.474.28-.711s.228-.489.365-.756l2.459-4.515a1.233,1.233,0,0,1,.308-.383.769.769,0,0,1,.522-.177h2.225Z"/><path class="b" d="M1736.213,1027.607v3.747h4.73v1.934h-4.73v3.824h6v2.009h-8.525v-13.514h8.525v2Z"/><path class="b" d="M1755.738,1039.121h-2.273a1,1,0,0,1-.934-.505l-2.841-4.328a1.013,1.013,0,0,0-.349-.346,1.262,1.262,0,0,0-.567-.1H1747.7v5.28h-2.516v-13.514h4.122a8.658,8.658,0,0,1,2.36.283,4.543,4.543,0,0,1,1.617.8,3.124,3.124,0,0,1,.93,1.228,4.255,4.255,0,0,1,.1,2.865,3.752,3.752,0,0,1-.579,1.1,3.884,3.884,0,0,1-.934.868,4.678,4.678,0,0,1-1.268.59,2.429,2.429,0,0,1,.45.332,2.34,2.34,0,0,1,.374.453Zm-6.469-7.084a3.871,3.871,0,0,0,1.239-.178,2.4,2.4,0,0,0,.87-.491,1.973,1.973,0,0,0,.508-.743,2.57,2.57,0,0,0,.169-.943,1.925,1.925,0,0,0-.677-1.581,3.251,3.251,0,0,0-2.071-.551H1747.7v4.487Z"/><path class="b" d="M1765.149,1028.063a.874.874,0,0,1-.237.286.53.53,0,0,1-.314.089.809.809,0,0,1-.426-.145c-.152-.1-.335-.2-.546-.322a4.524,4.524,0,0,0-.743-.323,3.143,3.143,0,0,0-1.005-.144,2.977,2.977,0,0,0-.917.126,1.9,1.9,0,0,0-.657.35,1.383,1.383,0,0,0-.4.538,1.765,1.765,0,0,0-.13.686,1.193,1.193,0,0,0,.265.8,2.219,2.219,0,0,0,.706.542,6.377,6.377,0,0,0,1,.4c.375.12.756.246,1.15.38a10.827,10.827,0,0,1,1.15.467,3.981,3.981,0,0,1,1,.672,3.036,3.036,0,0,1,.7,1,3.442,3.442,0,0,1,.268,1.429,4.679,4.679,0,0,1-.314,1.715,3.947,3.947,0,0,1-.916,1.392,4.322,4.322,0,0,1-1.471.936,5.432,5.432,0,0,1-1.991.341,6.424,6.424,0,0,1-1.271-.127,6.626,6.626,0,0,1-1.2-.36,6.315,6.315,0,0,1-1.078-.56,5.254,5.254,0,0,1-.9-.729l.738-1.207a.8.8,0,0,1,.245-.219.611.611,0,0,1,.317-.089.884.884,0,0,1,.5.193c.18.126.4.269.646.424a5.067,5.067,0,0,0,.873.426,3.36,3.36,0,0,0,1.2.191,2.472,2.472,0,0,0,1.663-.508,1.834,1.834,0,0,0,.588-1.464,1.344,1.344,0,0,0-.266-.868,2.16,2.16,0,0,0-.7-.567,5.234,5.234,0,0,0-1-.387c-.374-.107-.754-.221-1.14-.346a9.712,9.712,0,0,1-1.139-.449,3.663,3.663,0,0,1-1-.683,3.083,3.083,0,0,1-.7-1.051,3.968,3.968,0,0,1-.266-1.555,3.683,3.683,0,0,1,.294-1.44,3.731,3.731,0,0,1,.854-1.243,4.224,4.224,0,0,1,1.383-.869,5.088,5.088,0,0,1,1.888-.327,6.341,6.341,0,0,1,2.207.373,4.986,4.986,0,0,1,1.72,1.048Z"/></g></g></svg>