<?xml version="1.0" encoding="utf-8"?>
<!-- Generator: Adobe Illustrator 23.0.3, SVG Export Plug-In . SVG Version: 6.00 Build 0)  -->
<svg version="1.1" id="Layer_1" focusable="false" xmlns="http://www.w3.org/2000/svg" xmlns:xlink="http://www.w3.org/1999/xlink"
	 x="0px" y="0px" viewBox="0 0 512 512" style="enable-background:new 0 0 512 512;" xml:space="preserve">
<style type="text/css">
	.st0{fill:#3462AA;}
</style>
<path class="st0" d="M500,192h-52.2l-31.4-77.9C404.2,83.8,374.9,64,342.2,64H169.8c-32.6,0-62,19.8-74.2,50.1L64.2,192H12
	c-7.8,0-13.5,7.3-11.6,14.9l6,24c1.3,5.3,6.1,9.1,11.6,9.1h11.3C21,254.2,16,270.4,16,288v136c0,13.2,10.8,24,24,24h16
	c13.2,0,24-10.8,24-24v-24h352v24c0,13.2,10.8,24,24,24h16c13.2,0,24-10.8,24-24V288c0-17.6-5-33.8-13.3-48H494
	c5.5,0,10.3-3.8,11.6-9.1l6-24C513.5,199.3,507.8,192,500,192L500,192z M140.1,132.1c4.9-12.2,16.5-20.1,29.7-20.1h172.4
	c13.1,0,24.8,7.9,29.7,20.1L396,192H116L140.1,132.1z M448,336c0,8.8-7.2,16-16,16H80c-8.8,0-16-7.2-16-16v-48c0-26.5,21.5-48,48-48
	h288c26.5,0,48,21.5,48,48V336z M128,264c-19.2,0-32,12.8-32,31.9s12.8,31.9,32,31.9s48,3.2,48-16C176,292.7,147.2,264,128,264z
	 M384,264c-19.2,0-48,28.7-48,47.9c0,19.1,28.8,16,48,16s32-12.8,32-31.9C416,276.8,403.2,264,384,264L384,264z"/>
</svg>
