<?xml version="1.0" encoding="utf-8"?>
<!-- Generator: Adobe Illustrator 23.0.3, SVG Export Plug-In . SVG Version: 6.00 Build 0)  -->
<svg version="1.1" id="Layer_1" focusable="false" xmlns="http://www.w3.org/2000/svg" xmlns:xlink="http://www.w3.org/1999/xlink"
	 x="0px" y="0px" viewBox="0 0 640 512" style="enable-background:new 0 0 640 512;" xml:space="preserve">
<style type="text/css">
	.st0{fill:#3462AA;}
</style>
<path class="st0" d="M136.9,123.1c7.2-5.4,11.8-13.5,12.7-22.5l2.2-21.9L163.9,97c5,7.5,12.9,12.5,21.8,13.9c9,1.3,17.9-1.2,25-6.9
	l52.2-42.9c10.2-8.4,11.7-23.5,3.3-33.8c-8.5-10.2-23.6-11.7-33.8-3.3L194,55.6l-27.5-41.3C159.1,3,145.3-2.3,132.2,1
	c-13.1,3.3-22.7,14.5-23.9,27.8l-4.8,49.4l-48.7-9.8c-13.1-2.6-26.7,3.3-33.6,14.8c-6.9,11.5-5.8,26.2,2.7,36.6l31.5,38.3
	l-41.3,27.5c-11.3,7.6-16.5,21-13.2,34.2c3.3,13.2,14.2,22.6,27.8,24l49.4,4.8l-9.8,48.7c-2.6,13,5.8,25.6,18.8,28.3
	c1.6,0.3,3.2,0.5,4.8,0.5c11.2,0,21.2-7.9,23.5-19.3l13.3-66.3c1.8-8.8-0.3-18-5.6-25.2c-5.3-7.2-13.5-11.8-22.5-12.7l-21.9-2.1
	L97,188.2c7.5-4.9,12.6-12.9,13.9-21.8c1.3-8.9-1.2-18-6.9-25l-14-17l21.6,4.4C120.3,130.5,129.6,128.4,136.9,123.1L136.9,123.1z
	 M534.8,310.7c-18.5-5-53.8,15.3-58.8,33.8s23.7,22.9,42.2,27.8c18.5,5,34.2-4,39.2-22.5S553.3,315.6,534.8,310.7L534.8,310.7z
	 M617.2,276.1l-12.4-101.8c-3.9-32.4-27.2-59.2-58.7-67.6L379.6,62.1c-31.5-8.5-65,3.1-84.6,29.2l-61.6,82
	c-28.5,10.3-51.8,33.8-60.2,65.4L137.9,370c-3.4,12.8,4.2,26,17,29.4l15.4,4.1c12.8,3.4,26-4.2,29.4-17l6.2-23.2l340,91.1l-6.2,23.2
	c-3.4,12.8,4.2,26,17,29.4l15.5,4.1c12.8,3.4,26-4.2,29.4-17l26.9-100.5l8.3-30.9C645.2,331.3,636.8,299.3,617.2,276.1L617.2,276.1z
	 M333.3,120.1c7.9-10.5,21.2-15.1,33.9-11.7l166.6,44.6c12.7,3.4,21.9,14,23.5,27l7.8,64.1l-270.5-72.5L333.3,120.1L333.3,120.1z
	 M590.4,350.4l-12.4,46.4c-2.3,8.5-11.1,13.6-19.6,11.3l-340-91.1c-8.5-2.3-13.6-11.1-11.3-19.6l12.4-46.4
	c6.9-25.6,33.2-40.8,58.8-33.9l278.2,74.5C582,298.5,597.2,324.9,590.4,350.4L590.4,350.4z M287.5,244.4c-18.5-5-34.2,4.1-39.2,22.5
	s4.1,34.1,22.7,39.1c18.5,5,45.5,15.5,50.5-3C326.4,284.6,306,249.4,287.5,244.4L287.5,244.4z"/>
</svg>
