<?xml version="1.0" encoding="utf-8"?>
<!-- Generator: Adobe Illustrator 23.0.3, SVG Export Plug-In . SVG Version: 6.00 Build 0)  -->
<svg version="1.1" id="Layer_1" focusable="false" xmlns="http://www.w3.org/2000/svg" xmlns:xlink="http://www.w3.org/1999/xlink"
	 x="0px" y="0px" viewBox="0 0 512 512" style="enable-background:new 0 0 512 512;" xml:space="preserve">
<style type="text/css">
	.st0{fill:#3462AA;}
</style>
<path class="st0" d="M168,296h-16c-8.8,0-16,7.2-16,16v16c0,8.8,7.2,16,16,16h16c8.8,0,16-7.2,16-16v-16
	C184,303.2,176.8,296,168,296z M136,248c0-8.8-7.2-16-16-16h-16c-8.8,0-16,7.2-16,16v16c0,8.8,7.2,16,16,16h16c8.8,0,16-7.2,16-16
	V248z M232,248c0-8.8-7.2-16-16-16h-16c-8.8,0-16,7.2-16,16v16c0,8.8,7.2,16,16,16h16c8.8,0,16-7.2,16-16V248z M360,296h-16
	c-8.8,0-16,7.2-16,16v16c0,8.8,7.2,16,16,16h16c8.8,0,16-7.2,16-16v-16C376,303.2,368.8,296,360,296z M408,232h-16
	c-8.8,0-16,7.2-16,16v16c0,8.8,7.2,16,16,16h16c8.8,0,16-7.2,16-16v-16C424,239.2,416.8,232,408,232z M511.4,379.5l-25.5-178.3
	c-3.4-23.6-23.6-41.2-47.5-41.2H208v-32h96c8.8,0,16-7.2,16-16V16c0-8.8-7.2-16-16-16H48c-8.8,0-16,7.2-16,16v96c0,8.8,7.2,16,16,16
	h96v32H73.6c-23.9,0-44.1,17.6-47.5,41.2L0.6,379.5c-0.4,3-0.6,6-0.6,9.1V464c0,26.5,21.5,48,48,48h416c26.5,0,48-21.5,48-48v-75.5
	C512,385.5,511.8,382.5,511.4,379.5z M80,80V48h192v32H80z M73.6,208h364.7l22.9,160H50.8L73.6,208z M464,464H48v-48h416V464z
	 M328,248c0-8.8-7.2-16-16-16h-16c-8.8,0-16,7.2-16,16v16c0,8.8,7.2,16,16,16h16c8.8,0,16-7.2,16-16V248z M264,296h-16
	c-8.8,0-16,7.2-16,16v16c0,8.8,7.2,16,16,16h16c8.8,0,16-7.2,16-16v-16C280,303.2,272.8,296,264,296z"/>
</svg>
