<svg xmlns="http://www.w3.org/2000/svg" xmlns:xlink="http://www.w3.org/1999/xlink" id="Layer_1" x="0" y="0" focusable="false" version="1.1" viewBox="0 0 512 512" xml:space="preserve" style="enable-background:new 0 0 512 512"><style type="text/css">.st0{fill:#3462aa}</style><path d="M255.7,290.9c-0.6-0.3-10.1-5.1-24.8-9.2c25-33.2,33.1-67.1,33.5-68.8c1.3-5.5-0.3-11.3-4.3-15.3	c-3.1-3.2-7.4-5-11.8-5c-1.1,0-2.3,0.1-3.4,0.4c-1.7,0.4-34.3,7.4-67.6,28.9c-4.4-50.6-29.9-89.2-31.1-90.9	c-3.1-4.6-8.2-7.3-13.8-7.3c-5.5,0-10.7,2.8-13.7,7.3c-1.2,1.8-26.7,40.3-31.1,90.9c-33.3-21.5-65.9-28.6-67.6-28.9	c-1.1-0.2-2.3-0.4-3.4-0.4c-4.4,0-8.7,1.8-11.8,5c-4,4-5.6,9.8-4.3,15.3c0.4,1.7,8.5,35.6,33.5,68.8c-14.7,4.2-24.2,8.9-24.8,9.2	c-5.6,2.8-9.1,8.5-9.1,14.8c0,6.2,3.5,12,9.1,14.8c1.2,0.6,28.1,14.1,62.6,15.5c-1.5,3.5-2.2,5.7-2.3,6c-2.9,8.7,1.8,18,10.5,20.9	c1.7,0.6,3.4,0.8,5.2,0.8c1.6,0,3.2-0.2,4.7-0.7c0.9-0.3,16.3-4.9,34.3-15.9v37.3c0,2.3,1.9,4.1,4.1,4.1h8.3c2.3,0,4.1-1.9,4.1-4.1	V347c18.1,10.9,33.5,15.6,34.3,15.9c1.6,0.5,3.1,0.7,4.7,0.7c4.4,0,8.7-1.8,11.9-5c4.3-4.4,5.8-10.9,3.8-16.7	c-0.1-0.2-0.8-2.4-2.3-6c34.4-1.4,61.4-14.9,62.6-15.5c5.6-2.8,9.1-8.5,9.1-14.8C264.8,299.4,261.3,293.7,255.7,290.9L255.7,290.9z M187.4,319.4c-9,0-16.1-0.5-22-1.3c-0.1,0.1-0.2,0.1-0.3,0.1c10.2,15.5,14.6,28.7,14.6,28.7s-24.9-7.4-47.3-26.1	C109.9,339.6,85.1,347,85.1,347s4.4-13.2,14.6-28.7c-0.1-0.1-0.2-0.1-0.3-0.1c-5.8,0.8-13,1.3-22,1.3c-33.6,0-60.8-13.8-60.8-13.8	s21.2-10.7,49.2-13.2c-0.4-0.4-0.8-0.7-1.3-1.1c-37.1-35.3-47.9-82.2-47.9-82.2s49.2,10.4,86.3,45.7c0.5,0.5,0.8,0.8,1.3,1.3	c-0.4-5.8-0.7-12.2-0.7-19.4c0-53.3,29-96.5,29-96.5s29,43.2,29,96.5c0,7.1-0.2,13.5-0.7,19.4c0.5-0.5,0.8-0.8,1.3-1.3	c37.1-35.3,86.3-45.7,86.3-45.7s-10.9,46.9-47.9,82.2c-0.4,0.4-0.8,0.7-1.3,1.1c28,2.5,49.2,13.2,49.2,13.2S221,319.4,187.4,319.4z" class="st0"/><path d="M358.9,202.2v107.6c0,6.9-5.6,12.4-12.4,12.4c-6.9,0-12.4-5.6-12.4-12.4V202.2c0-6.9,5.6-12.4,12.4-12.4	C353.4,189.8,358.9,195.4,358.9,202.2z M396.2,189.8c-6.9,0-12.4,5.6-12.4,12.4v107.6c0,6.9,5.6,12.4,12.4,12.4s12.4-5.6,12.4-12.4	V202.2C408.6,195.4,403,189.8,396.2,189.8z M512,210.5v75.1c0,14.5-8.5,27.7-21.6,33.8l-28,12.9V347c0,13.7-11.1,24.8-24.8,24.8	H305.1c-13.7,0-24.8-11.1-24.8-24.8V165c0-13.7,11.1-24.8,24.8-24.8h132.4c13.7,0,24.8,11.1,24.8,24.8v8.3h12.4	C495.3,173.3,512,190,512,210.5z M434.4,165H308.2c-1.7,0-3.1,1.4-3.1,3.1v175.8c0,1.7,1.4,3.1,3.1,3.1c0,0,0,0,0,0h126.2	c1.7,0,3.1-1.4,3.1-3.1V168.1C437.5,166.4,436.1,165,434.4,165z M487.2,210.5c0-6.8-5.6-12.4-12.4-12.4h-12.4v107l17.6-8.1	c4.4-2,7.2-6.4,7.2-11.3V210.5L487.2,210.5z" class="st0"/></svg>