<svg xmlns="http://www.w3.org/2000/svg" xmlns:xlink="http://www.w3.org/1999/xlink" id="Layer_1" x="0" y="0" focusable="false" version="1.1" viewBox="0 0 512 512" xml:space="preserve" style="enable-background:new 0 0 512 512"><style type="text/css">.st0{fill:#3462aa}</style><path d="M498,176.6l-23.2-23.2c-13.6-13.6-33.4-17.3-50.4-11.1l-54.6-54.6c6.2-17,2.5-36.8-11.1-50.4l-23.2-23.2	c-18.8-18.8-49.1-18.8-67.9,0L163.9,117.7c-18.7,18.7-18.7,49.2,0,67.9l23.2,23.2c13.6,13.6,33.4,17.3,50.4,11.1l10.3,10.3	l-56.5,56.5c-22-22-51.9-19.2-69.5-1.6L14.1,392.9c-18.8,18.8-18.8,49.1,0,67.9L51.2,498c18.7,18.7,49.2,18.7,67.9,0l107.8-107.8	c17.4-17.4,20.7-47.2-1.6-69.5l56.5-56.5l10.3,10.3c-6.2,17-2.5,36.8,11.1,50.4l25.4,25.4c17.5,17.5,45.9,17.5,63.4,0L498,244.5	C516.7,225.8,516.7,195.3,498,176.6z M85.2,464L85.2,464L48,426.8l107.8-107.8l37.2,37.2L85.2,464z M360.4,314.2L337.2,291	l14.8-14.8L235.8,160L221,174.8l-23.2-23.2L301.5,48l23.2,23.2L307.8,88L424,204.2l16.8-16.8l23.2,23.2L360.4,314.2L360.4,314.2z" class="st0"/></svg>