<svg xmlns="http://www.w3.org/2000/svg" xmlns:xlink="http://www.w3.org/1999/xlink" id="Layer_1" x="0" y="0" focusable="false" version="1.1" viewBox="0 0 512 256" xml:space="preserve" style="enable-background:new 0 0 512 256"><style type="text/css">.st0{fill:#3462aa}</style><path d="M464,160H48c-8.8,0-16,7.2-16,16v16c0,8.8,7.2,16,16,16h416c8.8,0,16-7.2,16-16v-16	C480,167.2,472.8,160,464,160z M464,48H48c-8.8,0-16,7.2-16,16v16c0,8.8,7.2,16,16,16h416c8.8,0,16-7.2,16-16V64	C480,55.2,472.8,48,464,48z" class="st0"/></svg>