<?xml version="1.0" encoding="utf-8"?>
<!-- Generator: Adobe Illustrator 23.0.3, SVG Export Plug-In . SVG Version: 6.00 Build 0)  -->
<svg version="1.1" id="Layer_1" focusable="false" xmlns="http://www.w3.org/2000/svg" xmlns:xlink="http://www.w3.org/1999/xlink"
	 x="0px" y="0px" viewBox="0 0 256 512" style="enable-background:new 0 0 256 512;" xml:space="preserve">
<style type="text/css">
	.st0{fill:#3462AA;}
</style>
<path class="st0" d="M96,464V48c0-8.8-7.2-16-16-16H64c-8.8,0-16,7.2-16,16v416c0,8.8,7.2,16,16,16h16C88.8,480,96,472.8,96,464z
	 M208,464V48c0-8.8-7.2-16-16-16h-16c-8.8,0-16,7.2-16,16v416c0,8.8,7.2,16,16,16h16C200.8,480,208,472.8,208,464z"/>
</svg>
