<?xml version="1.0" encoding="utf-8"?>
<!-- Generator: Adobe Illustrator 23.0.3, SVG Export Plug-In . SVG Version: 6.00 Build 0)  -->
<svg version="1.1" id="Layer_1" focusable="false" xmlns="http://www.w3.org/2000/svg" xmlns:xlink="http://www.w3.org/1999/xlink"
	 x="0px" y="0px" viewBox="0 0 512 256" style="enable-background:new 0 0 512 256;" xml:space="preserve">
<style type="text/css">
	.st0{fill:#3462AA;}
</style>
<path class="st0" d="M464,160H48c-8.8,0-16,7.2-16,16v16c0,8.8,7.2,16,16,16h416c8.8,0,16-7.2,16-16v-16
	C480,167.2,472.8,160,464,160z M464,48H48c-8.8,0-16,7.2-16,16v16c0,8.8,7.2,16,16,16h416c8.8,0,16-7.2,16-16V64
	C480,55.2,472.8,48,464,48z"/>
</svg>
