<?xml version="1.0" encoding="utf-8"?>
<!-- Generator: Adobe Illustrator 23.0.3, SVG Export Plug-In . SVG Version: 6.00 Build 0)  -->
<svg version="1.1" id="Layer_1" focusable="false" xmlns="http://www.w3.org/2000/svg" xmlns:xlink="http://www.w3.org/1999/xlink"
	 x="0px" y="0px" viewBox="0 0 320 512" style="enable-background:new 0 0 320 512;" xml:space="preserve">
<style type="text/css">
	.st0{fill:#3462AA;}
</style>
<path class="st0" d="M228,368H92c-6.6,0-12-5.4-12-12V92c0-6.6,5.4-12,12-12h136c6.6,0,12,5.4,12,12v264
	C240,362.6,234.6,368,228,368z M320,48v416c0,26.5-21.5,48-48,48H48c-26.5,0-48-21.5-48-48V48C0,21.5,21.5,0,48,0h224
	C298.5,0,320,21.5,320,48z M272,458V54c0-3.3-2.7-6-6-6H54c-3.3,0-6,2.7-6,6v404c0,3.3,2.7,6,6,6h212C269.3,464,272,461.3,272,458z
	 M208,420v-8c0-6.6-5.4-12-12-12h-72c-6.6,0-12,5.4-12,12v8c0,6.6,5.4,12,12,12h72C202.6,432,208,426.6,208,420z"/>
</svg>
