<svg xmlns="http://www.w3.org/2000/svg" viewBox="0 0 117.55 117.56"><defs><style>.cls-1{fill:#3462aa}.cls-2{fill:none;stroke:#3462aa;stroke-miterlimit:10;stroke-width:10px}</style></defs><title>stop-sign</title><g id="Layer_2" data-name="Layer 2"><g id="round_2" data-name="round 2"><g id="Group_8" data-name="Group 8"><g id="Group_7" data-name="Group 7"><path id="Path_27" d="M36.15,69.05h-3a1.39,1.39,0,0,1-.83-.24,1.45,1.45,0,0,1-.47-.62l-1.28-3.62H23l-1.28,3.62a1.48,1.48,0,0,1-.46.59,1.21,1.21,0,0,1-.82.27H17.34l7.4-18.95h4Zm-6.59-7.2-2-5.8c-.12-.3-.25-.66-.38-1.07s-.26-.85-.39-1.33c-.12.49-.25.94-.38,1.35s-.26.77-.39,1.08l-2,5.77Z" class="cls-1" data-name="Path 27"/><path id="Path_28" d="M53,69.05H49.47A1.53,1.53,0,0,1,48,68.29l-3.6-5.81a1.26,1.26,0,0,0-1.28-.65H41.82v7.22H37.89V50.1h6a12.11,12.11,0,0,1,3.39.41,6.53,6.53,0,0,1,2.32,1.14,4.28,4.28,0,0,1,1.31,1.75,6,6,0,0,1,.15,4,5.17,5.17,0,0,1-.77,1.54A5.66,5.66,0,0,1,49,60.17a6.33,6.33,0,0,1-1.7.86,3.55,3.55,0,0,1,.7.5,3,3,0,0,1,.59.7Zm-9.17-10a4.83,4.83,0,0,0,1.64-.24,3.19,3.19,0,0,0,1.14-.66,2.66,2.66,0,0,0,.65-1,3.87,3.87,0,0,0,.21-1.26,2.58,2.58,0,0,0-.9-2.09,4.22,4.22,0,0,0-2.72-.74h-2v6Z" class="cls-1" data-name="Path 28"/><path id="Path_29" d="M70,69.05H66.43A1.54,1.54,0,0,1,65,68.29l-3.6-5.81a1.56,1.56,0,0,0-.49-.5,1.53,1.53,0,0,0-.79-.15H58.78v7.22H54.86V50.1h6a12.11,12.11,0,0,1,3.39.41,6.41,6.41,0,0,1,2.31,1.14,4.31,4.31,0,0,1,1.32,1.75,5.62,5.62,0,0,1,.42,2.22A5.91,5.91,0,0,1,68,57.4a5.17,5.17,0,0,1-.77,1.54A5.66,5.66,0,0,1,66,60.17a6.33,6.33,0,0,1-1.7.86,3.87,3.87,0,0,1,.7.5,3.27,3.27,0,0,1,.59.7Zm-9.18-10a4.8,4.8,0,0,0,1.64-.24,3.19,3.19,0,0,0,1.14-.66,2.66,2.66,0,0,0,.65-1,3.87,3.87,0,0,0,.21-1.26,2.58,2.58,0,0,0-.9-2.09,4.22,4.22,0,0,0-2.72-.74h-2v6Z" class="cls-1" data-name="Path 29"/><path id="Path_30" d="M75.76,53.17V58h6.32v3H75.76v5h8.13v3.07H71.82V50.1H83.89v3.07Zm7.16-4.36H80.31a1.82,1.82,0,0,1-.52-.08,1.25,1.25,0,0,1-.63-.46l-.89-1.22a.91.91,0,0,1-.11-.16l-.1-.16c0,.06-.07.1-.1.16a.91.91,0,0,1-.11.16L77,48.27a1.25,1.25,0,0,1-.63.46,1.81,1.81,0,0,1-.51.08h-2.5l3.16-3.6h3.27Z" class="cls-1" data-name="Path 30"/><path id="Path_31" d="M100.22,53.26H94.69V69.05H90.76V53.26H85.21V50.1h15Z" class="cls-1" data-name="Path 31"/></g><path id="Path_32" d="M81.05,5H36.5L5,36.5V81.06l31.5,31.5H81.05l31.5-31.5V36.51Z" class="cls-2" data-name="Path 32"/></g></g></g></svg>