<?xml version="1.0" encoding="utf-8"?>
<!-- Generator: Adobe Illustrator 23.0.3, SVG Export Plug-In . SVG Version: 6.00 Build 0)  -->
<svg version="1.1" id="Layer_1" focusable="false" xmlns="http://www.w3.org/2000/svg" xmlns:xlink="http://www.w3.org/1999/xlink"
	 x="0px" y="0px" viewBox="0 0 576 512" style="enable-background:new 0 0 576 512;" xml:space="preserve">
<style type="text/css">
	.st0{fill:#3462AA;}
</style>
<path class="st0" d="M288,32C128.9,32,0,160.9,0,320c0,52.8,14.2,102.3,39.1,144.8c5.6,9.6,16.3,15.2,27.4,15.2h443
	c11.1,0,21.8-5.6,27.4-15.2c24.8-42.5,39.1-92,39.1-144.8C576,160.9,447.1,32,288,32z M500.3,432H75.7C57.6,397.6,48,359.1,48,320
	C48,187.7,155.7,80,288,80s240,107.7,240,240C528,359.1,518.4,397.6,500.3,432L500.3,432z M359.6,137.2
	c-12.7-4.2-26.2,2.6-30.4,15.2l-45.3,136c-33.4,2.2-59.9,29.7-59.9,63.6c0,11.7,3.4,22.5,8.9,32h110.2c5.5-9.5,8.9-20.3,8.9-32
	c0-19.5-8.9-36.7-22.5-48.4l45.3-136C379,155,372.2,141.4,359.6,137.2L359.6,137.2z"/>
</svg>
