<?xml version="1.0" encoding="utf-8"?>
<!-- Generator: Adobe Illustrator 23.0.3, SVG Export Plug-In . SVG Version: 6.00 Build 0)  -->
<svg version="1.1" id="Layer_1" focusable="false" xmlns="http://www.w3.org/2000/svg" xmlns:xlink="http://www.w3.org/1999/xlink"
	 x="0px" y="0px" viewBox="0 0 512 512" style="enable-background:new 0 0 512 512;" xml:space="preserve">
<style type="text/css">
	.st0{fill:#3462AA;}
</style>
<path class="st0" d="M112,280c-17.7,0-32,14.3-32,32s14.3,32,32,32s32-14.3,32-32S129.7,280,112,280z M400,280
	c-17.7,0-32,14.3-32,32s14.3,32,32,32s32-14.3,32-32S417.7,280,400,280z M328,304H184c-4.4,0-8,3.6-8,8v16c0,4.4,3.6,8,8,8h144
	c4.4,0,8-3.6,8-8v-16C336,307.6,332.4,304,328,304z M454.1,216l-15-77.7c-6.6-33.8-36.3-58.3-70.7-58.3H352V64c0-17.7-14.3-32-32-32
	H192c-17.7,0-32,14.3-32,32v16h-16.4c-34.4,0-64.1,24.5-70.7,58.3l-15,77.7C23.8,230.7,0,264.5,0,304v48c0,23.6,12.9,44,32,55.1V456
	c0,13.2,10.8,24,24,24h32c13.2,0,24-10.8,24-24v-40h288v40c0,13.2,10.8,24,24,24h32c13.2,0,24-10.8,24-24v-48.9
	c19-11.1,32-31.5,32-55.1v-48C512,264.5,488.2,230.7,454.1,216z M120,147.4c2.2-11.3,12.1-19.4,23.6-19.4h224.9
	c11.5,0,21.4,8.2,23.6,19.4l11.7,60.6H108.3L120,147.4z M464,352c0,8.8-7.2,16-16,16H64c-8.8,0-16-7.2-16-16v-48
	c0-26.5,21.5-48,48-48h320c26.5,0,48,21.5,48,48V352z"/>
</svg>
