<?xml version="1.0" encoding="utf-8"?>
<!-- Generator: Adobe Illustrator 23.0.3, SVG Export Plug-In . SVG Version: 6.00 Build 0)  -->
<svg version="1.1" id="Layer_1" focusable="false" xmlns="http://www.w3.org/2000/svg" xmlns:xlink="http://www.w3.org/1999/xlink"
	 x="0px" y="0px" viewBox="0 0 416 512" style="enable-background:new 0 0 416 512;" xml:space="preserve">
<style type="text/css">
	.st0{fill:#3462AA;}
</style>
<path class="st0" d="M416,64V48h-80V28.4C336,12.7,323.3,0,307.5,0H108.4C92.7,0,80,12.7,80,28.4V48H0v16c0,50.6,33.9,92.8,80,106.6
	v5.4H0v16c0,50.6,33.9,92.8,80,106.6v5.4H0v16c0,53.5,38.1,97.5,88.4,108.4C106.5,477.1,153,512,208,512s101.5-34.9,119.6-83.6
	C377.9,417.5,416,373.5,416,320v-16h-80v-5.4c46.1-13.8,80-56,80-106.6v-16h-80v-5.4C382.1,156.8,416,114.6,416,64z M336,80h46.4
	c-5.2,25.6-23,46.2-46.4,56.6V80z M33.6,80H80v56.6C56.6,126.2,38.8,105.6,33.6,80z M33.6,208H80v56.6
	C56.6,254.2,38.8,233.6,33.6,208z M33.6,336H80v48c0,3,0.7,5.9,0.9,8.9C57.1,382.7,38.9,361.9,33.6,336z M304,384
	c0,52.9-43.1,96-96,96s-96-43.1-96-96V32h192V384z M382.4,336c-5.3,25.9-23.5,46.7-47.3,56.9c0.2-3,0.9-5.8,0.9-8.9v-48H382.4z
	 M382.4,208c-5.2,25.6-23,46.2-46.4,56.6V208H382.4z M208,184c30.9,0,56-25.1,56-56s-25.1-56-56-56s-56,25.1-56,56
	S177.1,184,208,184z M208,312c30.9,0,56-25.1,56-56s-25.1-56-56-56s-56,25.1-56,56S177.1,312,208,312z M208,224
	c17.6,0,32,14.4,32,32s-14.4,32-32,32s-32-14.4-32-32S190.4,224,208,224z M208,440c30.9,0,56-25.1,56-56s-25.1-56-56-56
	s-56,25.1-56,56S177.1,440,208,440z M208,352c17.6,0,32,14.4,32,32s-14.4,32-32,32s-32-14.4-32-32S190.4,352,208,352z"/>
</svg>
