<?xml version="1.0" encoding="utf-8"?>
<!-- Generator: Adobe Illustrator 23.0.3, SVG Export Plug-In . SVG Version: 6.00 Build 0)  -->
<svg version="1.1" id="Layer_1" focusable="false" xmlns="http://www.w3.org/2000/svg" xmlns:xlink="http://www.w3.org/1999/xlink"
	 x="0px" y="0px" viewBox="0 0 640 512" style="enable-background:new 0 0 640 512;" xml:space="preserve">
<style type="text/css">
	.st0{fill:#3462AA;}
</style>
<path class="st0" d="M621.3,205.3l-58.5-58.5c-12-12-28.3-18.7-45.3-18.7H480V64c0-17.7-14.3-32-32-32H32C14.3,32,0,46.3,0,64v336
	c0,44.2,35.8,80,80,80c26.3,0,49.4-12.9,64-32.4c14.6,19.6,37.7,32.4,64,32.4c44.2,0,80-35.8,80-80c0-5.5-0.6-10.8-1.6-16h163.2
	c-1.1,5.2-1.6,10.5-1.6,16c0,44.2,35.8,80,80,80s80-35.8,80-80c0-5.5-0.6-10.8-1.6-16H624c8.8,0,16-7.2,16-16V250.5
	C640,233.5,633.3,217.3,621.3,205.3z M80,432c-17.6,0-32-14.4-32-32s14.4-32,32-32s32,14.4,32,32S97.6,432,80,432z M208,432
	c-17.6,0-32-14.4-32-32s14.4-32,32-32s32,14.4,32,32S225.6,432,208,432z M255.6,336c-13.3-9.9-29.7-16-47.6-16s-34.2,6.1-47.6,16
	h-32.9c-13.3-9.9-29.7-16-47.6-16c-11.4,0-22.2,2.5-32,6.8V80h384v256H255.6z M480,176h37.5c4.3,0,8.3,1.7,11.3,4.7l43.3,43.3H480
	V176z M528,432c-17.6,0-32-14.4-32-32s14.4-32,32-32c17.6,0,32,14.4,32,32S545.6,432,528,432z M592,336h-16.4
	c-13.4-9.9-29.7-16-47.6-16s-34.2,6.1-47.6,16H480v-80h112V336z"/>
</svg>
