<svg xmlns="http://www.w3.org/2000/svg" xmlns:xlink="http://www.w3.org/1999/xlink" id="Layer_1" x="0" y="0" focusable="false" version="1.1" viewBox="0 0 512 512" xml:space="preserve" style="enable-background:new 0 0 512 512"><style type="text/css">.st0{fill:#3462aa}</style><path d="M384,336c-40.6,0-47.6-1.5-72.2,6.8c-17.5,5.9-36.3,9.2-55.8,9.2s-38.3-3.3-55.8-9.2	c-24.6-8.3-31.5-6.8-72.2-6.8C57.3,336,0,393.3,0,464v16c0,17.7,14.3,32,32,32h448c17.7,0,32-14.3,32-32v-16	C512,393.3,454.7,336,384,336z M464,464H48c0-21.4,8.3-41.5,23.4-56.6S106.6,384,128,384c41.1,0,41-1.1,56.8,4.2	c23,7.8,47,11.8,71.2,11.8s48.2-4,71.2-11.8c15.8-5.4,15.7-4.2,56.8-4.2C428.1,384,464,419.9,464,464z M256,320	c88.4,0,160-71.6,160-160S344.4,0,256,0S96,71.6,96,160S167.6,320,256,320z M256,48c61.8,0,112,50.2,112,112s-50.2,112-112,112	s-112-50.2-112-112S194.2,48,256,48z" class="st0"/></svg>