<?xml version="1.0" encoding="UTF-8"?>
<svg width="220px" height="48px" viewBox="0 0 220 48" version="1.1" xmlns="http://www.w3.org/2000/svg" xmlns:xlink="http://www.w3.org/1999/xlink">
    <!-- Generator: Sketch 49.3 (51167) - http://www.bohemiancoding.com/sketch -->
    <title>logo-alt-horizontal-2 copy</title>
    <desc>Created with Sketch.</desc>
    <defs></defs>
    <g id="ui-design" stroke="none" stroke-width="1" fill="none" fill-rule="evenodd">
        <g id="Home" transform="translate(-248.000000, -26.000000)" fill-rule="nonzero">
            <g id="logo-alt-horizontal-2-copy" transform="translate(248.000000, 26.000000)">
                <path d="M23.392,46.8118033 C21.8882588,46.8140882 20.4467665,46.2214222 19.392,45.1672131 L1.672,27.7613115 C0.60163217,26.7116173 3.78484272e-05,25.2860485 3.78484272e-05,23.7993443 C3.78484272e-05,22.31264 0.60163217,20.8870713 1.672,19.837377 L19.368,2.42360656 C21.5943241,0.239563419 25.1976759,0.239563419 27.424,2.42360656 L45.12,19.837377 C46.1903678,20.8870713 46.7919622,22.31264 46.7919622,23.7993443 C46.7919622,25.2860485 46.1903678,26.7116173 45.12,27.7613115 L27.424,45.1672131 C26.3573515,46.2232344 24.9054029,46.8154616 23.392,46.8118033 Z" id="Shape" fill="#FBB03B"></path>
                <path d="M34.8,23.7954098 C34.778461,29.3396888 30.6434073,34.0373809 25.0678267,34.8517968 C19.4922461,35.6662127 14.1477505,32.3531827 12.4891372,27.0543209 C10.8305238,21.7554591 13.3550606,16.0594144 18.4308326,13.6482329 C23.5066046,11.2370514 29.6118472,12.8336282 32.8,17.4059016 L23.2,26.8878689 L18.848,22.5993443 L16.992,24.4327869 L23.2,30.5390164 L34.056,19.7901639 C34.5490279,21.0697812 34.8011369,22.4269833 34.8,23.7954098 Z" id="Shape" fill="#212121"></path>
                <path d="M72.512,17.5239344 C72.3992342,17.7155624 72.2498187,17.8839054 72.072,18.0196721 C71.8947608,18.1356974 71.6847232,18.1935438 71.472,18.184918 C71.2268051,18.178386 70.9873158,18.1106953 70.776,17.9881967 L69.928,17.5396721 C69.5840734,17.3587243 69.2255172,17.2060726 68.856,17.0832787 C68.4084946,16.9446194 67.9411068,16.878185 67.472,16.8865574 C66.7616944,16.8349448 66.0558132,17.0329205 65.48,17.4452459 C65.0292097,17.8226022 64.778704,18.3820729 64.8,18.9639344 C64.7896392,19.3375297 64.9306553,19.6998594 65.192,19.9711475 C65.490342,20.2653967 65.8434167,20.500483 66.232,20.6636066 C66.7049064,20.8796251 67.1944305,21.0585428 67.696,21.1986885 C68.2293333,21.3613115 68.7893333,21.5422951 69.376,21.7416393 C69.95283,21.9405712 70.5165765,22.1744618 71.064,22.4419672 C71.6036449,22.705119 72.0977154,23.0503443 72.528,23.464918 C72.981086,23.8988074 73.3450386,24.4144143 73.6,24.9836066 C73.8801893,25.6680838 74.0136432,26.4021024 73.992,27.1396721 C74.0002537,28.0331385 73.8346082,28.9199049 73.504,29.7521311 C73.1865539,30.5528692 72.6982452,31.2773496 72.072,31.8767213 C71.4114756,32.5076791 70.623894,32.9955338 69.76,33.3088525 C68.761515,33.6699409 67.7036781,33.8460248 66.64,33.8281967 C65.9868838,33.8278376 65.3355096,33.7619224 64.696,33.6314754 C63.3937166,33.3942682 62.1448491,32.9306226 61.008,32.2622951 C60.4922472,31.9587578 60.0143372,31.5969582 59.584,31.1842623 L60.992,28.9967213 C61.0997512,28.8268254 61.2516431,28.6882891 61.432,28.5954098 C61.6174189,28.4921141 61.8269066,28.4378895 62.04,28.4380328 C62.3427116,28.4464808 62.6367701,28.5392552 62.888,28.7055738 L63.864,29.2878689 C64.2607532,29.5144275 64.6754297,29.7091566 65.104,29.8701639 C65.6384723,30.0536831 66.2020245,30.1416271 66.768,30.1298361 C67.4919366,30.1703381 68.2083954,29.9678023 68.8,29.5554098 C69.3135043,29.1053778 69.5804773,28.4430515 69.52,27.7691803 C69.5350433,27.3508464 69.3926119,26.9417647 69.12,26.6203279 C68.8292629,26.310913 68.4783285,26.0620613 68.088,25.8885246 C67.6174363,25.679807 67.1305243,25.5087606 66.632,25.3770492 C66.0986667,25.224918 65.5386667,25.0596721 64.952,24.8813115 C64.378612,24.7025134 63.8197033,24.4815627 63.28,24.2203279 C62.7376788,23.9588226 62.2451574,23.6074652 61.824,23.1816393 C61.3771967,22.7280824 61.0240156,22.1936344 60.784,21.6078689 C60.5028602,20.8524152 60.3698459,20.0513926 60.392,19.2472131 C60.3923227,18.4842692 60.55018,17.7293379 60.856,17.0281967 C61.1747772,16.3011994 61.6401594,15.6453545 62.224,15.1003279 C62.8651416,14.5162651 63.6148483,14.0593875 64.432,13.7547541 C65.3908942,13.4027765 66.4086974,13.2319191 67.432,13.2511475 C68.0481884,13.2501167 68.6634767,13.2974803 69.272,13.3927869 C69.8495638,13.4858963 70.417261,13.6307618 70.968,13.8255738 C71.4856774,14.0080422 71.9862318,14.2344699 72.464,14.5022951 C72.912323,14.7521172 73.3309118,15.0503551 73.712,15.3914754 L72.512,17.5239344 Z" id="Shape" fill="#FFFFFF"></path>
                <path d="M97.16,23.5042623 C97.1625091,24.9009302 96.8908724,26.2849413 96.36,27.5803279 C95.8683466,28.801838 95.1340343,29.9146757 94.2,30.8537705 C93.2459803,31.8018788 92.1016915,32.5441926 90.84,33.0334426 C88.0303482,34.0928318 84.9216518,34.0928318 82.112,33.0334426 C80.847884,32.5443344 79.7009508,31.8020724 78.744,30.8537705 C77.8048849,29.9171294 77.0675117,28.8037766 76.576,27.5803279 C75.5521336,24.9589721 75.5521336,22.0574214 76.576,19.4360656 C77.0655365,18.2116142 77.8031542,17.0978921 78.744,16.162623 C79.7055958,15.2218639 80.8514204,14.4829964 82.112,13.9908197 C83.5022257,13.4519824 84.9858615,13.1847088 86.48,13.2039344 C87.9719938,13.1793726 89.4540618,13.4468537 90.84,13.9908197 C92.0986156,14.4858739 93.2417672,15.22745 94.2,16.1704918 C95.1374487,17.1068936 95.8722377,18.2204535 96.36,19.4439344 C96.8909819,20.7337921 97.1626621,22.1126806 97.16,23.5042623 Z M92.288,23.5042623 C92.2996766,22.5920849 92.1646772,21.6838262 91.888,20.8131148 C91.6594769,20.0666609 91.2753103,19.3752415 90.76,18.7829508 C90.2622978,18.2298843 89.644339,17.7941843 88.952,17.5081967 C87.3746628,16.9206298 85.6333372,16.9206298 84.056,17.5081967 C83.3589942,17.7899853 82.7375273,18.2262284 82.24,18.7829508 C81.7222131,19.3748048 81.3353415,20.0661893 81.104,20.8131148 C80.8300326,21.6842541 80.6977345,22.5925034 80.712,23.5042623 C80.697119,24.4212203 80.829412,25.3347461 81.104,26.2111475 C81.3353415,26.958073 81.7222131,27.6494575 82.24,28.2413115 C82.7335476,28.8004553 83.3563229,29.2349183 84.056,29.5081967 C85.6333372,30.0957637 87.3746628,30.0957637 88.952,29.5081967 C89.6470288,29.2306596 90.2662535,28.7967621 90.76,28.2413115 C91.2753103,27.6490208 91.6594769,26.9576014 91.888,26.2111475 C92.1654283,25.3352024 92.3004257,24.4216467 92.288,23.5042623 Z" id="Shape" fill="#FFFFFF"></path>
                <path d="M111.44,17.5239344 C111.324547,17.7160377 111.172422,17.8843728 110.992,18.0196721 C110.817946,18.1361042 110.610287,18.1940685 110.4,18.184918 C110.152445,18.1773605 109.910619,18.1097862 109.696,17.9881967 L108.856,17.5396721 C108.509248,17.3588423 108.148045,17.2062026 107.776,17.0832787 C107.331237,16.9446456 106.866484,16.8782017 106.4,16.8865574 C105.689406,16.8321497 104.982559,17.0303964 104.408,17.4452459 C103.966125,17.8271623 103.724748,18.3859675 103.752,18.9639344 C103.738008,19.3381311 103.879544,19.7017968 104.144,19.9711475 C104.440845,20.2635367 104.790924,20.4984351 105.176,20.6636066 C105.649992,20.8770552 106.139314,21.0558989 106.64,21.1986885 C107.192,21.3639344 107.752,21.544918 108.328,21.7416393 C108.901656,21.9420261 109.462651,22.1758838 110.008,22.4419672 C110.550018,22.7011989 111.044697,23.0468498 111.472,23.464918 C111.916103,23.8995411 112.269414,24.4154719 112.512,24.9836066 C112.788084,25.6692381 112.921386,26.402419 112.904,27.1396721 C112.909509,28.0336315 112.741152,28.9203789 112.408,29.7521311 C112.093345,30.5523855 111.607744,31.2768964 110.984,31.8767213 C110.322024,32.5058609 109.534854,32.9934604 108.672,33.3088525 C107.673515,33.6699409 106.615678,33.8460248 105.552,33.8281967 C104.896241,33.8277722 104.242221,33.7618604 103.6,33.6314754 C102.30634,33.3904672 101.066018,32.9269779 99.936,32.2622951 C99.4188403,31.9607956 98.9406946,31.5988175 98.512,31.1842623 L99.92,28.9967213 C100.027751,28.8268254 100.179643,28.6882891 100.36,28.5954098 C100.542498,28.4920789 100.749426,28.4378026 100.96,28.4380328 C101.265451,28.4449937 101.56249,28.5378324 101.816,28.7055738 L102.784,29.2878689 C103.18275,29.5158834 103.600208,29.710662 104.032,29.8701639 C104.566472,30.0536831 105.130025,30.1416271 105.696,30.1298361 C106.409998,30.1695346 107.116939,29.9728415 107.704,29.5711475 C108.217504,29.1211155 108.484477,28.4587892 108.424,27.784918 C108.442038,27.3674946 108.302406,26.9582694 108.032,26.6360656 C107.740264,26.3242931 107.3862,26.0751537 106.992,25.9042623 C106.521934,25.6943335 106.034919,25.5232512 105.536,25.3927869 C104.992,25.2432787 104.432,25.0780328 103.864,24.8970492 C103.287466,24.7197823 102.725781,24.4987915 102.184,24.2360656 C101.642888,23.972588 101.150688,23.6214599 100.728,23.197377 C100.286388,22.7413321 99.9362588,22.2073954 99.696,21.6236066 C99.4119479,20.8687206 99.2762104,20.0676469 99.296,19.2629508 C99.3002225,18.5004029 99.4579223,17.7462256 99.76,17.0439344 C100.078777,16.3169371 100.544159,15.6610922 101.128,15.1160656 C101.770895,14.5303467 102.523559,14.0733228 103.344,13.7704918 C104.302894,13.4185142 105.320697,13.2476568 106.344,13.2668852 C106.957534,13.2658706 107.570162,13.3132354 108.176,13.4085246 C108.753994,13.4996199 109.32188,13.6445335 109.872,13.8413115 C110.392191,14.0239091 110.895392,14.2503229 111.376,14.5180328 C111.824323,14.7678549 112.242912,15.0660928 112.624,15.4072131 L111.44,17.5239344 Z" id="Shape" fill="#FFFFFF"></path>
                <polygon id="Shape" fill="#FFFFFF" points="136.728 13.4242623 136.728 17.1383607 130.96 17.1383607 130.96 33.6078689 126.2 33.6078689 126.2 17.1383607 120.424 17.1383607 120.424 13.4242623"></polygon>
                <polygon id="Shape" fill="#FFFFFF" points="144.48 33.6078689 139.68 33.6078689 139.68 13.4242623 144.48 13.4242623"></polygon>
                <path d="M162.632,28.3829508 C162.746844,28.3847986 162.860507,28.4060937 162.968,28.4459016 C163.090701,28.4899631 163.200567,28.5629068 163.288,28.6583607 L165.176,30.6098361 C164.37222,31.6723572 163.303009,32.512619 162.072,33.0491803 C160.671199,33.6091557 159.167494,33.8771002 157.656,33.8360656 C156.221074,33.8605317 154.79653,33.5926175 153.472,33.0491803 C152.279375,32.5597833 151.207283,31.8245732 150.328,30.8931148 C149.452544,29.9435485 148.780512,28.8302611 148.352,27.6196721 C147.877763,26.3010138 147.642198,24.9107957 147.656,23.5121311 C147.642255,22.0914897 147.914132,20.6821862 148.456,19.3652459 C149.477642,16.8777962 151.506972,14.9216554 154.056,13.9672131 C155.443661,13.4387916 156.92,13.1718546 158.408,13.1803279 C159.138143,13.1754229 159.866999,13.2413151 160.584,13.3770492 C161.235108,13.5040052 161.872595,13.6910625 162.488,13.9357377 C163.048555,14.1631873 163.58456,14.4452487 164.088,14.7777049 C164.565574,15.0930397 165.008019,15.4570185 165.408,15.8636066 L163.808,17.9803279 C163.703817,18.1156168 163.5798,18.2349493 163.44,18.3344262 C163.270551,18.4541426 163.06422,18.512525 162.856,18.4996721 C162.689539,18.4995518 162.525325,18.4618634 162.376,18.3895082 C162.211175,18.3060944 162.050951,18.2141627 161.896,18.1140984 L161.336,17.7678689 C161.109396,17.6322391 160.871153,17.5163868 160.624,17.4216393 C159.894508,17.1573135 159.121271,17.029219 158.344,17.0439344 C157.534488,17.0338003 156.731404,17.1864287 155.984,17.492459 C155.280866,17.7829198 154.652319,18.2237536 154.144,18.7829508 C153.611866,19.3752584 153.204046,20.0652098 152.944,20.8131148 C152.644757,21.6711559 152.498604,22.5736301 152.512,23.4806557 C152.495833,24.4187389 152.641914,25.3526993 152.944,26.242623 C153.197364,27.0066884 153.599509,27.7149403 154.128,28.3278689 C155.096372,29.4131579 156.500114,30.025857 157.968,30.0039344 C158.363642,30.0084597 158.759159,29.9874309 159.152,29.9409836 C159.489451,29.9053303 159.822028,29.8341014 160.144,29.7285246 C160.448056,29.6282311 160.740375,29.4963382 161.016,29.335082 C161.302371,29.1596187 161.570348,28.9566587 161.816,28.7291803 C161.929441,28.6395917 162.052907,28.5630307 162.184,28.5009836 C162.321976,28.427923 162.475369,28.3875091 162.632,28.3829508 Z" id="Shape" fill="#FFFFFF"></path>
                <path d="M172.672,21.5921311 L173.432,21.5921311 C174.017259,21.6453095 174.589869,21.4022342 174.952,20.9468852 L179.568,14.3527869 C179.779377,14.0280877 180.082406,13.7710438 180.44,13.6131148 C180.819037,13.4773218 181.220759,13.4132455 181.624,13.4242623 L185.768,13.4242623 L179.68,21.5842623 C179.485078,21.8525833 179.259615,22.0981111 179.008,22.3160656 C178.786198,22.5032528 178.54485,22.6667892 178.288,22.8039344 C178.639823,22.9273792 178.969316,23.1053637 179.264,23.3311475 C179.579816,23.5901362 179.850101,23.898527 180.064,24.2439344 L186.256,33.6078831 L182.008,33.6078689 C181.774851,33.6084691 181.542052,33.5900453 181.312,33.5527869 C181.135762,33.5216139 180.965655,33.4631853 180.808,33.3796721 C180.669712,33.3134095 180.544976,33.2227244 180.44,33.1121311 C180.331259,32.999792 180.232249,32.8787154 180.144,32.7501639 L175.496,25.7232787 C175.346306,25.4785008 175.122526,25.2859036 174.856,25.172459 C174.519713,25.0561277 174.164257,25.0027492 173.808,25.015082 L172.656,25.015082 L172.656,33.6078689 L167.856,33.6078831 L167.856,13.4242623 L172.656,13.4242623 L172.672,21.5921311 Z" id="Shape" fill="#FFFFFF"></path>
                <polygon id="Shape" fill="#FFFFFF" points="201.792 13.4242623 201.792 17.0203279 193.368 17.0203279 193.368 21.7416393 199.824 21.7416393 199.824 25.1803279 193.368 25.1803279 193.368 29.9881967 201.792 29.9881967 201.792 33.5921311 188.584 33.5921311 188.584 13.4242623"></polygon>
                <polygon id="Shape" fill="#FFFFFF" points="220 13.4242623 220 17.1383607 214.224 17.1383607 214.224 33.6078689 209.424 33.6078689 209.424 17.1383607 203.656 17.1383607 203.656 13.4242623"></polygon>
                <path d="M65.112,47.4019672 L64.256,47.4019672 C64.1727464,47.4048701 64.0909547,47.3799026 64.024,47.3311475 C63.9659276,47.2843135 63.9194251,47.2251204 63.888,47.1580328 L63.448,45.9698361 L60.992,45.9698361 L60.552,47.1580328 C60.5250514,47.2255361 60.4809866,47.285132 60.424,47.3311475 C60.3570453,47.3799026 60.2752536,47.4048701 60.192,47.4019672 L59.328,47.4019672 L61.664,41.5790164 L62.784,41.5790164 L65.112,47.4019672 Z M63.2,45.2065574 L62.448,43.2786885 C62.4041642,43.1814907 62.3667531,43.0816109 62.336,42.9796721 C62.336,42.8537705 62.256,42.7278689 62.224,42.5940984 L62.112,42.9796721 C62.112,43.0977049 62.032,43.2 62,43.2865574 L61.28,45.2222951 L63.2,45.2065574 Z" id="Shape" fill="#FFFFFF"></path>
                <path d="M70.656,41.5790164 L68.256,47.4019672 L67.272,47.4019672 L64.872,41.5790164 L65.752,41.5790164 C65.8377226,41.576161 65.9220314,41.601039 65.992,41.6498361 C66.0518019,41.6931706 66.096512,41.7536392 66.12,41.8229508 L67.52,45.3796721 C67.568,45.4898361 67.608,45.6236066 67.656,45.757377 L67.776,46.1901639 C67.776,46.0406557 67.84,45.8990164 67.88,45.757377 C67.9154151,45.629209 67.9581496,45.5031072 68.008,45.3796721 L69.4,41.8229508 C69.422424,41.7552075 69.4675498,41.6969508 69.528,41.6577049 C69.5928681,41.6043125 69.6754613,41.576299 69.76,41.5790164 L70.656,41.5790164 Z" id="Shape" fill="#FFFFFF"></path>
                <path d="M77.056,44.4904918 C77.0600663,44.8963495 76.9868029,45.2993651 76.84,45.6786885 C76.7038783,46.0304194 76.4970964,46.3515648 76.232,46.6229508 C75.9645624,46.8923087 75.643087,47.1040055 75.288,47.2445902 C74.4830636,47.5360495 73.5970491,47.5248406 72.8,47.2131148 C72.444913,47.0725301 72.1234376,46.8608333 71.856,46.5914754 C71.5883763,46.3205304 71.378889,45.9994087 71.24,45.6472131 C70.9561056,44.8851012 70.9561056,44.0486693 71.24,43.2865574 C71.378889,42.9343617 71.5883763,42.6132401 71.856,42.3422951 C72.1219099,42.0672652 72.4434957,41.8501344 72.8,41.704918 C73.4623838,41.4591935 74.1852049,41.4180176 74.872,41.5868852 C75.1279293,41.6481112 75.3732487,41.7462213 75.6,41.8780328 C75.8212096,41.9978969 76.0233589,42.1490118 76.2,42.3265574 C76.3764662,42.5076982 76.52717,42.7115189 76.648,42.932459 C76.7720455,43.1584041 76.8661451,43.3990522 76.928,43.6485246 C77.0067033,43.9227249 77.0497135,44.2056404 77.056,44.4904918 Z M75.928,44.4904918 C75.9340441,44.1995829 75.8907856,43.9097153 75.8,43.6327869 C75.7203865,43.3948779 75.5924665,43.1753569 75.424,42.987541 C75.2650841,42.8075172 75.0649065,42.6672626 74.84,42.5783607 C74.5856932,42.4788395 74.3136265,42.4306703 74.04,42.4367213 C73.7662876,42.4295726 73.4939981,42.4777813 73.24,42.5783607 C73.0134904,42.6685018 72.8109795,42.8084738 72.648,42.987541 C72.4795335,43.1753569 72.3516135,43.3948779 72.272,43.6327869 C72.1012011,44.1922504 72.1012011,44.7887332 72.272,45.3481967 C72.3496976,45.5869408 72.4778326,45.8068306 72.648,45.9934426 C72.8109795,46.1725098 73.0134904,46.3124818 73.24,46.402623 C73.4939981,46.5032023 73.7662876,46.551411 74.04,46.5442623 C74.3136265,46.5503133 74.5856932,46.5021441 74.84,46.402623 C75.0649065,46.3137211 75.2650841,46.1734664 75.424,45.9934426 C75.5941674,45.8068306 75.7223024,45.5869408 75.8,45.3481967 C75.8907856,45.0712683 75.9340441,44.7814007 75.928,44.4904918 Z" id="Shape" fill="#FFFFFF"></path>
                <path d="M82.4,46.0327869 C82.4591268,46.0349532 82.5156652,46.0571978 82.56,46.0957377 L82.992,46.56 C82.7545942,46.8514938 82.4502584,47.0834201 82.104,47.2367213 C81.704155,47.4009851 81.273089,47.4788078 80.84,47.464918 C80.4399812,47.4591651 80.0453252,47.3734964 79.68,47.2131148 C79.3396909,47.0747215 79.0339841,46.8653087 78.784,46.5993443 C78.5253769,46.328862 78.3289335,46.0068237 78.208,45.655082 C78.0736052,45.2702484 78.0059949,44.8659164 78.008,44.4590164 C78.0062136,44.0559092 78.0794187,43.6558815 78.224,43.2786885 C78.3584997,42.9303179 78.5625037,42.6119379 78.824,42.3422951 C79.0798576,42.0665163 79.3938321,41.8489945 79.744,41.704918 C80.4988011,41.4216769 81.3331989,41.4216769 82.088,41.704918 C82.403068,41.8349904 82.6906656,42.0217999 82.936,42.2557377 L82.568,42.7593443 C82.5456856,42.7918165 82.5187437,42.8209668 82.488,42.8459016 C82.4409887,42.8594538 82.3910113,42.8594538 82.344,42.8459016 C82.3019408,42.8559169 82.2580592,42.8559169 82.216,42.8459016 L82.072,42.7593443 L81.896,42.6491803 C81.8190873,42.6062748 81.7388356,42.5694379 81.656,42.5390164 C81.4236971,42.452558 81.1762245,42.4124345 80.928,42.4209836 C80.6780082,42.4184036 80.4301675,42.4666234 80.2,42.562623 C79.9838295,42.6511874 79.7919618,42.7886851 79.64,42.9639344 C79.4698326,43.1505464 79.3416976,43.3704362 79.264,43.6091803 C79.1771428,43.8896923 79.1339866,44.1815274 79.136,44.4747541 C79.1303502,44.7720404 79.1791272,45.0679012 79.28,45.3481967 C79.3605109,45.587417 79.4913516,45.8072723 79.664,45.9934426 C79.8227757,46.1647474 80.0162609,46.3014513 80.232,46.3947541 C80.4539836,46.4899682 80.6938354,46.5382245 80.936,46.5363934 C81.0718536,46.5451719 81.2081464,46.5451719 81.344,46.5363934 C81.4580384,46.5194437 81.5704318,46.493122 81.68,46.4577049 C81.7802843,46.4226474 81.8767622,46.3778353 81.968,46.3239344 C82.065846,46.2655042 82.1570347,46.1969148 82.24,46.1193443 C82.265446,46.0955715 82.2953287,46.076867 82.328,46.0642623 C82.3498351,46.0495173 82.3742411,46.038848 82.4,46.0327869 Z" id="Shape" fill="#FFFFFF"></path>
                <path d="M89.176,47.4019672 L88.328,47.4019672 C88.2422774,47.4048226 88.1579686,47.3799446 88.088,47.3311475 C88.0298875,47.2861873 87.9855809,47.2262645 87.96,47.1580328 L87.512,45.9698361 L85.056,45.9698361 L84.616,47.1580328 C84.5890514,47.2255361 84.5449866,47.285132 84.488,47.3311475 C84.4210453,47.3799026 84.3392536,47.4048701 84.256,47.4019672 L83.4,47.4019672 L85.728,41.5790164 L86.848,41.5790164 L89.176,47.4019672 Z M87.2,45.2065574 L86.48,43.2629508 C86.4361642,43.165753 86.3987531,43.0658732 86.368,42.9639344 C86.368,42.8380328 86.288,42.7121311 86.256,42.5783607 C86.256,42.7121311 86.184,42.8459016 86.144,42.9639344 C86.104,43.0819672 86.064,43.1842623 86.032,43.2708197 L85.312,45.2065574 L87.2,45.2065574 Z" id="Shape" fill="#FFFFFF"></path>
                <polygon id="Shape" fill="#FFFFFF" points="93.68 42.4918033 91.888 42.4918033 91.888 47.4255738 90.792 47.4255738 90.792 42.4918033 89 42.4918033 89 41.5790164 93.68 41.5790164"></polygon>
                <path d="M97.928,42.6413115 C97.9017013,42.6870967 97.8663379,42.7272317 97.824,42.7593443 C97.779398,42.7706716 97.732602,42.7706716 97.688,42.7593443 C97.6195013,42.755253 97.5532947,42.7335459 97.496,42.6963934 L97.256,42.5547541 C97.1534319,42.5012179 97.0463703,42.4564627 96.936,42.4209836 C96.7917327,42.3736622 96.6399675,42.3523369 96.488,42.3580328 C96.3525022,42.3547674 96.2173767,42.3733748 96.088,42.4131148 C95.982594,42.4430018 95.8845633,42.493892 95.8,42.562623 C95.7259765,42.6259497 95.6660568,42.7036399 95.624,42.7908197 C95.588614,42.8867502 95.5696893,42.9878 95.568,43.0898361 C95.564709,43.2156339 95.6072728,43.3384408 95.688,43.4360656 C95.7750873,43.5322667 95.8812646,43.6099247 96,43.6642623 C96.1386446,43.7341354 96.2831855,43.7920571 96.432,43.837377 L96.936,44.002623 C97.1091363,44.0578701 97.2776439,44.1262729 97.44,44.2072131 C97.6009399,44.2782196 97.7494429,44.3738281 97.88,44.4904918 C98.0103543,44.6145016 98.1161496,44.7612542 98.192,44.9232787 C98.2695637,45.1187563 98.3076078,45.3272412 98.304,45.5370492 C98.3090813,45.7900455 98.2628474,46.0415009 98.168,46.2767213 C98.0799062,46.5043278 97.9435494,46.7108748 97.768,46.882623 C97.5798089,47.0555783 97.359905,47.1917665 97.12,47.2839344 C96.8407539,47.3838366 96.5450747,47.4318639 96.248,47.4255738 C96.0629583,47.4255639 95.8782661,47.409767 95.696,47.3783607 C95.5162444,47.3389706 95.3397485,47.2863638 95.168,47.2209836 C95.0034517,47.153961 94.8454635,47.0723111 94.696,46.9770492 C94.5520024,46.8893052 94.4202287,46.7834983 94.304,46.6622951 L94.624,46.1429508 C94.6503935,46.1036664 94.6860803,46.0712648 94.728,46.0485246 C94.7754074,46.0380328 94.8245926,46.0380328 94.872,46.0485246 C94.9515077,46.0541271 95.0271482,46.0844384 95.088,46.135082 L95.376,46.3160656 C95.4958847,46.391805 95.6248729,46.4525986 95.76,46.4970492 C95.9264379,46.5571428 96.1027273,46.5864873 96.28,46.5836066 C96.544512,46.601516 96.8064796,46.5230937 97.016,46.3632787 C97.1935772,46.2022176 97.2876625,45.9708604 97.272,45.7337705 C97.2787432,45.5978629 97.2362182,45.4640137 97.152,45.3560656 C97.0670473,45.2567902 96.9639348,45.1740511 96.848,45.1121311 C96.7062968,45.0450266 96.5591126,44.9897502 96.408,44.9468852 L95.904,44.797377 C95.7341566,44.7433917 95.5684094,44.6776538 95.408,44.6006557 C95.245122,44.5297158 95.0961892,44.4311672 94.968,44.3095082 C94.8336873,44.1796995 94.7275463,44.0244366 94.656,43.8531148 C94.5765426,43.6389964 94.5385545,43.4121354 94.544,43.1842623 C94.5433332,42.9706521 94.5868841,42.7591443 94.672,42.562623 C94.7596761,42.3613156 94.8875339,42.1793624 95.048,42.027541 C95.2232224,41.865176 95.4300406,41.739372 95.656,41.6577049 C95.9113568,41.5618461 96.1826878,41.5138072 96.456,41.5160656 C96.7854307,41.5138351 97.1128208,41.5670621 97.424,41.6734426 C97.7038622,41.7731821 97.9598449,41.9285396 98.176,42.1298361 L97.928,42.6413115 Z" id="Shape" fill="#FFFFFF"></path>
                <path d="M102.456,47.4177049 C102.41404,47.5311755 102.335337,47.6279415 102.232,47.6931148 C102.139052,47.7527288 102.030942,47.7854483 101.92,47.787541 L101.488,47.787541 L103.888,41.7678689 C103.928952,41.6647747 103.998187,41.5748817 104.088,41.5081967 C104.181957,41.444486 104.293904,41.4114523 104.408,41.4137705 L104.8,41.4137705 L102.456,47.4177049 Z" id="Shape" fill="#FFFFFF"></path>
                <polygon id="Shape" fill="#FFFFFF" points="111.848 46.5127869 111.848 47.4019672 108.376 47.4019672 108.376 41.5790164 109.48 41.5790164 109.48 46.5127869"></polygon>
                <path d="M118.032,47.4019672 L117.184,47.4019672 C117.098277,47.4048226 117.013969,47.3799446 116.944,47.3311475 C116.885888,47.2861873 116.841581,47.2262645 116.816,47.1580328 L116.368,45.9698361 L113.92,45.9698361 L113.472,47.1580328 C113.448053,47.2271109 113.403434,47.2874551 113.344,47.3311475 C113.27766,47.3810842 113.195427,47.4061865 113.112,47.4019672 L112.256,47.4019672 L114.584,41.5790164 L115.704,41.5790164 L118.032,47.4019672 Z M116.088,45.2065574 L115.368,43.2629508 C115.324164,43.165753 115.286753,43.0658732 115.256,42.9639344 C115.256,42.8380328 115.176,42.7121311 115.144,42.5783607 C115.104,42.7121311 115.072,42.8459016 115.032,42.9639344 C114.992,43.0819672 114.952,43.1842623 114.92,43.2708197 L114.2,45.2065574 L116.088,45.2065574 Z" id="Shape" fill="#FFFFFF"></path>
                <path d="M126.464,41.5790164 L124.624,47.4019672 L123.632,47.4019672 L122.336,43.4203279 C122.297994,43.3039501 122.265954,43.1857685 122.24,43.0662295 L122.192,43.255082 C122.179608,43.3120326 122.160826,43.367454 122.136,43.4203279 L120.8,47.4019672 L119.8,47.4019672 L117.96,41.5790164 L118.888,41.5790164 C118.972433,41.5773307 119.055631,41.5991532 119.128,41.6419672 C119.188762,41.6877357 119.233504,41.7509989 119.256,41.8229508 L120.264,45.3088525 C120.264,45.3954098 120.264,45.4898361 120.328,45.5921311 C120.392,45.6944262 120.368,45.7967213 120.392,45.9068852 C120.406649,45.7975296 120.430736,45.6895989 120.464,45.5842623 C120.485888,45.4911807 120.512589,45.3992579 120.544,45.3088525 L121.704,41.8229508 C121.732312,41.7561966 121.779516,41.6988422 121.84,41.6577049 C121.904068,41.6029359 121.987228,41.5747301 122.072,41.5790164 L122.392,41.5790164 C122.477723,41.576161 122.562031,41.601039 122.632,41.6498361 C122.691918,41.6948761 122.738805,41.7545592 122.768,41.8229508 L124,45.3088525 C124.056,45.4740984 124.104,45.6708197 124.152,45.8832787 C124.180329,45.6896227 124.220401,45.4978053 124.272,45.3088525 L125.28,41.8229508 C125.298727,41.7534597 125.341074,41.6923681 125.4,41.6498361 C125.47092,41.6029867 125.554573,41.578302 125.64,41.5790164 L126.464,41.5790164 Z" id="Shape" fill="#FFFFFF"></path>
                <path d="M130.064,45.1514754 L130.064,47.4019672 L128.968,47.4019672 L128.968,45.1514754 L126.808,41.5790164 L127.784,41.5790164 C127.865001,41.5745625 127.944807,41.5997938 128.008,41.6498361 C128.068036,41.6967462 128.117141,41.7557795 128.152,41.8229508 L129.232,43.7665574 C129.296,43.8845902 129.352,43.9868852 129.4,44.0891803 C129.448,44.1914754 129.488,44.2937705 129.528,44.3960656 C129.560983,44.2912478 129.601073,44.1887229 129.648,44.0891803 L129.808,43.7665574 L130.888,41.8229508 C130.918942,41.7577764 130.965634,41.7010433 131.024,41.6577049 C131.085174,41.6034112 131.165699,41.5751237 131.248,41.5790164 L132.224,41.5790164 L130.064,45.1514754 Z" id="Shape" fill="#FFFFFF"></path>
                <polygon id="Shape" fill="#FFFFFF" points="134.264 42.4445902 134.264 44.0655738 136.336 44.0655738 136.336 44.8996721 134.264 44.8996721 134.264 46.5442623 136.896 46.5442623 136.896 47.4098361 133.16 47.4098361 133.16 41.5868852 136.896 41.5868852 136.896 42.452459"></polygon>
                <path d="M142.824,47.4019672 L141.824,47.4019672 C141.658516,47.4108276 141.501579,47.3291049 141.416,47.1895082 L140.176,45.3245902 C140.137642,45.2612433 140.082284,45.2095147 140.016,45.175082 C139.938748,45.1388926 139.853401,45.1226446 139.768,45.1278689 L139.304,45.1278689 L139.304,47.4019672 L138.2,47.4019672 L138.2,41.5790164 L140,41.5790164 C140.347819,41.5727714 140.694918,41.6124701 141.032,41.6970492 C141.286378,41.7687384 141.525066,41.8861259 141.736,42.0432787 C141.914168,42.1863948 142.054206,42.3700509 142.144,42.5783607 C142.235884,42.7924195 142.28217,43.0227359 142.28,43.255082 C142.279333,43.4445997 142.249667,43.6329391 142.192,43.8137705 C142.132545,43.9834552 142.046141,44.1428065 141.936,44.2859016 C141.820034,44.4312224 141.682493,44.5585498 141.528,44.6636066 C141.353959,44.7724082 141.165525,44.8571372 140.968,44.9154098 C141.040875,44.9535048 141.108156,45.0011528 141.168,45.0570492 C141.232061,45.1155319 141.288492,45.181611 141.336,45.2537705 L142.824,47.4019672 Z M140,44.3488525 C140.181916,44.3527924 140.363182,44.3261813 140.536,44.2701639 C140.678068,44.2313718 140.809354,44.1614242 140.92,44.0655738 C141.017659,43.9753584 141.094107,43.8652517 141.144,43.7429508 C141.19307,43.6119915 141.217469,43.4733334 141.216,43.3337705 C141.237409,43.0738923 141.126556,42.8204573 140.92,42.6570492 C140.652354,42.4711932 140.326354,42.3847556 140,42.4131148 L139.296,42.4131148 L139.296,44.3488525 L140,44.3488525 Z" id="Shape" fill="#FFFFFF"></path>
                <path d="M146.944,42.6413115 C146.920263,42.6888198 146.884436,42.7294811 146.84,42.7593443 C146.795685,42.7727072 146.748315,42.7727072 146.704,42.7593443 C146.638031,42.7549999 146.57447,42.7332542 146.52,42.6963934 L146.28,42.5547541 C146.174631,42.5012872 146.064918,42.4565425 145.952,42.4209836 C145.677683,42.342513 145.386317,42.342513 145.112,42.4209836 C145.006594,42.4508706 144.908563,42.5017609 144.824,42.5704918 C144.747635,42.6316286 144.687282,42.7098806 144.648,42.7986885 C144.609747,42.8938319 144.590726,42.9953997 144.592,43.0977049 C144.588709,43.2235028 144.631273,43.3463096 144.712,43.4439344 C144.796128,43.5399344 144.899659,43.6176498 145.016,43.6721311 C145.15743,43.7419624 145.304623,43.7998747 145.456,43.8452459 L145.96,44.0104918 C146.133136,44.065739 146.301644,44.1341418 146.464,44.215082 C146.623863,44.2880098 146.772084,44.3834363 146.904,44.4983607 C147.034468,44.6205629 147.137951,44.7678854 147.208,44.9311475 C147.292223,45.1249249 147.333146,45.3342361 147.328,45.544918 C147.329132,45.7975896 147.283033,46.0483135 147.192,46.2845902 C147.100841,46.5106524 146.964868,46.7166174 146.792,46.8904918 C146.603809,47.0634471 146.383905,47.1996353 146.144,47.2918033 C145.864388,47.3903245 145.56897,47.4383094 145.272,47.4334426 C145.08431,47.4333407 144.896969,47.4175461 144.712,47.3862295 C144.535157,47.3457286 144.361402,47.2931419 144.192,47.2288525 C144.027452,47.1618298 143.869463,47.0801799 143.72,46.984918 C143.57499,46.8952223 143.440798,46.7896285 143.32,46.6701639 L143.648,46.1508197 C143.674394,46.1115352 143.71008,46.0791336 143.752,46.0563934 C143.796719,46.0460109 143.843281,46.0460109 143.888,46.0563934 C143.96993,46.061944 144.048137,46.0921647 144.112,46.1429508 L144.392,46.3239344 C144.513577,46.3966461 144.642211,46.4572729 144.776,46.504918 C144.945409,46.5642654 145.12418,46.5935722 145.304,46.5914754 C145.566083,46.6096693 145.825649,46.5311121 146.032,46.3711475 C146.209577,46.2100864 146.303663,45.9787292 146.288,45.7416393 C146.297737,45.6066202 146.258006,45.4726339 146.176,45.3639344 C146.088031,45.2645503 145.982283,45.1818721 145.864,45.12 C145.722881,45.0515703 145.575575,44.9962483 145.424,44.9547541 L144.928,44.8052459 C144.758157,44.7512606 144.592409,44.6855227 144.432,44.6085246 C144.269122,44.5375847 144.120189,44.439036 143.992,44.317377 C143.857687,44.1875683 143.751546,44.0323054 143.68,43.8609836 C143.596742,43.6478631 143.558629,43.4202581 143.568,43.1921311 C143.567333,42.9785209 143.610884,42.7670131 143.696,42.5704918 C143.779729,42.3690199 143.905035,42.1868212 144.064,42.0354098 C144.24051,41.874702 144.446973,41.7491142 144.672,41.6655738 C144.927653,41.5707664 145.198783,41.522763 145.472,41.5239344 C145.801369,41.5224671 146.128629,41.5756729 146.44,41.6813115 C146.718895,41.7830097 146.974499,41.9381372 147.192,42.1377049 L146.944,42.6413115 Z" id="Shape" fill="#FFFFFF"></path>
            </g>
        </g>
    </g>
</svg>