<?xml version="1.0" encoding="UTF-8"?>
<svg width="220px" height="47px" viewBox="0 0 220 47" version="1.1" xmlns="http://www.w3.org/2000/svg" xmlns:xlink="http://www.w3.org/1999/xlink">
    <!-- Generator: Sketch 50.2 (55047) - http://www.bohemiancoding.com/sketch -->
    <title>logo-alt-horizontal-2 copy 2</title>
    <desc>Created with Sketch.</desc>
    <defs></defs>
    <g id="ui-design" stroke="none" stroke-width="1" fill="none" fill-rule="evenodd">
        <g id="logo-alt-horizontal-2-copy-2" fill-rule="nonzero">
            <path d="M23.392,46.8118033 C21.8882588,46.8140882 20.4467665,46.2214222 19.392,45.1672131 L1.672,27.7613115 C0.60163217,26.7116173 3.78484272e-05,25.2860485 3.78484272e-05,23.7993443 C3.78484272e-05,22.31264 0.60163217,20.8870713 1.672,19.837377 L19.368,2.42360656 C21.5943241,0.239563419 25.1976759,0.239563419 27.424,2.42360656 L45.12,19.837377 C46.1903678,20.8870713 46.7919622,22.31264 46.7919622,23.7993443 C46.7919622,25.2860485 46.1903678,26.7116173 45.12,27.7613115 L27.424,45.1672131 C26.3573515,46.2232344 24.9054029,46.8154616 23.392,46.8118033 Z" id="Shape" fill="#FBB03B"></path>
            <path d="M34.8,23.7954098 C34.778461,29.3396888 30.6434073,34.0373809 25.0678267,34.8517968 C19.4922461,35.6662127 14.1477505,32.3531827 12.4891372,27.0543209 C10.8305238,21.7554591 13.3550606,16.0594144 18.4308326,13.6482329 C23.5066046,11.2370514 29.6118472,12.8336282 32.8,17.4059016 L23.2,26.8878689 L18.848,22.5993443 L16.992,24.4327869 L23.2,30.5390164 L34.056,19.7901639 C34.5490279,21.0697812 34.8011369,22.4269833 34.8,23.7954098 Z" id="Shape" fill="#212121"></path>
            <path d="M72.512,9.52393443 C72.3992342,9.71556237 72.2498187,9.88390537 72.072,10.0196721 C71.8947608,10.1356974 71.6847232,10.1935438 71.472,10.184918 C71.2268051,10.178386 70.9873158,10.1106953 70.776,9.98819672 L69.928,9.53967213 C69.5840734,9.35872434 69.2255172,9.2060726 68.856,9.08327869 C68.4084946,8.94461936 67.9411068,8.87818501 67.472,8.88655738 C66.7616944,8.83494475 66.0558132,9.03292051 65.48,9.4452459 C65.0292097,9.82260217 64.778704,10.3820729 64.8,10.9639344 C64.7896392,11.3375297 64.9306553,11.6998594 65.192,11.9711475 C65.490342,12.2653967 65.8434167,12.500483 66.232,12.6636066 C66.7049064,12.8796251 67.1944305,13.0585428 67.696,13.1986885 C68.2293333,13.3613115 68.7893333,13.5422951 69.376,13.7416393 C69.95283,13.9405712 70.5165765,14.1744618 71.064,14.4419672 C71.6036449,14.705119 72.0977154,15.0503443 72.528,15.464918 C72.981086,15.8988074 73.3450386,16.4144143 73.6,16.9836066 C73.8801893,17.6680838 74.0136432,18.4021024 73.992,19.1396721 C74.0002537,20.0331385 73.8346082,20.9199049 73.504,21.7521311 C73.1865539,22.5528692 72.6982452,23.2773496 72.072,23.8767213 C71.4114756,24.5076791 70.623894,24.9955338 69.76,25.3088525 C68.761515,25.6699409 67.7036781,25.8460248 66.64,25.8281967 C65.9868838,25.8278376 65.3355096,25.7619224 64.696,25.6314754 C63.3937166,25.3942682 62.1448491,24.9306226 61.008,24.2622951 C60.4922472,23.9587578 60.0143372,23.5969582 59.584,23.1842623 L60.992,20.9967213 C61.0997512,20.8268254 61.2516431,20.6882891 61.432,20.5954098 C61.6174189,20.4921141 61.8269066,20.4378895 62.04,20.4380328 C62.3427116,20.4464808 62.6367701,20.5392552 62.888,20.7055738 L63.864,21.2878689 C64.2607532,21.5144275 64.6754297,21.7091566 65.104,21.8701639 C65.6384723,22.0536831 66.2020245,22.1416271 66.768,22.1298361 C67.4919366,22.1703381 68.2083954,21.9678023 68.8,21.5554098 C69.3135043,21.1053778 69.5804773,20.4430515 69.52,19.7691803 C69.5350433,19.3508464 69.3926119,18.9417647 69.12,18.6203279 C68.8292629,18.310913 68.4783285,18.0620613 68.088,17.8885246 C67.6174363,17.679807 67.1305243,17.5087606 66.632,17.3770492 C66.0986667,17.224918 65.5386667,17.0596721 64.952,16.8813115 C64.378612,16.7025134 63.8197033,16.4815627 63.28,16.2203279 C62.7376788,15.9588226 62.2451574,15.6074652 61.824,15.1816393 C61.3771967,14.7280824 61.0240156,14.1936344 60.784,13.6078689 C60.5028602,12.8524152 60.3698459,12.0513926 60.392,11.2472131 C60.3923227,10.4842692 60.55018,9.72933795 60.856,9.02819672 C61.1747772,8.30119944 61.6401594,7.64535451 62.224,7.10032787 C62.8651416,6.51626506 63.6148483,6.05938748 64.432,5.7547541 C65.3908942,5.40277652 66.4086974,5.23191907 67.432,5.25114754 C68.0481884,5.25011672 68.6634767,5.29748033 69.272,5.39278689 C69.8495638,5.48589626 70.417261,5.63076178 70.968,5.82557377 C71.4856774,6.00804217 71.9862318,6.23446985 72.464,6.50229508 C72.912323,6.75211718 73.3309118,7.0503551 73.712,7.39147541 L72.512,9.52393443 Z" id="Shape" fill="#FFFFFF"></path>
            <path d="M97.16,15.5042623 C97.1625091,16.9009302 96.8908724,18.2849413 96.36,19.5803279 C95.8683466,20.801838 95.1340343,21.9146757 94.2,22.8537705 C93.2459803,23.8018788 92.1016915,24.5441926 90.84,25.0334426 C88.0303482,26.0928318 84.9216518,26.0928318 82.112,25.0334426 C80.847884,24.5443344 79.7009508,23.8020724 78.744,22.8537705 C77.8048849,21.9171294 77.0675117,20.8037766 76.576,19.5803279 C75.5521336,16.9589721 75.5521336,14.0574214 76.576,11.4360656 C77.0655365,10.2116142 77.8031542,9.09789213 78.744,8.16262295 C79.7055958,7.22186393 80.8514204,6.48299644 82.112,5.99081967 C83.5022257,5.45198238 84.9858615,5.18470877 86.48,5.20393443 C87.9719938,5.17937264 89.4540618,5.4468537 90.84,5.99081967 C92.0986156,6.48587388 93.2417672,7.22744998 94.2,8.1704918 C95.1374487,9.10689355 95.8722377,10.2204535 96.36,11.4439344 C96.8909819,12.7337921 97.1626621,14.1126806 97.16,15.5042623 Z M92.288,15.5042623 C92.2996766,14.5920849 92.1646772,13.6838262 91.888,12.8131148 C91.6594769,12.0666609 91.2753103,11.3752415 90.76,10.7829508 C90.2622978,10.2298843 89.644339,9.79418427 88.952,9.50819672 C87.3746628,8.92062977 85.6333372,8.92062977 84.056,9.50819672 C83.3589942,9.7899853 82.7375273,10.2262284 82.24,10.7829508 C81.7222131,11.3748048 81.3353415,12.0661893 81.104,12.8131148 C80.8300326,13.6842541 80.6977345,14.5925034 80.712,15.5042623 C80.697119,16.4212203 80.829412,17.3347461 81.104,18.2111475 C81.3353415,18.958073 81.7222131,19.6494575 82.24,20.2413115 C82.7335476,20.8004553 83.3563229,21.2349183 84.056,21.5081967 C85.6333372,22.0957637 87.3746628,22.0957637 88.952,21.5081967 C89.6470288,21.2306596 90.2662535,20.7967621 90.76,20.2413115 C91.2753103,19.6490208 91.6594769,18.9576014 91.888,18.2111475 C92.1654283,17.3352024 92.3004257,16.4216467 92.288,15.5042623 Z" id="Shape" fill="#FFFFFF"></path>
            <path d="M111.44,9.52393443 C111.324547,9.71603769 111.172422,9.88437276 110.992,10.0196721 C110.817946,10.1361042 110.610287,10.1940685 110.4,10.184918 C110.152445,10.1773605 109.910619,10.1097862 109.696,9.98819672 L108.856,9.53967213 C108.509248,9.3588423 108.148045,9.20620261 107.776,9.08327869 C107.331237,8.94464556 106.866484,8.87820168 106.4,8.88655738 C105.689406,8.8321497 104.982559,9.03039636 104.408,9.4452459 C103.966125,9.82716227 103.724748,10.3859675 103.752,10.9639344 C103.738008,11.3381311 103.879544,11.7017968 104.144,11.9711475 C104.440845,12.2635367 104.790924,12.4984351 105.176,12.6636066 C105.649992,12.8770552 106.139314,13.0558989 106.64,13.1986885 C107.192,13.3639344 107.752,13.544918 108.328,13.7416393 C108.901656,13.9420261 109.462651,14.1758838 110.008,14.4419672 C110.550018,14.7011989 111.044697,15.0468498 111.472,15.464918 C111.916103,15.8995411 112.269414,16.4154719 112.512,16.9836066 C112.788084,17.6692381 112.921386,18.402419 112.904,19.1396721 C112.909509,20.0336315 112.741152,20.9203789 112.408,21.7521311 C112.093345,22.5523855 111.607744,23.2768964 110.984,23.8767213 C110.322024,24.5058609 109.534854,24.9934604 108.672,25.3088525 C107.673515,25.6699409 106.615678,25.8460248 105.552,25.8281967 C104.896241,25.8277722 104.242221,25.7618604 103.6,25.6314754 C102.30634,25.3904672 101.066018,24.9269779 99.936,24.2622951 C99.4188403,23.9607956 98.9406946,23.5988175 98.512,23.1842623 L99.92,20.9967213 C100.027751,20.8268254 100.179643,20.6882891 100.36,20.5954098 C100.542498,20.4920789 100.749426,20.4378026 100.96,20.4380328 C101.265451,20.4449937 101.56249,20.5378324 101.816,20.7055738 L102.784,21.2878689 C103.18275,21.5158834 103.600208,21.710662 104.032,21.8701639 C104.566472,22.0536831 105.130025,22.1416271 105.696,22.1298361 C106.409998,22.1695346 107.116939,21.9728415 107.704,21.5711475 C108.217504,21.1211155 108.484477,20.4587892 108.424,19.784918 C108.442038,19.3674946 108.302406,18.9582694 108.032,18.6360656 C107.740264,18.3242931 107.3862,18.0751537 106.992,17.9042623 C106.521934,17.6943335 106.034919,17.5232512 105.536,17.3927869 C104.992,17.2432787 104.432,17.0780328 103.864,16.8970492 C103.287466,16.7197823 102.725781,16.4987915 102.184,16.2360656 C101.642888,15.972588 101.150688,15.6214599 100.728,15.197377 C100.286388,14.7413321 99.9362588,14.2073954 99.696,13.6236066 C99.4119479,12.8687206 99.2762104,12.0676469 99.296,11.2629508 C99.3002225,10.5004029 99.4579223,9.74622559 99.76,9.04393443 C100.078777,8.31693714 100.544159,7.66109221 101.128,7.11606557 C101.770895,6.53034669 102.523559,6.07332276 103.344,5.7704918 C104.302894,5.41851423 105.320697,5.24765678 106.344,5.26688525 C106.957534,5.26587055 107.570162,5.31323538 108.176,5.40852459 C108.753994,5.49961988 109.32188,5.64453353 109.872,5.84131148 C110.392191,6.02390913 110.895392,6.25032292 111.376,6.51803279 C111.824323,6.76785488 112.242912,7.0660928 112.624,7.40721311 L111.44,9.52393443 Z" id="Shape" fill="#FFFFFF"></path>
            <polygon id="Shape" fill="#FFFFFF" points="136.728 5.4242623 136.728 9.13836066 130.96 9.13836066 130.96 25.6078689 126.2 25.6078689 126.2 9.13836066 120.424 9.13836066 120.424 5.4242623"></polygon>
            <polygon id="Shape" fill="#FFFFFF" points="144.48 25.6078689 139.68 25.6078689 139.68 5.4242623 144.48 5.4242623"></polygon>
            <path d="M162.632,20.3829508 C162.746844,20.3847986 162.860507,20.4060937 162.968,20.4459016 C163.090701,20.4899631 163.200567,20.5629068 163.288,20.6583607 L165.176,22.6098361 C164.37222,23.6723572 163.303009,24.512619 162.072,25.0491803 C160.671199,25.6091557 159.167494,25.8771002 157.656,25.8360656 C156.221074,25.8605317 154.79653,25.5926175 153.472,25.0491803 C152.279375,24.5597833 151.207283,23.8245732 150.328,22.8931148 C149.452544,21.9435485 148.780512,20.8302611 148.352,19.6196721 C147.877763,18.3010138 147.642198,16.9107957 147.656,15.5121311 C147.642255,14.0914897 147.914132,12.6821862 148.456,11.3652459 C149.477642,8.87779618 151.506972,6.92165539 154.056,5.96721311 C155.443661,5.43879159 156.92,5.17185455 158.408,5.18032787 C159.138143,5.17542286 159.866999,5.24131515 160.584,5.37704918 C161.235108,5.50400522 161.872595,5.69106252 162.488,5.9357377 C163.048555,6.16318733 163.58456,6.44524872 164.088,6.77770492 C164.565574,7.09303971 165.008019,7.45701846 165.408,7.86360656 L163.808,9.98032787 C163.703817,10.1156168 163.5798,10.2349493 163.44,10.3344262 C163.270551,10.4541426 163.06422,10.512525 162.856,10.4996721 C162.689539,10.4995518 162.525325,10.4618634 162.376,10.3895082 C162.211175,10.3060944 162.050951,10.2141627 161.896,10.1140984 L161.336,9.76786885 C161.109396,9.63223906 160.871153,9.51638678 160.624,9.42163934 C159.894508,9.15731353 159.121271,9.02921905 158.344,9.04393443 C157.534488,9.03380035 156.731404,9.1864287 155.984,9.49245902 C155.280866,9.78291976 154.652319,10.2237536 154.144,10.7829508 C153.611866,11.3752584 153.204046,12.0652098 152.944,12.8131148 C152.644757,13.6711559 152.498604,14.5736301 152.512,15.4806557 C152.495833,16.4187389 152.641914,17.3526993 152.944,18.242623 C153.197364,19.0066884 153.599509,19.7149403 154.128,20.3278689 C155.096372,21.4131579 156.500114,22.025857 157.968,22.0039344 C158.363642,22.0084597 158.759159,21.9874309 159.152,21.9409836 C159.489451,21.9053303 159.822028,21.8341014 160.144,21.7285246 C160.448056,21.6282311 160.740375,21.4963382 161.016,21.335082 C161.302371,21.1596187 161.570348,20.9566587 161.816,20.7291803 C161.929441,20.6395917 162.052907,20.5630307 162.184,20.5009836 C162.321976,20.427923 162.475369,20.3875091 162.632,20.3829508 Z" id="Shape" fill="#FFFFFF"></path>
            <path d="M172.672,13.5921311 L173.432,13.5921311 C174.017259,13.6453095 174.589869,13.4022342 174.952,12.9468852 L179.568,6.35278689 C179.779377,6.02808769 180.082406,5.77104379 180.44,5.61311475 C180.819037,5.47732177 181.220759,5.41324552 181.624,5.4242623 L185.768,5.4242623 L179.68,13.5842623 C179.485078,13.8525833 179.259615,14.0981111 179.008,14.3160656 C178.786198,14.5032528 178.54485,14.6667892 178.288,14.8039344 C178.639823,14.9273792 178.969316,15.1053637 179.264,15.3311475 C179.579816,15.5901362 179.850101,15.898527 180.064,16.2439344 L186.256,25.6078831 L182.008,25.6078689 C181.774851,25.6084691 181.542052,25.5900453 181.312,25.5527869 C181.135762,25.5216139 180.965655,25.4631853 180.808,25.3796721 C180.669712,25.3134095 180.544976,25.2227244 180.44,25.1121311 C180.331259,24.999792 180.232249,24.8787154 180.144,24.7501639 L175.496,17.7232787 C175.346306,17.4785008 175.122526,17.2859036 174.856,17.172459 C174.519713,17.0561277 174.164257,17.0027492 173.808,17.015082 L172.656,17.015082 L172.656,25.6078689 L167.856,25.6078831 L167.856,5.4242623 L172.656,5.4242623 L172.672,13.5921311 Z" id="Shape" fill="#FFFFFF"></path>
            <polygon id="Shape" fill="#FFFFFF" points="201.792 5.4242623 201.792 9.02032787 193.368 9.02032787 193.368 13.7416393 199.824 13.7416393 199.824 17.1803279 193.368 17.1803279 193.368 21.9881967 201.792 21.9881967 201.792 25.5921311 188.584 25.5921311 188.584 5.4242623"></polygon>
            <polygon id="Shape" fill="#FFFFFF" points="220 5.4242623 220 9.13836066 214.224 9.13836066 214.224 25.6078689 209.424 25.6078689 209.424 9.13836066 203.656 9.13836066 203.656 5.4242623"></polygon>
            <g id="Group-13" transform="translate(60.000000, 34.000000)" fill="#FFFFFF">
                <path d="M10,9.99960958 L8.52005533,9.99960958 C8.37611749,10.0045947 8.23470722,9.9617186 8.11894882,9.8779927 C8.01854694,9.79756573 7.93814854,9.69591493 7.88381743,9.58070701 L7.1230982,7.54024614 L2.8769018,7.54024614 L2.11618257,9.58070701 C2.06959101,9.69662876 1.99340699,9.79897129 1.89488243,9.8779927 C1.77912404,9.9617186 1.63771377,10.0045947 1.49377593,9.99960958 L0,9.99960958 L4.03872752,0 L5.97510373,0 L10,9.99960958 Z M6.69432918,6.22948651 L5.39419087,2.91880496 C5.31840287,2.75188951 5.25372251,2.5803684 5.20055325,2.40531149 C5.20055325,2.18910372 5.06224066,1.97289594 5.00691563,1.74317518 L4.81327801,2.40531149 C4.81327801,2.60800628 4.67496542,2.7836751 4.61964039,2.93231794 L3.37482711,6.25651248 L6.69432918,6.22948651 Z" id="Shape"></path>
                <path d="M19,0.000379539355 L14.8506224,10 L13.1493776,10 L9,0.000379539355 L10.5214385,0.000379539355 C10.6696449,-0.00452394608 10.815407,0.0381984981 10.9363762,0.121996545 C11.0397681,0.196413958 11.1170677,0.300255259 11.1576763,0.419282559 L13.5781466,6.52715884 C13.6611342,6.71634085 13.7302905,6.94606186 13.813278,7.17578287 L14.0207469,7.9189979 C14.0207469,7.66225089 14.131397,7.41901688 14.2005533,7.17578287 C14.2617826,6.95568286 14.3356666,6.73913112 14.4218534,6.52715884 L16.8284924,0.419282559 C16.8672614,0.30294855 16.9452798,0.202905617 17.0497925,0.135509546 C17.1619434,0.0438200404 17.3047394,-0.0042869582 17.450899,0.000379539355 L19,0.000379539355 Z" id="Shape"></path>
                <path d="M31.9997073,5.03429356 C32.0071262,5.71405083 31.8734578,6.38904791 31.6056174,7.02436369 C31.3572648,7.61346576 30.9799931,8.15134127 30.4963273,8.60587638 C30.0083901,9.05701472 29.4218613,9.41157845 28.7740085,9.64703891 C27.3054099,10.1351942 25.6888849,10.1164209 24.2346767,9.59432182 C23.5868239,9.35886136 23.0002951,9.00429763 22.5123579,8.5531593 C22.024081,8.09936276 21.6418735,7.56152705 21.3884719,6.9716466 C20.8705094,5.69521142 20.8705094,4.29430006 21.3884719,3.01786488 C21.6418735,2.42798443 22.024081,1.89014872 22.5123579,1.43635218 C22.9975078,0.97571402 23.5842381,0.612049093 24.2346767,0.368831117 C25.4431895,-0.0427244688 26.7619695,-0.111688679 28.0150205,0.171142031 C28.481961,0.273687274 28.9295438,0.438008484 29.3432495,0.658775111 C29.7468442,0.859531428 30.1156637,1.11262867 30.4379436,1.40999364 C30.7599044,1.71338022 31.034862,2.05475252 31.2553153,2.42479762 C31.4816351,2.80322526 31.6533189,3.20627862 31.7661725,3.62411141 C31.9097659,4.08336011 31.9882376,4.55720558 31.9997073,5.03429356 Z M29.9416823,5.03429356 C29.9527097,4.54706017 29.8737849,4.06157075 29.7081475,3.59775286 C29.5628935,3.19928727 29.3295046,2.83161896 29.0221392,2.51705252 C28.7321986,2.21553683 28.3669766,1.98062911 27.9566368,1.83173036 C27.4926566,1.66504582 26.9962735,1.5843689 26.4970446,1.59450345 C25.9976591,1.58253038 25.5008695,1.66327337 25.0374524,1.83173036 C24.6241879,1.98270463 24.2547088,2.21713908 23.9573542,2.51705252 C23.6499888,2.83161896 23.4165998,3.19928727 23.2713458,3.59775286 C22.9597249,4.53477923 22.9597249,5.53380788 23.2713458,6.47083425 C23.4131044,6.87069861 23.6468854,7.23898452 23.9573542,7.55153459 C24.2547088,7.85144803 24.6241879,8.08588249 25.0374524,8.23685676 C25.5008695,8.40531374 25.9976591,8.48605674 26.4970446,8.47408366 C26.9962735,8.48421822 27.4926566,8.40354129 27.9566368,8.23685676 C28.3669766,8.08795801 28.7321986,7.85305028 29.0221392,7.55153459 C29.332608,7.23898452 29.566389,6.87069861 29.7081475,6.47083425 C29.8737849,6.00701637 29.9527097,5.52152694 29.9416823,5.03429356 Z" id="Shape"></path>
                <path d="M41.9309884,7.60008614 C42.0377573,7.60371232 42.1398523,7.64094799 42.2199105,7.7054606 L43,8.48259728 C42.5713014,8.97053386 42.0217432,9.35875919 41.3964826,9.61537279 C40.6744574,9.89033686 39.8960546,10.0206056 39.1139985,9.99735522 C38.3916593,9.98772521 37.6790042,9.84432292 37.0193136,9.57585736 C36.4047962,9.34419857 35.8527621,8.99365887 35.4013502,8.54845633 C34.9343381,8.09569141 34.579608,7.55662588 34.3612308,6.96783935 C34.1185457,6.32365978 33.9964575,5.64684144 34.0000782,4.96572451 C33.9968524,4.29095637 34.1290434,3.62134306 34.390123,2.98995329 C34.6329976,2.40680973 35.0013804,1.87386796 35.4735807,1.42250812 C35.9355988,0.960877316 36.5025623,0.596763686 37.1348824,0.355591656 C38.4978742,-0.118530552 40.0045986,-0.118530552 41.3675904,0.355591656 C41.9365285,0.57332196 42.4558616,0.88602561 42.8988773,1.27761823 L42.2343566,2.12061395 C42.1940621,2.17496977 42.1454113,2.22376492 42.0898956,2.26550384 C42.0050043,2.28818911 41.9147569,2.28818911 41.8298657,2.26550384 C41.7539168,2.28226851 41.674677,2.28226851 41.5987281,2.26550384 L41.3386982,2.12061395 L41.020884,1.93620863 C40.8819979,1.86438832 40.7370824,1.80272649 40.5875009,1.75180332 C40.1680169,1.60707912 39.7211402,1.53991578 39.2729056,1.5542262 C38.8214798,1.54990756 38.3739382,1.63062348 37.9583103,1.79131874 C37.5679576,1.93956833 37.2214901,2.16972806 36.9470831,2.46308096 C36.6398011,2.77545401 36.4084198,3.14353134 36.2681163,3.54316923 C36.1112728,4.01272312 36.0333429,4.50123083 36.0369787,4.99206812 C36.0267764,5.48970077 36.1148562,5.98494731 36.2970085,6.45413883 C36.4423921,6.85457379 36.6786594,7.22259336 36.9904214,7.5342271 C37.2771326,7.82097704 37.6265211,8.0498082 38.0160947,8.20598931 C38.4169444,8.3653698 38.8500599,8.44614691 39.2873517,8.44308186 C39.532671,8.45777627 39.7787836,8.45777627 40.0241029,8.44308186 C40.2300293,8.41470936 40.4329851,8.37064911 40.6308392,8.31136378 C40.8119289,8.25268036 40.9861451,8.17766857 41.1508989,8.08744304 C41.3275855,7.98963572 41.4922508,7.87482274 41.6420664,7.74497603 C41.6880158,7.70518244 41.7419768,7.67387262 41.8009735,7.65277337 C41.8404025,7.62809147 41.8844739,7.61023199 41.9309884,7.60008614 Z" id="Shape"></path>
                <path d="M53,9.99960958 L51.531856,9.99960958 C51.3834443,10.0045131 51.2374803,9.96179066 51.1163435,9.8779927 C51.0157333,9.8007836 50.9390252,9.69787957 50.8947368,9.58070701 L50.1191136,7.54024614 L45.867036,7.54024614 L45.1052632,9.58070701 C45.0586071,9.69662876 44.9823175,9.79897129 44.8836565,9.8779927 C44.7677378,9.9617186 44.6261317,10.0045947 44.4819945,9.99960958 L43,9.99960958 L47.0304709,0 L48.9695291,0 L53,9.99960958 Z M49.5789474,6.22948651 L48.33241,2.89177899 C48.256517,2.72486354 48.1917471,2.55334243 48.1385042,2.37828552 C48.1385042,2.16207775 48,1.94586997 47.9445983,1.71614921 C47.9445983,1.94586997 47.8199446,2.17559073 47.7506925,2.37828552 C47.6814404,2.58098031 47.6121884,2.75664913 47.5567867,2.90529197 L46.3102493,6.22948651 L49.5789474,6.22948651 Z" id="Shape"></path>
                <polygon id="Shape" points="61 1.56123822 57.9367521 1.56123822 57.9367521 10 56.0632479 10 56.0632479 1.56123822 53 1.56123822 53 0 61 0"></polygon>
                <path d="M70.3414012,1.90405588 C70.2953828,1.98152496 70.2335027,2.04943378 70.1594184,2.10376852 C70.0813723,2.12293457 69.9994869,2.12293457 69.9214409,2.10376852 C69.8015794,2.09684604 69.6857288,2.06011744 69.5854726,1.99725512 L69.1655123,1.75759995 C68.986035,1.6670162 68.7986949,1.59128986 68.6055651,1.53125896 C68.3531212,1.45119065 68.0875571,1.41510799 67.8216391,1.42474555 C67.5845404,1.41922046 67.3480931,1.45070443 67.1217052,1.51794478 C66.9372622,1.56851391 66.7657247,1.6546207 66.6177528,1.77091413 C66.4882239,1.87806355 66.3833743,2.00951618 66.3097819,2.15702523 C66.2478622,2.31934061 66.2147472,2.49031791 66.2117912,2.66296391 C66.2060325,2.87581509 66.280512,3.0836055 66.4217713,3.24878765 C66.5741598,3.4115609 66.7599524,3.542959 66.9677198,3.63489875 C67.2103249,3.75312481 67.4632476,3.85112885 67.7236484,3.92781062 L68.6055651,4.20740832 C68.908525,4.30088709 69.2033856,4.41662531 69.4874819,4.55357689 C69.7691001,4.67372061 70.0289558,4.83549112 70.2574092,5.03288722 C70.4855076,5.24271306 70.6706319,5.49101993 70.8033576,5.7651669 C70.9390813,6.09591694 71.0056521,6.4486754 70.9993391,6.80367262 C71.0082305,7.23174496 70.9273288,7.65720987 70.7613616,8.05520515 C70.6072119,8.44031756 70.3686101,8.78979714 70.0614277,9.0803967 C69.7321244,9.37303881 69.3473288,9.60347062 68.9275347,9.75941967 C68.4389002,9.9284551 67.9215104,10.0097178 67.4016788,9.99907483 C67.0778863,9.9990581 66.7547056,9.97232957 66.43577,9.91918978 C66.1212274,9.85254143 65.8123888,9.76353017 65.5118572,9.65290626 C65.2239248,9.53950331 64.9474716,9.40135085 64.6859352,9.24016681 C64.4339632,9.09170312 64.2033811,8.91267686 64,8.70759977 L64.5599471,7.82886416 C64.6061315,7.76239451 64.6685774,7.70757065 64.7419299,7.66909405 C64.8248851,7.65134182 64.910951,7.65134182 64.9939062,7.66909405 C65.1330315,7.6785736 65.2653898,7.72986058 65.3718705,7.81554999 L65.8758229,8.12177603 C66.0856013,8.24992787 66.3113093,8.35279126 66.5477594,8.42800208 C66.8389983,8.52968102 67.1474756,8.57933222 67.4576735,8.57445801 C67.9205257,8.60476095 68.3789258,8.47206973 68.7455519,8.20166109 C69.0562827,7.9291441 69.2209164,7.5376854 69.1935096,7.13652701 C69.2053091,6.90657007 69.1308974,6.68009585 68.9835294,6.49744657 C68.8348762,6.3294717 68.6544463,6.18947629 68.4515797,6.08470712 C68.2036225,5.97116551 67.9460744,5.87763737 67.6816524,5.80510942 L66.7997356,5.55214008 C66.5025377,5.4607964 66.2125075,5.34956721 65.9318176,5.21928568 C65.646808,5.09925468 65.3862003,4.93250938 65.1618903,4.72666118 C64.9268652,4.50702355 64.7411361,4.24431717 64.6159418,3.95443897 C64.4769045,3.59214856 64.4104316,3.20829763 64.4199603,2.82273402 C64.4187935,2.46130345 64.4950005,2.10343011 64.6439392,1.77091413 C64.7973579,1.43030003 65.0210879,1.12243348 65.3018771,0.865550164 C65.6084873,0.590827067 65.970385,0.377965466 66.3657766,0.239783897 C66.8126088,0.0775898325 67.2873932,-0.00369251031 67.7656444,0.000128730805 C68.3420936,-0.00364523215 68.9149723,0.0864153013 69.4594845,0.266412249 C69.9491971,0.435172479 70.3971246,0.698038893 70.7753602,1.03863445 L70.3414012,1.90405588 Z" id="Shape"></path>
                <path d="M77.7536232,10.3617398 C77.6776094,10.5575665 77.5350315,10.7245644 77.3478261,10.83704 C77.1794423,10.9399214 76.98359,10.9963884 76.7826087,11 L76,11 L80.3478261,0.611297209 C80.4220137,0.433378145 80.5474408,0.278241544 80.7101449,0.163157089 C80.8803565,0.0532056304 81.0831601,-0.00380367597 81.2898551,0.000197045206 L82,0.000197045206 L77.7536232,10.3617398 Z" id="Shape"></path>
                <polygon id="Shape" points="95 8.47297297 95 10 89 10 89 0 90.9078341 0 90.9078341 8.47297297"></polygon>
                <path d="M106,9.99921516 L104.531856,9.99921516 C104.383444,10.0041184 104.23748,9.96139773 104.116343,9.87760308 C104.015733,9.80039702 103.939025,9.69749705 103.894737,9.58032912 L103.119114,7.53994873 L98.8808864,7.53994873 L98.1052632,9.58032912 C98.0638029,9.69895058 97.9865555,9.80257402 97.8836565,9.87760308 C97.7688023,9.9633547 97.6264316,10.0064606 97.4819945,9.99921516 L96,9.99921516 L100.030471,0 L101.969529,0 L106,9.99921516 Z M102.634349,6.2292408 L101.387812,2.89166492 C101.311919,2.72475607 101.247149,2.55324172 101.193906,2.37819171 C101.193906,2.16199247 101.055402,1.94579322 101,1.71608152 C100.930748,1.94579322 100.875346,2.17550492 100.806094,2.37819171 C100.736842,2.58087851 100.66759,2.7565404 100.612188,2.90517738 L99.365651,6.2292408 L102.634349,6.2292408 Z" id="Shape"></path>
                <path d="M122,0.000731187507 L118.754468,10 L117.004704,10 L114.718721,3.16266214 C114.651683,2.9628163 114.595168,2.75987285 114.549389,2.55459849 L114.464722,2.8788991 C114.442865,2.97669572 114.409736,3.07186632 114.365945,3.16266214 L112.009407,10 L110.245532,10 L107,0.000731187507 L108.636877,0.000731187507 C108.785806,-0.00216345756 108.932557,0.035310421 109.060207,0.108831391 C109.167383,0.187425799 109.246303,0.296062465 109.285983,0.419619476 L111.06397,6.40566824 C111.06397,6.55430602 111.06397,6.71645632 111.176858,6.89211915 C111.289746,7.06778198 111.247413,7.24344481 111.289746,7.43262017 C111.315586,7.24483274 111.358072,7.05949246 111.416745,6.87860663 C111.455353,6.71876529 111.502451,6.56091403 111.557855,6.40566824 L113.603951,0.419619476 C113.65389,0.304988052 113.737152,0.206498082 113.843838,0.135856442 C113.956847,0.0418060889 114.103531,-0.00662931724 114.253057,0.000731187507 L114.817498,0.000731187507 C114.968702,-0.00417212549 115.117412,0.0385488163 115.240828,0.122343916 C115.346516,0.199687385 115.429219,0.30217629 115.480715,0.419619476 L117.65381,6.40566824 C117.752587,6.68943127 117.837253,7.02724441 117.921919,7.39208259 C117.971888,7.05953331 118.042569,6.73014122 118.133584,6.40566824 L119.911571,0.419619476 C119.944603,0.300288126 120.019298,0.195380656 120.123236,0.122343916 C120.24833,0.0418934255 120.395884,-0.000495535052 120.546566,0.000731187507 L122,0.000731187507 Z" id="Shape"></path>
                <path d="M128.011817,6.13546914 L128.011817,10 L125.988183,10 L125.988183,6.13546914 L122,0.000864206305 L123.802068,0.000864206305 C123.951628,-0.00678399816 124.098979,0.0365429984 124.215657,0.122475317 C124.326506,0.203029152 124.417173,0.304400788 124.481536,0.419746922 L126.475628,3.7572963 C126.593796,3.95998149 126.697194,4.13564198 126.78582,4.31130247 C126.874446,4.48696297 126.948301,4.66262346 127.022157,4.83828396 C127.083056,4.65829158 127.157077,4.48223636 127.243722,4.31130247 L127.539143,3.7572963 L129.533235,0.419746922 C129.590366,0.307829841 129.676578,0.210408065 129.784343,0.135987663 C129.897293,0.0427548188 130.045973,-0.00582033359 130.197932,0.000864206305 L132,0.000864206305 L128.011817,6.13546914 Z" id="Shape"></path>
                <polygon id="Shape" points="136.068522 1.47297297 136.068522 4.25675676 139.950749 4.25675676 139.950749 5.68918919 136.068522 5.68918919 136.068522 8.51351351 141 8.51351351 141 10 134 10 134 0 141 0 141 1.48648649"></polygon>
                <path d="M152,9.99887731 L150.269896,9.99887731 C149.983592,10.0140902 149.712074,9.87377553 149.564014,9.63409331 L147.418685,6.43210044 C147.352323,6.32333622 147.256546,6.23452025 147.141869,6.17540059 C147.008215,6.11326481 146.860555,6.08536759 146.712803,6.09433748 L145.910035,6.09433748 L145.910035,9.99887731 L144,9.99887731 L144,0.00109366129 L147.114187,0.00109366129 C147.71595,-0.00962867681 148.316466,0.0585323225 148.899654,0.203751438 C149.339754,0.326839017 149.752709,0.528388992 150.117647,0.79821425 C150.425896,1.04393913 150.668176,1.35926956 150.823529,1.7169295 C150.982498,2.08446031 151.062578,2.47990474 151.058824,2.87883409 C151.05767,3.20422873 151.006345,3.52760027 150.906574,3.8380809 C150.803711,4.12942306 150.654224,4.40302306 150.463668,4.64871201 C150.263034,4.89822211 150.025075,5.11683841 149.757785,5.29721689 C149.456676,5.48402507 149.130666,5.62950158 148.788927,5.72955348 C148.915008,5.79496105 149.031411,5.87677092 149.134948,5.97274281 C149.24578,6.07315537 149.343412,6.18661069 149.425606,6.31050578 L152,9.99887731 Z M147.114187,4.75679615 C147.42892,4.76356092 147.74253,4.71787059 148.041522,4.62169097 C148.287314,4.55508638 148.514453,4.43498907 148.705882,4.27041749 C148.874842,4.11552113 149.007105,3.92647217 149.093426,3.71648623 C149.178322,3.49163416 149.220534,3.2535635 149.217993,3.01393927 C149.255033,2.56773835 149.063245,2.13260016 148.705882,1.85203469 C148.242826,1.53292709 147.678813,1.3845171 147.114187,1.43320862 L145.896194,1.43320862 L145.896194,4.75679615 L147.114187,4.75679615 Z" id="Shape"></path>
                <path d="M159.32866,1.89074518 C159.287208,1.97113327 159.224642,2.03993547 159.147043,2.0904665 C159.069654,2.11307777 158.986932,2.11307777 158.909543,2.0904665 C158.79434,2.0831154 158.683343,2.04632001 158.588221,1.98394846 L158.169104,1.74428287 C157.985096,1.65381242 157.793503,1.57810061 157.596311,1.51793204 C157.117266,1.3851533 156.608449,1.3851533 156.129404,1.51793204 C155.945331,1.56850336 155.774138,1.6546139 155.626464,1.77091238 C155.493106,1.87436096 155.38771,2.0067698 155.319112,2.15704027 C155.25231,2.31803074 155.219092,2.48989195 155.221318,2.66300096 C155.215571,2.87586139 155.2899,3.08366084 155.430876,3.24885017 C155.57779,3.41129017 155.758588,3.5427911 155.961757,3.63497806 C156.208738,3.75313833 156.465785,3.85113074 156.730137,3.92790267 L157.610282,4.20751252 C157.912633,4.30099537 158.206901,4.41673862 158.490427,4.55369615 C158.769599,4.67709612 159.028439,4.83856574 159.258807,5.03302733 C159.486646,5.23980378 159.66736,5.48908573 159.789688,5.76533884 C159.936768,6.09322638 160.008232,6.44739837 159.999246,6.80388972 C160.001224,7.23143114 159.920719,7.65567678 159.761747,8.05547668 C159.602554,8.43799293 159.365102,8.78650273 159.063219,9.08071281 C158.734578,9.37336765 158.350555,9.60380948 157.931605,9.75976531 C157.443313,9.92647142 156.927419,10.0076658 156.408815,9.99943089 C156.081049,9.99925843 155.753892,9.97253271 155.430876,9.91954236 C155.122051,9.85101143 154.818619,9.76203038 154.52279,9.65324727 C154.235436,9.53983939 153.959538,9.40168092 153.698528,9.24048987 C153.445294,9.08871717 153.210952,8.91004373 153,8.70789967 L153.572793,7.82912585 C153.618884,7.76265331 153.681205,7.70782707 153.75441,7.66934879 C153.832503,7.65178069 153.913816,7.65178069 153.991909,7.66934879 C154.134985,7.67874084 154.27156,7.72987675 154.383085,7.81581109 L154.872054,8.12205046 C155.084367,8.24508469 155.309003,8.34767027 155.54264,8.42828982 C155.838482,8.52871045 156.150674,8.57830001 156.464697,8.57475212 C156.922377,8.60553766 157.375662,8.47261236 157.736017,8.20193899 C158.046124,7.92941015 158.210426,7.53793443 158.183075,7.1367586 C158.200078,6.908295 158.130696,6.68157887 157.987487,6.49765036 C157.833865,6.32948421 157.649195,6.18958574 157.442635,6.08489296 C157.196196,5.96910418 156.938953,5.87549475 156.674255,5.80528311 L155.808081,5.55230277 C155.51148,5.46095512 155.222033,5.34972109 154.941907,5.21943389 C154.65747,5.09939767 154.397386,4.93264512 154.173526,4.72678796 C153.938973,4.50714078 153.753618,4.24442298 153.628675,3.95453218 C153.483279,3.59391453 153.416722,3.20878791 153.433087,2.82277802 C153.431923,2.46133173 153.507976,2.10344283 153.656616,1.77091238 C153.802833,1.43000506 154.021658,1.12170975 154.299261,0.86550905 C154.607504,0.593578056 154.968054,0.381072901 155.361023,0.239715571 C155.807475,0.0792935077 156.280954,-0.00193212488 156.758078,4.9983598e-05 C157.333262,-0.00243281291 157.904763,0.0875958706 158.448515,0.266345081 C158.935555,0.438426961 159.381921,0.700915567 159.761747,1.03860086 L159.32866,1.89074518 Z" id="Shape"></path>
            </g>
        </g>
    </g>
</svg>