<?xml version="1.0" encoding="UTF-8"?>
<svg width="120px" height="120px" viewBox="0 0 120 120" version="1.1" xmlns="http://www.w3.org/2000/svg" xmlns:xlink="http://www.w3.org/1999/xlink">
    <!-- Generator: Sketch 49.3 (51167) - http://www.bohemiancoding.com/sketch -->
    <title>logomark</title>
    <desc>Created with Sketch.</desc>
    <defs></defs>
    <g id="logo-assets" stroke="none" stroke-width="1" fill="none" fill-rule="evenodd">
        <g id="logomark" transform="translate(-1.000000, 0.000000)" fill-rule="nonzero">
            <path d="M61,119.92 C57.1259614,119.93131 53.408945,118.389757 50.68,115.64 L5.28,70.28 C2.53936222,67.5448798 0.999223272,63.8319476 0.999223272,59.96 C0.999223272,56.0880524 2.53936222,52.3751202 5.28,49.64 L50.64,4.27 C56.3430735,-1.42113493 65.5769265,-1.42113493 71.28,4.27 L116.64,49.64 C119.380638,52.3751202 120.920777,56.0880524 120.920777,59.96 C120.920777,63.8319476 119.380638,67.5448798 116.64,70.28 L71.28,115.64 C68.5601827,118.378952 64.8599562,119.919513 61,119.92 Z" id="Shape" fill="#FBB03B"></path>
            <path d="M43.43,42.2 C43.2890428,42.4435272 43.1022733,42.6574631 42.88,42.83 C42.660253,42.9822664 42.3971794,43.0594347 42.13,43.05 C41.8227624,43.0377991 41.5235519,42.9483798 41.26,42.79 L40.2,42.22 C39.7697497,41.9935126 39.3215663,41.8028674 38.86,41.65 C38.301217,41.470225 37.7169412,41.3824147 37.13,41.39 C36.242118,41.324409 35.3597665,41.5760032 34.64,42.1 C34.0960062,42.5786358 33.7951058,43.2758442 33.82,44 C33.8065801,44.4778341 33.9827298,44.9415753 34.31,45.29 C34.6855181,45.6607962 35.1262286,45.9591233 35.61,46.17 C36.2032709,46.4366166 36.8148268,46.6605196 37.44,46.84 C38.1066667,47.0533333 38.8066667,47.2833333 39.54,47.53 C40.2610375,47.7828092 40.9657206,48.0800452 41.65,48.42 C42.3245561,48.754422 42.9421443,49.1931459 43.48,49.72 C44.0284309,50.2757634 44.466203,50.9307248 44.77,51.65 C45.1191322,52.5201736 45.2859081,53.4527572 45.26,54.39 C45.2703171,55.5254469 45.0632603,56.6523791 44.65,57.71 C44.2508962,58.7293409 43.6409059,59.6528457 42.86,60.42 C42.04535,61.2259896 41.0711714,61.8527339 40,62.26 C38.7550982,62.7178895 37.4362633,62.9416507 36.11,62.92 C35.2902626,62.9202254 34.4726595,62.8364546 33.67,62.67 C32.0477628,62.3600734 30.493567,61.7641291 29.08,60.91 C28.435309,60.5242547 27.8379215,60.0644677 27.3,59.54 L29,56.76 C29.134689,56.5440906 29.3245539,56.3680341 29.55,56.25 C29.7817736,56.1187284 30.0436333,56.0498179 30.31,56.05 C30.6883895,56.060736 31.0559626,56.1786369 31.37,56.39 L32.59,57.13 C33.0859416,57.4179182 33.6042872,57.6653865 34.14,57.87 C34.8080904,58.1032223 35.5125307,58.2149845 36.22,58.2 C37.1158624,58.2527189 38.0034283,58.0026508 38.74,57.49 C39.3789232,56.9202654 39.712353,56.0829862 39.64,55.23 C39.662676,54.6978 39.4841716,54.1765673 39.14,53.77 C38.7803861,53.3699926 38.3409435,53.0497786 37.85,52.83 C37.2606513,52.5676012 36.6522374,52.3503105 36.03,52.18 C35.35,51.99 34.65,51.79 33.93,51.56 C33.2129821,51.3295376 32.5143396,51.0454007 31.84,50.71 C31.1599781,50.3812054 30.5437451,49.9342672 30.02,49.39 C29.4594764,48.8152171 29.0177261,48.1356012 28.72,47.39 C28.3685752,46.4299444 28.2023074,45.4119781 28.23,44.39 C28.2304033,43.4204254 28.4277251,42.4610336 28.81,41.57 C29.2061892,40.6477543 29.7883127,39.817122 30.52,39.13 C31.3183814,38.3813199 32.2561642,37.7969045 33.28,37.41 C34.4786178,36.9626952 35.7508717,36.7455638 37.03,36.77 C37.8002354,36.76869 38.5693459,36.8288813 39.33,36.95 C40.0509702,37.0729511 40.7601884,37.2569464 41.45,37.5 C42.0970968,37.7318869 42.7227898,38.0196388 43.32,38.36 C43.8841474,38.675579 44.4079668,39.0583701 44.88,39.5 L43.43,42.2 Z" id="Shape" fill="#212121"></path>
            <path d="M93.21,42.2 C93.0690428,42.4435272 92.8822733,42.6574631 92.66,42.83 C92.440253,42.9822664 92.1771794,43.0594347 91.91,43.05 C91.6027624,43.0377991 91.3035519,42.9483798 91.04,42.79 L90,42.22 C89.5697497,41.9935126 89.1215663,41.8028674 88.66,41.65 C88.101217,41.470225 87.5169412,41.3824147 86.93,41.39 C86.042118,41.324409 85.1597665,41.5760032 84.44,42.1 C83.893201,42.5782428 83.5857327,43.2737068 83.6,44 C83.5859025,44.4798295 83.7662059,44.9450122 84.1,45.29 C84.4718091,45.6606698 84.9092261,45.9590628 85.39,46.17 C85.9839253,46.4350063 86.5953668,46.6588675 87.22,46.84 C87.8866667,47.0533333 88.5866667,47.2833333 89.32,47.53 C90.0410375,47.7828092 90.7457206,48.0800452 91.43,48.42 C92.1059609,48.7520681 92.7239045,49.1910444 93.26,49.72 C93.8084309,50.2757634 94.246203,50.9307248 94.55,51.65 C94.9028254,52.5193744 95.07302,53.4520407 95.05,54.39 C95.0568862,55.5260733 94.8464395,56.6529815 94.43,57.71 C94.0308962,58.7293409 93.4209059,59.6528457 92.64,60.42 C91.8157905,61.2163776 90.8350482,61.8327469 89.76,62.23 C88.5114216,62.6871058 87.1894586,62.9108227 85.86,62.89 C85.0403018,62.8894605 84.2227763,62.8056976 83.42,62.64 C81.799088,62.3254332 80.2456839,61.7297924 78.83,60.88 C78.185309,60.4942547 77.5879215,60.0344677 77.05,59.51 L78.82,56.73 C78.9507978,56.5144807 79.1373642,56.338279 79.36,56.22 C79.5922818,56.0899821 79.8538081,56.0211594 80.12,56.02 C80.4983895,56.030736 80.8659626,56.1486369 81.18,56.36 L82.4,57.1 C82.8984381,57.3897685 83.4202604,57.6372996 83.96,57.84 C84.613114,58.0806071 85.3039804,58.2025247 86,58.2 C86.8958624,58.2527189 87.7834283,58.0026508 88.52,57.49 C89.1589232,56.9202654 89.492353,56.0829862 89.42,55.23 C89.4614108,54.7085312 89.3121731,54.1897529 89,53.77 C88.6387051,53.3674942 88.1954431,53.0469817 87.7,52.83 C87.1106513,52.5676012 86.5022374,52.3503105 85.88,52.18 C85.2,51.99 84.5,51.79 83.78,51.56 C83.0629821,51.3295376 82.3643396,51.0454007 81.69,50.71 C81.0099781,50.3812054 80.3937451,49.9342672 79.87,49.39 C79.3094764,48.8152171 78.8677261,48.1356012 78.57,47.39 C78.2233803,46.4286908 78.0572616,45.4116377 78.08,44.39 C78.0804033,43.4204254 78.2777251,42.4610336 78.66,41.57 C79.0561892,40.6477543 79.6383127,39.817122 80.37,39.13 C81.1683814,38.3813199 82.1061642,37.7969045 83.13,37.41 C84.3286178,36.9626952 85.6008717,36.7455638 86.88,36.77 C87.6502354,36.76869 88.4193459,36.8288813 89.18,36.95 C89.9009702,37.0729511 90.6101884,37.2569464 91.3,37.5 C91.9495304,37.7337928 92.5783856,38.0214606 93.18,38.36 C93.7392128,38.678474 94.2593906,39.0610564 94.73,39.5 L93.21,42.2 Z" id="Shape" fill="#212121"></path>
            <polygon id="Shape" fill="#212121" points="38.57 69.43 38.57 71.91 34.77 71.91 34.77 82.91 31.63 82.91 31.63 71.91 27.83 71.91 27.83 69.43"></polygon>
            <polygon id="Shape" fill="#212121" points="44 82.94 40.89 82.94 40.89 69.43 44 69.43"></polygon>
            <path d="M56.36,79.44 C56.4326375,79.4257137 56.5073625,79.4257137 56.58,79.44 C56.6617021,79.4711696 56.7340173,79.5228233 56.79,79.59 L58,80.93 C57.4780779,81.6251038 56.7905345,82.1785762 56,82.54 C55.0811265,82.918774 54.0936222,83.1026541 53.1,83.08 C52.1540795,83.097717 51.2146212,82.9207176 50.34,82.56 C49.5535176,82.2315814 48.8473736,81.7369395 48.27,81.11 C47.705337,80.4754331 47.2735086,79.7341843 47,78.93 C46.6904194,78.046413 46.5348263,77.1162368 46.54,76.18 C46.512858,75.2323557 46.6690534,74.2883922 47,73.4 C47.3316951,72.5831544 47.8248794,71.8416772 48.45,71.22 C49.0893935,70.5979537 49.8479115,70.1115498 50.68,69.79 C51.5961192,69.4411628 52.5697851,69.268142 53.55,69.28 C54.0297968,69.2758413 54.5088187,69.3193887 54.98,69.41 C55.4097348,69.4973699 55.8312555,69.6211497 56.24,69.78 C56.614852,69.9336946 56.973318,70.1246531 57.31,70.35 C57.6278101,70.5581233 57.9198452,70.8031643 58.18,71.08 L57.15,72.5 C57.0774792,72.5841083 56.9971167,72.6611223 56.91,72.73 C56.79447,72.8060421 56.6582376,72.8444666 56.52,72.84 C56.4098924,72.8368998 56.3013456,72.8131552 56.2,72.77 C56.0915104,72.7154917 55.9878098,72.6519333 55.89,72.58 L55.52,72.35 C55.3704808,72.2595163 55.2131914,72.1825449 55.05,72.12 C54.841408,72.0442667 54.6274884,71.9841018 54.41,71.94 C54.126319,71.8885473 53.8382677,71.8651013 53.55,71.87 C53.0150247,71.863045 52.4842377,71.9651195 51.99,72.17 C51.5293521,72.3660261 51.1165743,72.6594053 50.78,73.03 C50.43555,73.4293728 50.1707803,73.8910226 50,74.39 C49.8094264,74.9673445 49.7148376,75.5720376 49.72,76.18 C49.7154757,76.7977314 49.8100085,77.4121941 50,78 C50.1686627,78.4978092 50.4299168,78.959245 50.77,79.36 C51.0849562,79.7189573 51.4738545,80.0055139 51.91,80.2 C52.3476664,80.3937063 52.8213899,80.4925407 53.3,80.49 C53.5607877,80.4895968 53.8212953,80.4728976 54.08,80.44 C54.3016381,80.4204959 54.5199848,80.3734674 54.73,80.3 C54.9294965,80.2277945 55.1233618,80.1408894 55.31,80.04 C55.5032826,79.9172132 55.687127,79.7801656 55.86,79.63 C55.9324842,79.5688748 56.0132933,79.5183691 56.1,79.48 C56.1831046,79.4493552 56.2715273,79.4357517 56.36,79.44 Z" id="Shape" fill="#212121"></path>
            <path d="M63.34,74.9 L63.84,74.9 C64.2264818,74.9330113 64.6032298,74.7672422 64.84,74.46 L67.84,70.05 C67.9776047,69.8341023 68.175895,69.6636422 68.41,69.56 C68.6624301,69.4659168 68.9307328,69.4217657 69.2,69.43 L72,69.43 L68,74.89 C67.8707732,75.0712595 67.7196261,75.2358419 67.55,75.38 C67.4071719,75.5056958 67.2492992,75.6131836 67.08,75.7 C67.3098278,75.787977 67.5254681,75.9092747 67.72,76.06 C67.9370628,76.2272404 68.1203218,76.4342552 68.26,76.67 L72.33,82.94 L69.5,82.94 C69.3469243,82.9525715 69.1930757,82.9525715 69.04,82.94 C68.925507,82.9185205 68.8144821,82.8815122 68.71,82.83 C68.6203911,82.7840125 68.5392385,82.723148 68.47,82.65 C68.3955724,82.5731834 68.3286053,82.4894745 68.27,82.4 L65.21,77.7 C65.1080748,77.5392011 64.9623662,77.4108388 64.79,77.33 C64.5683593,77.2534723 64.3342472,77.219543 64.1,77.23 L63.34,77.23 L63.34,82.98 L60.21,82.98 L60.21,69.43 L63.34,69.43 L63.34,74.9 Z" id="Shape" fill="#212121"></path>
            <polygon id="Shape" fill="#212121" points="82.88 69.43 82.88 71.84 77.34 71.84 77.34 75 81.58 75 81.58 77.32 77.34 77.32 77.34 80.53 82.88 80.53 82.88 82.95 74.19 82.95 74.19 69.43"></polygon>
            <polygon id="Shape" fill="#212121" points="95.21 69.43 95.21 71.91 91.41 71.91 91.41 82.91 88.28 82.91 88.28 71.91 84.48 71.91 84.48 69.43"></polygon>
            <path d="M74.78,50.24 C74.7882858,56.8075898 69.9911722,62.3933023 63.4976698,63.3770356 C57.0041674,64.3607689 50.7678636,60.4465642 48.8305086,54.1712188 C46.8931537,47.8958734 49.8376059,41.1473414 55.755565,38.2993483 C61.6735241,35.4513553 68.7845565,37.3607273 72.48,42.79 L61.38,53.89 L56.33,48.83 L54.17,51 L61.38,58.22 L74,45.63 C74.5345523,47.1074043 74.7987661,48.6689756 74.78,50.24 Z" id="Shape" fill="#212121"></path>
        </g>
    </g>
</svg>