<?xml version="1.0" encoding="UTF-8"?>
<svg width="55px" height="55px" viewBox="0 0 55 55" version="1.1" xmlns="http://www.w3.org/2000/svg" xmlns:xlink="http://www.w3.org/1999/xlink">
    <!-- Generator: Sketch 49.3 (51167) - http://www.bohemiancoding.com/sketch -->
    <title>diamon-2</title>
    <desc>Created with Sketch.</desc>
    <defs></defs>
    <g id="ui-design" stroke="none" stroke-width="1" fill="none" fill-rule="evenodd">
        <g id="Home" transform="translate(-272.000000, -1794.000000)">
            <g id="Group-12" transform="translate(0.000000, 1448.000000)">
                <g id="Group-11" transform="translate(272.000000, 217.000000)">
                    <g id="diamon-2" transform="translate(0.000000, 129.000000)">
                        <path d="M27.4578097,54.0262261 C25.6926974,54.0289082 24.0006537,53.3332286 22.7625542,52.0957834 L1.96257237,31.6644946 C0.70615976,30.432349 2.17279799e-16,28.7589966 0,27.0138825 C-2.17273436e-16,25.2687684 0.70615976,23.5954161 1.96257237,22.3632705 L22.7343826,1.9227451 C25.3476728,-0.640915033 29.577337,-0.640915033 32.1906272,1.9227451 L52.9624375,22.3632705 C54.2188501,23.5954161 54.9250098,25.2687684 54.9250098,27.0138825 C54.9250098,28.7589966 54.2188501,30.432349 52.9624375,31.6644946 L32.1906272,52.0957834 C30.9385804,53.3353558 29.234263,54.0305204 27.4578097,54.0262261 Z" id="Shape-Copy" fill="#212121" fill-rule="nonzero"></path>
                        <path d="M27.576,15 C28.7280058,15 29.7653287,15.1679983 30.688,15.504 C31.6106713,15.8400017 32.3973301,16.3066637 33.048,16.904 C33.6986699,17.5013363 34.1973316,18.2133292 34.544,19.04 C34.8906684,19.8666708 35.064,20.775995 35.064,21.768 C35.064,22.6213376 34.9440012,23.410663 34.704,24.136 C34.4639988,24.861337 34.1360021,25.5519967 33.72,26.208 C33.3039979,26.8640033 32.8213361,27.4986636 32.272,28.112 C31.7226639,28.7253364 31.1386698,29.3466635 30.52,29.976 L25.96,34.648 C26.5466696,34.4773325 27.1253305,34.3413338 27.696,34.24 C28.2666695,34.1386662 28.8026642,34.088 29.304,34.088 L33.656,34.088 C34.189336,34.088 34.6106651,34.2346652 34.92,34.528 C35.2293349,34.8213348 35.384,35.2079976 35.384,35.688 L35.384,38.568 L19,38.568 L19,36.968 C19,36.6586651 19.0639994,36.3280018 19.192,35.976 C19.3200006,35.6239982 19.5439984,35.3040014 19.864,35.016 L26.584,28.248 C27.1600029,27.6719971 27.6613312,27.1226693 28.088,26.6 C28.5146688,26.0773307 28.8666653,25.5626692 29.144,25.056 C29.4213347,24.5493308 29.6293326,24.0426692 29.768,23.536 C29.9066674,23.0293308 29.976,22.4933362 29.976,21.928 C29.976,20.9999954 29.7546689,20.2880025 29.312,19.792 C28.8693311,19.2959975 28.1946712,19.048 27.288,19.048 C26.9146648,19.048 26.5733349,19.1013328 26.264,19.208 C25.9546651,19.3146672 25.6773346,19.4586658 25.432,19.64 C25.1866654,19.8213342 24.9760009,20.0346654 24.8,20.28 C24.6239991,20.5253346 24.4826672,20.7919986 24.376,21.08 C24.2053325,21.5600024 23.9893346,21.9066656 23.728,22.12 C23.4666654,22.3333344 23.1120022,22.44 22.664,22.44 C22.5573328,22.44 22.4426673,22.4346667 22.32,22.424 C22.1973327,22.4133333 22.0720006,22.3973334 21.944,22.376 L19.32,21.912 C19.4906675,20.7493275 19.8186642,19.7360043 20.304,18.872 C20.7893358,18.0079957 21.3919964,17.2880029 22.112,16.712 C22.8320036,16.1359971 23.6559954,15.7066681 24.584,15.424 C25.5120046,15.1413319 26.509328,15 27.576,15 Z" id="2" fill="#FFFFFF"></path>
                    </g>
                </g>
            </g>
        </g>
    </g>
</svg>