<?xml version="1.0" encoding="UTF-8"?>
<svg width="55px" height="55px" viewBox="0 0 55 55" version="1.1" xmlns="http://www.w3.org/2000/svg" xmlns:xlink="http://www.w3.org/1999/xlink">
    <!-- Generator: Sketch 49.3 (51167) - http://www.bohemiancoding.com/sketch -->
    <title>diamond-3</title>
    <desc>Created with Sketch.</desc>
    <defs></defs>
    <g id="ui-design" stroke="none" stroke-width="1" fill="none" fill-rule="evenodd">
        <g id="Home" transform="translate(-272.000000, -1911.000000)">
            <g id="Group-12" transform="translate(0.000000, 1448.000000)">
                <g id="Group-11" transform="translate(272.000000, 217.000000)">
                    <g id="diamond-3" transform="translate(0.000000, 246.000000)">
                        <path d="M27.4578097,54.0262261 C25.6926974,54.0289082 24.0006537,53.3332286 22.7625542,52.0957834 L1.96257237,31.6644946 C0.70615976,30.432349 2.17279799e-16,28.7589966 0,27.0138825 C-2.17273436e-16,25.2687684 0.70615976,23.5954161 1.96257237,22.3632705 L22.7343826,1.9227451 C25.3476728,-0.640915033 29.577337,-0.640915033 32.1906272,1.9227451 L52.9624375,22.3632705 C54.2188501,23.5954161 54.9250098,25.2687684 54.9250098,27.0138825 C54.9250098,28.7589966 54.2188501,30.432349 52.9624375,31.6644946 L32.1906272,52.0957834 C30.9385804,53.3353558 29.234263,54.0305204 27.4578097,54.0262261 Z" id="Shape-Copy-2" fill="#212121" fill-rule="nonzero"></path>
                        <path d="M27.896,15 C29.0480058,15 30.0719955,15.162665 30.968,15.488 C31.8640045,15.813335 32.6213302,16.2533306 33.24,16.808 C33.8586698,17.3626694 34.3279984,18.0053297 34.648,18.736 C34.9680016,19.4666703 35.128,20.2373293 35.128,21.048 C35.128,21.7840037 35.0533341,22.4319972 34.904,22.992 C34.7546659,23.5520028 34.5333348,24.0373313 34.24,24.448 C33.9466652,24.8586687 33.5840022,25.2079986 33.152,25.496 C32.7199978,25.7840014 32.2266694,26.023999 31.672,26.216 C34.2533462,27.1120045 35.544,28.8666536 35.544,31.48 C35.544,32.7173395 35.3200022,33.7946621 34.872,34.712 C34.4239978,35.6293379 33.8240038,36.391997 33.072,37 C32.3199962,37.608003 31.448005,38.0639985 30.456,38.368 C29.463995,38.6720015 28.4293387,38.824 27.352,38.824 C26.2426611,38.824 25.2560043,38.7040012 24.392,38.464 C23.5279957,38.2239988 22.7600034,37.8506692 22.088,37.344 C21.4159966,36.8373308 20.8266692,36.1893373 20.32,35.4 C19.8133308,34.6106627 19.3733352,33.6720054 19,32.584 L21.208,31.688 C21.400001,31.6026662 21.5893324,31.5440002 21.776,31.512 C21.9626676,31.4799998 22.1466658,31.464 22.328,31.464 C22.669335,31.464 22.9759986,31.530666 23.248,31.664 C23.5200014,31.797334 23.7253326,31.9919987 23.864,32.248 C24.3440024,33.1333378 24.8533306,33.775998 25.392,34.176 C25.9306694,34.576002 26.562663,34.776 27.288,34.776 C27.8426694,34.776 28.3253313,34.6826676 28.736,34.496 C29.1466687,34.3093324 29.4879986,34.0693348 29.76,33.776 C30.0320014,33.4826652 30.2373326,33.1493352 30.376,32.776 C30.5146674,32.4026648 30.584,32.0240019 30.584,31.64 C30.584,31.1386642 30.5493337,30.688002 30.48,30.288 C30.4106663,29.887998 30.2160016,29.5440014 29.896,29.256 C29.5759984,28.9679986 29.0933366,28.7466674 28.448,28.592 C27.8026634,28.4373326 26.9040058,28.36 25.752,28.36 L25.752,24.936 C26.7226715,24.936 27.5066637,24.8613341 28.104,24.712 C28.7013363,24.5626659 29.162665,24.3573346 29.488,24.096 C29.813335,23.8346654 30.0293328,23.5173352 30.136,23.144 C30.2426672,22.7706648 30.296,22.3600022 30.296,21.912 C30.296,20.9946621 30.0746689,20.2880025 29.632,19.792 C29.1893311,19.2959975 28.5146712,19.048 27.608,19.048 C27.2346648,19.048 26.8933349,19.1013328 26.584,19.208 C26.2746651,19.3146672 25.9973346,19.4586658 25.752,19.64 C25.5066654,19.8213342 25.2960009,20.0346654 25.12,20.28 C24.9439991,20.5253346 24.8026672,20.7919986 24.696,21.08 C24.5253325,21.5600024 24.3093346,21.9066656 24.048,22.12 C23.7866654,22.3333344 23.4320022,22.44 22.984,22.44 C22.8773328,22.44 22.7626673,22.4346667 22.64,22.424 C22.5173327,22.4133333 22.3920006,22.3973334 22.264,22.376 L19.64,21.912 C19.8106675,20.7493275 20.1386642,19.7360043 20.624,18.872 C21.1093358,18.0079957 21.7119964,17.2880029 22.432,16.712 C23.1520036,16.1359971 23.9759954,15.7066681 24.904,15.424 C25.8320046,15.1413319 26.829328,15 27.896,15 Z" id="3" fill="#FFFFFF"></path>
                    </g>
                </g>
            </g>
        </g>
    </g>
</svg>