<?xml version="1.0" encoding="UTF-8"?>
<svg width="55px" height="55px" viewBox="0 0 55 55" version="1.1" xmlns="http://www.w3.org/2000/svg" xmlns:xlink="http://www.w3.org/1999/xlink">
    <!-- Generator: Sketch 49.3 (51167) - http://www.bohemiancoding.com/sketch -->
    <title>diamond-1</title>
    <desc>Created with Sketch.</desc>
    <defs></defs>
    <g id="ui-design" stroke="none" stroke-width="1" fill="none" fill-rule="evenodd">
        <g id="Home" transform="translate(-272.000000, -1670.000000)">
            <g id="Group-12" transform="translate(0.000000, 1448.000000)">
                <g id="Group-11" transform="translate(272.000000, 217.000000)">
                    <g id="diamond-1" transform="translate(0.000000, 5.000000)">
                        <path d="M27.4578097,54.0262261 C25.6926974,54.0289082 24.0006537,53.3332286 22.7625542,52.0957834 L1.96257237,31.6644946 C0.70615976,30.432349 2.17279799e-16,28.7589966 0,27.0138825 C-2.17273436e-16,25.2687684 0.70615976,23.5954161 1.96257237,22.3632705 L22.7343826,1.9227451 C25.3476728,-0.640915033 29.577337,-0.640915033 32.1906272,1.9227451 L52.9624375,22.3632705 C54.2188501,23.5954161 54.9250098,25.2687684 54.9250098,27.0138825 C54.9250098,28.7589966 54.2188501,30.432349 52.9624375,31.6644946 L32.1906272,52.0957834 C30.9385804,53.3353558 29.234263,54.0305204 27.4578097,54.0262261 Z" id="Shape" fill="#212121" fill-rule="nonzero"></path>
                        <path d="M20.92,34.744 L25.4,34.744 L25.4,22.984 C25.4,22.4079971 25.4159998,21.8053365 25.448,21.176 L22.808,23.368 C22.6373325,23.5066674 22.4666675,23.605333 22.296,23.664 C22.1253325,23.722667 21.9600008,23.752 21.8,23.752 C21.5226653,23.752 21.2746678,23.6906673 21.056,23.568 C20.8373322,23.4453327 20.6746672,23.3146674 20.568,23.176 L19,21.096 L26.264,15 L30.36,15 L30.36,34.744 L34.2,34.744 L34.2,38.328 L20.92,38.328 L20.92,34.744 Z" id="1" fill="#FFFFFF"></path>
                    </g>
                </g>
            </g>
        </g>
    </g>
</svg>