<svg xmlns="http://www.w3.org/2000/svg" viewBox="0 0 436.35 787.4"><defs><style>.cls-1,.cls-13,.cls-16,.cls-17,.cls-26,.cls-8{fill:#252535;}.cls-1{opacity:0.44;}.cls-2{fill:#607e80;}.cls-12,.cls-14,.cls-15,.cls-18,.cls-19,.cls-2,.cls-20,.cls-21,.cls-22,.cls-23,.cls-24,.cls-25,.cls-26,.cls-27,.cls-28,.cls-29,.cls-3,.cls-30,.cls-31,.cls-32,.cls-33,.cls-4,.cls-5,.cls-6,.cls-7,.cls-8{stroke:#252535;}.cls-12,.cls-14,.cls-15,.cls-19,.cls-2,.cls-21,.cls-23,.cls-24,.cls-25,.cls-27,.cls-28,.cls-29,.cls-3,.cls-31,.cls-5,.cls-6,.cls-7{stroke-miterlimit:10;}.cls-15,.cls-18,.cls-2,.cls-20,.cls-3,.cls-4{stroke-width:12.4px;}.cls-3{fill:#496168;}.cls-19,.cls-31,.cls-4{fill:#fff;}.cls-18,.cls-20,.cls-22,.cls-26,.cls-30,.cls-32,.cls-33,.cls-4,.cls-8{stroke-linejoin:round;}.cls-23,.cls-24,.cls-5,.cls-6,.cls-9{fill:#ab877c;}.cls-5{stroke-width:13.03px;}.cls-12,.cls-6,.cls-7,.cls-8{stroke-width:17.41px;}.cls-10,.cls-25,.cls-7{fill:#e5cbc0;}.cls-11,.cls-20,.cls-32{fill:#d0b2a0;}.cls-12,.cls-14,.cls-15,.cls-18,.cls-27,.cls-28,.cls-29,.cls-30{fill:none;}.cls-14{stroke-width:25.19px;}.cls-16{opacity:0.6;}.cls-17{opacity:0.4;}.cls-19,.cls-31{stroke-linecap:round;}.cls-19{stroke-width:13.74px;}.cls-21{fill:#666;}.cls-21,.cls-29,.cls-30,.cls-32{stroke-width:12.4px;}.cls-22,.cls-33{fill:#3a3a51;}.cls-22{stroke-width:18.3px;}.cls-23{stroke-width:13.03px;}.cls-24,.cls-25,.cls-26,.cls-27{stroke-width:17.41px;}.cls-28{stroke-width:25.19px;}.cls-31{stroke-width:13.74px;}.cls-33{stroke-width:13.04px;}</style></defs><title>chris</title><g id="Layer_2" data-name="Layer 2"><g id="chris_soueidan" data-name="chris soueidan"><ellipse class="cls-1" cx="213.52" cy="776.29" rx="194.95" ry="11.1"/><polygon class="cls-2" points="169.79 753.23 219.33 753.23 219.33 678.22 157.85 678.22 169.79 753.23"/><polygon class="cls-3" points="268.88 753.23 219.33 753.23 219.33 678.22 280.81 678.22 268.88 753.23"/><path class="cls-4" d="M218.17,475.75h0a97.3,97.3,0,0,1,97.3,97.3V678.22a0,0,0,0,1,0,0H120.88a0,0,0,0,1,0,0V573A97.3,97.3,0,0,1,218.17,475.75Z"/><path class="cls-5" d="M168.62,499.22l38,49.19a14.56,14.56,0,0,0,23,0l38-49.19a14.56,14.56,0,0,0-11.52-23.47H180.14A14.56,14.56,0,0,0,168.62,499.22Z"/><ellipse class="cls-6" cx="396.87" cy="294.11" rx="30.78" ry="49.97"/><ellipse class="cls-7" cx="39.48" cy="294.11" rx="30.78" ry="49.97"/><path class="cls-8" d="M278.94,80.58h93.17a0,0,0,0,1,0,0v64.36a0,0,0,0,1,0,0H343.3a64.36,64.36,0,0,1-64.36-64.36v0A0,0,0,0,1,278.94,80.58Z" transform="translate(651.05 225.53) rotate(180)"/><path class="cls-9" d="M130,121.16H306.31A65.81,65.81,0,0,1,372.11,187V354A153.94,153.94,0,0,1,218.17,507.95h0A153.94,153.94,0,0,1,64.23,354V187A65.81,65.81,0,0,1,130,121.16Z"/><path class="cls-10" d="M218.17,121.16H130A65.81,65.81,0,0,0,64.23,187V354A154,154,0,0,0,218.17,508h0Z"/><path class="cls-11" d="M141,121.16H295.32a50.95,50.95,0,0,1,50.95,50.95V405.81A102.14,102.14,0,0,1,244.12,507.95h-51.9A102.14,102.14,0,0,1,90.09,405.81V172.1A50.95,50.95,0,0,1,141,121.16Z"/><path class="cls-12" d="M372.11,187V354a153.94,153.94,0,0,1-307.88,0V187A65.81,65.81,0,0,1,130,121.15H306.3A65.81,65.81,0,0,1,372.11,187Z"/><path class="cls-13" d="M250,268.52l8.72,0,8.71.1c5.81.08,11.61.29,17.41.43s11.61.45,17.41.77l8.7.49,8.69.65-.05,1.43a35.48,35.48,0,0,1-4.47,3.23,46.25,46.25,0,0,1-4.44,2.42,54,54,0,0,1-8.83,3.29,58.06,58.06,0,0,1-17.5,2,57.43,57.43,0,0,1-17.32-3.19,54.3,54.3,0,0,1-8.58-3.89,49.13,49.13,0,0,1-4.26-2.73A35.16,35.16,0,0,1,250,270Z"/><path class="cls-13" d="M118.14,270.91l8.7-.65,8.7-.5c5.79-.31,11.6-.5,17.4-.76s11.61-.35,17.42-.43l8.71-.1,8.71,0,.05,1.43a35.8,35.8,0,0,1-4.23,3.53,49.11,49.11,0,0,1-4.27,2.72,54.3,54.3,0,0,1-8.58,3.89,57.79,57.79,0,0,1-17.32,3.22,57.15,57.15,0,0,1-17.5-2A52.83,52.83,0,0,1,127.1,278a49.07,49.07,0,0,1-4.44-2.44,34.35,34.35,0,0,1-4.47-3.24Z"/><path class="cls-14" d="M249.13,251.1a56.74,56.74,0,0,1,91.59-25"/><path class="cls-15" d="M178.59,321.53v4.57A17.42,17.42,0,0,0,196,343.52h44.33a17.42,17.42,0,0,0,17.42-17.42v-4.57"/><path class="cls-8" d="M85.41,21.56H291.28a0,0,0,0,1,0,0v0a99.59,99.59,0,0,1-99.59,99.59H185A99.59,99.59,0,0,1,85.41,21.56v0a0,0,0,0,1,0,0Z" transform="translate(376.7 142.72) rotate(-180)"/><path class="cls-16" d="M105.35,135.18h0a0,0,0,0,1,0,0v41.05a41.11,41.11,0,0,1-41.11,41.11h0a0,0,0,0,1,0,0V176.29A41.11,41.11,0,0,1,105.35,135.18Z"/><path class="cls-16" d="M331,135.18h0a41.11,41.11,0,0,1,41.11,41.11v41.05a0,0,0,0,1,0,0h0A41.11,41.11,0,0,1,331,176.23V135.18A0,0,0,0,1,331,135.18Z" transform="translate(703.11 352.53) rotate(180)"/><path class="cls-13" d="M188.35.77a100.76,100.76,0,0,1,39,5.47,103.19,103.19,0,0,1,34.7,20.49,105.55,105.55,0,0,1,24.73,33,107.81,107.81,0,0,1,10.39,40.78H278.88a91.68,91.68,0,0,0-4.76-35.52A94.08,94.08,0,0,0,255.6,33.21a96.24,96.24,0,0,0-30-22.74A98.51,98.51,0,0,0,188.35.77Z"/><line class="cls-14" x1="204.14" y1="245.41" x2="99.68" y2="245.41"/><polygon class="cls-17" points="276.62 709.81 162.05 683.89 162.05 683.89 280.81 683.89 276.62 709.81"/><line class="cls-18" x1="219.33" y1="770.4" x2="133.16" y2="770.4"/><line class="cls-18" x1="219.33" y1="770.4" x2="305.51" y2="770.4"/><path class="cls-19" d="M150.63,378.13c0,15.51,30.76,28.08,68.7,28.08S288,393.64,288,378.13Z"/><path class="cls-16" d="M317,346.67H119.39c-2.78-22.9-26.42-40.79-55.16-40.79v50.47a151.59,151.59,0,0,0,151.6,151.59h4.68a151.59,151.59,0,0,0,151.6-151.59V305.88C343.37,305.88,319.73,323.77,317,346.67Zm-28.14,78.4a99.17,99.17,0,0,1-54,27.89V435.88a11.31,11.31,0,0,0-11.31-11.32H215.2a11.32,11.32,0,0,0-11.32,11.32v17.44a100.08,100.08,0,0,1-82.8-75.19H315.26A99.3,99.3,0,0,1,288.81,425.07Z"/><path class="cls-20" d="M271.54,590.45h43.92a0,0,0,0,1,0,0v85.82a0,0,0,0,1,0,0h0a43.92,43.92,0,0,1-43.92-43.92v-41.9A0,0,0,0,1,271.54,590.45Z"/><polyline class="cls-4" points="271.53 582.05 271.53 602.19 315.46 602.19 315.46 578.57"/><path class="cls-20" d="M165.13,590.45h0a0,0,0,0,1,0,0v85.82a0,0,0,0,1,0,0H121.21a0,0,0,0,1,0,0v-41.9A43.92,43.92,0,0,1,165.13,590.45Z" transform="translate(286.34 1266.72) rotate(180)"/><polyline class="cls-4" points="165.13 582.05 165.13 602.19 121.2 602.19 121.2 578.57"/></g><g id="chris_soueidan_v2" data-name="chris soueidan v2"><ellipse class="cls-1" cx="213.52" cy="775.69" rx="194.95" ry="11.1"/><polygon class="cls-21" points="169.79 752.63 219.33 752.63 219.33 677.61 157.85 677.61 169.79 752.63"/><polygon class="cls-21" points="268.88 752.63 219.33 752.63 219.33 677.61 280.81 677.61 268.88 752.63"/><path class="cls-22" d="M218.17,475.15h0a97.3,97.3,0,0,1,97.3,97.3V677.61a0,0,0,0,1,0,0H120.88a0,0,0,0,1,0,0V572.44a97.3,97.3,0,0,1,97.3-97.3Z"/><path class="cls-23" d="M168.62,498.62l38,49.18a14.56,14.56,0,0,0,23,0l38-49.18a14.56,14.56,0,0,0-11.52-23.47H180.14A14.56,14.56,0,0,0,168.62,498.62Z"/><ellipse class="cls-24" cx="396.87" cy="293.5" rx="30.78" ry="49.97"/><ellipse class="cls-25" cx="39.48" cy="293.5" rx="30.78" ry="49.97"/><path class="cls-26" d="M278.94,80h93.17a0,0,0,0,1,0,0v64.36a0,0,0,0,1,0,0H343.3A64.36,64.36,0,0,1,278.94,80v0A0,0,0,0,1,278.94,80Z" transform="translate(651.05 224.32) rotate(180)"/><path class="cls-9" d="M130,120.55H306.31a65.81,65.81,0,0,1,65.81,65.81v167A153.94,153.94,0,0,1,218.17,507.34h0A153.94,153.94,0,0,1,64.23,353.4v-167A65.81,65.81,0,0,1,130,120.55Z"/><path class="cls-10" d="M218.17,120.55H130a65.81,65.81,0,0,0-65.81,65.81v167A153.94,153.94,0,0,0,218.17,507.34h0Z"/><path class="cls-11" d="M141,120.55H295.32a50.95,50.95,0,0,1,50.95,50.95V405.21A102.14,102.14,0,0,1,244.12,507.34h-51.9A102.14,102.14,0,0,1,90.09,405.21V171.5A50.95,50.95,0,0,1,141,120.55Z"/><path class="cls-27" d="M372.11,186.36v167a153.94,153.94,0,0,1-307.88,0v-167A65.81,65.81,0,0,1,130,120.55H306.3A65.81,65.81,0,0,1,372.11,186.36Z"/><path class="cls-13" d="M250,267.92l8.72-.05,8.71.1c5.81.08,11.61.28,17.41.43s11.61.44,17.41.76l8.7.5,8.69.65-.05,1.43a34.39,34.39,0,0,1-4.47,3.22,48.7,48.7,0,0,1-4.44,2.43,54,54,0,0,1-8.83,3.29,58.06,58.06,0,0,1-17.5,2,57.43,57.43,0,0,1-17.32-3.19,54.3,54.3,0,0,1-8.58-3.89,47,47,0,0,1-4.26-2.74,34.14,34.14,0,0,1-4.24-3.54Z"/><path class="cls-13" d="M118.14,270.31l8.7-.65,8.7-.5c5.79-.31,11.6-.51,17.4-.76s11.61-.35,17.42-.43l8.71-.1,8.71.05.05,1.43a34.73,34.73,0,0,1-4.23,3.52,49.26,49.26,0,0,1-4.27,2.73,55.15,55.15,0,0,1-8.58,3.88,58.12,58.12,0,0,1-17.32,3.23,57.15,57.15,0,0,1-17.5-2,54.65,54.65,0,0,1-8.83-3.29,49.07,49.07,0,0,1-4.44-2.44,35.31,35.31,0,0,1-4.47-3.24Z"/><path class="cls-28" d="M249.13,250.49a56.73,56.73,0,0,1,91.59-25"/><path class="cls-29" d="M178.59,320.93v4.56A17.42,17.42,0,0,0,196,342.91h44.33a17.42,17.42,0,0,0,17.42-17.42v-4.56"/><path class="cls-26" d="M85.41,21H291.28a0,0,0,0,1,0,0v0a99.59,99.59,0,0,1-99.59,99.59H185A99.59,99.59,0,0,1,85.41,21v0A0,0,0,0,1,85.41,21Z" transform="translate(376.7 141.51) rotate(-180)"/><path class="cls-16" d="M105.35,134.58h0a0,0,0,0,1,0,0v41.05a41.11,41.11,0,0,1-41.11,41.11h0a0,0,0,0,1,0,0V175.69A41.11,41.11,0,0,1,105.35,134.58Z"/><path class="cls-16" d="M331,134.58h0a41.11,41.11,0,0,1,41.11,41.11v41.05a0,0,0,0,1,0,0h0A41.11,41.11,0,0,1,331,175.63V134.58A0,0,0,0,1,331,134.58Z" transform="translate(703.11 351.32) rotate(-180)"/><path class="cls-13" d="M188.35.17a100.76,100.76,0,0,1,39,5.46,103.22,103.22,0,0,1,34.7,20.5,105.55,105.55,0,0,1,24.73,33A107.76,107.76,0,0,1,297.2,99.86H278.88a91.66,91.66,0,0,0-4.76-35.52A94,94,0,0,0,255.6,32.61a96.27,96.27,0,0,0-30-22.75A98.5,98.5,0,0,0,188.35.17Z"/><line class="cls-28" x1="204.14" y1="244.81" x2="99.68" y2="244.81"/><polygon class="cls-17" points="276.62 709.21 162.05 683.29 162.05 683.29 280.81 683.29 276.62 709.21"/><line class="cls-30" x1="219.33" y1="769.79" x2="133.16" y2="769.79"/><line class="cls-30" x1="219.33" y1="769.79" x2="305.51" y2="769.79"/><path class="cls-31" d="M150.63,377.53c0,15.5,30.76,28.07,68.7,28.07S288,393,288,377.53Z"/><path class="cls-16" d="M317,346.07H119.39c-2.78-22.9-26.42-40.79-55.16-40.79v50.47a151.59,151.59,0,0,0,151.6,151.59h4.68a151.59,151.59,0,0,0,151.6-151.59V305.28C343.37,305.28,319.73,323.17,317,346.07Zm-28.14,78.4a99.17,99.17,0,0,1-54,27.89V435.28A11.31,11.31,0,0,0,223.46,424H215.2a11.32,11.32,0,0,0-11.32,11.32v17.44a100.08,100.08,0,0,1-82.8-75.19H315.26A99.3,99.3,0,0,1,288.81,424.47Z"/><path class="cls-32" d="M269.07,589.85H313a0,0,0,0,1,0,0v85.82a0,0,0,0,1,0,0h0a43.92,43.92,0,0,1-43.92-43.92v-41.9A0,0,0,0,1,269.07,589.85Z"/><polyline class="cls-33" points="269.07 581.45 269.07 601.58 313 601.58 313 577.96"/><path class="cls-32" d="M167.44,589.85h0a0,0,0,0,1,0,0v85.82a0,0,0,0,1,0,0H123.52a0,0,0,0,1,0,0v-41.9A43.92,43.92,0,0,1,167.44,589.85Z" transform="translate(290.96 1265.51) rotate(-180)"/><polyline class="cls-33" points="167.45 581.45 167.45 601.58 123.51 601.58 123.51 577.96"/></g></g></svg>