<svg xmlns="http://www.w3.org/2000/svg" viewBox="0 0 398.96 691.7"><defs><style>.cls-1,.cls-18{fill:#cdcac5;}.cls-1,.cls-10,.cls-14,.cls-16,.cls-18,.cls-19,.cls-2,.cls-20,.cls-21,.cls-25,.cls-3,.cls-4,.cls-5{stroke:#252535;}.cls-1,.cls-10,.cls-14,.cls-16,.cls-17,.cls-18,.cls-19,.cls-2,.cls-20,.cls-21,.cls-25,.cls-3,.cls-4,.cls-5{stroke-linejoin:round;}.cls-1,.cls-2,.cls-21{stroke-width:9px;}.cls-19,.cls-2{fill:#e4e1db;}.cls-15,.cls-16,.cls-3,.cls-9{fill:#252535;}.cls-20,.cls-3,.cls-5{stroke-width:12px;}.cls-14,.cls-4{fill:#e4b472;stroke-width:16.84px;}.cls-21,.cls-5,.cls-8{fill:#ecccb0;}.cls-6{fill:#e8bd98;}.cls-7{fill:#f1dcc9;}.cls-10,.cls-17,.cls-20,.cls-25{fill:none;}.cls-10{stroke-width:16.84px;}.cls-11{fill:#759780;}.cls-12{fill:#c78880;}.cls-13,.cls-24{fill:#fff;}.cls-14{opacity:0.3;}.cls-15{opacity:0.4;}.cls-16{stroke-width:10.06px;}.cls-17{stroke:#fff;stroke-linecap:round;stroke-width:4px;}.cls-18,.cls-19{stroke-width:10px;}.cls-22{fill:#808f6a;}.cls-23{fill:#ae3f47;}.cls-24{fill-rule:evenodd;}</style></defs><title>heidi</title><g id="Layer_2" data-name="Layer 2"><g id="heidi"><path class="cls-1" d="M239.51,456.89h14.78a0,0,0,0,1,0,0V504.3a0,0,0,0,1,0,0h0a14.78,14.78,0,0,1-14.78-14.78V456.89A0,0,0,0,1,239.51,456.89Z" transform="translate(493.79 961.19) rotate(180)"/><path class="cls-2" d="M157.77,448.59h0a0,0,0,0,1,0,0V496a0,0,0,0,1,0,0H143a0,0,0,0,1,0,0V463.37A14.78,14.78,0,0,1,157.77,448.59Z" transform="translate(378.01 32) rotate(45)"/><path class="cls-3" d="M199.08,481.35h23.5L218,500.49a43.18,43.18,0,0,0,8.29,37h0a43.18,43.18,0,0,1,6.49,42.77l-13.65,34.77h-39.3l-13.65-34.77a43.18,43.18,0,0,1,6.49-42.77h0a43.22,43.22,0,0,0,8.29-37l-4.59-19.14h23.51"/><rect class="cls-4" x="71.2" y="168.42" width="128.28" height="280.58"/><path class="cls-4" d="M327.76,32.58h0a0,0,0,0,1,0,0V390.76A58.24,58.24,0,0,1,269.52,449h0a70,70,0,0,1-70-70V160.86A128.28,128.28,0,0,1,327.76,32.58Z" transform="translate(527.24 481.58) rotate(-180)"/><path class="cls-5" d="M237.72,465.6v8.82H161.24V465.6a22.33,22.33,0,0,1,22.33-22.33h0a2.89,2.89,0,0,0,2.89-2.9V387.24h26v53.13a2.9,2.9,0,0,0,2.9,2.9h0A22.33,22.33,0,0,1,237.72,465.6Z"/><path class="cls-6" d="M298.36,121.86V292.12a94.15,94.15,0,0,1-22.2,60.72l-41.1,48.68a46.58,46.58,0,0,1-71.16,0l-41.1-48.68a94.15,94.15,0,0,1-22.2-60.72V121.86a78.24,78.24,0,0,1,78.24-78.24h41.28A78.24,78.24,0,0,1,298.36,121.86Z"/><path class="cls-6" d="M298.36,148.16v144a94.15,94.15,0,0,1-22.2,60.72l-41.1,48.68a46.58,46.58,0,0,1-71.16,0l-41.1-48.68a94.15,94.15,0,0,1-22.2-60.72v-144Z"/><path class="cls-7" d="M199.48,43.62V418a46.58,46.58,0,0,1-35.58-16.52l-41.1-48.68a94.15,94.15,0,0,1-22.2-60.72V121.86a78.24,78.24,0,0,1,78.24-78.24Z"/><path class="cls-8" d="M269.4,121.86V292.12c0,22.23-5.57,43.74-15.7,60.72l-29.07,48.68C218.38,412,209.18,418,199.48,418h0c-9.7,0-18.9-6-25.16-16.52l-29.06-48.68c-10.14-17-15.7-38.49-15.7-60.72V121.86c0-43.21,24.77-78.24,55.33-78.24h29.18C244.63,43.62,269.4,78.65,269.4,121.86Z"/><path class="cls-9" d="M224.13,217.67a23.26,23.26,0,0,1,2.56-2.94,28.75,28.75,0,0,1,7.79-5.5,27.17,27.17,0,0,1,21.32-.8,29.38,29.38,0,0,1,5.45,2.8,33.71,33.71,0,0,1,2.75,2.05,25.1,25.1,0,0,1,2.77,2.72l.05,1.2-5.32.5-5.32.38c-3.55.24-7.11.37-10.66.56s-7.1.23-10.66.28l-5.34,0-5.34-.09Z"/><path class="cls-10" d="M298.36,121.86V292.12a94.15,94.15,0,0,1-22.2,60.72l-41.1,48.68A46.57,46.57,0,0,1,199.48,418h0a46.57,46.57,0,0,1-35.58-16.52l-41.1-48.68a94.1,94.1,0,0,1-22.2-60.72V121.86a78.24,78.24,0,0,1,78.24-78.24h41.28A78.24,78.24,0,0,1,298.36,121.86Z"/><path class="cls-9" d="M170.82,270a12,12,0,0,0,4.72,6.89,26.62,26.62,0,0,0,7.38,3.75,52,52,0,0,0,16.56,2.55A52.58,52.58,0,0,0,216,280.65a27,27,0,0,0,7.37-3.75,12,12,0,0,0,4.73-6.89,11.19,11.19,0,0,1-2.64,9,23.86,23.86,0,0,1-7.57,6,42.4,42.4,0,0,1-36.9,0,23.83,23.83,0,0,1-7.57-6A11.2,11.2,0,0,1,170.82,270Z"/><polygon class="cls-9" points="259.2 214.41 278.81 208.35 260.75 218.09 259.2 214.41"/><polygon class="cls-9" points="255.25 214.82 270.57 202.76 258.04 217.69 255.25 214.82"/><polygon class="cls-9" points="252.47 213.81 261.2 201.64 256 215.68 252.47 213.81"/><polygon class="cls-9" points="261.5 213.53 281.05 218.37 260.93 217.49 261.5 213.53"/><path class="cls-9" d="M218.77,196.1l40.35-11.93.09,0a1.31,1.31,0,0,1,.83,0l20.43,6.69a.77.77,0,0,1-.42,1.48l-20.88-5.1h.92l-39.8,13.65a2.5,2.5,0,1,1-1.62-4.74Z"/><path class="cls-9" d="M178.67,200.87l-39.8-13.65h.92l-20.88,5.1a.77.77,0,0,1-.42-1.48l20.42-6.69a1.42,1.42,0,0,1,.84,0l.09,0,40.35,11.93a2.5,2.5,0,0,1-1.42,4.8Z"/><polygon class="cls-9" points="138.21 218.09 120.14 208.35 139.75 214.41 138.21 218.09"/><polygon class="cls-9" points="140.92 217.69 128.38 202.76 143.71 214.82 140.92 217.69"/><polygon class="cls-9" points="142.96 215.68 137.76 201.64 146.49 213.81 142.96 215.68"/><polygon class="cls-9" points="138.02 217.49 117.91 218.37 137.45 213.53 138.02 217.49"/><path class="cls-11" d="M224.14,218.87a25.65,25.65,0,0,1,5.2-3.54,35.23,35.23,0,0,1,5.25-2.22,38.79,38.79,0,0,1,10.6-1.86,39.55,39.55,0,0,1,10.72,1.05,35,35,0,0,1,5.41,1.79,26,26,0,0,1,5.46,3.11l0,.8-5.32.41-5.33.32c-3.55.2-7.1.34-10.65.51s-7.11.25-10.67.32l-5.33.1h-5.34Z"/><path class="cls-9" d="M174.78,218.87l-5.34.09-5.34,0c-3.56,0-7.11-.19-10.66-.28s-7.11-.32-10.66-.56l-5.32-.38-5.32-.5.05-1.2a24.26,24.26,0,0,1,2.77-2.72,32.07,32.07,0,0,1,2.75-2.05,29.38,29.38,0,0,1,5.45-2.8,27.17,27.17,0,0,1,21.32.8,30.36,30.36,0,0,1,5.21,3.23,30.85,30.85,0,0,1,2.58,2.27,22.46,22.46,0,0,1,2.55,2.94Z"/><path class="cls-11" d="M174.78,219.67h-5.33l-5.34-.1c-3.55-.07-7.1-.21-10.66-.32s-7.1-.31-10.65-.51l-5.33-.32-5.32-.41,0-.8a25.79,25.79,0,0,1,5.46-3.11,35,35,0,0,1,5.41-1.79,39.52,39.52,0,0,1,10.71-1.05,38.79,38.79,0,0,1,10.61,1.86,35.68,35.68,0,0,1,5.25,2.22,25.65,25.65,0,0,1,5.2,3.54Z"/><path class="cls-12" d="M245.48,307.29l-30.36,22.27A23.78,23.78,0,0,1,201,334.37h-3.86A23.78,23.78,0,0,1,183,329.56l-30.36-22.27Z"/><path class="cls-13" d="M241.51,307.29l-27.76,14.63a27.72,27.72,0,0,1-12.91,3.16h-3.52a27.69,27.69,0,0,1-12.91-3.16l-27.76-14.63Z"/><path class="cls-12" d="M199.08,312.06h0Z"/><path class="cls-12" d="M215.27,304.32a18.6,18.6,0,0,0-7.72-.4l-5.16.8a19,19,0,0,1-5.83,0l-5.15-.8a18.59,18.59,0,0,0-7.72.4c-4.46,1.21-14.48,2.86-34.63,1.95,23.58,5.38,47.15,5.06,50.42,5.09s26.84.29,50.42-5.09C229.74,307.18,219.73,305.53,215.27,304.32Z"/><path class="cls-9" d="M219.53,262.71a162,162,0,0,1,19,12.75c6,4.72,11.86,9.73,16.63,16a25,25,0,0,1,3,5.26l.29.74.21.78a8.61,8.61,0,0,1,.3,1.65,13.16,13.16,0,0,1-.2,3.17,31,31,0,0,1-1.65,5.72,55,55,0,0,1-2.35,5.32,117.73,117.73,0,0,1-12.25,19.35c3.61-6.7,7.17-13.42,10.12-20.33A45.39,45.39,0,0,0,256,302.65a11.89,11.89,0,0,0,.12-2.5,5.45,5.45,0,0,0-.23-1.15l-.16-.59-.24-.59a22.84,22.84,0,0,0-2.7-4.57,68.1,68.1,0,0,0-7.4-8.32c-2.64-2.67-5.48-5.16-8.3-7.67C231.34,272.29,225.46,267.5,219.53,262.71Z"/><path class="cls-9" d="M156.65,294.26c-1.32.82-2.67,1.56-4,2.31l-2,1.08c-.36.18-.64.37-1,.55l-.46.27-.43.33a10.63,10.63,0,0,0-2,15c.42.56,1,1.13,1.47,1.7l1.52,1.74c1,1.18,2,2.35,2.93,3.59-1.25-.92-2.43-1.91-3.62-2.89l-1.75-1.5a21.38,21.38,0,0,1-1.73-1.62,11.26,11.26,0,0,1-2.52-4.24,11.5,11.5,0,0,1,1.29-9.62,10.77,10.77,0,0,1,3.53-3.45l.53-.32.55-.26a11.5,11.5,0,0,1,1.11-.47l2.17-.78C153.7,295.18,155.16,294.68,156.65,294.26Z"/><path class="cls-14" d="M287.66,92.46l-9.58,6.29L155.81,179.09,71.2,234.68V129.88A111.43,111.43,0,0,1,261.86,51.47l8.88,10.12A110.88,110.88,0,0,1,287.66,92.46Z"/><path class="cls-4" d="M287.66,82.46l-9.58,6.29L155.81,169.09,71.2,224.68V119.88A111.43,111.43,0,0,1,261.86,41.47l8.88,10.12A110.88,110.88,0,0,1,287.66,82.46Z"/><ellipse class="cls-15" cx="199.48" cy="680.42" rx="199.48" ry="11.28"/><path class="cls-16" d="M161.24,472.62h76.47a0,0,0,0,1,0,0v0a32.8,32.8,0,0,1-32.8,32.8H194a32.8,32.8,0,0,1-32.8-32.8v0A0,0,0,0,1,161.24,472.62Z"/><line class="cls-17" x1="170.12" y1="453.02" x2="199.08" y2="517.42"/><line class="cls-17" x1="228.04" y1="453.02" x2="199.08" y2="517.42"/><path class="cls-18" d="M254.72,563.61H233.23A20.28,20.28,0,0,1,213,543.34V436.15l37.25,14.74-14.5,47.41Z"/><path class="cls-19" d="M144.24,563.61h21.49A20.28,20.28,0,0,0,186,543.34V436.15l-37.25,14.74,14.5,47.41Z"/><path class="cls-5" d="M179.83,615.08h20a0,0,0,0,1,0,0v57.77a0,0,0,0,1,0,0h0a20,20,0,0,1-20-20V615.08A0,0,0,0,1,179.83,615.08Z"/><path class="cls-5" d="M219.93,615.08h0a0,0,0,0,1,0,0v57.77a0,0,0,0,1,0,0h-20a0,0,0,0,1,0,0V635.13A20,20,0,0,1,219.93,615.08Z" transform="translate(419.81 1287.93) rotate(180)"/><line class="cls-20" x1="179.83" y1="652.8" x2="179.83" y2="677.75"/><line class="cls-20" x1="219.93" y1="652.8" x2="219.93" y2="677.75"/><path class="cls-21" d="M112.58,483.4h14.78a0,0,0,0,1,0,0V522a0,0,0,0,1,0,0h0a14.78,14.78,0,0,1-14.78-14.78V483.4A0,0,0,0,1,112.58,483.4Z" transform="translate(390.61 62.41) rotate(45)"/><path class="cls-21" d="M254.29,504.3h0a0,0,0,0,1,0,0v38.62a0,0,0,0,1,0,0H239.51a0,0,0,0,1,0,0V519.08A14.78,14.78,0,0,1,254.29,504.3Z" transform="translate(493.79 1047.22) rotate(180)"/><rect class="cls-22" x="192.35" y="515.67" width="14.25" height="23.5"/><polygon class="cls-23" points="206.6 527.92 192.35 531.04 192.35 539.17 206.6 539.17 206.6 527.92"/><rect class="cls-13" x="196.83" y="525.2" width="5.3" height="8"/><rect class="cls-9" x="194.35" y="534.67" width="10.25" height="2"/><path class="cls-13" d="M201.88,519.65l0,0a.05.05,0,0,1,0-.08l.39-.42a.06.06,0,0,1,.08.08l-.39.42Z"/><path class="cls-13" d="M201.87,519.33a.05.05,0,0,1,0,0l-.33-.27a.06.06,0,0,1,0-.08.06.06,0,0,1,.08,0l.33.27a.05.05,0,0,1,0,.08A.05.05,0,0,1,201.87,519.33Z"/><path class="cls-13" d="M201.88,520.87a.06.06,0,0,1-.06-.06v-2a.06.06,0,0,1,.12,0v2A.06.06,0,0,1,201.88,520.87Z"/><path class="cls-13" d="M203,522.47H196a.06.06,0,1,1,0-.12H203a.06.06,0,0,1,0,.12Z"/><path class="cls-13" d="M197.12,523v.07c0,.09,0,.14-.13.14s-.12-.05-.12-.14v-.29c0-.08,0-.13.12-.13a.12.12,0,0,1,.13.13v.06H197v-.06s0,0,0,0-.05,0-.05,0v.3a0,0,0,0,0,.05,0,0,0,0,0,0,0,0V523Z"/><path class="cls-13" d="M197.53,523.22h-.09v-.55h.09v.24h.09v-.24h.09v.55h-.09V523h-.09Z"/><path class="cls-13" d="M198.32,523.22h-.09v-.1h-.11l0,.1H198l.08-.55h.13Zm-.2-.17h.08l0-.28Z"/><path class="cls-13" d="M198.8,523.22a.24.24,0,0,1,0-.07v-.08c0-.05,0-.07,0-.07h0v.22h-.09v-.55h.13c.09,0,.13,0,.13.13v0c0,.06,0,.1-.06.11s.06.06.06.12v.08a.15.15,0,0,0,0,.07Zm-.09-.47v.17h0s0,0,0-.06v-.05s0-.06,0-.06Z"/><path class="cls-13" d="M199.2,522.67h.09v.47h.14v.08h-.23Z"/><path class="cls-13" d="M199.82,522.9h.11V523h-.11v.16H200v.08h-.24v-.55H200v.08h-.15Z"/><path class="cls-13" d="M200.41,523.12l.07-.45h.08l-.09.55h-.13l-.08-.55h.09Z"/><path class="cls-13" d="M200.85,522.8a.12.12,0,0,1,.13-.13.12.12,0,0,1,.14.13v.29a.13.13,0,0,1-.14.14.12.12,0,0,1-.13-.14Zm.09.3a0,0,0,0,0,0,0,0,0,0,0,0,.05,0v-.3s0,0-.05,0,0,0,0,0Z"/><path class="cls-13" d="M201.44,522.67h.08v.55h-.08Z"/><path class="cls-13" d="M202.14,522.67l-.09.27.09.28h-.09L202,523l-.07.22h-.08l.1-.28-.09-.27h.08l.07.21.07-.21Z"/><path class="cls-13" d="M198.08,519.14l0,0a.06.06,0,0,1,0-.08l.87-.8a.57.57,0,0,1,.38-.17h0a.51.51,0,0,1,.36.17l.83.78a.06.06,0,0,1,0,.08,0,0,0,0,1-.08,0l-.84-.78h0a.35.35,0,0,0-.27-.13.51.51,0,0,0-.3.13h0l-.87.8Z"/><path class="cls-13" d="M199.62,518.31l0,0a.06.06,0,0,1,0-.08l.47-.43a.26.26,0,0,1,.2-.09h0a.23.23,0,0,1,.18.09l.38.36a.06.06,0,1,1-.08.08l-.38-.36h0a.16.16,0,0,0-.1-.05h0a.19.19,0,0,0-.12.05h0l-.47.43Z"/><path class="cls-13" d="M197.72,518.36l-.05,0a.06.06,0,0,1,0-.09l.46-.43a.31.31,0,0,1,.2-.08h0a.29.29,0,0,1,.19.08l.44.42a.06.06,0,0,1,0,.09.06.06,0,0,1-.08,0l-.45-.42h0a.12.12,0,0,0-.1-.06h0a.21.21,0,0,0-.12.06h0l-.46.43Z"/><path class="cls-13" d="M197.47,519.05a.4.4,0,0,1-.24-.09.06.06,0,0,1,0-.08.06.06,0,0,1,.09,0,.29.29,0,0,0,.32,0l-.59-1.07-.57,1.07.07,0a.3.3,0,0,0,.21,0,.06.06,0,0,1,.08,0,.08.08,0,0,1,0,.08.48.48,0,0,1-.29,0,.33.33,0,0,1-.16-.07,0,0,0,0,1,0-.07l.65-1.22a.06.06,0,0,1,.1,0l.67,1.22s0,.06,0,.07A.49.49,0,0,1,197.47,519.05Z"/><path class="cls-13" d="M197,520.86a.06.06,0,0,1-.06-.06v-.7a.06.06,0,1,1,.12,0v.7A.06.06,0,0,1,197,520.86Z"/><path class="cls-13" d="M196.58,519.71a.7.7,0,0,1-.26-.07.08.08,0,0,1,0-.08l.31-.57a.06.06,0,0,1,.08,0,.05.05,0,0,1,0,.08l-.27.52a.28.28,0,0,0,.27,0,.06.06,0,1,1,.06.1A.34.34,0,0,1,196.58,519.71Z"/><path class="cls-13" d="M197.5,519.71a.31.31,0,0,1-.18-.05.07.07,0,0,1,0-.08.07.07,0,0,1,.09,0,.29.29,0,0,0,.27,0l-.28-.52a.06.06,0,1,1,.11,0l.3.57a.05.05,0,0,1,0,.08A.64.64,0,0,1,197.5,519.71Z"/><path class="cls-13" d="M196.59,520.37a.64.64,0,0,1-.26-.07.05.05,0,0,1,0-.08l.3-.57a.07.07,0,0,1,.08,0,.07.07,0,0,1,0,.08l-.28.52a.31.31,0,0,0,.28,0,.06.06,0,0,1,.08,0,.08.08,0,0,1,0,.08A.36.36,0,0,1,196.59,520.37Z"/><path class="cls-13" d="M197.51,520.37a.34.34,0,0,1-.19,0,.06.06,0,1,1,.06-.1.31.31,0,0,0,.28,0l-.28-.52s0-.06,0-.08a.06.06,0,0,1,.08,0l.31.57a.08.08,0,0,1,0,.08A.64.64,0,0,1,197.51,520.37Z"/><path class="cls-13" d="M202.94,521H196a.06.06,0,1,1,0-.12h6.93a.06.06,0,1,1,0,.12Z"/><path class="cls-13" d="M200.82,520a.79.79,0,0,1-.66-.39.7.7,0,0,1-.61.36.78.78,0,0,1-.6-.34.89.89,0,0,1-.92.34.06.06,0,0,1,0-.07.06.06,0,0,1,.07-.05.92.92,0,0,0,.33,0,.62.62,0,0,0,.5-.38.05.05,0,0,1,.05,0,.06.06,0,0,1,.06,0,.67.67,0,0,0,.55.37h0a.6.6,0,0,0,.55-.38s0,0,0,0a.05.05,0,0,1,.05,0,.7.7,0,0,0,.82.38.06.06,0,1,1,0,.11A.75.75,0,0,1,200.82,520Z"/><path class="cls-13" d="M200.82,520.56a.79.79,0,0,1-.66-.39.7.7,0,0,1-.61.36.78.78,0,0,1-.6-.34.89.89,0,0,1-.92.34.06.06,0,0,1,0-.07s0-.06.07-.05a.89.89,0,0,0,.33,0,.62.62,0,0,0,.5-.38.05.05,0,0,1,.05,0,.06.06,0,0,1,.06,0,.67.67,0,0,0,.55.37h0a.6.6,0,0,0,.55-.38.07.07,0,0,1,0,0,.1.1,0,0,1,.05,0,.7.7,0,0,0,.82.38.06.06,0,1,1,0,.11A.75.75,0,0,1,200.82,520.56Z"/><path class="cls-13" d="M201.64,519.77h0a.66.66,0,0,1-.59-.42.75.75,0,0,1,0-1.07.67.67,0,0,1,.31-.52.71.71,0,0,1,.58,0,.75.75,0,0,1,.6.06.72.72,0,0,1,.27.47.74.74,0,0,1,0,1,.48.48,0,0,1-.13.35.71.71,0,0,1-.53.15.06.06,0,0,1,0-.12.59.59,0,0,0,.45-.12.35.35,0,0,0,.09-.28l0,0a.62.62,0,0,0,0-.84.08.08,0,0,1,0,0,.62.62,0,0,0-.22-.4.6.6,0,0,0-.52,0h0a.66.66,0,0,0-.49,0,.6.6,0,0,0-.26.45s0,0,0,0a.66.66,0,0,0,0,.94l0,0a.55.55,0,0,0,.48.35.06.06,0,0,1,0,.12Z"/><path class="cls-13" d="M197.06,521.59h.23v.33c0,.16-.08.26-.24.26a.23.23,0,0,1-.25-.26v-.54a.23.23,0,0,1,.25-.26c.16,0,.24.09.24.26v.1h-.15v-.11c0-.08,0-.1-.09-.1s-.08,0-.08.1v.56c0,.07,0,.1.08.1a.09.09,0,0,0,.09-.1v-.19h-.08Z"/><path class="cls-13" d="M198,521.13v.14l-.24.9h-.16l.24-.89h-.32v-.15Z"/><path class="cls-13" d="M199.89,521.27s-.08,0-.08.1v.11h-.16v-.1a.23.23,0,0,1,.25-.26c.16,0,.24.09.24.26,0,.32-.32.45-.32.62v0h.3v.15h-.47V522c0-.31.33-.36.33-.66C200,521.29,199.94,521.27,199.89,521.27Z"/><path class="cls-13" d="M200.34,521.38a.23.23,0,0,1,.24-.26.23.23,0,0,1,.25.26v.54a.23.23,0,0,1-.25.26.23.23,0,0,1-.24-.26Zm.16.55c0,.07,0,.1.08.1s.09,0,.09-.1v-.56c0-.08,0-.1-.09-.1s-.08,0-.08.1Z"/><path class="cls-13" d="M201.06,521.26a.17.17,0,0,0,.18-.13h.11v1h-.17v-.79h-.12Z"/><path class="cls-13" d="M201.89,522.18a.24.24,0,0,1-.26-.26v-.08a.24.24,0,0,1,.1-.22.24.24,0,0,1-.1-.21v0a.23.23,0,0,1,.26-.26.23.23,0,0,1,.25.26v0a.22.22,0,0,1-.1.21.24.24,0,0,1,.1.22v.08A.23.23,0,0,1,201.89,522.18Zm-.09-.74c0,.09,0,.11.09.11s.09,0,.09-.11v-.06c0-.09,0-.11-.09-.11s-.09,0-.09.11Zm.09.59c.05,0,.09,0,.09-.12v-.09q0-.12-.09-.12t-.09.12v.09C201.8,522,201.84,522,201.89,522Z"/><path class="cls-24" d="M198.81,521.16a.43.43,0,0,1,.05.12l0,0s0,0,0,0l.07,0c0,.07,0,.15-.05.23s0,0,0,0,0,0,0,0a.39.39,0,0,1,.08-.1.06.06,0,0,1,0,0l0,0h.13l0,.1s0,0,0,0,.05,0,.07,0l-.18.14a.1.1,0,0,0-.05,0s0,.06,0,.09l-.17,0h0c0,.08,0,.17,0,.24h-.05a1.93,1.93,0,0,1,0-.24h-.06l-.16,0s0-.05,0-.09,0,0-.06-.05l-.17-.13,0,0v0s0,0,0,0l0-.1h.13s0,0,0-.06l0,0,.07.08s0,0,.05,0a2.38,2.38,0,0,1-.05-.26h0l0,0s0,0,.05,0Z"/><rect class="cls-25" x="192.35" y="515.67" width="14.25" height="23.5"/></g></g></svg>