<svg xmlns="http://www.w3.org/2000/svg" viewBox="0 0 398.96 661.37"><defs><style>.cls-1,.cls-12,.cls-5{fill:#efcfb3;}.cls-1,.cls-13,.cls-15,.cls-18,.cls-19,.cls-20,.cls-21,.cls-25,.cls-3,.cls-5,.cls-6,.cls-7,.cls-8,.cls-9{stroke:#252535;}.cls-1,.cls-13,.cls-15,.cls-18,.cls-19,.cls-21,.cls-22,.cls-23,.cls-24,.cls-3,.cls-5,.cls-6,.cls-7,.cls-8,.cls-9{stroke-linejoin:round;}.cls-1{stroke-width:9px;}.cls-2{opacity:0.6;}.cls-13,.cls-15,.cls-18,.cls-22,.cls-23,.cls-24,.cls-25,.cls-3{fill:none;}.cls-14,.cls-19,.cls-4{fill:#252535;}.cls-4{opacity:0.4;}.cls-21,.cls-5,.cls-6{stroke-width:12px;}.cls-17,.cls-20,.cls-6{fill:#fff;}.cls-7{fill:#5b4945;}.cls-13,.cls-7,.cls-8,.cls-9{stroke-width:16.84px;}.cls-8{fill:#4c3d38;}.cls-10,.cls-9{fill:#deb18a;}.cls-11{fill:#f4dfcc;}.cls-15,.cls-23{stroke-width:5px;}.cls-16{fill:#ae615b;}.cls-17{opacity:0.3;}.cls-18,.cls-19,.cls-20{stroke-width:8px;}.cls-20,.cls-25{stroke-miterlimit:10;}.cls-21{fill:#3658a2;}.cls-22{stroke:#3658a2;}.cls-22,.cls-24{stroke-width:3px;}.cls-23{stroke:#7a3f3e;}.cls-24{stroke:#b09077;}.cls-25{stroke-width:2px;}</style></defs><title>laurie</title><g id="Layer_2" data-name="Layer 2"><g id="laurie-bennett"><path class="cls-1" d="M235.42,442.81h62.49a0,0,0,0,1,0,0v0a19,19,0,0,1-19,19H235.42a9.51,9.51,0,0,1-9.51-9.51v0a9.51,9.51,0,0,1,9.51-9.51Z" transform="translate(396.55 -52.72) rotate(45)"/><g class="cls-2"><line class="cls-3" x1="250.4" y1="440.64" x2="257.41" y2="447.65"/><line class="cls-3" x1="250.4" y1="447.65" x2="257.41" y2="440.64"/><line class="cls-3" x1="253.91" y1="439.19" x2="253.91" y2="449.1"/><line class="cls-3" x1="248.95" y1="444.14" x2="258.86" y2="444.14"/><path class="cls-3" d="M260.53,457.78l-2.3-2.31a2.47,2.47,0,0,1,0-3.5h0a2.47,2.47,0,0,1,3.5,0l2.31,2.3"/><line class="cls-3" x1="262.14" y1="448.05" x2="273.35" y2="461.92"/><line class="cls-3" x1="272.62" y1="453.48" x2="264.43" y2="461.67"/><line class="cls-3" x1="274.95" y1="455.81" x2="266.76" y2="464"/><line class="cls-3" x1="262.14" y1="448.05" x2="276.32" y2="458.95"/><path class="cls-3" d="M262.56,455.75a2.87,2.87,0,1,0-4.06,4.06"/><path class="cls-3" d="M260.91,459.27a2.87,2.87,0,1,0,4.06-4.06"/><path class="cls-3" d="M258.42,461.76a2.87,2.87,0,1,0,4.06-4.06"/></g><path class="cls-1" d="M110.34,442.81H153.8a19,19,0,0,1,19,19v0a0,0,0,0,1,0,0H110.34a9.51,9.51,0,0,1-9.51-9.51v0A9.51,9.51,0,0,1,110.34,442.81Z" transform="translate(553.42 675.41) rotate(135)"/><ellipse class="cls-4" cx="199.48" cy="650.09" rx="199.48" ry="11.28"/><path class="cls-5" d="M173.61,560.08h25.75a0,0,0,0,1,0,0v90a0,0,0,0,1,0,0h0a25.75,25.75,0,0,1-25.75-25.75V560.08A0,0,0,0,1,173.61,560.08Z"/><path class="cls-5" d="M225.12,560.08h0a0,0,0,0,1,0,0v90a0,0,0,0,1,0,0H199.37a0,0,0,0,1,0,0V585.83A25.75,25.75,0,0,1,225.12,560.08Z" transform="translate(424.49 1210.17) rotate(-180)"/><path class="cls-6" d="M246.2,432.58l-10,39.71H162.54l-10-39.71a24.16,24.16,0,0,1,24.14-24.14h8V365h29.38v43.48h8a24.16,24.16,0,0,1,24.14,24.14Z"/><path class="cls-5" d="M239.4,415.8a46.84,46.84,0,0,1-80.06,0,24,24,0,0,1,17.34-7.36h8V365h29.38v43.48h8A24,24,0,0,1,239.4,415.8Z"/><path class="cls-7" d="M68.63,141.75H199.37a0,0,0,0,1,0,0V380.14a0,0,0,0,1,0,0H141.12a72.49,72.49,0,0,1-72.49-72.49V141.75a0,0,0,0,1,0,0Z"/><path class="cls-8" d="M186.29,94.75h45.57A125.45,125.45,0,0,1,357.32,220.2V396.15a0,0,0,0,1,0,0h-99a72,72,0,0,1-72-72V94.75A0,0,0,0,1,186.29,94.75Z"/><ellipse class="cls-9" cx="320.35" cy="236.92" rx="40.5" ry="22.61" transform="translate(2.22 476.81) rotate(-73.5)"/><path class="cls-10" d="M301.9,129.45V302a38.53,38.53,0,0,1-17.55,32.33l-58.69,38.11a48,48,0,0,1-52.36,0l-58.69-38.11A38.53,38.53,0,0,1,97.06,302V129.45A84.25,84.25,0,0,1,181.31,45.2h36.34A84.25,84.25,0,0,1,301.9,129.45Z"/><path class="cls-11" d="M199.48,45.2v335a48,48,0,0,1-26.18-7.76l-58.69-38.11A38.53,38.53,0,0,1,97.06,302V129.45A84.25,84.25,0,0,1,181.31,45.2Z"/><path class="cls-12" d="M291.35,251.48,267,273.73l-27.45-45.19s30-31.08,53.85-.9A17.59,17.59,0,0,1,291.35,251.48Z"/><path class="cls-12" d="M107.61,251.48,132,273.73l27.44-45.19s-30-31.08-53.85-.9A17.59,17.59,0,0,0,107.61,251.48Z"/><path class="cls-12" d="M211.73,45.19H187.22c-31.38,0-56.82,37.72-56.82,84.25V302c0,13.05,4.45,25.22,11.83,32.33l39.59,38.11c10.74,10.34,24.58,10.34,35.32,0l39.58-38.11c7.39-7.11,11.84-19.28,11.84-32.33V129.44C268.56,82.91,243.12,45.19,211.73,45.19Z"/><path class="cls-13" d="M217.65,45.19H181.31a84.25,84.25,0,0,0-84.25,84.25V302a38.55,38.55,0,0,0,17.55,32.33l58.68,38.11a48.08,48.08,0,0,0,52.37,0l58.69-38.11A38.57,38.57,0,0,0,301.9,302V129.44A84.25,84.25,0,0,0,217.65,45.19Z"/><path class="cls-14" d="M181.8,254.82a7.76,7.76,0,0,0-6.51,6.55,6.74,6.74,0,0,0,.82,4.16,6.36,6.36,0,0,0,2.94,2.62,5.7,5.7,0,0,0,1.85.45,7.45,7.45,0,0,0,.95,0l1.36-.06c1.8-.1,3.61-.14,5.42-.2,3.62-.11,7.23-.15,10.85-.16s7.23,0,10.85.15c1.8.06,3.61.11,5.42.2l1.36.06a7.45,7.45,0,0,0,.95,0,5.44,5.44,0,0,0,1.84-.44,6.38,6.38,0,0,0,2.94-2.63,6.71,6.71,0,0,0,.82-4.15,7.75,7.75,0,0,0-6.51-6.55,8,8,0,0,1,5.55,1.08,9,9,0,0,1,3.82,4.76,9.62,9.62,0,0,1-.08,6.46,10.27,10.27,0,0,1-4.31,5.19,10.79,10.79,0,0,1-3.28,1.26,13.1,13.1,0,0,1-1.74.21l-1.36.06c-1.81.09-3.62.14-5.42.2-3.62.11-7.24.15-10.85.15s-7.23-.05-10.85-.16c-1.81-.06-3.62-.11-5.42-.2l-1.36-.06a10.7,10.7,0,0,1-1.75-.21,10.57,10.57,0,0,1-3.27-1.26,10.17,10.17,0,0,1-4.3-5.18,9.62,9.62,0,0,1-.08-6.46,9,9,0,0,1,3.81-4.75A8,8,0,0,1,181.8,254.82Z"/><line class="cls-15" x1="184.4" y1="263.01" x2="195.57" y2="271.19"/><line class="cls-15" x1="214.56" y1="263.01" x2="203.39" y2="271.19"/><path class="cls-14" d="M219.6,213.77a20.23,20.23,0,0,1,2.5-2.37,27.9,27.9,0,0,1,2.49-1.81,28.45,28.45,0,0,1,5-2.51,28.17,28.17,0,0,1,19.95,0,28.38,28.38,0,0,1,5,2.5,24.73,24.73,0,0,1,5,4.16v1l-5,.24-5,.14c-3.32.08-6.65.08-10,.12s-6.65,0-10-.12l-5-.14-5-.24Z"/><path class="cls-14" d="M179.36,214.77l-5,.24-5,.14c-3.33.08-6.65.08-10,.12s-6.65,0-10-.12l-5-.14-5-.24v-1a24.46,24.46,0,0,1,5-4.16,28.13,28.13,0,0,1,24.94-2.53,28.8,28.8,0,0,1,5,2.51,27.9,27.9,0,0,1,2.49,1.81,21.76,21.76,0,0,1,2.5,2.37Z"/><path class="cls-14" d="M259.51,214.27a10,10,0,0,0-2.89-5.44,16.58,16.58,0,0,0-5.07-3.35,25.37,25.37,0,0,0-5.87-1.78,32.22,32.22,0,0,0-6.13-.57,30.48,30.48,0,0,0-12,2.35,17,17,0,0,0-5.07,3.35,10,10,0,0,0-2.89,5.44,9.14,9.14,0,0,1,1.76-6.38,15.9,15.9,0,0,1,5.13-4.49,27.72,27.72,0,0,1,26.12,0,16.05,16.05,0,0,1,5.14,4.49A9.19,9.19,0,0,1,259.51,214.27Z"/><path class="cls-14" d="M139.45,214.27a9.14,9.14,0,0,1,1.76-6.38,16,16,0,0,1,5.13-4.49,27.74,27.74,0,0,1,26.13,0,16,16,0,0,1,5.13,4.49,9.19,9.19,0,0,1,1.76,6.38,10,10,0,0,0-2.89-5.44,17,17,0,0,0-5.07-3.35,30.53,30.53,0,0,0-12-2.35,32.3,32.3,0,0,0-6.13.57,25.44,25.44,0,0,0-5.86,1.78,16.62,16.62,0,0,0-5.08,3.35A9.89,9.89,0,0,0,139.45,214.27Z"/><polygon class="cls-14" points="248.79 209.46 279.47 215.3 248.26 214.44 248.79 209.46"/><polygon class="cls-14" points="248.97 209.51 277.46 205.63 250.08 214.39 248.97 209.51"/><polygon class="cls-14" points="150.7 214.44 119.48 215.3 150.16 209.46 150.7 214.44"/><polygon class="cls-14" points="148.88 214.39 121.49 205.63 149.98 209.51 148.88 214.39"/><path class="cls-14" d="M219.42,174.53l53.19-4,.23,0a1.71,1.71,0,0,1,1.09.29l13.49,8.92-.64,1.24-15.12-5.71,1.32.27-52.83,8.85Z"/><path class="cls-14" d="M178.8,190.37,126,181.52l1.32-.27L112.17,187l-.63-1.23L125,176.8a1.71,1.71,0,0,1,1.09-.29l.23,0,53.19,4Z"/><path class="cls-16" d="M127.15,292.5a21.47,21.47,0,0,0,4.42,1.36,27.6,27.6,0,0,0,4.53.54,54.21,54.21,0,0,0,9.09-.4,125,125,0,0,0,17.88-3.68c2.94-.81,5.87-1.7,8.77-2.63l2.23-.74a23.69,23.69,0,0,1,2.61-.65,23.52,23.52,0,0,1,8.07-.12l2.37.43,4.59.83,4.55.88a18.44,18.44,0,0,0,5.79.1l1-.17,1.14-.22,4.58-.87,4.59-.84a23.51,23.51,0,0,1,5.33-.42,24,24,0,0,1,5.33.79c.43.11.86.24,1.28.38l1.09.37,2.18.71c2.9.9,5.81,1.77,8.75,2.46a63.33,63.33,0,0,0,17.81,2.05,31.42,31.42,0,0,0,8.78-1.61,24,24,0,0,0,7.89-4.55,21.87,21.87,0,0,1-3.16,3.52,23.91,23.91,0,0,1-3.95,2.77,25.25,25.25,0,0,1-4.44,2,33,33,0,0,1-4.71,1.25,57.7,57.7,0,0,1-19.27-.07c-3.16-.49-6.29-1.14-9.37-1.92l-2.3-.6-1.14-.31-1-.23a17.78,17.78,0,0,0-3.91-.4,19.88,19.88,0,0,0-3.93.47l-4.56,1-4.57.93-1.14.23c-.37.08-.87.17-1.3.24a24.6,24.6,0,0,1-2.71.26,24,24,0,0,1-5.41-.42l-4.6-.93-4.56-1-2.21-.46c-.64-.11-1.29-.2-1.94-.26a17.64,17.64,0,0,0-3.91.1c-.65.09-1.3.23-1.94.38l-2.24.59c-3.06.8-6.15,1.5-9.27,2.07a94,94,0,0,1-19,1.76,45.6,45.6,0,0,1-9.52-1.12A22.17,22.17,0,0,1,127.15,292.5Z"/><path class="cls-14" d="M235.22,261c6.15,2.2,12.17,4.68,18.15,7.25,3,1.26,5.95,2.61,8.93,3.92l8.86,4.08,2.2,1.05c.35.16.76.39,1.16.62l.6.33.56.41a12,12,0,0,1,3.63,4.09,12.16,12.16,0,0,1,.48,10.54,12.81,12.81,0,0,1-3.09,4.26l-3.57,3.33c-2.41,2.19-4.81,4.39-7.31,6.49,2-2.56,4.14-5,6.26-7.51l3.21-3.67c.29-.31.51-.61.74-.9a5.59,5.59,0,0,0,.63-.9,9.09,9.09,0,0,0,.95-2,9.92,9.92,0,0,0-.78-8.3,9.73,9.73,0,0,0-2.84-3.08l-.43-.31-.47-.25c-.31-.16-.6-.33-1-.5l-2.21-1-8.79-4.22c-2.91-1.46-5.83-2.87-8.72-4.38C246.59,267.4,240.84,264.34,235.22,261Z"/><path class="cls-14" d="M233.23,300.15a34.51,34.51,0,0,1-7.51,4.76,35.79,35.79,0,0,1-8.64,2.67,36.26,36.26,0,0,1-4.54.52c-1.49.09-2.91.12-4.37.17-2.89.09-5.79.13-8.69.14s-5.8,0-8.7-.13c-1.46-.06-2.87-.09-4.37-.18a34.31,34.31,0,0,1-4.53-.51,35.32,35.32,0,0,1-8.65-2.68,33.84,33.84,0,0,1-7.5-4.76c1.41.43,2.78,1,4.16,1.36s2.74.8,4.13,1.08a50.21,50.21,0,0,0,8.3,1.09c1.38.07,2.76.07,4.14,0l4.32-.16q4.35-.14,8.7-.13c2.9,0,5.8,0,8.69.13l4.33.16c1.37.05,2.75.06,4.14,0a49.19,49.19,0,0,0,8.3-1.1c1.39-.28,2.76-.66,4.13-1.08S231.82,300.58,233.23,300.15Z"/><path class="cls-14" d="M127.15,284.2a9.75,9.75,0,0,0-5,3.26,8.06,8.06,0,0,0,0,10.07,9.69,9.69,0,0,0,5,3.27,7.44,7.44,0,0,1-6.7-1.6,8.79,8.79,0,0,1,0-13.4A7.44,7.44,0,0,1,127.15,284.2Z"/><path class="cls-14" d="M139,156.33a96.32,96.32,0,0,0,42.62-18.77,107.63,107.63,0,0,0,29.35-35.22A124.23,124.23,0,0,0,224.32,59a132,132,0,0,0,.73-22.56c-.18-3.75-.56-7.49-1.06-11.2-.29-1.87-.53-3.65-.85-5.59l-1-5.86,16.71-2.09.47,5.93c.16,2,.27,4.14.4,6.2.18,4.18.23,8.35.07,12.52a146.22,146.22,0,0,1-3,24.72,134.85,134.85,0,0,1-18.59,45.54,121.13,121.13,0,0,1-15.3,19.1A108.56,108.56,0,0,1,184,141,98.42,98.42,0,0,1,139,156.33Z"/><path class="cls-17" d="M314.52,222.4c0,20.46-23.23,37-51.87,37-1.94,0-3.85-.08-5.73-.23l18.85-72.66C298.06,190.7,314.52,205.18,314.52,222.4Z"/><path class="cls-17" d="M84.44,222.4c0,20.46,23.22,37,51.87,37,1.94,0,3.85-.08,5.72-.23l-18.84-72.66C100.9,190.7,84.44,205.18,84.44,222.4Z"/><path class="cls-18" d="M314.52,222.4c0,20.46-23.23,37-51.87,37-1.94,0-3.85-.08-5.73-.23-26-2-46.15-17.74-46.15-36.82,0-20.46,23.23-37.05,51.88-37.05a70.89,70.89,0,0,1,13.12,1.21C298.06,190.7,314.52,205.18,314.52,222.4Z"/><ellipse class="cls-18" cx="136.31" cy="222.4" rx="51.87" ry="37.04"/><path class="cls-19" d="M292.09,191.91h37.37v7.19l-20.63,6.43S297.49,194.24,292.09,191.91Z"/><path class="cls-19" d="M106.87,191.91H69.5v7.19l20.63,6.43S101.47,194.24,106.87,191.91Z"/><line class="cls-18" x1="188.18" y1="217.62" x2="210.77" y2="217.62"/><path class="cls-7" d="M226.49,8.42h11.17a82.69,82.69,0,0,1,82.69,82.69v38.31a0,0,0,0,1,0,0H290.84a64.34,64.34,0,0,1-64.34-64.34V8.42A0,0,0,0,1,226.49,8.42Z"/><circle class="cls-20" cx="330.33" cy="263.48" r="10.25"/><path class="cls-21" d="M241.28,552.5,225.12,589h-51.5L157.46,552.5a45.09,45.09,0,0,1,2-40.48l5.15-9.1a20.7,20.7,0,0,0,2.06-15.25l-3.87-15.38H236l-3.87,15.38a20.7,20.7,0,0,0,2.06,15.25l5.15,9.1A45.09,45.09,0,0,1,241.28,552.5Z"/><rect class="cls-22" x="171.66" y="449.08" width="10.4" height="10.4" transform="translate(373.03 8) rotate(45)"/><rect class="cls-22" x="201.03" y="449.08" width="10.4" height="10.4" transform="translate(673.29 629.68) rotate(135)"/><rect class="cls-22" x="186.35" y="449.08" width="10.4" height="10.4" transform="translate(377.33 -2.39) rotate(45)"/><rect class="cls-22" x="215.72" y="449.08" width="10.4" height="10.4" transform="translate(698.36 619.29) rotate(135)"/><line class="cls-23" x1="159.18" y1="490.14" x2="239.55" y2="490.14"/><polyline class="cls-24" points="208.51 486.32 195.59 486.32 195.59 493.94 208.51 493.94"/><path class="cls-7" d="M177.95,8.42h57.27a0,0,0,0,1,0,0v0A133.33,133.33,0,0,1,101.89,141.75H68.63a0,0,0,0,1,0,0v-24A109.32,109.32,0,0,1,177.95,8.42Z"/><circle class="cls-25" cx="215.66" cy="250.86" r="1.6"/></g></g></svg>