<svg xmlns="http://www.w3.org/2000/svg" viewBox="0 0 418.87 764.6"><defs><style>.cls-1{fill:#38384f;}.cls-1,.cls-10,.cls-11,.cls-13,.cls-17,.cls-19,.cls-2,.cls-20,.cls-21,.cls-22,.cls-24,.cls-25,.cls-26,.cls-27,.cls-28,.cls-29,.cls-30,.cls-31,.cls-32,.cls-4,.cls-5,.cls-7,.cls-9{stroke:#252535;}.cls-1,.cls-10,.cls-11,.cls-13,.cls-17,.cls-19,.cls-2,.cls-20,.cls-21,.cls-22,.cls-24,.cls-25,.cls-26,.cls-27,.cls-28,.cls-29,.cls-30,.cls-31,.cls-32,.cls-4,.cls-5,.cls-6,.cls-7,.cls-9{stroke-linejoin:round;}.cls-1,.cls-19,.cls-2,.cls-4,.cls-6,.cls-7,.cls-9{stroke-width:12px;}.cls-16,.cls-2,.cls-5{fill:#d7bb9c;}.cls-18,.cls-22,.cls-25,.cls-3{fill:#252535;}.cls-10,.cls-3{opacity:0.4;}.cls-4{fill:#50505b;}.cls-24,.cls-25,.cls-27,.cls-30,.cls-5{stroke-width:8px;}.cls-13,.cls-17,.cls-19,.cls-24,.cls-32,.cls-6{fill:none;}.cls-6{stroke:#ed7c07;}.cls-10,.cls-11,.cls-7{fill:#4f4f60;}.cls-23,.cls-8,.cls-9{fill:#fff;}.cls-10,.cls-11{stroke-width:6px;}.cls-12{opacity:0.6;}.cls-14,.cls-20{fill:#b9997d;}.cls-15,.cls-21{fill:#efd5bd;}.cls-17,.cls-20,.cls-21,.cls-22{stroke-width:16.84px;}.cls-23{opacity:0.3;}.cls-26{fill:#e75a24;}.cls-26,.cls-27,.cls-28,.cls-29,.cls-30,.cls-31,.cls-32{stroke-linecap:round;}.cls-26,.cls-28,.cls-29,.cls-31{stroke-width:5px;}.cls-27{fill:#a27b4e;}.cls-28{fill:#82bc3f;}.cls-29{fill:#534741;}.cls-30{fill:#d0a775;}.cls-31{fill:#f1a63b;}.cls-32{stroke-width:3px;}</style></defs><title>naeem</title><g id="Layer_2" data-name="Layer 2"><g id="naeem"><path class="cls-1" d="M153.63,473.91h25.81a0,0,0,0,1,0,0v35.41a25.81,25.81,0,0,1-25.81,25.81h0a0,0,0,0,1,0,0V473.91A0,0,0,0,1,153.63,473.91Z" transform="translate(-337.99 671.06) rotate(-90)"/><path class="cls-2" d="M110.92,466.61h0a0,0,0,0,1,0,0v75.82a0,0,0,0,1,0,0H85.11a0,0,0,0,1,0,0v-50A25.81,25.81,0,0,1,110.92,466.61Z" transform="translate(-406.5 602.54) rotate(-90)"/><ellipse class="cls-3" cx="219.39" cy="753.31" rx="199.48" ry="11.28"/><rect class="cls-2" x="218.31" y="709.67" width="27.33" height="21"/><rect class="cls-2" x="190.98" y="709.67" width="27.33" height="21" transform="translate(409.29 1440.35) rotate(180)"/><polygon class="cls-1" points="271.35 491.13 218.31 473.17 165.27 491.13 165.27 649.31 271.35 649.31 271.35 491.13"/><rect class="cls-4" x="218.31" y="642.81" width="27.33" height="66.86"/><rect class="cls-4" x="190.98" y="642.81" width="27.33" height="66.86" transform="translate(409.29 1352.49) rotate(-180)"/><path class="cls-5" d="M252.85,488.05l-34.54-22.83-34.54,22.83,27.52,36.85a8.76,8.76,0,0,0,14,0Z"/><line class="cls-6" x1="253.31" y1="552.35" x2="253.31" y2="480.8"/><line class="cls-6" x1="183.31" y1="552.35" x2="183.31" y2="480.8"/><rect class="cls-7" x="183.31" y="552.35" width="70" height="132.14"/><circle class="cls-8" cx="204.65" cy="576.17" r="11.47"/><path class="cls-9" d="M185.77,730.67h32.54a0,0,0,0,1,0,0v20.5a0,0,0,0,1,0,0h-53a0,0,0,0,1,0,0v0A20.5,20.5,0,0,1,185.77,730.67Z"/><path class="cls-9" d="M218.31,730.67h53a0,0,0,0,1,0,0v20.5a0,0,0,0,1,0,0H238.81a20.5,20.5,0,0,1-20.5-20.5v0A0,0,0,0,1,218.31,730.67Z" transform="translate(489.66 1481.85) rotate(-180)"/><rect class="cls-10" x="199.1" y="611.89" width="38.43" height="38.43"/><rect class="cls-11" x="199.1" y="607.89" width="38.43" height="38.43"/><path class="cls-1" d="M271.35,491.13h0a25.81,25.81,0,0,1,25.81,25.81v35.41a0,0,0,0,1,0,0H271.35a0,0,0,0,1,0,0V491.13A0,0,0,0,1,271.35,491.13Z"/><path class="cls-2" d="M271.35,552.35h25.81a0,0,0,0,1,0,0v75.82a0,0,0,0,1,0,0h0a25.81,25.81,0,0,1-25.81-25.81v-50A0,0,0,0,1,271.35,552.35Z"/><g class="cls-12"><polygon class="cls-13" points="295.59 589.53 295.59 596.66 281.32 596.66 281.32 589.53 284.89 593.1 288.45 589.53 292.02 593.1 295.59 589.53"/><rect class="cls-13" x="281.33" y="596.67" width="14.26" height="2.51"/><circle class="cls-13" cx="288.46" cy="587.63" r="1.84"/><circle class="cls-13" cx="281.33" cy="587.63" r="1.84"/><circle class="cls-13" cx="295.59" cy="587.63" r="1.84"/></g><g class="cls-12"><polygon class="cls-13" points="289.4 580.51 289.4 580.51 279.49 568.09 289.4 568.09 289.4 580.51"/><polygon class="cls-13" points="279.49 568.09 289.4 568.09 289.4 561.88 279.49 568.09"/><polygon class="cls-13" points="289.4 580.51 289.4 580.51 299.31 568.09 289.4 568.09 289.4 580.51"/><polygon class="cls-13" points="299.31 568.09 289.4 568.09 289.4 561.88 299.31 568.09"/><polygon class="cls-13" points="289.4 580.51 289.4 580.51 284.44 568.09 289.4 568.09 289.4 580.51"/><polygon class="cls-13" points="284.44 568.09 289.4 568.09 289.4 561.88 284.44 568.09"/><polygon class="cls-13" points="289.4 580.51 289.4 580.51 294.36 568.09 289.4 568.09 289.4 580.51"/><polygon class="cls-13" points="294.36 568.09 289.4 568.09 289.4 561.88 294.36 568.09"/></g><path class="cls-14" d="M325.7,129.15v253.9a70,70,0,0,1-18.16,47l-24.5,27L271.5,469.8a70.37,70.37,0,0,1-104.22,0L165,467.32l-9.29-10.24-24.5-27a70,70,0,0,1-18.16-47V129.15a58.43,58.43,0,0,1,58.46-58.46h95.7a58.46,58.46,0,0,1,58.46,58.46Z"/><path class="cls-15" d="M219.39,70.69V492.88a70.06,70.06,0,0,1-52.11-23.08L165,467.32l-9.29-10.24-24.5-27a70,70,0,0,1-18.16-47V129.15a58.43,58.43,0,0,1,58.46-58.46Z"/><ellipse class="cls-16" cx="286.6" cy="301.92" rx="31.09" ry="34.1"/><ellipse class="cls-16" cx="152.17" cy="301.92" rx="31.09" ry="34.1"/><path class="cls-16" d="M290.6,129.15v253.9c0,17.38-4.33,34.14-12.16,47l-16.41,27L254.3,469.8c-18.71,30.77-51.11,30.77-69.82,0L183,467.32l-6.22-10.24-16.42-27c-7.82-12.88-12.16-29.64-12.16-47V129.15c0-25.93,11.31-47.91,27-55.56a27.37,27.37,0,0,1,12.19-2.9h64.11c8.36,0,16.1,3.91,22.47,10.57C284,91.83,290.6,109.34,290.6,129.15Z"/><path class="cls-17" d="M325.7,129.15v253.9a70,70,0,0,1-18.16,47l-24.5,27L271.5,469.8a70.37,70.37,0,0,1-104.22,0L165,467.32l-9.29-10.24-24.5-27a70,70,0,0,1-18.16-47V129.15a58.43,58.43,0,0,1,58.46-58.46h95.7a58.46,58.46,0,0,1,58.46,58.46Z"/><path class="cls-18" d="M192.51,303.94a13.36,13.36,0,0,0-1.46,2.93,10.69,10.69,0,0,0-.66,3,11.3,11.3,0,0,0,1,5.67,10.9,10.9,0,0,0,1.46,2.31c.31.33.59.67.92,1l.5.43.61.52c1.7,1.41,3.37,2.85,5,4.3s3.31,2.91,4.94,4.4c.81.74,1.64,1.47,2.44,2.22.19.18.41.4.59.55l.52.42a9.3,9.3,0,0,0,1.07.83,15.82,15.82,0,0,0,4.74,2.36,16.67,16.67,0,0,0,10.42,0,15.54,15.54,0,0,0,4.73-2.36,10.47,10.47,0,0,0,1.07-.82l.52-.43c.18-.15.4-.36.59-.54l2.44-2.23c1.63-1.49,3.28-3,4.94-4.4s3.33-2.88,5-4.3l.61-.51.5-.44c.33-.29.61-.63.92-1a11.16,11.16,0,0,0,1.46-2.31,11.3,11.3,0,0,0,1-5.67,10.43,10.43,0,0,0-.66-3,13.77,13.77,0,0,0-1.45-2.93,12.45,12.45,0,0,1,4.89,12.78,14.44,14.44,0,0,1-1.31,3.66,14.67,14.67,0,0,1-1.06,1.67l-.61.79-.54.66c-1.42,1.69-2.85,3.37-4.31,5s-2.91,3.31-4.39,4.94l-2.23,2.44c-.2.2-.36.39-.58.61l-.7.68a16.45,16.45,0,0,1-1.46,1.31,23.09,23.09,0,0,1-29.16,0,15,15,0,0,1-1.45-1.31l-.7-.67c-.23-.23-.39-.41-.59-.62-.75-.8-1.48-1.63-2.22-2.44-1.49-1.62-2.95-3.28-4.4-4.94s-2.89-3.33-4.3-5l-.55-.66L190,322a13.77,13.77,0,0,1-1.05-1.67,14.94,14.94,0,0,1-1.32-3.65A12.46,12.46,0,0,1,192.51,303.94Z"/><path class="cls-18" d="M247.6,267.42a28.54,28.54,0,0,1,5.76-3.34,38.64,38.64,0,0,1,5.76-2,44.72,44.72,0,0,1,11.53-1.45,46,46,0,0,1,11.52,1.46,39.57,39.57,0,0,1,5.77,2,28.41,28.41,0,0,1,5.76,3.32v.8l-5.76.2-5.77.07-11.52.13-11.53-.13-5.76-.07-5.76-.2Z"/><path class="cls-18" d="M293.7,267.82a8.3,8.3,0,0,0-3.88-5.21,21.75,21.75,0,0,0-6-2.7,49.55,49.55,0,0,0-26.36,0,22,22,0,0,0-6,2.69,8.3,8.3,0,0,0-3.88,5.21,6.73,6.73,0,0,1,.48-3.6,10.81,10.81,0,0,1,2.12-3.1,20.13,20.13,0,0,1,6.15-4.14,37.28,37.28,0,0,1,28.59,0,20.07,20.07,0,0,1,6.15,4.14,10.78,10.78,0,0,1,2.13,3.1A6.73,6.73,0,0,1,293.7,267.82Z"/><path class="cls-18" d="M191.18,268.22l-5.77.2-5.76.07-11.52.13-11.53-.13-5.76-.07-5.76-.2v-.8a28.41,28.41,0,0,1,5.76-3.32,39.87,39.87,0,0,1,5.76-2,46,46,0,0,1,11.53-1.46,44.59,44.59,0,0,1,11.52,1.45,38.64,38.64,0,0,1,5.76,2,28.33,28.33,0,0,1,5.77,3.34Z"/><path class="cls-18" d="M145.08,267.82a6.64,6.64,0,0,1,.48-3.6,11,11,0,0,1,2.12-3.1,20.31,20.31,0,0,1,6.15-4.14,37.28,37.28,0,0,1,28.59,0,20.06,20.06,0,0,1,6.16,4.14,10.81,10.81,0,0,1,2.12,3.1,6.73,6.73,0,0,1,.48,3.6,8.33,8.33,0,0,0-3.88-5.21,22.3,22.3,0,0,0-6-2.69,49.59,49.59,0,0,0-26.37,0,22,22,0,0,0-6,2.7A8.28,8.28,0,0,0,145.08,267.82Z"/><polygon class="cls-18" points="243.13 209.17 307.81 209.17 307.81 231.17 243.13 227.58 243.13 209.17"/><path class="cls-19" d="M273.75,417.33V355.84a12,12,0,0,0-12-12H177a12,12,0,0,0-12,12v61.49"/><path class="cls-18" d="M165,389.61v77.71l-33.79-37.25a70,70,0,0,1-18.16-47V336Z"/><path class="cls-18" d="M273.75,389.61v77.71l33.79-37.25a70,70,0,0,0,18.16-47V336Z"/><path class="cls-18" d="M283,391v66.1L271.5,469.8a70.37,70.37,0,0,1-104.22,0L165,467.32l-9.29-10.24V391Z"/><path class="cls-18" d="M165.17,357.62a227.29,227.29,0,0,0,27,0c8.92-.44,17.87-1.14,26.89-1.65s18.1-.85,27.21-.72a169,169,0,0,1,27.34,2.37c-9.06,1.68-18,2.85-27,3.91s-18,1.92-27.08,2.43a202.84,202.84,0,0,1-27.45-.08C182.91,363.11,173.57,361.47,165.17,357.62Z"/><path class="cls-18" d="M178.73,368.89a4.62,4.62,0,0,0,1.36,2.29,8.46,8.46,0,0,0,2.12,1.49,25.26,25.26,0,0,0,4.94,1.86,74.43,74.43,0,0,0,10.58,1.94,186.06,186.06,0,0,0,21.66,1.15,188.29,188.29,0,0,0,21.66-1.16,76,76,0,0,0,10.57-1.94,24.61,24.61,0,0,0,4.94-1.85,8.8,8.8,0,0,0,2.12-1.49,4.63,4.63,0,0,0,1.37-2.29,4.72,4.72,0,0,1-.37,3,9.68,9.68,0,0,1-1.74,2.55,20.37,20.37,0,0,1-4.75,3.72,47.29,47.29,0,0,1-10.87,4.5,89,89,0,0,1-45.86,0,47.29,47.29,0,0,1-10.87-4.5,20.37,20.37,0,0,1-4.75-3.72,9.74,9.74,0,0,1-1.75-2.54A4.78,4.78,0,0,1,178.73,368.89Z"/><rect class="cls-18" x="199.56" y="381.62" width="39.66" height="28.36"/><ellipse class="cls-20" cx="355.99" cy="284.18" rx="60.03" ry="29.63" transform="translate(27.98 600.25) rotate(-82.54)"/><ellipse class="cls-21" cx="82.79" cy="284.18" rx="29.63" ry="60.03" transform="translate(-36.21 13.16) rotate(-7.46)"/><path class="cls-18" d="M325.7,129.15v77.14l-24.93-30.95V81.26A58.39,58.39,0,0,1,325.7,129.15Z"/><path class="cls-18" d="M113.08,129.15v77.14L138,175.34V81.26A58.39,58.39,0,0,0,113.08,129.15Z"/><path class="cls-22" d="M113.08,8.42H222.33A85.48,85.48,0,0,1,307.81,93.9v0a25.48,25.48,0,0,1-25.48,25.48H153.94a40.86,40.86,0,0,1-40.86-40.86V8.42A0,0,0,0,1,113.08,8.42Z"/><path class="cls-18" d="M294.41,102.8a61.84,61.84,0,0,0,18.48-15.69,64,64,0,0,0,11.37-22.34,66.17,66.17,0,0,0,2-25.82,68.14,68.14,0,0,0-8.4-25.34,70.07,70.07,0,0,1,12.52,24.51,72.41,72.41,0,0,1,2.18,28.25,74.67,74.67,0,0,1-9.1,27.71,76.68,76.68,0,0,1-19.6,22.69Z"/><path class="cls-18" d="M292.6,104.45a69.72,69.72,0,0,0,14.67-23.11A72.08,72.08,0,0,0,312,53.55a74.24,74.24,0,0,0-6.45-28.29A76.33,76.33,0,0,0,288.25,1a78.34,78.34,0,0,1,21,22.3,80.62,80.62,0,0,1,11.12,29.44A82.49,82.49,0,0,1,319.36,85a84.53,84.53,0,0,1-13.73,30.14Z"/><path class="cls-18" d="M170.88,329.75a45.74,45.74,0,0,0-8.73,3.7,32.27,32.27,0,0,0-12.34,12.34,45.74,45.74,0,0,0-3.7,8.73,17.57,17.57,0,0,1,.07-10.23,21.64,21.64,0,0,1,14.47-14.46A17.66,17.66,0,0,1,170.88,329.75Z"/><polygon class="cls-18" points="195.65 242.2 130.97 245.8 130.97 223.8 195.65 223.8 195.65 242.2"/><path class="cls-23" d="M125.33,277.14a38.78,38.78,0,0,0,30,37.79V239.36A38.79,38.79,0,0,0,125.33,277.14Z"/><circle class="cls-24" cx="164.65" cy="277.15" r="38.78"/><path class="cls-23" d="M312.91,277.14a38.78,38.78,0,0,1-30,37.79V239.36A38.79,38.79,0,0,1,312.91,277.14Z"/><path class="cls-24" d="M312.91,277.14a38.73,38.73,0,1,1-30-37.78A38.78,38.78,0,0,1,312.91,277.14Z"/><line class="cls-19" x1="199.56" y1="262.32" x2="239.22" y2="262.32"/><path class="cls-25" d="M345,238.37v15l-32,23.77a38.78,38.78,0,0,0-38.78-38.77Z"/><path class="cls-25" d="M93.81,238.37v15l32.06,23.77a38.78,38.78,0,0,1,38.77-38.77Z"/><path class="cls-8" d="M326.38,249.78a6.62,6.62,0,0,1,1.72-.9,8.57,8.57,0,0,1,1.72-.45,11.77,11.77,0,0,1,3.44.3c1.15.13,2.3.28,3.44.45s2.3.36,3.44.6v.3c-1.14.24-2.29.4-3.44.6s-2.29.33-3.44.45a11.12,11.12,0,0,1-3.44.3,8.53,8.53,0,0,1-1.72-.44,6.67,6.67,0,0,1-1.72-.91Z"/><path class="cls-8" d="M112.39,250.08a6.37,6.37,0,0,1-1.72.91,8.2,8.2,0,0,1-1.72.44,11.18,11.18,0,0,1-3.44-.3c-1.14-.12-2.29-.27-3.44-.45s-2.29-.36-3.44-.6v-.3c1.15-.24,2.29-.39,3.44-.6s2.3-.32,3.44-.45a11.83,11.83,0,0,1,3.44-.3,8.24,8.24,0,0,1,1.72.45,6.32,6.32,0,0,1,1.72.9Z"/><rect class="cls-26" x="14.1" y="431.38" width="80.31" height="11.46" rx="5.19"/><path class="cls-27" d="M14.1,466.47H94.41a0,0,0,0,1,0,0v6a19.64,19.64,0,0,1-19.64,19.64h-41A19.64,19.64,0,0,1,14.1,472.5v-6A0,0,0,0,1,14.1,466.47Z"/><path class="cls-28" d="M77.57,466.47a11.66,11.66,0,1,0,23.31,0Z"/><path class="cls-28" d="M30.94,466.47a11.66,11.66,0,1,1-23.31,0Z"/><path class="cls-28" d="M42.6,466.47a11.66,11.66,0,1,0,23.31,0Z"/><path class="cls-28" d="M65.91,466.47a11.66,11.66,0,1,0,23.31,0Z"/><path class="cls-28" d="M42.6,466.47a11.66,11.66,0,1,1-23.31,0Z"/><path class="cls-29" d="M91.69,466.47H16.82a6.91,6.91,0,0,1,0-13.81H91.69a6.91,6.91,0,0,1,0,13.81Z"/><path class="cls-30" d="M39.79,403.52H68.72a27.86,27.86,0,0,1,27.86,27.86v0a0,0,0,0,1,0,0H11.93a0,0,0,0,1,0,0v0A27.86,27.86,0,0,1,39.79,403.52Z"/><rect class="cls-31" x="2.5" y="442.87" width="103.51" height="9.77"/><line class="cls-32" x1="39.79" y1="403.52" x2="39.79" y2="412.66"/><line class="cls-32" x1="68.72" y1="403.52" x2="68.72" y2="412.66"/><line class="cls-32" x1="54.26" y1="403.52" x2="54.26" y2="412.66"/></g></g></svg>