<svg xmlns="http://www.w3.org/2000/svg" xmlns:xlink="http://www.w3.org/1999/xlink" viewBox="0 0 398.96 679.52"><defs><style>.cls-1,.cls-13,.cls-20,.cls-22,.cls-33,.cls-34,.cls-7,.cls-8,.cls-9{fill:none;}.cls-2,.cls-26{fill:#866f67;}.cls-10,.cls-13,.cls-14,.cls-15,.cls-2,.cls-20,.cls-22,.cls-27,.cls-28,.cls-29,.cls-3,.cls-32,.cls-34,.cls-9{stroke:#252535;}.cls-10,.cls-13,.cls-14,.cls-15,.cls-2,.cls-20,.cls-22,.cls-27,.cls-28,.cls-29,.cls-3,.cls-32,.cls-33,.cls-34,.cls-7,.cls-8,.cls-9{stroke-linejoin:round;}.cls-2,.cls-20,.cls-3{stroke-width:16.84px;}.cls-3{fill:#60514a;}.cls-4{fill:#404072;}.cls-5{clip-path:url(#clip-path);}.cls-6{opacity:0.6;}.cls-7,.cls-8{stroke:#478862;}.cls-7{stroke-width:4px;}.cls-10,.cls-9{stroke-width:10px;}.cls-10,.cls-12{fill:#efcfb3;}.cls-11{clip-path:url(#clip-path-2);}.cls-13,.cls-27,.cls-28,.cls-29{stroke-width:12px;}.cls-14,.cls-17{fill:#deb18a;}.cls-14{stroke-width:14px;}.cls-15,.cls-23{fill:#fff;}.cls-15,.cls-32{stroke-width:8px;}.cls-16,.cls-21,.cls-32{fill:#252535;}.cls-16,.cls-25{opacity:0.4;}.cls-18{fill:#f4dfcc;}.cls-19{fill:#ce9d76;}.cls-22{stroke-linecap:round;stroke-width:3px;}.cls-24{fill:#ca8b83;}.cls-27{fill:#434354;}.cls-28{fill:#393947;}.cls-29{fill:#565672;}.cls-30{clip-path:url(#clip-path-3);}.cls-31{clip-path:url(#clip-path-4);}.cls-33{stroke:#a99077;}.cls-33,.cls-34{stroke-width:2px;}</style><clipPath id="clip-path"><rect class="cls-1" x="228.95" y="448.57" width="61.05" height="26.83" transform="translate(402.67 -48.17) rotate(45)"/></clipPath><clipPath id="clip-path-2"><rect class="cls-1" x="101.71" y="430.91" width="61.05" height="26.83" transform="translate(264.47 888.66) rotate(-180)"/></clipPath><clipPath id="clip-path-3"><path class="cls-1" d="M263.92,523H235.2a19.11,19.11,0,0,1-19.11-19.11V424.49l47.83,6.76-19,56.2Z"/></clipPath><clipPath id="clip-path-4"><path class="cls-1" d="M134.87,523h28.72a19.11,19.11,0,0,0,19.11-19.11V424.49l-47.83,6.76,18.95,56.2Z"/></clipPath></defs><title>sarah</title><g id="Layer_2" data-name="Layer 2"><g id="sarah_macmaster" data-name="sarah macmaster"><path class="cls-2" d="M126,400.19h73V97.35L100.48,48.21,45,299.35C33.59,351.12,73,400.19,126,400.19Z"/><polygon class="cls-3" points="375.28 400.19 199.02 400.19 199.02 97.35 297.55 48.21 375.28 400.19"/><rect class="cls-4" x="228.95" y="448.57" width="61.05" height="26.83" transform="translate(402.67 -48.17) rotate(45)"/><g class="cls-5"><g class="cls-6"><line class="cls-7" x1="256.01" y1="428.24" x2="320.6" y2="492.82"/><line class="cls-8" x1="251.93" y1="432.32" x2="316.51" y2="496.9"/><line class="cls-7" x1="242.09" y1="442.16" x2="306.67" y2="506.75"/><line class="cls-8" x1="238.01" y1="446.24" x2="302.59" y2="510.83"/><line class="cls-7" x1="228.16" y1="456.08" x2="292.75" y2="520.67"/><line class="cls-8" x1="224.08" y1="460.17" x2="288.67" y2="524.75"/><line class="cls-7" x1="214.24" y1="470.01" x2="278.83" y2="534.59"/><line class="cls-8" x1="210.16" y1="474.09" x2="274.74" y2="538.68"/><line class="cls-7" x1="200.32" y1="483.93" x2="264.9" y2="548.52"/><line class="cls-8" x1="196.23" y1="488.01" x2="260.82" y2="552.6"/></g><g class="cls-6"><line class="cls-7" x1="197.29" y1="492.82" x2="261.88" y2="428.24"/><line class="cls-8" x1="201.38" y1="496.9" x2="265.96" y2="432.32"/><line class="cls-7" x1="211.22" y1="506.75" x2="275.8" y2="442.16"/><line class="cls-8" x1="215.3" y1="510.83" x2="279.89" y2="446.24"/><line class="cls-7" x1="225.14" y1="520.67" x2="289.73" y2="456.08"/><line class="cls-8" x1="229.22" y1="524.75" x2="293.81" y2="460.17"/><line class="cls-7" x1="239.07" y1="534.59" x2="303.65" y2="470.01"/><line class="cls-8" x1="243.15" y1="538.68" x2="307.73" y2="474.09"/><line class="cls-7" x1="252.99" y1="548.52" x2="317.58" y2="483.93"/><line class="cls-8" x1="257.07" y1="552.6" x2="321.66" y2="488.01"/></g></g><rect class="cls-9" x="228.95" y="448.57" width="61.05" height="26.83" transform="translate(402.67 -48.17) rotate(45)"/><path class="cls-10" d="M276,482.37h34.57a0,0,0,0,1,0,0v3.73a23.1,23.1,0,0,1-23.1,23.1H276a0,0,0,0,1,0,0V482.37A0,0,0,0,1,276,482.37Z" transform="translate(436.47 -62.17) rotate(45)"/><rect class="cls-4" x="101.71" y="430.91" width="61.05" height="26.83" transform="translate(264.47 888.66) rotate(-180)"/><g class="cls-11"><g class="cls-6"><line class="cls-7" x1="158.55" y1="422.92" x2="67.21" y2="422.92"/><line class="cls-8" x1="158.55" y1="428.69" x2="67.21" y2="428.69"/><line class="cls-7" x1="158.55" y1="442.61" x2="67.21" y2="442.61"/><line class="cls-8" x1="158.55" y1="448.38" x2="67.21" y2="448.38"/><line class="cls-7" x1="158.55" y1="462.3" x2="67.21" y2="462.3"/><line class="cls-8" x1="158.55" y1="468.07" x2="67.21" y2="468.07"/><line class="cls-7" x1="158.55" y1="481.99" x2="67.21" y2="481.99"/><line class="cls-8" x1="158.55" y1="487.76" x2="67.21" y2="487.76"/><line class="cls-7" x1="158.55" y1="501.68" x2="67.21" y2="501.68"/><line class="cls-8" x1="158.55" y1="507.45" x2="67.21" y2="507.45"/></g><g class="cls-6"><line class="cls-7" x1="154.4" y1="510.1" x2="154.4" y2="418.77"/><line class="cls-8" x1="148.63" y1="510.1" x2="148.63" y2="418.77"/><line class="cls-7" x1="134.71" y1="510.1" x2="134.71" y2="418.77"/><line class="cls-8" x1="128.94" y1="510.1" x2="128.94" y2="418.77"/><line class="cls-7" x1="115.02" y1="510.1" x2="115.02" y2="418.77"/><line class="cls-8" x1="109.24" y1="510.1" x2="109.24" y2="418.77"/><line class="cls-7" x1="95.33" y1="510.1" x2="95.33" y2="418.77"/><line class="cls-8" x1="89.55" y1="510.1" x2="89.55" y2="418.77"/><line class="cls-7" x1="75.64" y1="510.1" x2="75.64" y2="418.77"/><line class="cls-8" x1="69.86" y1="510.1" x2="69.86" y2="418.77"/></g></g><rect class="cls-9" x="101.71" y="430.91" width="61.05" height="26.83" transform="translate(264.47 888.66) rotate(-180)"/><path class="cls-10" d="M67.15,430.91H78.62a23.1,23.1,0,0,1,23.1,23.1v3.73a0,0,0,0,1,0,0H67.15a0,0,0,0,1,0,0V430.91A0,0,0,0,1,67.15,430.91Z" transform="translate(168.86 888.66) rotate(-180)"/><path class="cls-12" d="M216.09,428.25V382.6H182.7v45.65h-1a23,23,0,0,0-23,23v24.85h80.42V451.29A23,23,0,0,0,216.09,428.25Z"/><path class="cls-13" d="M216.09,428.25V382.6H182.7v45.65h-1a23,23,0,0,0-23,23v24.85h80.42V451.29A23,23,0,0,0,216.09,428.25Z"/><path class="cls-14" d="M317.37,197.82h0a17.06,17.06,0,0,1,17.06,17.06v33.47a34.11,34.11,0,0,1-34.11,34.11h0a0,0,0,0,1,0,0V214.88A17.06,17.06,0,0,1,317.37,197.82Z"/><circle class="cls-15" cx="79.08" cy="275.02" r="10.09"/><circle class="cls-15" cx="318.94" cy="275.02" r="10.09"/><ellipse class="cls-16" cx="199.48" cy="668.24" rx="199.48" ry="11.28"/><path class="cls-17" d="M303.92,88.15v198A82.16,82.16,0,0,1,284.68,339l-43.49,44.88a52.56,52.56,0,0,1-40.27,18.76h-3.83a52.56,52.56,0,0,1-40.27-18.76L113.33,339a82.16,82.16,0,0,1-19.24-52.82v-198A62.14,62.14,0,0,1,156.23,26h85.55A62.14,62.14,0,0,1,303.92,88.15Z"/><path class="cls-18" d="M199,26V402.62h-1.93a52.56,52.56,0,0,1-40.27-18.76L113.33,339a82.16,82.16,0,0,1-19.24-52.82v-198A62.14,62.14,0,0,1,156.23,26Z"/><path class="cls-12" d="M273,88.15v198c0,19.32-4.81,38-13.58,52.83l-30.67,44.87c-7,11.89-17.44,18.76-28.39,18.76h-2.71c-11,0-21.35-6.87-28.39-18.76L138.59,339c-8.77-14.8-13.58-33.51-13.58-52.83v-198C125,53.83,144.63,26,168.83,26h60.35C253.38,26,273,53.83,273,88.15Z"/><ellipse class="cls-12" cx="263.92" cy="254.11" rx="31.27" ry="32.18"/><ellipse class="cls-12" cx="134.09" cy="254.11" rx="31.27" ry="32.18"/><path class="cls-17" d="M134.09,286.28a31.3,31.3,0,0,1-13.62-2.46,34.75,34.75,0,0,1-11.57-8,38.84,38.84,0,0,1-7.79-12A42.23,42.23,0,0,1,98,249.61h5a37.86,37.86,0,0,0,1.65,12.88,35.62,35.62,0,0,0,6.15,11.64A32.85,32.85,0,0,0,121,282.69,30.66,30.66,0,0,0,134.09,286.28Z"/><path class="cls-19" d="M263.92,286.28A30.66,30.66,0,0,0,277,282.69a32.85,32.85,0,0,0,10.23-8.56,35.43,35.43,0,0,0,6.15-11.64A37.86,37.86,0,0,0,295,249.61h5a42.23,42.23,0,0,1-3.13,14.17,38.84,38.84,0,0,1-7.79,12,34.75,34.75,0,0,1-11.57,8A31.3,31.3,0,0,1,263.92,286.28Z"/><path class="cls-20" d="M303.92,88.15v198A82.1,82.1,0,0,1,284.67,339l-43.48,44.87a52.63,52.63,0,0,1-40.27,18.76h-3.83a52.59,52.59,0,0,1-40.26-18.76L113.34,339a82.1,82.1,0,0,1-19.25-52.83v-198A62.14,62.14,0,0,1,156.22,26h85.57A62.14,62.14,0,0,1,303.92,88.15Z"/><path class="cls-21" d="M184.55,261a9.51,9.51,0,0,0-8,6.69,8.64,8.64,0,0,0-.35,2.51c0,.75.1,2,.2,2.77a8,8,0,0,0,1.89,4.33,7.79,7.79,0,0,0,3.82,2.48,7.71,7.71,0,0,0,2.24.3c.87,0,1.92,0,2.88-.06,3.91-.09,7.83-.13,11.75-.14s7.83,0,11.74.13c1,0,2,.06,2.89.06a7.68,7.68,0,0,0,2.23-.29,8,8,0,0,0,3.82-2.48,8.15,8.15,0,0,0,1.89-4.33c.09-.79.17-2,.19-2.77a8.24,8.24,0,0,0-.34-2.5,9.52,9.52,0,0,0-8-6.7,10.09,10.09,0,0,1,3,.08,11.26,11.26,0,0,1,2.92,1.06,10.41,10.41,0,0,1,5.25,7.87l.09.83.05.73c0,.51.09.94.08,1.55a10.47,10.47,0,0,1-.49,3.41,10.76,10.76,0,0,1-1.53,3.14,11.63,11.63,0,0,1-5.56,4.29,11.79,11.79,0,0,1-3.53.71c-1.08.05-2,.05-3,.08-3.91.09-7.83.12-11.74.13s-7.84,0-11.75-.13c-1,0-1.91,0-3-.09a11.79,11.79,0,0,1-3.53-.71,11.61,11.61,0,0,1-5.55-4.29,10.52,10.52,0,0,1-1.53-3.14,10.11,10.11,0,0,1-.49-3.4c0-.61.05-1,.07-1.55l0-.73.09-.83a10.7,10.7,0,0,1,.92-3.2,10.54,10.54,0,0,1,4.34-4.66,10.87,10.87,0,0,1,2.91-1.07A10.09,10.09,0,0,1,184.55,261Z"/><path class="cls-21" d="M216.78,203.36l49.1-14.05.22-.06a1.73,1.73,0,0,1,.78,0l16.29,3.24-.23,2.08-16.6-.41,1-.09-48.5,16Z"/><path class="cls-21" d="M179.17,210.05l-48.49-16,1,.09-16.6.41-.23-2.08,16.29-3.24a1.66,1.66,0,0,1,.77,0l.23.07,49.1,14.05Z"/><path class="cls-22" d="M215.63,275.71h-2c-2.9,0-5.59.73-7,1.92l-.58.48c-1.46,1.19-4.14,1.92-7.05,1.92h0c-2.9,0-5.59-.73-7-1.92l-.58-.48c-1.45-1.19-4.14-1.92-7-1.92h-2"/><path class="cls-23" d="M199,319.89c-15.23,0-34.25-4.47-52.59-23.23,4.92,2.59,18,.72,24.88-.5a31.07,31.07,0,0,1,9-.29l15.15,1.73a30.78,30.78,0,0,0,7.05,0l15.15-1.73a31.07,31.07,0,0,1,9,.29c6.84,1.22,20,3.09,24.88.5C233.24,315.42,214.22,319.89,199,319.89Z"/><path class="cls-24" d="M199,326.07a79.24,79.24,0,0,1-8-.45,66.16,66.16,0,0,1-7.91-1.41,63.09,63.09,0,0,1-14.95-5.68,61,61,0,0,1-6.75-4.14,73.34,73.34,0,0,1-6.12-4.9,63.13,63.13,0,0,1-10.06-11.65l-.17-.26a1.66,1.66,0,0,1,2.14-2.4,9.35,9.35,0,0,0,2.66.79,23.64,23.64,0,0,0,3.08.29,57.87,57.87,0,0,0,6.43-.18c2.15-.18,4.32-.43,6.48-.74,1.08-.15,2.15-.32,3.23-.5s2.14-.39,3.32-.55a33.16,33.16,0,0,1,7-.2c1.18.1,2.25.24,3.35.37l3.29.37,6.59.76,3.28.37a28.81,28.81,0,0,0,6.25,0l3.28-.37,6.59-.76,3.29-.37c1.1-.12,2.17-.27,3.35-.37a33.16,33.16,0,0,1,7,.2c1.18.16,2.24.38,3.32.55s2.15.35,3.23.5c2.16.31,4.33.56,6.48.73a55.57,55.57,0,0,0,6.43.19,23.64,23.64,0,0,0,3.08-.29,9.35,9.35,0,0,0,2.66-.79h0a1.65,1.65,0,0,1,2.17,2.36l-.19.3a63.19,63.19,0,0,1-10.07,11.65,74.85,74.85,0,0,1-6.11,4.9,62,62,0,0,1-6.76,4.14,63.18,63.18,0,0,1-14.94,5.68,66.88,66.88,0,0,1-7.91,1.41A79.24,79.24,0,0,1,199,326.07Zm0-7.86a69.54,69.54,0,0,0,14.33-1.45A64.93,64.93,0,0,0,227,312.28,70.2,70.2,0,0,0,239.44,305a86.54,86.54,0,0,0,10.94-9.5l2,2.66h0a12.65,12.65,0,0,1-3.66,1.12,26.7,26.7,0,0,1-3.51.34,59.29,59.29,0,0,1-6.82-.2c-2.25-.18-4.47-.44-6.69-.75-1.1-.16-2.21-.33-3.31-.51s-2.21-.4-3.22-.54a29.77,29.77,0,0,0-6.26-.18c-1,.09-2.14.23-3.23.35l-3.29.38-6.59.75-3.3.38a32.06,32.06,0,0,1-7,0l-3.3-.38-6.59-.75-3.29-.38c-1.09-.12-2.22-.26-3.23-.35a29.77,29.77,0,0,0-6.26.18c-1,.14-2.11.36-3.22.54s-2.21.35-3.31.51c-2.22.31-4.44.57-6.69.75a59.35,59.35,0,0,1-6.82.2,28.52,28.52,0,0,1-3.51-.34,12.65,12.65,0,0,1-3.66-1.12l2-2.66a86.54,86.54,0,0,0,10.94,9.5A70.2,70.2,0,0,0,171,312.28a64.93,64.93,0,0,0,13.67,4.48A69.57,69.57,0,0,0,199,318.21Z"/><path class="cls-21" d="M215.51,259.53c6.25,4.21,12.36,8.61,18.45,13S246,281.51,252,286.07l4.47,3.44,2.24,1.72a14,14,0,0,1,2.29,2.14,13.48,13.48,0,0,1,2.8,5.62,13.25,13.25,0,0,1-.07,6.26,14.72,14.72,0,0,1-1.13,2.92l-1.35,2.48-2.78,4.92c-1.91,3.25-3.85,6.48-6,9.62,1.25-3.59,2.7-7.07,4.17-10.54l2.3-5.15,1.2-2.56a11.36,11.36,0,0,0,.81-2.36,10.9,10.9,0,0,0,0-4.92,10.52,10.52,0,0,0-2.24-4.35,11.31,11.31,0,0,0-1.8-1.72l-2.22-1.74-4.44-3.48q-8.85-7-17.57-14.18C226.91,269.37,221.14,264.54,215.51,259.53Z"/><path class="cls-21" d="M152.41,287c-1.39.64-2.8,1.16-4.22,1.67l-2.13.72c-.69.25-1.49.43-2.06.69a9.7,9.7,0,0,0-3.26,2.07,9.41,9.41,0,0,0-1.86,10.64c.56,1.12,1.49,2.41,2.28,3.68s1.56,2.57,2.25,3.94c-1.2-.95-2.3-2-3.4-3a25.7,25.7,0,0,1-3.15-3.43,10.43,10.43,0,0,1-1-9.77,10.82,10.82,0,0,1,3-4.15,10.19,10.19,0,0,1,4.52-2.21,18.91,18.91,0,0,1,2.29-.36l2.24-.24C149.38,287.13,150.88,287,152.41,287Z"/><path class="cls-21" d="M221.8,220.71a21.18,21.18,0,0,1,2.58-2.54,30.71,30.71,0,0,1,2.62-2,32,32,0,0,1,5.31-2.85,33.08,33.08,0,0,1,10.83-2.53,33.9,33.9,0,0,1,11.07,1.13,32.3,32.3,0,0,1,5.64,2.14,26.17,26.17,0,0,1,5.74,3.79l.07,1-5.46.6-5.47.49c-3.64.32-7.29.55-10.94.83s-7.3.44-10.95.6l-5.49.21-5.49.12Z"/><polygon class="cls-21" points="254.9 216.34 277.32 218.15 254.86 219.34 254.9 216.34"/><polygon class="cls-21" points="254.6 216.37 276.24 213.74 255.16 219.31 254.6 216.37"/><polygon class="cls-21" points="254.17 216.52 271.46 208.91 255.59 219.16 254.17 216.52"/><path class="cls-21" d="M262.53,216.33a7.44,7.44,0,0,0-3.33-4.61,17.65,17.65,0,0,0-5.27-2.32,36.5,36.5,0,0,0-22.85,1.8,18,18,0,0,0-4.84,3.12,7.44,7.44,0,0,0-2.56,5.07,7.21,7.21,0,0,1,1.84-5.73,16.65,16.65,0,0,1,4.86-3.86,27,27,0,0,1,5.75-2.29,39.12,39.12,0,0,1,6.07-1,38.51,38.51,0,0,1,6.17.09,27.15,27.15,0,0,1,6,1.36,16.75,16.75,0,0,1,5.41,3.05A7.25,7.25,0,0,1,262.53,216.33Z"/><path class="cls-21" d="M176.15,221.71l-5.49-.12-5.49-.21c-3.65-.16-7.3-.4-10.95-.6s-7.3-.51-10.95-.83l-5.46-.49-5.46-.6.06-1a26.45,26.45,0,0,1,5.75-3.79,32.3,32.3,0,0,1,5.64-2.14,33.84,33.84,0,0,1,11.06-1.13,33.08,33.08,0,0,1,10.84,2.53,32,32,0,0,1,5.31,2.85,30.71,30.71,0,0,1,2.62,2,21.18,21.18,0,0,1,2.58,2.54Z"/><polygon class="cls-21" points="143.15 219.34 120.69 218.15 143.11 216.34 143.15 219.34"/><polygon class="cls-21" points="142.85 219.31 121.77 213.74 143.41 216.37 142.85 219.31"/><polygon class="cls-21" points="142.42 219.16 126.55 208.91 143.84 216.52 142.42 219.16"/><path class="cls-21" d="M135.48,216.33A7.25,7.25,0,0,1,138.2,211a16.75,16.75,0,0,1,5.41-3.05,27.15,27.15,0,0,1,6-1.36,38.51,38.51,0,0,1,6.17-.09,39.12,39.12,0,0,1,6.07,1,27.16,27.16,0,0,1,5.75,2.29,16.65,16.65,0,0,1,4.86,3.86,7.21,7.21,0,0,1,1.84,5.73,7.44,7.44,0,0,0-2.56-5.07,18,18,0,0,0-4.84-3.12,36.5,36.5,0,0,0-22.85-1.8,17.65,17.65,0,0,0-5.27,2.32A7.44,7.44,0,0,0,135.48,216.33Z"/><path class="cls-12" d="M177.45,190.39h42.91a0,0,0,0,1,0,0v19.34a7.74,7.74,0,0,1-7.74,7.74H185.19a7.74,7.74,0,0,1-7.74-7.74V190.39A0,0,0,0,1,177.45,190.39Z"/><path class="cls-21" d="M189.87,244.84A97.15,97.15,0,0,0,188.29,234a84.92,84.92,0,0,0-2.81-10.58,49.31,49.31,0,0,0-4.5-9.81,23.24,23.24,0,0,0-7-7.55l1.69-2.48a25.86,25.86,0,0,1,7.32,8.92,51.09,51.09,0,0,1,4,10.49A84.74,84.74,0,0,1,189,233.83,97,97,0,0,1,189.87,244.84Z"/><path class="cls-21" d="M208.14,244.84a97,97,0,0,1,.84-11,84.74,84.74,0,0,1,2.11-10.89,51.09,51.09,0,0,1,4-10.49,25.86,25.86,0,0,1,7.32-8.92l1.69,2.48a23.24,23.24,0,0,0-7.05,7.55,49.31,49.31,0,0,0-4.5,9.81A81.58,81.58,0,0,0,209.72,234,97.15,97.15,0,0,0,208.14,244.84Z"/><g class="cls-25"><path class="cls-20" d="M243.09,18.42h-86a63.05,63.05,0,0,0-63,63.05V196.28h42.17A106.83,106.83,0,0,0,243.09,89.45v28.88a69,69,0,0,0,25.06,53.19l35.77,29.55V79.25A60.82,60.82,0,0,0,243.09,18.42Z"/></g><path class="cls-26" d="M243.09,8.42h-86a63.05,63.05,0,0,0-63,63.05V186.28h42.17A106.83,106.83,0,0,0,243.09,79.45v28.88a69,69,0,0,0,25.06,53.19l35.77,29.55V69.25A60.82,60.82,0,0,0,243.09,8.42Z"/><path class="cls-20" d="M243.09,8.42h-86a63.05,63.05,0,0,0-63,63.05V186.28h42.17A106.83,106.83,0,0,0,243.09,79.45v28.88a69,69,0,0,0,25.06,53.19l35.77,29.55V69.25A60.82,60.82,0,0,0,243.09,8.42Z"/><path class="cls-27" d="M198.91,545.91H167.48l-1,1.19a44.43,44.43,0,0,0-5.16,50.45l37.61,68.08Z"/><path class="cls-28" d="M198.91,545.91h31.43l1,1.19a44.43,44.43,0,0,1,5.17,50.45l-37.61,68.08Z"/><path class="cls-29" d="M219.7,514.49l10.64,31.17H167.48l10.63-31.17a29.36,29.36,0,0,0,1-15.3L167.48,441.5l21.75,9.23a25.75,25.75,0,0,0,20.44-.13l20.67-9.1-11.63,57.69A29.36,29.36,0,0,0,219.7,514.49Z"/><path class="cls-4" d="M263.92,523H235.2a19.11,19.11,0,0,1-19.11-19.11V424.49l47.83,6.76-19,56.2Z"/><g class="cls-30"><g class="cls-6"><line class="cls-7" x1="211.05" y1="428.74" x2="302.39" y2="428.74"/><line class="cls-8" x1="211.05" y1="434.51" x2="302.39" y2="434.51"/><line class="cls-7" x1="211.05" y1="448.43" x2="302.39" y2="448.43"/><line class="cls-8" x1="211.05" y1="454.2" x2="302.39" y2="454.2"/><line class="cls-7" x1="211.05" y1="468.12" x2="302.39" y2="468.12"/><line class="cls-8" x1="211.05" y1="473.9" x2="302.39" y2="473.9"/><line class="cls-7" x1="211.05" y1="487.81" x2="302.39" y2="487.81"/><line class="cls-8" x1="211.05" y1="493.59" x2="302.39" y2="493.59"/><line class="cls-7" x1="211.05" y1="507.5" x2="302.39" y2="507.5"/><line class="cls-8" x1="211.05" y1="513.28" x2="302.39" y2="513.28"/></g><g class="cls-6"><line class="cls-7" x1="215.2" y1="515.93" x2="215.2" y2="424.59"/><line class="cls-8" x1="220.98" y1="515.93" x2="220.98" y2="424.59"/><line class="cls-7" x1="234.89" y1="515.93" x2="234.89" y2="424.59"/><line class="cls-8" x1="240.67" y1="515.93" x2="240.67" y2="424.59"/><line class="cls-7" x1="254.58" y1="515.93" x2="254.58" y2="424.59"/><line class="cls-8" x1="260.36" y1="515.93" x2="260.36" y2="424.59"/><line class="cls-7" x1="274.27" y1="515.93" x2="274.27" y2="424.59"/><line class="cls-8" x1="280.05" y1="515.93" x2="280.05" y2="424.59"/><line class="cls-7" x1="293.97" y1="515.93" x2="293.97" y2="424.59"/><line class="cls-8" x1="299.74" y1="515.93" x2="299.74" y2="424.59"/></g></g><path class="cls-13" d="M263.92,523H235.2a19.11,19.11,0,0,1-19.11-19.11V424.49l47.83,6.76-19,56.2Z"/><path class="cls-4" d="M134.87,523h28.72a19.11,19.11,0,0,0,19.11-19.11V424.49l-47.83,6.76,18.95,56.2Z"/><g class="cls-31"><g class="cls-6"><line class="cls-7" x1="187.74" y1="428.74" x2="96.4" y2="428.74"/><line class="cls-8" x1="187.74" y1="434.51" x2="96.4" y2="434.51"/><line class="cls-7" x1="187.74" y1="448.43" x2="96.4" y2="448.43"/><line class="cls-8" x1="187.74" y1="454.2" x2="96.4" y2="454.2"/><line class="cls-7" x1="187.74" y1="468.12" x2="96.4" y2="468.12"/><line class="cls-8" x1="187.74" y1="473.9" x2="96.4" y2="473.9"/><line class="cls-7" x1="187.74" y1="487.81" x2="96.4" y2="487.81"/><line class="cls-8" x1="187.74" y1="493.59" x2="96.4" y2="493.59"/><line class="cls-7" x1="187.74" y1="507.5" x2="96.4" y2="507.5"/><line class="cls-8" x1="187.74" y1="513.28" x2="96.4" y2="513.28"/></g><g class="cls-6"><line class="cls-7" x1="183.59" y1="515.93" x2="183.59" y2="424.59"/><line class="cls-8" x1="177.81" y1="515.93" x2="177.81" y2="424.59"/><line class="cls-7" x1="163.9" y1="515.93" x2="163.9" y2="424.59"/><line class="cls-8" x1="158.12" y1="515.93" x2="158.12" y2="424.59"/><line class="cls-7" x1="144.2" y1="515.93" x2="144.2" y2="424.59"/><line class="cls-8" x1="138.43" y1="515.93" x2="138.43" y2="424.59"/><line class="cls-7" x1="124.51" y1="515.93" x2="124.51" y2="424.59"/><line class="cls-8" x1="118.74" y1="515.93" x2="118.74" y2="424.59"/><line class="cls-7" x1="104.82" y1="515.93" x2="104.82" y2="424.59"/><line class="cls-8" x1="99.05" y1="515.93" x2="99.05" y2="424.59"/></g></g><path class="cls-13" d="M134.87,523h28.72a19.11,19.11,0,0,0,19.11-19.11V424.49l-47.83,6.76,18.95,56.2Z"/><path class="cls-32" d="M190,661.39h7.5V670H158.7l17.39-6.27A41.16,41.16,0,0,1,190,661.39Z"/><path class="cls-32" d="M207.83,661.39h-7.49V670h38.78l-17.39-6.27A41.18,41.18,0,0,0,207.83,661.39Z"/><rect class="cls-33" x="169.11" y="660.19" width="9.31" height="3.96" transform="translate(-211.66 96.38) rotate(-19.56)"/><rect class="cls-33" x="219.4" y="660.19" width="9.31" height="3.96" transform="translate(213.5 1361.15) rotate(-160.44)"/><path class="cls-34" d="M223.25,558.61H240.7a0,0,0,0,1,0,0v23a0,0,0,0,1,0,0h-6.46a11,11,0,0,1-11-11v-12A0,0,0,0,1,223.25,558.61Z"/><path class="cls-34" d="M168.1,558.61h6.46a0,0,0,0,1,0,0v23a0,0,0,0,1,0,0H157.11a0,0,0,0,1,0,0v-12A11,11,0,0,1,168.1,558.61Z" transform="translate(331.68 1140.2) rotate(-180)"/></g></g></svg>