<svg xmlns="http://www.w3.org/2000/svg" xmlns:xlink="http://www.w3.org/1999/xlink" viewBox="0 0 484.13 708.06"><defs><style>.cls-1,.cls-17,.cls-18,.cls-19,.cls-25,.cls-29,.cls-30,.cls-9{fill:none;}.cls-2,.cls-8{fill:#efcfb3;}.cls-18,.cls-19,.cls-2,.cls-22,.cls-23,.cls-26,.cls-29,.cls-31,.cls-4,.cls-5,.cls-9{stroke:#252535;}.cls-18,.cls-19,.cls-2,.cls-22,.cls-23,.cls-25,.cls-26,.cls-29,.cls-30,.cls-31,.cls-4,.cls-5,.cls-9{stroke-linejoin:round;}.cls-19,.cls-2,.cls-23{stroke-width:12px;}.cls-10,.cls-23,.cls-3{fill:#252535;}.cls-16,.cls-3{opacity:0.4;}.cls-4{fill:#8b715d;}.cls-4,.cls-5,.cls-9{stroke-width:16.84px;}.cls-5{fill:#634f42;}.cls-6{fill:#deb18a;}.cls-7{fill:#f4dfcc;}.cls-11{fill:#5d98c0;}.cls-12{opacity:0.5;}.cls-13{clip-path:url(#clip-path);}.cls-14,.cls-22{fill:#fff;}.cls-15{clip-path:url(#clip-path-2);}.cls-17{stroke:#231f20;}.cls-17,.cls-30{stroke-width:6px;}.cls-18,.cls-22{stroke-width:7px;}.cls-20{fill:gray;}.cls-21{fill:#ac6d68;}.cls-24{clip-path:url(#clip-path-3);}.cls-25,.cls-30{stroke:#fff;}.cls-25{stroke-width:4px;}.cls-26{fill:#e4cf7a;}.cls-26,.cls-29,.cls-31{stroke-width:8px;}.cls-27{fill:#ecda90;}.cls-28{fill:#0377cd;}.cls-31{fill:#0090ff;}</style><clipPath id="clip-path"><path class="cls-1" d="M260.59,215.84c17.5-10.06,53-23.45,107.65-12.41-3,12.88-10.68,28.85-17.65,41.6a42.75,42.75,0,0,1-37.51,22.28H300.51a42.74,42.74,0,0,1-34.39-17.41l-9.87-13.35A14.19,14.19,0,0,1,260.59,215.84Z"/></clipPath><clipPath id="clip-path-2"><path class="cls-1" d="M223.54,215.84c-17.5-10.06-53-23.45-107.65-12.41,3,12.88,10.68,28.85,17.65,41.6a42.75,42.75,0,0,0,37.51,22.28h12.58A42.77,42.77,0,0,0,218,249.9l9.86-13.35A14.19,14.19,0,0,0,223.54,215.84Z"/></clipPath><clipPath id="clip-path-3"><path class="cls-1" d="M274.4,547.21l12,17.37H197.71l12-17.37a26.36,26.36,0,0,0,.52-29.26l-18.43-42.42H292.18L273.89,518A26.36,26.36,0,0,0,274.4,547.21Z"/></clipPath></defs><title>saskia</title><g id="Layer_2" data-name="Layer 2"><g id="saskia"><path class="cls-2" d="M270.68,454.13h90.8a0,0,0,0,1,0,0v0a21.39,21.39,0,0,1-21.39,21.39H270.68a10.7,10.7,0,0,1-10.7-10.7v0A10.7,10.7,0,0,1,270.68,454.13Z"/><path class="cls-2" d="M140.56,486.08H210a21.39,21.39,0,0,1,21.39,21.39v0a0,0,0,0,1,0,0h-90.8a10.7,10.7,0,0,1-10.7-10.7v0a10.7,10.7,0,0,1,10.7-10.7Z" transform="translate(659.6 720.34) rotate(135)"/><path class="cls-2" d="M219.74,601.42h22.32a0,0,0,0,1,0,0v91.65a0,0,0,0,1,0,0h0a22.32,22.32,0,0,1-22.32-22.32V601.42A0,0,0,0,1,219.74,601.42Z"/><path class="cls-2" d="M264.39,601.42h0a0,0,0,0,1,0,0v91.65a0,0,0,0,1,0,0H242.07a0,0,0,0,1,0,0V623.74A22.32,22.32,0,0,1,264.39,601.42Z" transform="translate(506.46 1294.49) rotate(180)"/><path class="cls-2" d="M293.57,469.61h0a36,36,0,0,1-35.07,27.81h-33a36,36,0,0,1-35-27.61l0-.2a19.51,19.51,0,0,1,19.51-19.52h.17a18.67,18.67,0,0,0,18.67-18.66V399h26.64v32.42a18.66,18.66,0,0,0,18.66,18.66h0A19.52,19.52,0,0,1,293.57,469.61Z"/><ellipse class="cls-3" cx="242.07" cy="696.78" rx="199.48" ry="11.28"/><path class="cls-4" d="M141.25,92.67c-10.69,29.76-36.64,13.46-47.33,43.22S109.19,182,98.5,211.71s-36.64,13.46-47.33,43.22S66.44,301,55.75,330.76,19.11,344.22,8.42,374H199.21V54.75l-58,37.92"/><path class="cls-5" d="M342.88,92.67c10.69,29.76,36.65,13.46,47.33,43.22s-15.27,46.06-4.58,75.82,36.64,13.46,47.33,43.22-15.27,46.07-4.58,75.83S465,344.22,475.71,374H284.92V54.75l58,37.92"/><path class="cls-4" d="M294,20.42h0a52.34,52.34,0,0,1,52.34,52.34v85.48a0,0,0,0,1,0,0H276.09a0,0,0,0,1,0,0V38.31A17.89,17.89,0,0,1,294,20.42Z"/><path class="cls-4" d="M223.5,8.42H241a35.07,35.07,0,0,1,35.07,35.07V165a0,0,0,0,1,0,0H137.65a0,0,0,0,1,0,0V94.26A85.84,85.84,0,0,1,223.5,8.42Z"/><path class="cls-6" d="M346.4,147.73l-.16,166.79a41.09,41.09,0,0,1-10.63,27.56l-63.14,69.76a41.09,41.09,0,0,1-30.4,13.53H242a41.07,41.07,0,0,1-30.48-13.53L148.37,342.1a41.14,41.14,0,0,1-10.63-27.6V147.73a99,99,0,0,1,99-99h10.7A99,99,0,0,1,346.4,147.73Z"/><path class="cls-7" d="M242.07,48.75V425.37H242a41.07,41.07,0,0,1-30.48-13.53L148.37,342.1a41.14,41.14,0,0,1-10.63-27.6V147.73a99,99,0,0,1,99-99Z"/><circle class="cls-8" cx="306.65" cy="266.09" r="30.48"/><circle class="cls-8" cx="177.48" cy="266.09" r="30.48"/><path class="cls-8" d="M303.75,342.08l-41.64,69.76c-5.14,8.62-12.44,13.53-20.1,13.53h0c-7.66,0-15-4.91-20.1-13.53L180.28,342.1c-4.51-7.56-7-17.4-7-27.6V147.73c0-54.67,29.22-99,65.26-99h7.07c36,0,65.26,44.31,65.26,99l-.1,166.79C310.75,324.71,308.26,334.53,303.75,342.08Z"/><path class="cls-9" d="M335.61,342.08l-63.14,69.76A41.11,41.11,0,0,1,242,425.37h0a41.11,41.11,0,0,1-30.49-13.53L148.37,342.1a41.14,41.14,0,0,1-10.63-27.6V147.73a99,99,0,0,1,99-99h10.71a99,99,0,0,1,99,99l-.16,166.79A41.14,41.14,0,0,1,335.61,342.08Z"/><path class="cls-10" d="M220.24,272.75a9,9,0,0,0,3.52,5,7.25,7.25,0,0,0,5,1.29l1.62-.15,1.67-.13c1.11-.09,2.23-.14,3.34-.2,2.23-.11,4.47-.15,6.7-.16s4.46.05,6.69.15c1.11.07,2.23.11,3.34.2l1.68.13,1.61.15a7.3,7.3,0,0,0,5-1.28,9,9,0,0,0,3.52-5,8.27,8.27,0,0,1-1.41,7.08,9.88,9.88,0,0,1-7,3.94l-1.73.17-1.68.13c-1.11.09-2.23.13-3.34.2-2.23.1-4.46.14-6.69.15s-4.47-.05-6.7-.16c-1.11-.06-2.23-.11-3.34-.2l-1.67-.13-1.74-.17a9.9,9.9,0,0,1-7-3.94A8.31,8.31,0,0,1,220.24,272.75Z"/><path class="cls-10" d="M227.91,279.22a7,7,0,0,1,2.29-2.67,4.1,4.1,0,0,1,2.29-.73,4.16,4.16,0,0,1,2.29.74,7.13,7.13,0,0,1,2.29,2.66v.4c-.77.07-1.53.13-2.29.15s-1.53,0-2.29.05-1.53,0-2.29-.05-1.53-.08-2.29-.15Z"/><path class="cls-10" d="M256.22,279.62c-.76.07-1.52.13-2.29.15s-1.52,0-2.29.05-1.52,0-2.28-.05-1.53-.08-2.29-.15v-.4a7,7,0,0,1,2.29-2.66,3.92,3.92,0,0,1,4.57,0,6.92,6.92,0,0,1,2.29,2.67Z"/><path class="cls-10" d="M269.07,234.42a20.52,20.52,0,0,1,4-3.91,22,22,0,0,1,4-2.37,19.63,19.63,0,0,1,8-1.72,19.27,19.27,0,0,1,8,1.7,20.92,20.92,0,0,1,4,2.37,20.39,20.39,0,0,1,4,3.93,20.39,20.39,0,0,1-4,3.93,20.92,20.92,0,0,1-4,2.37,19.27,19.27,0,0,1-8,1.7,19.63,19.63,0,0,1-8-1.72,22,22,0,0,1-4-2.37A20.52,20.52,0,0,1,269.07,234.42Z"/><path class="cls-10" d="M301,234.42a14.68,14.68,0,0,0-6-9.11,17.52,17.52,0,0,0-19.86,0,14.7,14.7,0,0,0-6,9.1,11.29,11.29,0,0,1,.47-6.15,14.27,14.27,0,0,1,3.54-5.36,17.62,17.62,0,0,1,23.9,0,14.44,14.44,0,0,1,3.53,5.36A11.3,11.3,0,0,1,301,234.42Z"/><polygon class="cls-10" points="293.57 232.42 321.57 234.42 293.57 236.42 293.57 232.42"/><polygon class="cls-10" points="291.76 233.3 319.12 227.04 292.93 237.13 291.76 233.3"/><path class="cls-11" d="M269.07,237.42a21.47,21.47,0,0,1,8-4.71,25.23,25.23,0,0,1,8-1.29,24.66,24.66,0,0,1,8,1.28,21.24,21.24,0,0,1,8,4.72,21.24,21.24,0,0,1-8,4.72,24.66,24.66,0,0,1-8,1.28,25.23,25.23,0,0,1-8-1.29A21.47,21.47,0,0,1,269.07,237.42Z"/><path class="cls-10" d="M215.07,234.42a20.52,20.52,0,0,1-4,3.91,21.75,21.75,0,0,1-4,2.37,19.63,19.63,0,0,1-8,1.72,19.27,19.27,0,0,1-8-1.7,20.92,20.92,0,0,1-4-2.37,20.39,20.39,0,0,1-4-3.93,20.39,20.39,0,0,1,4-3.93,20.92,20.92,0,0,1,4-2.37,19.27,19.27,0,0,1,8-1.7,19.63,19.63,0,0,1,8,1.72,21.75,21.75,0,0,1,4,2.37A20.52,20.52,0,0,1,215.07,234.42Z"/><path class="cls-10" d="M183.14,234.42a11.39,11.39,0,0,1,.48-6.15,14.35,14.35,0,0,1,3.54-5.36,17.62,17.62,0,0,1,23.9,0,14.36,14.36,0,0,1,3.53,5.36,11.3,11.3,0,0,1,.48,6.15,14.71,14.71,0,0,0-6-9.1,17.52,17.52,0,0,0-19.86,0A14.72,14.72,0,0,0,183.14,234.42Z"/><polygon class="cls-10" points="190.57 236.42 162.57 234.42 190.57 232.42 190.57 236.42"/><polygon class="cls-10" points="191.21 237.13 165.01 227.04 192.37 233.3 191.21 237.13"/><path class="cls-11" d="M215.07,237.42a21.43,21.43,0,0,1-8,4.71,25.23,25.23,0,0,1-8,1.29,24.66,24.66,0,0,1-8-1.28,21.24,21.24,0,0,1-8-4.72,21.24,21.24,0,0,1,8-4.72,24.66,24.66,0,0,1,8-1.28,25.23,25.23,0,0,1,8,1.29A21.43,21.43,0,0,1,215.07,237.42Z"/><g class="cls-12"><g class="cls-13"><rect class="cls-14" x="323.89" y="176.42" width="98.18" height="107.18"/></g></g><g class="cls-12"><g class="cls-15"><rect class="cls-14" x="62.07" y="176.42" width="98.18" height="107.18" transform="translate(222.31 460.02) rotate(180)"/></g></g><g class="cls-16"><path class="cls-17" d="M223.54,218.84c-17.5-10.06-53-23.45-107.65-12.41,3,12.88,10.68,28.85,17.65,41.6a42.75,42.75,0,0,0,37.51,22.28h12.58A42.77,42.77,0,0,0,218,252.9l9.86-13.35A14.19,14.19,0,0,0,223.54,218.84Z"/><path class="cls-17" d="M260.59,218.84c17.5-10.06,53-23.45,107.65-12.41-3,12.88-10.68,28.85-17.65,41.6a42.75,42.75,0,0,1-37.51,22.28H300.51a42.74,42.74,0,0,1-34.39-17.41l-9.87-13.35A14.19,14.19,0,0,1,260.59,218.84Z"/><line class="cls-17" x1="230.57" y1="228.42" x2="253.39" y2="228.42"/></g><path class="cls-18" d="M223.54,215.84c-17.5-10.06-53-23.45-107.65-12.41,3,12.88,10.68,28.85,17.65,41.6a42.75,42.75,0,0,0,37.51,22.28h12.58A42.77,42.77,0,0,0,218,249.9l9.86-13.35A14.19,14.19,0,0,0,223.54,215.84Z"/><path class="cls-18" d="M260.59,215.84c17.5-10.06,53-23.45,107.65-12.41-3,12.88-10.68,28.85-17.65,41.6a42.75,42.75,0,0,1-37.51,22.28H300.51a42.74,42.74,0,0,1-34.39-17.41l-9.87-13.35A14.19,14.19,0,0,1,260.59,215.84Z"/><line class="cls-19" x1="230.57" y1="225.42" x2="253.39" y2="225.42"/><path class="cls-6" d="M253,260.6a5.82,5.82,0,0,0-2-2.66,10.17,10.17,0,0,0-2.76-1.42,20.17,20.17,0,0,0-12.36,0,10.2,10.2,0,0,0-2.76,1.43,5.82,5.82,0,0,0-2,2.65,4.86,4.86,0,0,1,.5-3.89,8.63,8.63,0,0,1,2.82-3,14.4,14.4,0,0,1,15.27,0,8.81,8.81,0,0,1,2.82,3A4.86,4.86,0,0,1,253,260.6Z"/><g class="cls-16"><path class="cls-10" d="M306.65,198.63a22.15,22.15,0,0,0-7.13-8.5,19.84,19.84,0,0,0-4.69-2.41,20.81,20.81,0,0,0-5.1-1,19.23,19.23,0,0,0-5.18.4,17.88,17.88,0,0,0-5,1.8,20.08,20.08,0,0,0-4.44,3.13,27.05,27.05,0,0,0-3.71,4.38,15.86,15.86,0,0,1,2.19-5.62,17.41,17.41,0,0,1,4.28-4.54A18.36,18.36,0,0,1,290,182.7a20,20,0,0,1,6.25,1.5,18.57,18.57,0,0,1,5.3,3.52A16.25,16.25,0,0,1,306.65,198.63Z"/></g><g class="cls-16"><path class="cls-10" d="M184.53,198.63a16.25,16.25,0,0,1,5.12-10.91,18.43,18.43,0,0,1,5.3-3.52,20,20,0,0,1,6.24-1.5,18.37,18.37,0,0,1,12.08,3.54,17.41,17.41,0,0,1,4.28,4.54,16.05,16.05,0,0,1,2.19,5.62A27.05,27.05,0,0,0,216,192a20.08,20.08,0,0,0-4.44-3.13,17.88,17.88,0,0,0-5-1.8,19.23,19.23,0,0,0-5.18-.4,20.81,20.81,0,0,0-5.1,1,19.84,19.84,0,0,0-4.69,2.41A22.15,22.15,0,0,0,184.53,198.63Z"/></g><circle class="cls-20" cx="255.39" cy="266.09" r="1.84"/><path class="cls-21" d="M167.85,310.92a23.05,23.05,0,0,0,9,2.17,72,72,0,0,0,9.29-.08c3.1-.19,6.19-.5,9.28-.91s6.17-.83,9.25-1.35q9.22-1.59,18.39-3.54l4.57-1,1.14-.26c.41-.09,1-.2,1.51-.26a13.36,13.36,0,0,1,3.16,0,13.06,13.06,0,0,1,3.08.74,13.31,13.31,0,0,1,1.45.64l1,.54a6.84,6.84,0,0,0,3,.7,6.92,6.92,0,0,0,3-.7l1-.55a15.49,15.49,0,0,1,1.45-.63,13.72,13.72,0,0,1,3.08-.75,13.45,13.45,0,0,1,3.17,0c.5.06,1.1.18,1.5.27l1.14.25,4.57,1c6.11,1.31,12.25,2.46,18.4,3.53,3.07.52,6.16.93,9.24,1.35s6.18.73,9.28.91a68.6,68.6,0,0,0,9.29.08,32.44,32.44,0,0,0,4.59-.62,16.65,16.65,0,0,0,4.41-1.54,15.29,15.29,0,0,1-4.08,2.54,31.3,31.3,0,0,1-4.62,1.54,61.93,61.93,0,0,1-9.57,1.44,128.24,128.24,0,0,1-19.21-.28c-6.38-.48-12.7-1.37-19-2.43-1.57-.27-3.14-.57-4.7-.87l-1.18-.23a7.06,7.06,0,0,0-2.38-.08,6.58,6.58,0,0,0-1.51.39,6.36,6.36,0,0,0-.71.31l-1.06.59a13.73,13.73,0,0,1-6.13,1.47,13.9,13.9,0,0,1-6.13-1.47l-1.06-.59c-.23-.11-.47-.23-.71-.32a7.69,7.69,0,0,0-1.5-.39,6.79,6.79,0,0,0-1.56,0c-.28,0-.46.05-.83.12l-1.17.24c-1.57.3-3.14.6-4.71.86-6.28,1.07-12.6,1.95-19,2.43a128.24,128.24,0,0,1-19.21.28,62.12,62.12,0,0,1-9.57-1.44,30.75,30.75,0,0,1-4.61-1.53A15.77,15.77,0,0,1,167.85,310.92Z"/><path class="cls-10" d="M319.67,324.06a45.11,45.11,0,0,1,1.54-8.13l.28-1c.08-.31.22-.69.26-.93a7,7,0,0,0,.22-1.56A7.1,7.1,0,0,0,319.6,307a7,7,0,0,0-1.29-.92c-.19-.13-.56-.29-.85-.44l-.9-.47a44.09,44.09,0,0,1-7-4.47,45.05,45.05,0,0,1,8.14,1.54l1,.28c.34.11.61.17,1,.33a9.1,9.1,0,0,1,2.2,1.16,9.28,9.28,0,0,1,3.8,8.83,8.94,8.94,0,0,1-.67,2.39c-.31.73-.61,1.25-.94,1.88A44.33,44.33,0,0,1,319.67,324.06Z"/><path class="cls-10" d="M164.47,324.06a45.13,45.13,0,0,1-4.46-7c-.32-.63-.63-1.15-.94-1.88a8.94,8.94,0,0,1-.67-2.39,9.28,9.28,0,0,1,3.8-8.83,9.1,9.1,0,0,1,2.2-1.16c.42-.16.69-.22,1-.33l1-.28a45.22,45.22,0,0,1,8.14-1.54,44.47,44.47,0,0,1-7,4.47l-.91.47c-.28.15-.66.31-.85.44a6.94,6.94,0,0,0-1.28.92,7,7,0,0,0-2.37,5.48,7.6,7.6,0,0,0,.21,1.56c0,.24.18.62.26.93l.28,1A46,46,0,0,1,164.47,324.06Z"/><path class="cls-10" d="M203.4,317.72a3.15,3.15,0,0,0,1.41,1.95,10,10,0,0,0,2.18,1.12,29.88,29.88,0,0,0,4.8,1.33,90,90,0,0,0,10,1.38c6.71.61,13.46.82,20.21.83s13.5-.22,20.21-.84a90,90,0,0,0,10-1.38,27.94,27.94,0,0,0,4.8-1.33,9.94,9.94,0,0,0,2.18-1.11,3.2,3.2,0,0,0,1.42-1.95,3.4,3.4,0,0,1-.9,2.5,10.53,10.53,0,0,1-2.05,1.78,25.7,25.7,0,0,1-4.74,2.46,59.19,59.19,0,0,1-10.11,2.92A106.09,106.09,0,0,1,242,329.33a107.71,107.71,0,0,1-20.79-1.95,60.41,60.41,0,0,1-10.11-2.93,26,26,0,0,1-4.74-2.45,10.54,10.54,0,0,1-2.05-1.79A3.32,3.32,0,0,1,203.4,317.72Z"/><path class="cls-10" d="M263.89,362.42a4,4,0,0,0-1.69-2.33,11,11,0,0,0-2.57-1.32,30.34,30.34,0,0,0-5.7-1.45,72.29,72.29,0,0,0-11.86-.9,73.44,73.44,0,0,0-11.87.9,30.56,30.56,0,0,0-5.7,1.46,10.92,10.92,0,0,0-2.57,1.31,4.06,4.06,0,0,0-1.69,2.33,4.05,4.05,0,0,1,.9-3.11,11.07,11.07,0,0,1,2.43-2.26,23.35,23.35,0,0,1,5.87-2.78,43.89,43.89,0,0,1,25.25,0,23.67,23.67,0,0,1,5.87,2.77,10.88,10.88,0,0,1,2.43,2.27A4,4,0,0,1,263.89,362.42Z"/><circle class="cls-22" cx="361.07" cy="272.75" r="10.85"/><circle class="cls-22" cx="123.07" cy="272.75" r="10.85"/><polygon class="cls-23" points="348.25 632.28 135.89 632.28 197.71 563.75 286.43 563.75 348.25 632.28"/><path class="cls-23" d="M274.4,547.21l12,17.37H197.71l12-17.37a26.36,26.36,0,0,0,.52-29.26l-18.43-42.42H292.18L273.89,518A26.36,26.36,0,0,0,274.4,547.21Z"/><g class="cls-24"><line class="cls-25" x1="195.26" y1="483.85" x2="288.87" y2="483.85"/><line class="cls-25" x1="195.26" y1="497.89" x2="288.87" y2="497.89"/><line class="cls-25" x1="195.26" y1="511.93" x2="288.87" y2="511.93"/><line class="cls-25" x1="195.26" y1="525.96" x2="288.87" y2="525.96"/><line class="cls-25" x1="195.26" y1="540" x2="288.87" y2="540"/><line class="cls-25" x1="195.26" y1="554.04" x2="288.87" y2="554.04"/></g><path class="cls-19" d="M274.4,547.21l12,17.37H197.71l12-17.37a26.36,26.36,0,0,0,.52-29.26l-18.43-42.42H292.18L273.89,518A26.36,26.36,0,0,0,274.4,547.21Z"/><rect class="cls-26" x="341.73" y="421.09" width="46" height="33.04" rx="5.42"/><rect class="cls-27" x="341.73" y="421.09" width="46" height="33.04" rx="5.42"/><path class="cls-28" d="M375.45,446.37H354a3.12,3.12,0,0,1-3.31-2.88V431.73a3.12,3.12,0,0,1,3.31-2.88h21.44a3.12,3.12,0,0,1,3.31,2.88v11.76A3.12,3.12,0,0,1,375.45,446.37Z"/><rect class="cls-29" x="341.73" y="421.09" width="46" height="33.04" rx="5.42"/><line class="cls-30" x1="357.55" y1="437.61" x2="371.92" y2="437.61"/><rect class="cls-31" x="341.73" y="405.42" width="46" height="16" rx="5.09"/></g></g></svg>