<svg xmlns="http://www.w3.org/2000/svg" viewBox="0 0 1000 1000"><defs><style>.cls-1,.cls-25{fill:#e1cbe7;}.cls-1,.cls-10,.cls-16,.cls-18,.cls-2,.cls-20,.cls-21,.cls-23,.cls-3,.cls-6,.cls-8,.cls-9{stroke:#252535;}.cls-1,.cls-10,.cls-16,.cls-18,.cls-2,.cls-20,.cls-21,.cls-22,.cls-23,.cls-3,.cls-5,.cls-6,.cls-8,.cls-9{stroke-linejoin:round;}.cls-1,.cls-2,.cls-23,.cls-3,.cls-5,.cls-6{stroke-width:12px;}.cls-2{fill:#48434f;}.cls-3{fill:#696572;}.cls-21,.cls-4,.cls-7{fill:#252535;}.cls-13,.cls-4{opacity:0.4;}.cls-16,.cls-20,.cls-22,.cls-5{fill:none;}.cls-5{stroke:#826239;}.cls-14,.cls-6{fill:#edcdb1;}.cls-13,.cls-15,.cls-23,.cls-8{fill:#534741;}.cls-10,.cls-16,.cls-8,.cls-9{stroke-width:16.84px;}.cls-11,.cls-9{fill:#dcaf88;}.cls-10,.cls-12{fill:#f2ddca;}.cls-17{fill:#55758b;}.cls-18,.cls-19{fill:#fff;}.cls-18{stroke-width:5px;}.cls-19{opacity:0.3;}.cls-20,.cls-21{stroke-width:7px;}.cls-22{stroke:#fff;stroke-linecap:round;stroke-width:3px;}.cls-24{fill:#83526e;}</style></defs><title>sos_thierry-rassam</title><g id="sos0_thierry"><polygon class="cls-1" points="538.64 617.91 501.27 583.22 463.9 617.91 463.9 765.86 538.64 765.86 538.64 617.91"/><polygon class="cls-2" points="521.26 852.98 498.93 852.98 498.93 765.86 526.26 765.86 521.26 852.98"/><polygon class="cls-3" points="476.59 852.98 498.93 852.98 498.93 765.86 471.59 765.86 476.59 852.98"/><ellipse class="cls-4" cx="500" cy="876.36" rx="199.48" ry="11.28"/><line class="cls-5" x1="498.93" y1="868.22" x2="444.86" y2="868.22"/><line class="cls-5" x1="498.93" y1="868.22" x2="552.99" y2="868.22"/><path class="cls-2" d="M558.58,775.86H547.31A22.27,22.27,0,0,1,525,753.59V606.78l33.54,9.11Z"/><path class="cls-3" d="M441.48,775.86h11.27A22.27,22.27,0,0,0,475,753.59V606.78l-33.54,9.11Z"/><path class="cls-3" d="M418.06,621.89h23.42a0,0,0,0,1,0,0v77.2a23.42,23.42,0,0,1-23.42,23.42h0a0,0,0,0,1,0,0V621.89A0,0,0,0,1,418.06,621.89Z" transform="translate(859.54 1344.4) rotate(-180)"/><rect class="cls-1" x="418.06" y="710.8" width="23.42" height="23.42" transform="translate(859.54 1445.02) rotate(-180)"/><path class="cls-6" d="M418.06,734.22h.68A22.74,22.74,0,0,1,441.48,757v0a0,0,0,0,1,0,0H418.06a0,0,0,0,1,0,0V734.22A0,0,0,0,1,418.06,734.22Z" transform="translate(859.54 1491.19) rotate(-180)"/><path class="cls-2" d="M558.58,621.89h0A23.42,23.42,0,0,1,582,645.31v77.2a0,0,0,0,1,0,0H558.58a0,0,0,0,1,0,0V621.89A0,0,0,0,1,558.58,621.89Z"/><rect class="cls-1" x="558.58" y="710.8" width="23.42" height="23.42"/><path class="cls-6" d="M558.58,734.22H582a0,0,0,0,1,0,0v0A22.74,22.74,0,0,1,559.26,757h-.68a0,0,0,0,1,0,0V734.22A0,0,0,0,1,558.58,734.22Z"/><path class="cls-7" d="M449.9,97.94a76.59,76.59,0,0,0-21.39,21,74.65,74.65,0,0,0-11.32,26.92,72.5,72.5,0,0,0-.11,28.38,70.39,70.39,0,0,0,10.51,25.46L412.92,208a85.21,85.21,0,0,1-8.38-32.22,83.25,83.25,0,0,1,4.54-32.15A80.85,80.85,0,0,1,425.2,116.4,78.66,78.66,0,0,1,449.9,97.94Z"/><path class="cls-8" d="M384,372.63H500V185.19L399,190.08a26.51,26.51,0,0,0-25.17,28.23Z"/><path class="cls-8" d="M616,372.63H500V185.19l101,4.89a26.51,26.51,0,0,1,25.17,28.23Z"/><path class="cls-8" d="M468.36,125.87h10.72a128.7,128.7,0,0,1,128.7,128.7v51.76a0,0,0,0,1,0,0H419.11a0,0,0,0,1,0,0V175.12a49.25,49.25,0,0,1,49.25-49.25Z" transform="translate(32.41 -64.85) rotate(7.46)"/><path class="cls-9" d="M659,357.48l-43,14v84.25h16.32A44.68,44.68,0,0,0,677,411V370.56A13.76,13.76,0,0,0,659,357.48Z"/><path class="cls-10" d="M341,357.48l43,14v84.25H367.68A44.68,44.68,0,0,1,323,411V370.56A13.76,13.76,0,0,1,341,357.48Z"/><path class="cls-11" d="M616,281.31v225.6A17.25,17.25,0,0,1,611.08,519l-52.5,53.59L525,606.78A17.23,17.23,0,0,1,512.73,612H487.27A17.23,17.23,0,0,1,475,606.78l-33.54-34.23L388.92,519A17.25,17.25,0,0,1,384,506.91V281.31a45.85,45.85,0,0,1,45.85-45.85h140.3A45.85,45.85,0,0,1,616,281.31Z"/><path class="cls-12" d="M500,235.46V612H487.27A17.23,17.23,0,0,1,475,606.78l-33.54-34.23L388.92,519A17.25,17.25,0,0,1,384,506.91V281.31a45.85,45.85,0,0,1,45.85-45.85Z"/><polygon class="cls-13" points="541.41 572.55 617.5 461.11 616 516.55 541.41 590.08 541.41 572.55"/><polygon class="cls-13" points="458.59 572.55 382.5 461.11 384 516.55 458.59 590.08 458.59 572.55"/><circle class="cls-14" cx="569.93" cy="430.12" r="38.9"/><circle class="cls-14" cx="430.07" cy="430.12" r="38.9"/><path class="cls-14" d="M582,281.31v225.6A21.44,21.44,0,0,1,578.52,519l-37.11,53.59L517.7,606.78c-2.29,3.31-5.43,5.17-8.7,5.17H491c-3.27,0-6.41-1.86-8.7-5.17l-23.71-34.23L421.48,519A21.44,21.44,0,0,1,418,506.91V281.31c0-25.32,14.51-45.85,32.41-45.85h99.18C567.49,235.46,582,256,582,281.31Z"/><rect class="cls-15" x="489.67" y="539.89" width="20.67" height="32.66"/><path class="cls-15" d="M558.58,572.55,525,606.78A17.23,17.23,0,0,1,512.73,612H487.27A17.23,17.23,0,0,1,475,606.78l-33.54-34.23Z"/><path class="cls-16" d="M616,281.31v225.6A17.25,17.25,0,0,1,611.08,519l-52.5,53.59L525,606.78A17.23,17.23,0,0,1,512.73,612H487.27A17.23,17.23,0,0,1,475,606.78l-33.54-34.23L388.92,519A17.25,17.25,0,0,1,384,506.91V281.31a45.85,45.85,0,0,1,45.85-45.85h140.3A45.85,45.85,0,0,1,616,281.31Z"/><path class="cls-15" d="M561.17,488.49l-55.38,12.73a25.73,25.73,0,0,1-11.58,0l-55.36-12.73a4,4,0,0,1-1.5-7.05,11.59,11.59,0,0,1,7.7-2.39l54.95,3,55-3a11.62,11.62,0,0,1,7.94,2.57A4,4,0,0,1,561.17,488.49Z"/><path class="cls-7" d="M528.93,470.84a12.71,12.71,0,0,0,4.94-4.79,10.05,10.05,0,0,0,0-9.87,12.9,12.9,0,0,0-4.93-4.8c2.57-1.51,6.16-1,8.82.91a11,11,0,0,1,0,17.64C535.09,471.88,531.5,472.34,528.93,470.84Z"/><path class="cls-7" d="M471.07,470.84c-2.57,1.5-6.16,1-8.82-.91a11,11,0,0,1,0-17.64c2.66-2,6.25-2.42,8.82-.91a12.9,12.9,0,0,0-4.93,4.8,10.05,10.05,0,0,0,0,9.87A12.71,12.71,0,0,0,471.07,470.84Z"/><path class="cls-7" d="M518.67,439.22a138.53,138.53,0,0,0-4.79-26.79,55.26,55.26,0,0,0-5.15-12.19,21.5,21.5,0,0,0-3.88-4.88,6.57,6.57,0,0,0-9.7,0,21.41,21.41,0,0,0-3.87,4.88,54.67,54.67,0,0,0-5.15,12.2,137.68,137.68,0,0,0-4.8,26.78,88.19,88.19,0,0,1,1.78-27.59,56,56,0,0,1,2-6.76,45.12,45.12,0,0,1,2.92-6.53,23.9,23.9,0,0,1,4.54-5.89,10.22,10.22,0,0,1,14.91,0,23.42,23.42,0,0,1,4.54,5.89,45.12,45.12,0,0,1,2.92,6.53,54.28,54.28,0,0,1,2,6.76A88.19,88.19,0,0,1,518.67,439.22Z"/><path class="cls-17" d="M526.93,387.14a35.54,35.54,0,0,1,11.43-4.71,51.72,51.72,0,0,1,22.87,0,35.3,35.3,0,0,1,11.44,4.73,35.49,35.49,0,0,1-11.44,4.72,50,50,0,0,1-11.43,1.28,50.7,50.7,0,0,1-11.44-1.3A35.74,35.74,0,0,1,526.93,387.14Z"/><path class="cls-15" d="M517.3,371.34c3.34-1.64,6.56-3,9.89-4.39s6.66-2.61,10-3.79c6.74-2.37,13.6-4.49,20.57-6.25s14-3.33,21.18-4.47,14.39-2,21.69-2.55v12.83c-6.87.1-13.75.32-20.6,1s-13.68,1.63-20.45,2.89-13.49,2.81-20.13,4.65c-3.32.91-6.61,1.92-9.88,3s-6.54,2.24-9.57,3.49Z"/><path class="cls-15" d="M479,377.19c-2.65-1.94-5.58-3.88-8.45-5.71s-5.85-3.59-8.83-5.28c-6-3.39-12.06-6.53-18.27-9.35s-12.49-5.45-18.89-7.67-12.84-4.16-19.3-5.88l4-12.19c6.72,2.31,13.41,4.74,19.88,7.65s12.86,6,19.09,9.39,12.28,7.08,18.19,11c3,2,5.86,4,8.73,6.1s5.64,4.25,8.47,6.66Z"/><path class="cls-17" d="M473.07,386.56a35.74,35.74,0,0,1-11.43,4.7,50.12,50.12,0,0,1-11.44,1.29,49.45,49.45,0,0,1-11.43-1.27,35.49,35.49,0,0,1-11.44-4.72,35.3,35.3,0,0,1,11.44-4.73,49.45,49.45,0,0,1,11.43-1.27,50.12,50.12,0,0,1,11.44,1.29A35.54,35.54,0,0,1,473.07,386.56Z"/><path class="cls-7" d="M526.93,379.42a64.48,64.48,0,0,1,15-1.79A71.42,71.42,0,0,1,557,379a47.69,47.69,0,0,1,14.42,5.28A25.26,25.26,0,0,1,582,395.22a35.6,35.6,0,0,0-12-8.12,70.85,70.85,0,0,0-13.79-4.17c-4.75-1-9.59-1.65-14.47-2.17S531.94,379.83,526.93,379.42Z"/><path class="cls-7" d="M473.07,379.42c-5,.41-9.94.79-14.83,1.34s-9.72,1.21-14.47,2.17A70.85,70.85,0,0,0,430,387.1a35.6,35.6,0,0,0-12,8.12,25.26,25.26,0,0,1,10.55-10.92A47.69,47.69,0,0,1,443,379a71.42,71.42,0,0,1,15.12-1.39A64.48,64.48,0,0,1,473.07,379.42Z"/><path class="cls-7" d="M554.46,458c5.79,4.21,11.3,8.72,16.72,13.33,2.74,2.27,5.38,4.65,8.06,7l1,.88.49.45.53.52a17.39,17.39,0,0,1,2,2.25,17.64,17.64,0,0,1,2.12,17,18.77,18.77,0,0,1-3.08,5c-1.16,1.36-2.34,2.69-3.53,4C574,513.79,569.15,519,564,524c3.86-6,8-11.81,12.31-17.49,1.06-1.43,2.13-2.85,3.23-4.25a15.53,15.53,0,0,0,2.26-4.15,14.38,14.38,0,0,0,.24-9.21,13.66,13.66,0,0,0-3.51-6l-.41-.43-.48-.45-1-.93c-2.54-2.49-5.12-4.93-7.61-7.48C564.05,468.56,559.12,463.42,554.46,458Z"/><path class="cls-7" d="M458,516.55A16.7,16.7,0,0,0,464.49,527a37.55,37.55,0,0,0,10.87,5.89,78,78,0,0,0,49.27,0A37.63,37.63,0,0,0,535.5,527a16.76,16.76,0,0,0,6.5-10.46,13.24,13.24,0,0,1-.82,6.67,19.59,19.59,0,0,1-3.62,5.89,34.62,34.62,0,0,1-11.07,8.12,64.8,64.8,0,0,1-53,0,34.86,34.86,0,0,1-11.08-8.12,20,20,0,0,1-3.62-5.89A13.25,13.25,0,0,1,458,516.55Z"/><path class="cls-18" d="M470.94,517.49,433.33,493,486,507a48.05,48.05,0,0,0,28.1,0l52.62-14-37.61,24.5C511.09,530.15,488.91,530.15,470.94,517.49Z"/><path class="cls-19" d="M606.33,403.93v5a30.3,30.3,0,0,1-30.3,30.3h-3.36V373.63H576A30.29,30.29,0,0,1,606.33,403.93Z"/><path class="cls-19" d="M393.67,403.93v5a30.3,30.3,0,0,0,30.3,30.3h3.36V373.63H424A30.29,30.29,0,0,0,393.67,403.93Z"/><path class="cls-20" d="M606.33,403.93v5a30.3,30.3,0,0,1-30.3,30.3H546a30.3,30.3,0,0,1-30.3-30.3v-5a30.29,30.29,0,0,1,30.3-30.3H576A30.29,30.29,0,0,1,606.33,403.93Z"/><rect class="cls-20" x="393.67" y="373.63" width="90.67" height="65.59" rx="30.3" transform="translate(878 812.85) rotate(-180)"/><line class="cls-20" x1="480.71" y1="386.89" x2="519.29" y2="386.89"/><path class="cls-21" d="M372,373.63v12.78l23.27,7.81c3.12-9.88,12.92-20.59,27.47-20.59Z"/><path class="cls-21" d="M628,373.63v12.78l-23.27,7.81c-3.12-9.88-12.92-20.59-27.47-20.59Z"/><line class="cls-22" x1="608.5" y1="382.55" x2="617.5" y2="382.55"/><line class="cls-22" x1="391.5" y1="382.55" x2="382.5" y2="382.55"/><path class="cls-7" d="M435.33,474.79a18.9,18.9,0,0,0-9.65,6.35,15.56,15.56,0,0,0,0,19.3,18.87,18.87,0,0,0,9.64,6.35,14.28,14.28,0,0,1-13-3,17,17,0,0,1,0-26,15.47,15.47,0,0,1,6.29-3.16A13,13,0,0,1,435.33,474.79Z"/><path class="cls-20" d="M471.07,461.11l15.35,15.35a19.21,19.21,0,0,0,27.16,0l15.35-15.35"/><path class="cls-23" d="M450.14,225.91c0,11.05,22.28,26,49.77,26s49.76-14.95,49.76-26"/><polygon class="cls-24" points="500.18 639.99 511.94 741.95 498.93 754.96 485.91 741.95 497.68 639.99 485.91 628.22 511.94 628.22 500.18 639.99"/><path class="cls-25" d="M535.79,654.14a9.44,9.44,0,0,1,2.93-1.37,12.31,12.31,0,0,1,2.93-.45,9.38,9.38,0,0,1,2.92.31,7.48,7.48,0,0,1,2.93,1.51v4.17H535.79Z"/></g></svg>