<svg xmlns="http://www.w3.org/2000/svg" viewBox="0 0 1000 1000"><defs><style>.cls-1{fill:#adadad}.cls-1,.cls-10,.cls-11,.cls-15,.cls-2,.cls-20,.cls-21,.cls-3,.cls-4,.cls-5,.cls-6,.cls-7,.cls-9{stroke:#252535;stroke-linejoin:round}.cls-1,.cls-2,.cls-20,.cls-3,.cls-6,.cls-7{stroke-width:12px}.cls-2{fill:gray}.cls-3{fill:#3d3d4f}.cls-18,.cls-4,.cls-7{fill:#fff}.cls-4,.cls-5{stroke-width:8px}.cls-14,.cls-5{fill:#ecc19c}.cls-6{fill:#2e2e3f}.cls-16,.cls-17,.cls-20,.cls-8,.cls-9{fill:#252535}.cls-8{opacity:.3}.cls-10,.cls-11,.cls-15,.cls-9{stroke-width:16.84px}.cls-10,.cls-12{fill:#cf9e76}.cls-11,.cls-13{fill:#f0d0b4}.cls-15,.cls-21{fill:none}.cls-17{opacity:.8}.cls-19{fill:#cb8c84}.cls-21{stroke-width:10px}</style></defs><title>sos_jack-rodriguez</title><g id="sos3_Jack_Rodriguez" data-name="sos3_Jack Rodriguez"><rect width="29.02" height="62.66" x="471.65" y="802.84" class="cls-1"/><rect width="29.02" height="62.66" x="500.67" y="802.84" class="cls-2" transform="translate(1030.36 1668.34) rotate(-180)"/><path d="M389,739.75h44.87V630.64h0a25.37,25.37,0,0,0-24.76,19.81Z" class="cls-3"/><rect width="34.87" height="18.86" x="398.96" y="739.75" class="cls-4" transform="translate(832.79 1498.36) rotate(-180)"/><path d="M433.83,758.61h0a0,0,0,0,1,0,0v27.74a0,0,0,0,1,0,0H410.88a0,0,0,0,1,0,0v-4.8A22.95,22.95,0,0,1,433.83,758.61Z" class="cls-5" transform="translate(844.71 1544.96) rotate(180)"/><rect width="132.62" height="208.95" x="433.55" y="630.64" class="cls-6"/><path d="M529.58,611.06h-59.3A7.45,7.45,0,0,0,464,622.58l18,27.64h35.36l18.34-27.59A7.45,7.45,0,0,0,529.58,611.06Z" class="cls-7"/><polygon points="459.21 748.69 500 748.69 500 650.22 482.55 650.22 459.21 748.69" class="cls-7"/><polygon points="540.79 748.69 500 748.69 500 650.22 517.45 650.22 540.79 748.69" class="cls-7"/><ellipse cx="500" cy="886.9" class="cls-8" rx="199.48" ry="11.28"/><path d="M501.53,166.53l-62,28.89c-38.06,18.9-50.65,42.68-50.65,91.23h0l204-33.42-27.15-57.48A65.83,65.83,0,0,0,521.64,164,32.82,32.82,0,0,0,501.53,166.53Z" class="cls-9"/><ellipse cx="635" cy="420.22" class="cls-10" rx="33.96" ry="45.5"/><ellipse cx="365.23" cy="420.22" class="cls-11" rx="33.96" ry="45.5"/><path d="M611,281.83V499a67.66,67.66,0,0,1-14.63,42L553,595.74a67.63,67.63,0,0,1-53,25.64h-.14A67.58,67.58,0,0,1,447,595.74L403.59,541A67.66,67.66,0,0,1,389,499V281.83A53.74,53.74,0,0,1,442.7,228.1H557.3A53.74,53.74,0,0,1,611,281.83Z" class="cls-12"/><path d="M499.86,228.1V621.38A67.58,67.58,0,0,1,447,595.74L403.59,541A67.66,67.66,0,0,1,389,499V281.83A53.74,53.74,0,0,1,442.7,228.1Z" class="cls-13"/><path d="M576.67,281.83V499c0,15.25-3.56,30.06-10.1,42l-30,54.75c-8.86,16.2-22.34,25.64-36.61,25.64h0c-14.27,0-27.75-9.44-36.61-25.64l-30-54.75c-6.54-12-10.1-26.76-10.1-42V281.83c0-29.67,16.61-53.73,37.1-53.73h79.14C560.06,228.1,576.67,252.16,576.67,281.83Z" class="cls-14"/><path d="M611,281.83V499a67.66,67.66,0,0,1-14.63,42L553,595.74a67.63,67.63,0,0,1-53,25.64h0a67.63,67.63,0,0,1-53-25.64L403.59,541A67.66,67.66,0,0,1,389,499V281.83A53.74,53.74,0,0,1,442.7,228.1H557.3A53.74,53.74,0,0,1,611,281.83Z" class="cls-15"/><path d="M484.57,453.83a9.15,9.15,0,0,0-5.17,2.69,8,8,0,0,0-2.18,4.85l0,.64,0,.64.12,1.52.23,3.09.12,1.51.07.59.14.57a7.35,7.35,0,0,0,1,2.08,6.59,6.59,0,0,0,3.54,2.58,6.67,6.67,0,0,0,2.13.27l3.08-.09c4.12-.11,8.24-.15,12.36-.16s8.24.05,12.36.16l3.08.08a6.67,6.67,0,0,0,2.13-.27A6.6,6.6,0,0,0,521.1,472a7.09,7.09,0,0,0,1-2.08l.14-.57.08-.59.11-1.51.23-3.09.13-1.52,0-.64,0-.64a8.08,8.08,0,0,0-2.17-4.85,9.21,9.21,0,0,0-5.17-2.69,9,9,0,0,1,6.23,1.41,10,10,0,0,1,4,5.57l.21.88.11.9.14,1.58.24,3.09c0,.53.08,1,.1,1.57v1l-.09.95a10.92,10.92,0,0,1-1.2,3.67,11.57,11.57,0,0,1-2.41,3.08,11.82,11.82,0,0,1-3.38,2.07,11.67,11.67,0,0,1-3.92.81l-3.09.09c-4.12.1-8.24.14-12.36.15s-8.24-.05-12.36-.16l-3.09-.09a11.43,11.43,0,0,1-3.92-.81,11.16,11.16,0,0,1-5.78-5.14,11,11,0,0,1-1.2-3.67l-.1-.95v-1c0-.58.07-1,.1-1.57l.24-3.09.13-1.58.12-.9.2-.88a10,10,0,0,1,4-5.57A8.93,8.93,0,0,1,484.57,453.83Z" class="cls-16"/><path d="M488.16,473c0,4.56,5.3,8.25,11.84,8.25s11.84-3.69,11.84-8.25" class="cls-14"/><path d="M488.16,473a8.34,8.34,0,0,0,5,5,17.87,17.87,0,0,0,6.83,1.29,18.17,18.17,0,0,0,6.82-1.29,8.38,8.38,0,0,0,5-5,5.79,5.79,0,0,1-.47,4.27,9.48,9.48,0,0,1-2.95,3.4,15,15,0,0,1-16.83,0,9.39,9.39,0,0,1-3-3.39A5.84,5.84,0,0,1,488.16,473Z" class="cls-16"/><path d="M509.42,436.81a177.4,177.4,0,0,0-2.52-18.72,59.85,59.85,0,0,0-2.45-8.92,22.08,22.08,0,0,0-1.91-4c-.74-1.17-1.78-2.06-2.44-2a2,2,0,0,0-1.19.53,6.54,6.54,0,0,0-1.27,1.45,22.3,22.3,0,0,0-2,3.94A60.51,60.51,0,0,0,493.1,418a176.59,176.59,0,0,0-2.8,18.68,82,82,0,0,1,.49-19.1,51.81,51.81,0,0,1,2.22-9.45,22.55,22.55,0,0,1,2.19-4.58,9.56,9.56,0,0,1,1.82-2.11,4.88,4.88,0,0,1,3.11-1.24,4.93,4.93,0,0,1,3.08,1.28,9.56,9.56,0,0,1,1.79,2.15,22.08,22.08,0,0,1,2.12,4.6,51,51,0,0,1,2.08,9.49A82.48,82.48,0,0,1,509.42,436.81Z" class="cls-12"/><path d="M524.48,408.88a27.47,27.47,0,0,1,3.46-2.87,32.25,32.25,0,0,1,9.87-4.76,30.37,30.37,0,0,1,24.1,3.34,34,34,0,0,1,5.55,4.31,33.06,33.06,0,0,1,2.67,2.91,27.17,27.17,0,0,1,2.57,3.68l-.19,1.38c-2-.12-4-.32-6.08-.48l-6-.64c-4-.43-8-1-12.08-1.49s-8-1.15-12-1.81l-6-1c-2-.39-4-.73-6-1.16Z" class="cls-16"/><path d="M573.43,410.23a23.94,23.94,0,0,0-8.36-16,25.81,25.81,0,0,0-33.15,0,23.89,23.89,0,0,0-8.36,16,20.58,20.58,0,0,1,1.33-9.53,23.16,23.16,0,0,1,5.45-8.19,25.36,25.36,0,0,1,8.34-5.41,26.4,26.4,0,0,1,19.62,0,25.3,25.3,0,0,1,8.35,5.41,23.52,23.52,0,0,1,5.45,8.19A20.84,20.84,0,0,1,573.43,410.23Z" class="cls-16"/><polygon points="562.95 411.46 591.07 422.64 561.98 414.3 562.95 411.46" class="cls-16"/><polygon points="562.26 412.4 591.07 413.9 562.26 415.4 562.26 412.4" class="cls-16"/><path d="M475.94,410.27c-2,.43-4,.77-6,1.16l-6,1c-4,.66-8,1.21-12,1.81s-8.05,1.06-12.08,1.49l-6.06.64c-2,.16-4,.36-6.07.48l-.19-1.38a27.17,27.17,0,0,1,2.57-3.68,33.06,33.06,0,0,1,2.67-2.91,34,34,0,0,1,5.55-4.31,30.37,30.37,0,0,1,24.1-3.34,32.25,32.25,0,0,1,9.87,4.76,27.47,27.47,0,0,1,3.46,2.87Z" class="cls-16"/><path d="M426.8,410.23a20.84,20.84,0,0,1,1.33-9.53,23.52,23.52,0,0,1,5.45-8.19,25.3,25.3,0,0,1,8.35-5.41,26.4,26.4,0,0,1,19.62,0,25.36,25.36,0,0,1,8.34,5.41,23.16,23.16,0,0,1,5.45,8.19,20.58,20.58,0,0,1,1.33,9.53,23.89,23.89,0,0,0-8.36-16,25.81,25.81,0,0,0-33.15,0A23.94,23.94,0,0,0,426.8,410.23Z" class="cls-16"/><polygon points="438.25 414.3 409.16 422.64 437.28 411.46 438.25 414.3" class="cls-16"/><polygon points="437.97 415.4 409.16 413.9 437.97 412.4 437.97 415.4" class="cls-16"/><path d="M517.61,355.4c7.15,1,14.27,2.1,21.39,3.31s14.18,2.51,21.32,3.9a24.49,24.49,0,0,1,12.41,6.28,23.69,23.69,0,0,1,2.34,2.57c.36.44.69.94,1,1.39s.53.89.79,1.23c1,1.47,2.07,2.93,3.07,4.41,4.07,5.92,8.05,11.9,11.83,18.06l-4.94,3.85c-5.08-5.23-10-10.63-14.73-16.11-1.21-1.36-2.38-2.75-3.58-4.13l-.82-1c-.24-.25-.45-.48-.7-.7a15.91,15.91,0,0,0-1.49-1.25,14.16,14.16,0,0,0-7-2.64c-7.14-.71-14.34-1.53-21.5-2.4s-14.3-1.85-21.43-3Z" class="cls-16"/><path d="M484.65,369.25c-7.13,1.12-14.27,2.09-21.44,3s-14.35,1.69-21.49,2.4a14.16,14.16,0,0,0-7,2.64,15.91,15.91,0,0,0-1.49,1.25c-.25.22-.46.45-.71.7l-.82,1c-1.19,1.38-2.36,2.77-3.57,4.13-4.78,5.48-9.65,10.88-14.73,16.11l-4.94-3.85c3.78-6.16,7.76-12.14,11.83-18.06,1-1.48,2.05-2.94,3.07-4.41.25-.34.52-.81.79-1.23s.64-1,1-1.39a23.69,23.69,0,0,1,2.34-2.57,24.49,24.49,0,0,1,12.41-6.28c7.13-1.39,14.2-2.67,21.32-3.9s14.24-2.33,21.39-3.31Z" class="cls-16"/><path d="M568.64,531V498.92c0-11.77-10.71-21.31-23.92-21.31H455.28c-13.21,0-23.92,9.54-23.92,21.31V531c-24.64-27.19-42.4-57.33-42.4-57.33v40l52.49,72.47a72.25,72.25,0,0,0,32,24.84h0a72.29,72.29,0,0,0,53,0h0a72.25,72.25,0,0,0,32-24.84L611,513.61v-40S593.28,503.79,568.64,531ZM500,573.66c-20.69,0-42.44-15.75-61.15-34.75v-40h122.3v40C542.44,557.91,520.69,573.66,500,573.66Z" class="cls-17"/><path d="M471.65,537.16c0,7.25,12.69,13.13,28.35,13.13s28.35-5.88,28.35-13.13Z" class="cls-17"/><path d="M512,449.18c7.88,4.06,15.61,8.36,23.28,12.76,3.85,2.17,7.65,4.43,11.47,6.66l11.38,6.8c1.9,1.17,3.76,2.27,5.67,3.51l1.45,1c.47.35.9.74,1.36,1.11a28.74,28.74,0,0,1,2.53,2.41,26.9,26.9,0,0,1,6.24,12.27l.19.85.12.85c.07.58.16,1.15.22,1.72a28.22,28.22,0,0,1,0,3.44,25.83,25.83,0,0,1-1.25,6.72l-.58,1.6c-.21.53-.47,1-.71,1.55-.46,1-1,2-1.53,3-1.05,2-2.13,3.88-3.22,5.81q1.2-3.09,2.47-6.17c.4-1,.87-2,1.21-3.06.18-.51.39-1,.54-1.53l.4-1.56a24.43,24.43,0,0,0,.7-6.36,30.5,30.5,0,0,0-.22-3.17c-.08-.52-.19-1-.28-1.56l-.15-.78-.21-.76a25.8,25.8,0,0,0-2.36-5.84,24.91,24.91,0,0,0-8.53-9c-1.8-1.15-3.77-2.28-5.64-3.42L545.27,471c-3.73-2.36-7.5-4.68-11.21-7.09C526.62,459.16,519.23,454.3,512,449.18Z" class="cls-16"/><path d="M448.85,471a37.53,37.53,0,0,0-10.24,3.2,31.53,31.53,0,0,0-14.47,14.48,38.18,38.18,0,0,0-3.21,10.23A22.54,22.54,0,0,1,422,487.79a25.6,25.6,0,0,1,15.74-15.74A22.64,22.64,0,0,1,448.85,471Z" class="cls-16"/><path d="M500,528.52c-29.33,0-59.19-29.83-59.19-29.83H559.2S529.57,528.52,500,528.52Z" class="cls-18"/><path d="M500,531.52a54.24,54.24,0,0,1-8.94-.82,67.79,67.79,0,0,1-8.61-2.17,91.47,91.47,0,0,1-16-7.08A129.49,129.49,0,0,1,452,512a136.81,136.81,0,0,1-13.26-11.19h0a3,3,0,0,1,2.09-5.12H559.21a3,3,0,0,1,2.11,5.11h0c-2.14,2.11-4.26,4-6.47,5.85s-4.47,3.65-6.77,5.38a130.4,130.4,0,0,1-14.52,9.45,91,91,0,0,1-16,7.07,69.49,69.49,0,0,1-8.61,2.16A56.59,56.59,0,0,1,500,531.52Zm0-8.06a51.08,51.08,0,0,0,7.56-.64,68.67,68.67,0,0,0,7.56-1.83c2.51-.77,5-1.69,7.45-2.72s4.89-2.2,7.3-3.41a124,124,0,0,0,14-8.44q3.43-2.28,6.74-4.76c1.1-.83,2.19-1.68,3.27-2.53s2.19-1.72,3.17-2.55h0l2.13,5.12H440.81l2.12-5.12h0c1,.83,2.1,1.71,3.18,2.54s2.17,1.69,3.28,2.52c2.2,1.65,4.46,3.24,6.75,4.75a127.91,127.91,0,0,0,14,8.44c2.42,1.21,4.85,2.36,7.3,3.42a77.66,77.66,0,0,0,7.46,2.72,65.91,65.91,0,0,0,7.55,1.85A49.42,49.42,0,0,0,500,523.46Z" class="cls-19"/><path d="M611,386.71l-19.15-31a36.37,36.37,0,0,1-5.41-19.1V234.85l24.56,31Z" class="cls-16"/><path d="M389.19,386.71l19.15-31a36.37,36.37,0,0,0,5.41-19.1V234.85l-24.56,31Z" class="cls-16"/><path d="M575.61,239a160.73,160.73,0,0,0-1.32-30.78A94.88,94.88,0,0,0,565.52,179a60.47,60.47,0,0,0-8.5-12.64,51.2,51.2,0,0,0-11.71-9.87A56.09,56.09,0,0,0,531,150.32a81.07,81.07,0,0,0-15.64-2.39,80.75,80.75,0,0,1,16,.93,57.76,57.76,0,0,1,15.41,5,54.85,54.85,0,0,1,13.5,9.36A65.81,65.81,0,0,1,570.73,176c5.92,9.37,9.78,19.86,12.39,30.5A170.87,170.87,0,0,1,587.61,239Z" class="cls-16"/><path d="M611,739.75H566.17V630.64h0a25.37,25.37,0,0,1,24.76,19.81Z" class="cls-20"/><rect width="34.87" height="18.86" x="566.17" y="739.75" class="cls-4"/><path d="M566.17,758.61h22.95a0,0,0,0,1,0,0v27.74a0,0,0,0,1,0,0h0a22.95,22.95,0,0,1-22.95-22.95v-4.8A0,0,0,0,1,566.17,758.61Z" class="cls-5"/><line x1="499.86" x2="447.32" y1="881.13" y2="881.13" class="cls-21"/><line x1="499.86" x2="552.4" y1="881.13" y2="881.13" class="cls-21"/></g></svg>