<svg xmlns="http://www.w3.org/2000/svg" xmlns:xlink="http://www.w3.org/1999/xlink" viewBox="0 0 1000 1000"><defs><style>.cls-1,.cls-18,.cls-22,.cls-9{fill:none}.cls-2{fill:gray}.cls-10,.cls-11,.cls-12,.cls-13,.cls-18,.cls-19,.cls-2,.cls-20,.cls-21,.cls-22,.cls-23,.cls-24,.cls-25,.cls-26,.cls-3,.cls-4,.cls-5,.cls-9{stroke:#252535;stroke-linejoin:round}.cls-10,.cls-2,.cls-23,.cls-26,.cls-3,.cls-4,.cls-5{stroke-width:8px}.cls-3{fill:#4d4d4d}.cls-4{fill:#3d3d4f}.cls-10,.cls-16,.cls-5{fill:#ceab97}.cls-11,.cls-17,.cls-24,.cls-26,.cls-6{fill:#252535}.cls-7{clip-path:url(#clip-path)}.cls-21,.cls-23,.cls-8{fill:#fff}.cls-10,.cls-18,.cls-19,.cls-20,.cls-21,.cls-23,.cls-9{stroke-linecap:round}.cls-24,.cls-25,.cls-9{stroke-width:10px}.cls-11,.cls-12,.cls-13,.cls-22{stroke-width:16.84px}.cls-12,.cls-15{fill:#dabcaa}.cls-13,.cls-14{fill:#9c7761}.cls-17{opacity:.3}.cls-18,.cls-19,.cls-20,.cls-21{stroke-width:4px}.cls-19{fill:#cb8c84}.cls-20{fill:#db9c94}.cls-25{fill:#2e2e3f}</style><clipPath id="clip-path"><polygon points="531.14 654.9 468.86 654.9 468.86 772.48 499.88 785.69 531.14 772.48 531.14 654.9" class="cls-1"/></clipPath></defs><title>sos_patricia-pean</title><g id="sos5_Patricia_Péan" data-name="sos5_Patricia Péan"><path d="M500,776H474.83c-6.35,15.49-5.52,37.47,2.21,52.14l23.08,58.77Z" class="cls-2"/><path d="M500,776h25.17c6.35,15.49,5.52,37.47-2.21,52.14L499.88,886.9Z" class="cls-3"/><path d="M437.74,656.14h16.13a0,0,0,0,1,0,0v60.4a8.07,8.07,0,0,1-8.07,8.07h0a8.07,8.07,0,0,1-8.07-8.07v-60.4a0,0,0,0,1,0,0Z" class="cls-4" transform="translate(628.6 1491.59) rotate(-160)"/><path d="M438.69,722.36h0a0,0,0,0,1,0,0v19.91a0,0,0,0,1,0,0H425a0,0,0,0,1,0,0V736A13.68,13.68,0,0,1,438.69,722.36Z" class="cls-5" transform="translate(587.18 1568.17) rotate(-160)"/><polygon points="525.99 654.9 474.01 654.9 474.01 776 502.88 785.69 525.99 776 525.99 654.9" class="cls-6"/><g class="cls-7"><ellipse cx="472.52" cy="676.24" class="cls-8" rx="4.79" ry="4.65"/><ellipse cx="472.52" cy="694.61" class="cls-8" rx="4.79" ry="4.65"/><ellipse cx="472.52" cy="712.99" class="cls-8" rx="4.79" ry="4.65"/><ellipse cx="472.52" cy="731.36" class="cls-8" rx="4.79" ry="4.65"/><ellipse cx="472.52" cy="749.73" class="cls-8" rx="4.79" ry="4.65"/><ellipse cx="472.52" cy="768.1" class="cls-8" rx="4.79" ry="4.65"/><ellipse cx="500" cy="676.24" class="cls-8" rx="4.79" ry="4.65"/><ellipse cx="500" cy="694.61" class="cls-8" rx="4.79" ry="4.65"/><ellipse cx="500" cy="712.99" class="cls-8" rx="4.79" ry="4.65"/><ellipse cx="500" cy="731.36" class="cls-8" rx="4.79" ry="4.65"/><ellipse cx="500" cy="749.73" class="cls-8" rx="4.79" ry="4.65"/><ellipse cx="500" cy="768.1" class="cls-8" rx="4.79" ry="4.65"/><ellipse cx="486.26" cy="686.8" class="cls-8" rx="4.79" ry="4.65"/><ellipse cx="486.26" cy="705.18" class="cls-8" rx="4.79" ry="4.65"/><ellipse cx="486.26" cy="723.55" class="cls-8" rx="4.79" ry="4.65"/><ellipse cx="486.26" cy="741.92" class="cls-8" rx="4.79" ry="4.65"/><ellipse cx="486.26" cy="760.29" class="cls-8" rx="4.79" ry="4.65"/><ellipse cx="486.26" cy="778.66" class="cls-8" rx="4.79" ry="4.65"/><ellipse cx="527.48" cy="676.24" class="cls-8" rx="4.79" ry="4.65"/><ellipse cx="527.48" cy="694.61" class="cls-8" rx="4.79" ry="4.65"/><ellipse cx="527.48" cy="712.99" class="cls-8" rx="4.79" ry="4.65"/><ellipse cx="527.48" cy="731.36" class="cls-8" rx="4.79" ry="4.65"/><ellipse cx="527.48" cy="749.73" class="cls-8" rx="4.79" ry="4.65"/><ellipse cx="527.48" cy="768.1" class="cls-8" rx="4.79" ry="4.65"/><ellipse cx="513.74" cy="686.8" class="cls-8" rx="4.79" ry="4.65"/><ellipse cx="513.74" cy="705.18" class="cls-8" rx="4.79" ry="4.65"/><ellipse cx="513.74" cy="723.55" class="cls-8" rx="4.79" ry="4.65"/><ellipse cx="513.74" cy="741.92" class="cls-8" rx="4.79" ry="4.65"/><ellipse cx="513.74" cy="760.29" class="cls-8" rx="4.79" ry="4.65"/><ellipse cx="513.74" cy="778.66" class="cls-8" rx="4.79" ry="4.65"/></g><polygon points="530.01 654.9 469.99 654.9 469.99 776 500 785.69 530.01 776 530.01 654.9" class="cls-9"/><polygon points="511.59 580.54 488.41 580.54 488.41 660.56 500 685.47 511.59 660.56 511.59 580.54" class="cls-10"/><circle cx="500" cy="220.37" r="59.93" class="cls-6"/><path d="M594,451.32a32.67,32.67,0,0,0-7.87,9.93,33.53,33.53,0,0,0-3.56,12.59,34.44,34.44,0,0,0,1.62,13.39,35.5,35.5,0,0,0,6.84,12.1,36.64,36.64,0,0,0,11.29,8.78A37.79,37.79,0,0,0,616.52,512a38.57,38.57,0,0,0,15-1.94A39.66,39.66,0,0,0,645,502.3a40.78,40.78,0,0,1-12.66,9.7,41.91,41.91,0,0,1-15.81,4.2,42.79,42.79,0,0,1-16.61-2.26,44,44,0,0,1-14.83-8.66,45.14,45.14,0,0,1-10.61-14A46.16,46.16,0,0,1,570,473.84a47,47,0,0,1,2.58-18.22,48.2,48.2,0,0,1,9.57-16.2Z" class="cls-6"/><path d="M417.9,439.42a48.2,48.2,0,0,1,9.57,16.2,47,47,0,0,1,2.58,18.22,46.16,46.16,0,0,1-4.52,17.41,45.14,45.14,0,0,1-10.61,14,44,44,0,0,1-14.83,8.66,42.79,42.79,0,0,1-16.61,2.26,41.91,41.91,0,0,1-15.81-4.2A40.78,40.78,0,0,1,355,502.3a39.66,39.66,0,0,0,13.46,7.75,38.57,38.57,0,0,0,15,1.94,37.79,37.79,0,0,0,14.19-3.88A36.64,36.64,0,0,0,409,499.33a35.5,35.5,0,0,0,6.84-12.1,34.44,34.44,0,0,0,1.62-13.39,33.53,33.53,0,0,0-3.56-12.59,32.67,32.67,0,0,0-7.87-9.93Z" class="cls-6"/><path d="M500,210.42h0A107.37,107.37,0,0,1,607.37,317.79v32.28A50.34,50.34,0,0,1,557,400.41H443a50.34,50.34,0,0,1-50.34-50.34V317.79A107.37,107.37,0,0,1,500,210.42Z" class="cls-11"/><ellipse cx="392.63" cy="430.54" class="cls-12" rx="21.47" ry="43.8"/><ellipse cx="612.74" cy="430.54" class="cls-13" rx="21.47" ry="43.8"/><path d="M598.85,331.55V495.41a77.51,77.51,0,0,1-16.91,48.33l-49.38,62a41.62,41.62,0,0,1-65.12,0l-49.38-62a77.51,77.51,0,0,1-16.91-48.33V331.55A93.45,93.45,0,0,1,494.6,238.1h10.8A93.45,93.45,0,0,1,598.85,331.55Z" class="cls-14"/><path d="M500,238.1V621.38a41.58,41.58,0,0,1-32.56-15.69l-49.38-62a77.51,77.51,0,0,1-16.91-48.33V331.55A93.45,93.45,0,0,1,494.6,238.1Z" class="cls-15"/><circle cx="552" cy="457.21" r="32.8" class="cls-16"/><circle cx="448" cy="457.21" r="32.8" class="cls-16"/><path d="M566.53,331.55V495.41c0,17.56-4,34.6-11.38,48.33l-33.23,62c-5.32,9.92-13.39,15.69-21.92,15.69h0c-8.53,0-16.6-5.77-21.92-15.69l-33.23-62C437.49,530,433.47,513,433.47,495.41V331.55c0-51.61,28.16-93.45,62.89-93.45h7.28C538.37,238.1,566.53,279.94,566.53,331.55Z" class="cls-16"/><ellipse cx="500" cy="886.9" class="cls-17" rx="199.48" ry="11.28"/><path d="M484.38,457.21a10.15,10.15,0,0,0-8.4,6.73,9,9,0,0,0,2.26,9.39,8.54,8.54,0,0,0,4.22,2.18,7.93,7.93,0,0,0,1.18.15c.39,0,.75,0,1.3,0l3-.07c4-.09,8-.12,12.05-.13s8,0,12,.12l3,.08c.55,0,.91,0,1.3,0a7.64,7.64,0,0,0,1.17-.15,8.6,8.6,0,0,0,4.23-2.17A9,9,0,0,0,524,464a10.15,10.15,0,0,0-8.39-6.74,10.62,10.62,0,0,1,3.08.07,11.53,11.53,0,0,1,3,1.05,11.29,11.29,0,0,1,4.57,4.64,11.75,11.75,0,0,1-1.67,13,12.33,12.33,0,0,1-7.83,4.14c-.61.06-1.25.1-1.71.1l-3,.08q-6,.12-12,.12c-4,0-8,0-12.05-.13l-3-.07c-.46,0-1.1-.05-1.71-.1a13.48,13.48,0,0,1-1.79-.35,12,12,0,0,1-6-3.8,11.68,11.68,0,0,1-1.67-13,11.15,11.15,0,0,1,4.57-4.63,11.36,11.36,0,0,1,3-1.06A10.62,10.62,0,0,1,484.38,457.21Z" class="cls-6"/><line x1="483.42" x2="496.63" y1="470.74" y2="477.94" class="cls-18"/><line x1="516.58" x2="503.37" y1="470.74" y2="477.94" class="cls-18"/><path d="M500,519.54c-21.7,0-43.21-3.08-53.3-10,6.05,2.24,23.87-1.81,33.19-4.2a23.56,23.56,0,0,1,11.91.06l8.2,2.22,8.2-2.22a23.56,23.56,0,0,1,11.91-.06c9.32,2.39,27.14,6.44,33.19,4.2C543.21,516.46,521.7,519.54,500,519.54Z" class="cls-19"/><path d="M522.05,422.16a27,27,0,0,1,2.78-3.32,33.44,33.44,0,0,1,2.77-2.53,29.66,29.66,0,0,1,2.78-2,22.66,22.66,0,0,1,2.77-1.55,25.5,25.5,0,0,1,22.21,0,24.07,24.07,0,0,1,2.77,1.55,29.41,29.41,0,0,1,5.55,4.49,26.74,26.74,0,0,1,2.78,3.3v1.4c-1.85.16-3.7.22-5.55.34l-5.55.19c-3.7.12-7.4.11-11.11.17s-7.4-.05-11.1-.16l-5.55-.2c-1.85-.11-3.7-.18-5.55-.34Z" class="cls-6"/><path d="M566.46,417.13a9.28,9.28,0,0,0-3.37-5.64,19.81,19.81,0,0,0-5.73-3.25,39.88,39.88,0,0,0-26.21,0,19.91,19.91,0,0,0-5.73,3.24,9.28,9.28,0,0,0-3.37,5.64,8.84,8.84,0,0,1,2.32-6.67,18.62,18.62,0,0,1,5.84-4.36,28.35,28.35,0,0,1,6.86-2.33,35.25,35.25,0,0,1,14.37,0,28,28,0,0,1,6.86,2.34,18.4,18.4,0,0,1,5.83,4.35A8.85,8.85,0,0,1,566.46,417.13Z" class="cls-6"/><path d="M560.79,418.46a48.75,48.75,0,0,0,5,3,20.29,20.29,0,0,0,5.35,1.88,12.16,12.16,0,0,0,5.62-.22,13.69,13.69,0,0,0,5.1-2.89,14.21,14.21,0,0,1-4.74,3.82,13.54,13.54,0,0,1-6.17,1.28c-4.3-.08-8.37-1.7-12.06-3.35Z" class="cls-6"/><path d="M478,423.56c-1.85.16-3.7.23-5.55.34l-5.55.2c-3.7.11-7.4.1-11.1.16s-7.41-.05-11.11-.17l-5.55-.19c-1.85-.12-3.7-.18-5.55-.34v-1.4a26.74,26.74,0,0,1,2.78-3.3,29.41,29.41,0,0,1,5.55-4.49,24.07,24.07,0,0,1,2.77-1.55,25.5,25.5,0,0,1,22.21,0,22.66,22.66,0,0,1,2.77,1.55,29.66,29.66,0,0,1,2.78,2,33.44,33.44,0,0,1,2.77,2.53,27,27,0,0,1,2.78,3.32Z" class="cls-6"/><path d="M433.54,417.13a8.85,8.85,0,0,1,2.33-6.67,18.4,18.4,0,0,1,5.83-4.35,28,28,0,0,1,6.86-2.34,35.25,35.25,0,0,1,14.37,0,28.35,28.35,0,0,1,6.86,2.33,18.62,18.62,0,0,1,5.84,4.36,8.84,8.84,0,0,1,2.32,6.67,9.28,9.28,0,0,0-3.37-5.64,19.91,19.91,0,0,0-5.73-3.24,39.88,39.88,0,0,0-26.21,0,19.81,19.81,0,0,0-5.73,3.25A9.28,9.28,0,0,0,433.54,417.13Z" class="cls-6"/><path d="M441.12,422c-3.69,1.65-7.76,3.27-12.06,3.35a13.54,13.54,0,0,1-6.17-1.28,14.21,14.21,0,0,1-4.74-3.82,13.69,13.69,0,0,0,5.1,2.89,12.16,12.16,0,0,0,5.62.22,20.29,20.29,0,0,0,5.35-1.88,48.75,48.75,0,0,0,5-3Z" class="cls-6"/><path d="M518,382.64c11.64-1.35,23.29-2.62,34.94-3.91l2.18-.24,2.29-.23a26.94,26.94,0,0,1,4.92,0,26,26,0,0,1,13.24,5.29L579,386.3l6.9,5.46-1,1.42-7.64-4.35-3.81-2.19a21.89,21.89,0,0,0-3.67-1.66,22.31,22.31,0,0,0-7.76-1.2,21.22,21.22,0,0,0-3.83.47l-2,.48-2.14.52c-11.38,2.76-22.77,5.55-34.17,8.25Z" class="cls-6"/><path d="M480.08,393.5c-11.4-2.7-22.79-5.49-34.17-8.25l-2.14-.52-2-.48a21.22,21.22,0,0,0-3.83-.47,22.31,22.31,0,0,0-7.76,1.2,21.89,21.89,0,0,0-3.67,1.66l-3.81,2.19L415,393.18l-1-1.42,6.9-5.46,3.46-2.71a26,26,0,0,1,13.24-5.29,26.94,26.94,0,0,1,4.92,0l2.29.23,2.18.24c11.65,1.29,23.3,2.56,34.94,3.91Z" class="cls-6"/><path d="M500,539.85c-10.87,0-45.16-25.58-45.16-25.58l-3.58-4.17s17.4,46.55,48.74,46.55,48.74-46.55,48.74-46.55l-3.58,4.17S510.87,539.85,500,539.85Z" class="cls-20"/><path d="M540.75,493.45c4,.89,7.86,2.06,11.7,3.33,1,.31,1.93.62,2.88,1a16.22,16.22,0,0,1,3,1.41,13.58,13.58,0,0,1,6.4,11.26,13.38,13.38,0,0,1-1.49,6.44l-.38.73-.46.68-.46.68c-.15.2-.32.39-.48.59l-1.91,2.36c-1.32,1.54-2.62,3.1-4,4.57.87-1.85,1.85-3.63,2.82-5.41l1.51-2.63.38-.66.33-.62.32-.61.24-.65a12.35,12.35,0,0,0-.76-10.44,11.61,11.61,0,0,0-3.58-3.93,13.76,13.76,0,0,0-2.39-1.33c-.93-.39-1.85-.81-2.77-1.24C547.92,497.27,544.28,495.5,540.75,493.45Z" class="cls-6"/><path d="M500,539.85c-19.5,0-43.79-26.75-43.79-26.75L500,517.69l43.79-4.59S519.5,539.85,500,539.85Z" class="cls-21"/><path d="M475.34,465.87l-36.78,30.22,34.11-33.2a2,2,0,0,1,2.79,2.87A.63.63,0,0,1,475.34,465.87Z" class="cls-6"/><path d="M598.85,331.55V495.41a77.51,77.51,0,0,1-16.91,48.33l-49.38,62A41.61,41.61,0,0,1,500,621.38h0a41.61,41.61,0,0,1-32.56-15.69l-49.38-62a77.51,77.51,0,0,1-16.91-48.33V331.55A93.45,93.45,0,0,1,494.6,238.1h10.8A93.45,93.45,0,0,1,598.85,331.55Z" class="cls-22"/><circle cx="381.39" cy="477.94" r="11.24" class="cls-23"/><circle cx="618.61" cy="477.94" r="11.24" class="cls-23"/><path d="M544.27,246.55s54.58,50.55,54.58,140.19c0-78.29-13.39-120.9-13.39-120.9Z" class="cls-6"/><path d="M455.73,246.55s-54.58,50.55-54.58,140.19c0-78.29,13.39-120.9,13.39-120.9Z" class="cls-6"/><path d="M559.83,756.39H536.89A17.92,17.92,0,0,1,519,738.47V649.29l26.1,4.2A7.48,7.48,0,0,1,551,663.3l-14.21,41.48Z" class="cls-24"/><path d="M440.17,756.39h22.94A17.92,17.92,0,0,0,481,738.47V649.29l-26.1,4.2A7.48,7.48,0,0,0,449,663.3l14.21,41.48Z" class="cls-25"/><path d="M554.19,656.14h0a8.07,8.07,0,0,1,8.07,8.07v60.4a0,0,0,0,1,0,0H546.13a0,0,0,0,1,0,0v-60.4a8.07,8.07,0,0,1,8.07-8.07Z" class="cls-26" transform="translate(-202.7 231.18) rotate(-20)"/><path d="M561.31,722.36H575a0,0,0,0,1,0,0v19.91a0,0,0,0,1,0,0h0a13.68,13.68,0,0,1-13.68-13.68v-6.23A0,0,0,0,1,561.31,722.36Z" class="cls-5" transform="translate(-216.2 238.48) rotate(-20)"/><path d="M500,685.47c2.33-5,11.59-46.38,11.59-46.38l19.55,5.62Z" class="cls-23"/><path d="M500,685.47c-2.33-5-11.59-46.38-11.59-46.38l-19.55,5.62Z" class="cls-23"/></g></svg>