<svg xmlns="http://www.w3.org/2000/svg" viewBox="0 0 1000 1000"><defs><style>.cls-1,.cls-25{fill:#c6c6c6}.cls-1,.cls-13,.cls-16,.cls-2,.cls-20,.cls-21,.cls-22,.cls-23,.cls-24,.cls-25,.cls-3,.cls-4,.cls-5,.cls-6,.cls-7,.cls-8,.cls-9{stroke:#252535;stroke-linejoin:round}.cls-1,.cls-2,.cls-20,.cls-22,.cls-3,.cls-4,.cls-5,.cls-6{stroke-width:8px}.cls-11,.cls-2,.cls-6{fill:#f0d0b4}.cls-3{fill:#95a5bc}.cls-4{fill:#7489a3}.cls-14,.cls-15,.cls-5{fill:#252535}.cls-16,.cls-5,.cls-6{stroke-linecap:round}.cls-19,.cls-7{fill:#72594b}.cls-13,.cls-7,.cls-8,.cls-9{stroke-width:16.84px}.cls-12,.cls-8{fill:#f5e0cd}.cls-10,.cls-9{fill:#dfb28b}.cls-13,.cls-16{fill:none}.cls-14{opacity:.3}.cls-16{stroke-width:4px}.cls-17{fill:#cb8c84}.cls-18{fill:#cf9e76}.cls-20,.cls-23{fill:#e0e0e0}.cls-21,.cls-22,.cls-24{fill:#fff}.cls-21,.cls-25{stroke-width:7px}.cls-23,.cls-24{stroke-width:2px}</style></defs><title>sos_sonia-boisvert</title><g id="sos6_Sonia_Boisvert" data-name="sos6_Sonia Boisvert"><path d="M554.51,662h0a8.85,8.85,0,0,1,8.85,8.85v52.36a0,0,0,0,1,0,0h-17.7a0,0,0,0,1,0,0V670.85A8.85,8.85,0,0,1,554.51,662Z" class="cls-1" transform="translate(-203.45 231.42) rotate(-20)"/><path d="M559.76,721.4h13.92a0,0,0,0,1,0,0V728a13.92,13.92,0,0,1-13.92,13.92h0a0,0,0,0,1,0,0V721.4A0,0,0,0,1,559.76,721.4Z" class="cls-2" transform="translate(-216.07 237.95) rotate(-20)"/><path d="M500,770.08H474.83c-6.35,16.28-5.52,39.4,2.21,54.82l23.08,61.8Z" class="cls-3"/><path d="M500,770.08h25.17c6.35,16.28,5.52,39.4-2.21,54.82l-23.08,61.8Z" class="cls-4"/><polygon points="529.4 656.7 470.6 656.7 480.6 734.88 470.6 770.01 529.4 770.01 519.4 734.88 529.4 656.7" class="cls-5"/><polygon points="512.22 600 487.78 600 487.78 668.86 499.92 703.08 512.22 668.86 512.22 600" class="cls-6"/><path d="M360,454.92H507.5a0,0,0,0,1,0,0v99.82a0,0,0,0,1,0,0H402.86A42.86,42.86,0,0,1,360,511.88v-57A0,0,0,0,1,360,454.92Z" class="cls-7"/><path d="M535.36,454.92H640a0,0,0,0,1,0,0v99.82a0,0,0,0,1,0,0H492.5a0,0,0,0,1,0,0v-57A42.86,42.86,0,0,1,535.36,454.92Z" class="cls-7" transform="translate(1132.5 1009.66) rotate(180)"/><ellipse cx="395.19" cy="461.03" class="cls-8" rx="23.2" ry="34.84"/><ellipse cx="604.57" cy="461.03" class="cls-9" rx="23.2" ry="34.84"/><path d="M387.46,465.12H509.88V245.46H443.66c-23.35,0-44.36,11.6-53.07,29.3L330.71,396.55C314.58,429.37,344.16,465.12,387.46,465.12Z" class="cls-7"/><path d="M612.54,465.12H490.12V245.46h66.22c23.35,0,44.36,11.6,53.07,29.3l59.88,121.79C685.42,429.37,655.84,465.12,612.54,465.12Z" class="cls-7"/><path d="M596.83,342.56v168A49.92,49.92,0,0,1,586.45,541l-52,67.45a33.15,33.15,0,0,1-26.27,12.93H491.78a33.15,33.15,0,0,1-26.27-12.93l-52-67.45a49.92,49.92,0,0,1-10.38-30.47v-168a74.46,74.46,0,0,1,74.46-74.46h44.74A74.46,74.46,0,0,1,596.83,342.56Z" class="cls-10"/><path d="M582.82,476.86c0-15.44-13.15-28-29.36-28s-29.36,12.52-29.36,28,13.14,40.78,29.36,40.78S582.82,492.31,582.82,476.86Z" class="cls-11"/><path d="M499.88,268.1V621.38h-8.1a33.15,33.15,0,0,1-26.27-12.93l-52-67.45a49.92,49.92,0,0,1-10.38-30.47v-168a74.46,74.46,0,0,1,74.46-74.46Z" class="cls-12"/><path d="M416.94,476.86c0-15.44,13.15-28,29.37-28s29.36,12.52,29.36,28-13.15,40.78-29.36,40.78S416.94,492.31,416.94,476.86Z" class="cls-11"/><path d="M564.45,342.56v168A67.6,67.6,0,0,1,557.54,541L523,608.45c-4.18,8.15-10.64,12.93-17.49,12.93H494.53c-6.85,0-13.31-4.78-17.49-12.93L442.46,541a67.6,67.6,0,0,1-6.91-30.47v-168c0-41.13,22.19-74.46,49.56-74.46h29.78C542.26,268.1,564.45,301.43,564.45,342.56Z" class="cls-11"/><path d="M596.83,342.56v168A49.92,49.92,0,0,1,586.45,541l-52,67.45a33.15,33.15,0,0,1-26.27,12.93H491.78a33.15,33.15,0,0,1-26.27-12.93l-52-67.45a49.92,49.92,0,0,1-10.38-30.47v-168a74.46,74.46,0,0,1,74.46-74.46h44.74A74.46,74.46,0,0,1,596.83,342.56Z" class="cls-13"/><ellipse cx="500" cy="886.9" class="cls-14" rx="199.48" ry="11.28"/><path d="M486.08,492.49a7,7,0,0,0-5.76,5.44A5.89,5.89,0,0,0,483,504.1a5.54,5.54,0,0,0,3.19.73c1.53-.08,3.06-.12,4.6-.17,3.06-.09,6.12-.13,9.18-.14s6.12,0,9.18.13c1.54.06,3.07.09,4.6.17a5.5,5.5,0,0,0,3.18-.73,5.86,5.86,0,0,0,2.72-6.15,7,7,0,0,0-5.76-5.45,7.54,7.54,0,0,1,2.37,0,7.69,7.69,0,0,1,2.33.85,8.09,8.09,0,0,1,3.4,3.86,8.46,8.46,0,0,1,.33,5.41,8.88,8.88,0,0,1-3.12,4.7,9.86,9.86,0,0,1-2.57,1.4,10.12,10.12,0,0,1-2.88.52c-1.53.08-3.06.11-4.6.17q-4.59.12-9.18.12c-3.06,0-6.12,0-9.18-.13-1.54-.05-3.07-.09-4.6-.17a10,10,0,0,1-2.87-.51,9.73,9.73,0,0,1-2.57-1.41,8.84,8.84,0,0,1-3.13-4.69,8.53,8.53,0,0,1,.34-5.41,8,8,0,0,1,3.4-3.85,7,7,0,0,1,4.69-.86Z" class="cls-15"/><path d="M510.91,480.6c-.35-2.38-.69-4.72-1.21-7a51.26,51.26,0,0,0-2-6.7,23.41,23.41,0,0,0-3.15-5.92,10.22,10.22,0,0,0-2.19-2.17,4.85,4.85,0,0,0-2.5-.84,5,5,0,0,0-2.5.84A10.18,10.18,0,0,0,495.2,461a23.1,23.1,0,0,0-3.15,5.92,49.76,49.76,0,0,0-2,6.7c-.52,2.3-.86,4.64-1.22,7a40.51,40.51,0,0,1-.24-7.23,36.68,36.68,0,0,1,1.21-7.22,22.72,22.72,0,0,1,3.09-6.87l.58-.79c.21-.26.45-.5.68-.75a11.25,11.25,0,0,1,1.54-1.36,6.8,6.8,0,0,1,8.34,0,11.33,11.33,0,0,1,1.55,1.37c.22.24.46.48.67.74l.58.79a22.72,22.72,0,0,1,3.09,6.87,36.68,36.68,0,0,1,1.21,7.22A40.51,40.51,0,0,1,510.91,480.6Z" class="cls-10"/><line x1="487.39" x2="496.41" y1="500.62" y2="507.02" class="cls-16"/><line x1="512.61" x2="503.59" y1="500.62" y2="507.02" class="cls-16"/><path d="M475,449.2l-4.8.14-4.81.06-9.6.09-9.61-.1-4.8-.05-4.8-.14a.28.28,0,0,1-.27-.29.27.27,0,0,1,.12-.22l.15-.09a29.56,29.56,0,0,1,9.6-4,42,42,0,0,1,9.61-1.1,41.34,41.34,0,0,1,9.6,1.09,29.2,29.2,0,0,1,9.61,4l.14.09a.28.28,0,0,1,.08.38A.3.3,0,0,1,475,449.2Z" class="cls-15"/><path d="M436.57,448.9a4.72,4.72,0,0,1,.7-2.79,6.75,6.75,0,0,1,.9-1.17,8.56,8.56,0,0,1,1.08-1,17.81,17.81,0,0,1,5.13-2.76,32.24,32.24,0,0,1,5.63-1.42,44.55,44.55,0,0,1,5.77-.44,43,43,0,0,1,5.77.44,31.27,31.27,0,0,1,5.62,1.42,17.86,17.86,0,0,1,5.14,2.76,8.56,8.56,0,0,1,1.08,1,7.42,7.42,0,0,1,.9,1.17,4.79,4.79,0,0,1,.7,2.79,4.92,4.92,0,0,0-1.15-2.47,8.81,8.81,0,0,0-2.1-1.7,19.53,19.53,0,0,0-5-2.07,45,45,0,0,0-21.84,0,19.77,19.77,0,0,0-5.05,2.08,8.81,8.81,0,0,0-2.1,1.7A5,5,0,0,0,436.57,448.9Z" class="cls-15"/><path d="M525,448.6a29.2,29.2,0,0,1,9.61-4,41.34,41.34,0,0,1,9.6-1.09,42,42,0,0,1,9.61,1.1,29.56,29.56,0,0,1,9.6,4l.15.09a.28.28,0,0,1,.08.38.32.32,0,0,1-.23.13l-4.8.14-4.8.05-9.61.1-9.6-.09-4.81-.06-4.8-.14a.28.28,0,0,1-.26-.29.27.27,0,0,1,.12-.22Z" class="cls-15"/><path d="M563.43,448.9a5,5,0,0,0-1.14-2.47,8.81,8.81,0,0,0-2.1-1.7,19.77,19.77,0,0,0-5.05-2.08,45,45,0,0,0-21.84,0,19.53,19.53,0,0,0-5,2.07,8.81,8.81,0,0,0-2.1,1.7A4.92,4.92,0,0,0,525,448.9a4.79,4.79,0,0,1,.7-2.79,7.42,7.42,0,0,1,.9-1.17,8.56,8.56,0,0,1,1.08-1,17.86,17.86,0,0,1,5.14-2.76,31.27,31.27,0,0,1,5.62-1.42,43,43,0,0,1,5.77-.44,44.55,44.55,0,0,1,5.77.44,32.24,32.24,0,0,1,5.63,1.42,17.81,17.81,0,0,1,5.13,2.76,8.56,8.56,0,0,1,1.08,1,6.75,6.75,0,0,1,.9,1.17A4.72,4.72,0,0,1,563.43,448.9Z" class="cls-15"/><polygon points="552.89 446.4 576.01 447.9 552.89 449.4 552.89 446.4" class="cls-15"/><polygon points="548.44 446.09 571.18 441.66 549.21 449 548.44 446.09" class="cls-15"/><polygon points="546.37 446.73 567.14 436.47 547.87 449.33 546.37 446.73" class="cls-15"/><polygon points="447.11 449.4 423.99 447.9 447.11 446.4 447.11 449.4" class="cls-15"/><polygon points="450.8 449 428.82 441.66 451.56 446.09 450.8 449" class="cls-15"/><polygon points="452.13 449.33 432.86 436.47 453.63 446.73 452.13 449.33" class="cls-15"/><path d="M520.2,416.87c5.46-.46,10.92-1,16.38-1.39l16.4-1.29,8.2-.64,4.16-.33a10.89,10.89,0,0,1,4.71.8,10.62,10.62,0,0,1,3.78,2.71l2.68,3.14,2.68,3.13,2.6,3.2c-1.16-.77-2.23-1.63-3.36-2.44l-3.2-2.59c-1.08-.85-2.09-1.79-3.12-2.67a8.17,8.17,0,0,0-3-1.67,8,8,0,0,0-3.39-.32l-4,.64-8.1,1.3c-5.39.91-10.82,1.62-16.23,2.42-2.7.4-5.42.76-8.13,1.1s-5.43.7-8.15,1Z" class="cls-15"/><path d="M478.57,424.64c-5.41-.87-10.83-1.67-16.24-2.58l-16.22-2.69L438,418l-4-.66a8.13,8.13,0,0,0-6.44,2l-3,2.77-3,2.79-3.11,2.72c.73-1.2,1.55-2.3,2.32-3.45l2.48-3.29c.82-1.12,1.69-2.15,2.57-3.23a10.28,10.28,0,0,1,3.78-2.76,10.63,10.63,0,0,1,4.67-.81l4.14.33,8.18.68c5.45.41,10.89,1,16.33,1.55,2.73.26,5.44.56,8.16.89s5.44.62,8.15,1Z" class="cls-15"/><path d="M454.05,527.06a88,88,0,0,0,11.43,2.1,72,72,0,0,0,11.4.66,26,26,0,0,0,5.4-.7l.65-.16.76-.21c.5-.13,1-.24,1.53-.34a23.33,23.33,0,0,1,9.42.08c.55.11.93.21,1.38.29s.88.15,1.32.2a23.58,23.58,0,0,0,2.66.15,21.46,21.46,0,0,0,2.66-.16c.44-.05.88-.11,1.32-.2s.83-.17,1.38-.28a23.77,23.77,0,0,1,6.29-.49,25.27,25.27,0,0,1,3.13.4c.51.1,1,.22,1.53.35l.76.21.65.15a25.32,25.32,0,0,0,5.4.7,70.84,70.84,0,0,0,11.4-.65,89.66,89.66,0,0,0,11.43-2.1,54.38,54.38,0,0,1-11.06,4,57.43,57.43,0,0,1-11.77,1.84c-1,.07-2,0-3.06,0a22.76,22.76,0,0,1-3.13-.41l-.78-.15-.66-.15c-.44-.09-.88-.17-1.32-.23a20,20,0,0,0-2.67-.21,22,22,0,0,0-5.31.51c-.4.09-1,.24-1.47.33s-1,.2-1.56.27a23.86,23.86,0,0,1-3.16.22,25.68,25.68,0,0,1-3.16-.22q-.79-.1-1.56-.27c-.51-.09-1.07-.24-1.47-.33a22.52,22.52,0,0,0-5.31-.52,20,20,0,0,0-2.67.21c-.44.06-.89.14-1.33.23l-.65.15-.78.15a22.79,22.79,0,0,1-3.13.42c-1,0-2.05.06-3.06,0a56.76,56.76,0,0,1-11.77-1.85A54.35,54.35,0,0,1,454.05,527.06Z" class="cls-17"/><path d="M468.25,535.07a1.11,1.11,0,0,0,.6.75,4.84,4.84,0,0,0,.9.4,14.15,14.15,0,0,0,1.94.5c1.32.25,2.65.44,4,.57,2.68.29,5.38.42,8.08.56s5.41.23,8.11.25,5.41.1,8.12.07,5.41,0,8.12-.07,5.4-.16,8.11-.25,5.4-.28,8.08-.57c1.35-.12,2.68-.31,4-.56a14.15,14.15,0,0,0,1.94-.5,4.3,4.3,0,0,0,.9-.41,1.1,1.1,0,0,0,.6-.74,1.2,1.2,0,0,1-.46.92,4.4,4.4,0,0,1-.85.64,13.67,13.67,0,0,1-1.9.89,35,35,0,0,1-4,1.21,72.47,72.47,0,0,1-8.13,1.45c-2.72.38-5.47.57-8.2.76s-5.49.2-8.23.23a134.8,134.8,0,0,1-16.43-1,77.31,77.31,0,0,1-8.13-1.45,35,35,0,0,1-4-1.21,13.67,13.67,0,0,1-1.9-.89,4.4,4.4,0,0,1-.85-.64A1.2,1.2,0,0,1,468.25,535.07Z" class="cls-18"/><path d="M518.18,492.49c4.28,3.25,8.41,6.65,12.51,10.1s8.12,7,12.13,10.5c.5.44,1,.91,1.49,1.41l.75.74.68.8.67.8.6.86.6.86.51.91a21.67,21.67,0,0,1,2.6,7.88,20.85,20.85,0,0,1-4.1,15.45,22.86,22.86,0,0,0,2.56-15.21,22.07,22.07,0,0,0-7.69-13c-4-3.58-8-7.17-11.84-10.84S521.9,496.36,518.18,492.49Z" class="cls-15"/><path d="M461.73,517.64a53.16,53.16,0,0,1-6.09,2.36c-.51.17-1.07.33-1.5.51-.23.09-.46.16-.68.26l-.64.35a7.81,7.81,0,0,0-2.22,1.82,8.8,8.8,0,0,0-.87,1.14,10.45,10.45,0,0,0-.64,1.3,8.28,8.28,0,0,0-.46,1.38,10.48,10.48,0,0,0-.21,1.46,10.08,10.08,0,0,0,1.51,5.92,8,8,0,0,1-3.07-5.91,9.09,9.09,0,0,1,5.08-8.78l.83-.36c.28-.1.57-.17.85-.25a12,12,0,0,1,1.63-.35A56,56,0,0,1,461.73,517.64Z" class="cls-15"/><path d="M468.25,581.58c1.07,9,4.42,17.41,10,23.83a32.56,32.56,0,0,0,9.85,7.68,26.25,26.25,0,0,0,23.73,0,32.41,32.41,0,0,0,9.85-7.67c5.62-6.43,9-14.86,10-23.83a37.47,37.47,0,0,1-7,26.27,32.79,32.79,0,0,1-10.71,9.44,29,29,0,0,1-28.1,0,32.67,32.67,0,0,1-10.7-9.45A37.4,37.4,0,0,1,468.25,581.58Z" class="cls-15"/><path d="M567.66,229.24H467.4a91.33,91.33,0,0,0-91.34,91.34v99.77L499.17,313.9l.57-.47,76.44-59.33C586.63,246,580.89,229.24,567.66,229.24Z" class="cls-7"/><line x1="563.45" x2="448.12" y1="263.98" y2="402.57" class="cls-19"/><polygon points="569.93 269.36 448.12 402.57 556.98 258.59 569.93 269.36" class="cls-15"/><circle cx="553.46" cy="485.05" r="3.31" class="cls-10"/><path d="M556.43,752.81H535.37a26.14,26.14,0,0,1-26.15-26.14V678.84a25.51,25.51,0,0,1,25.51-25.5h7.35a7.43,7.43,0,0,1,7.38,8.3L543,717.33Z" class="cls-20"/><polygon points="513.04 642.79 538.96 639.53 505.17 688.46 513.04 642.79" class="cls-21"/><path d="M436.48,662h17.7a0,0,0,0,1,0,0v52.36a8.85,8.85,0,0,1-8.85,8.85h0a8.85,8.85,0,0,1-8.85-8.85V662A0,0,0,0,1,436.48,662Z" class="cls-22" transform="translate(626.91 1495.76) rotate(-160)"/><path d="M426.16,721.4h0a13.92,13.92,0,0,1,13.92,13.92v6.63a0,0,0,0,1,0,0H426.16a0,0,0,0,1,0,0V721.4A0,0,0,0,1,426.16,721.4Z" class="cls-2" transform="translate(589.87 1567.36) rotate(-160)"/><path d="M443.4,752.81h21.07a26.14,26.14,0,0,0,26.15-26.14V678.84a25.51,25.51,0,0,0-25.51-25.5h-7.35a7.44,7.44,0,0,0-7.39,8.3l6.51,55.69Z" class="cls-22"/><rect width="17.96" height="17.96" x="519.22" y="681.69" class="cls-23"/><path d="M519.22,681.69h18a0,0,0,0,1,0,0v1.43a7.82,7.82,0,0,1-7.82,7.82H527a7.82,7.82,0,0,1-7.82-7.82v-1.43A0,0,0,0,1,519.22,681.69Z" class="cls-23"/><rect width="17.96" height="17.96" x="462.66" y="681.69" class="cls-24" transform="translate(943.27 1381.35) rotate(180)"/><path d="M470.47,681.69h2.33a7.82,7.82,0,0,1,7.82,7.82v1.43a0,0,0,0,1,0,0h-18a0,0,0,0,1,0,0v-1.43A7.82,7.82,0,0,1,470.47,681.69Z" class="cls-24" transform="translate(943.27 1372.63) rotate(180)"/><polygon points="486.8 642.79 460.88 639.53 494.67 688.46 486.8 642.79" class="cls-25"/></g></svg>