<svg xmlns="http://www.w3.org/2000/svg" xmlns:xlink="http://www.w3.org/1999/xlink" viewBox="0 0 1000 1000"><defs><style>.cls-1,.cls-12,.cls-14,.cls-16,.cls-18,.cls-2,.cls-3,.cls-4,.cls-6,.cls-7,.cls-8{stroke:#252535;stroke-linejoin:round}.cls-1,.cls-12{stroke-width:16.84px}.cls-1{fill:url(#linear-gradient)}.cls-11,.cls-2,.cls-8{fill:#f0d0b4}.cls-2,.cls-3,.cls-4,.cls-7{stroke-width:8px}.cls-13,.cls-3,.cls-5{fill:#252535}.cls-4{fill:#3d3d4f}.cls-5{opacity:.3}.cls-6{fill:#2e2e3f}.cls-6,.cls-8{stroke-width:10px}.cls-16,.cls-7{fill:#fff}.cls-9{fill:#dfb28b}.cls-10{fill:#f5e0cd}.cls-12,.cls-14{fill:none}.cls-14{stroke-linecap:round}.cls-14,.cls-16,.cls-18{stroke-width:4px}.cls-15,.cls-18{fill:#cb8c84}.cls-17{fill:#72594b}</style><linearGradient id="linear-gradient" x1="478.43" x2="478.43" y1="671.38" y2="218.94" gradientUnits="userSpaceOnUse"><stop offset="0" stop-color="#a8916d"/><stop offset=".18" stop-color="#72594b"/></linearGradient></defs><title>sos_lemya-rais</title><g id="sos4_Lemya_Rais" data-name="sos4_Lemya Rais"><path d="M501,671.38H312.75C363,584.6,365.63,397.5,371.61,321.86c4.74-60,51.34-102.92,111.48-102.92h1.56a15.44,15.44,0,0,1,5.06.85,31.34,31.34,0,0,0,20.68,0,15.44,15.44,0,0,1,5.06-.85H517c60.14,0,105.49,43,110.23,102.92,3.24,41,5.88,114.59,15.58,187.28C654.29,595,587.62,671.38,501,671.38Z" class="cls-1"/><path d="M533.8,755.13H553a0,0,0,0,1,0,0v0a19.21,19.21,0,0,1-19.21,19.21h0a0,0,0,0,1,0,0V755.13A0,0,0,0,1,533.8,755.13Z" class="cls-2"/><path d="M560.85,755.13H526.37v-93.8h0a26,26,0,0,1,25.85,22.9Z" class="cls-3"/><path d="M447,755.13h0a19.21,19.21,0,0,1,19.21,19.21v0a0,0,0,0,1,0,0H447a0,0,0,0,1,0,0V755.13A0,0,0,0,1,447,755.13Z" class="cls-2" transform="translate(913.19 1529.46) rotate(180)"/><path d="M439.15,755.13h34.48v-93.8h0a26,26,0,0,0-25.85,22.9Z" class="cls-4"/><ellipse cx="500" cy="886.9" class="cls-5" rx="199.48" ry="11.28"/><path d="M500,795H471.77a52,52,0,0,0,2.49,48.14l25.88,43.77Z" class="cls-4"/><path d="M500,795h28.23a52,52,0,0,1-2.49,48.14L499.86,886.9Z" class="cls-4"/><path d="M530.91,652.59H469.09a12.42,12.42,0,0,0-11.52,17l13.17,32.91L450.74,853h98.52l-20-150.48,13.17-32.91A12.42,12.42,0,0,0,530.91,652.59Z" class="cls-6"/><polygon points="500 651.88 494.08 736.55 472.93 722.45 487.89 650.56 500 651.88" class="cls-7"/><polygon points="500 651.88 505.91 736.55 527.07 722.45 512.1 650.56 500 651.88" class="cls-7"/><polygon points="521.13 590.43 478.87 590.43 478.87 639.28 500 652.85 521.13 639.28 521.13 590.43" class="cls-8"/><path d="M604.47,323.38V490.79A88.24,88.24,0,0,1,584.26,547l-47,49.83a48.37,48.37,0,0,1-74.58,0l-47-49.83a88.24,88.24,0,0,1-20.21-56.2V323.38a75.27,75.27,0,0,1,75.28-75.28h58.38A75.27,75.27,0,0,1,604.47,323.38Z" class="cls-9"/><path d="M500,248.1V614.38a48.37,48.37,0,0,1-37.29-17.56l-47-49.83a88.24,88.24,0,0,1-20.21-56.2V323.38a75.27,75.27,0,0,1,75.28-75.28Z" class="cls-10"/><path d="M573.72,320V479.79c0,19.58-5,38.55-14.26,53.65L526.32,581c-6.49,10.62-16.14,16.77-26.32,16.77h0c-10.18,0-19.83-6.15-26.32-16.77l-33.14-47.56c-9.22-15.1-14.26-34.07-14.26-53.65V320c0-39.69,23.78-71.87,53.12-71.87h41.2C549.94,248.1,573.72,280.28,573.72,320Z" class="cls-11"/><circle cx="558.77" cy="452.58" r="31.27" class="cls-11"/><circle cx="441.23" cy="452.58" r="31.27" class="cls-11"/><path d="M604.47,323.38V490.79A88.24,88.24,0,0,1,584.26,547l-47,49.83A48.37,48.37,0,0,1,500,614.38h0a48.37,48.37,0,0,1-37.29-17.56l-47-49.83a88.24,88.24,0,0,1-20.21-56.2V323.38a75.27,75.27,0,0,1,75.28-75.28h58.38A75.27,75.27,0,0,1,604.47,323.38Z" class="cls-12"/><path d="M481.81,457.56c-.18,3.41-.57,6.77-.94,10.13l-.33,2.51a10.1,10.1,0,0,0-.1,1.11,6.77,6.77,0,0,0,.08,1,6.38,6.38,0,0,0,1.68,3.46,6.77,6.77,0,0,0,1.48,1.15,6.52,6.52,0,0,0,1.73.62,6.88,6.88,0,0,0,.9.1h.46l.61,0,2.52-.07c3.37-.09,6.73-.12,10.1-.13s6.73,0,10.1.13l2.52.07h1.07a6.86,6.86,0,0,0,.9-.09,6.36,6.36,0,0,0,1.72-.63,6.78,6.78,0,0,0,1.49-1.14,6.44,6.44,0,0,0,1.67-3.46,6.77,6.77,0,0,0,.08-1c0-.35,0-.66-.09-1.11l-.33-2.51c-.38-3.36-.77-6.72-.94-10.13,1.26,3.17,2.29,6.39,3.34,9.61l.73,2.42c.13.37.24.9.35,1.38a11,11,0,0,1,.14,1.51,9.44,9.44,0,0,1-1.92,5.79,9.56,9.56,0,0,1-5.17,3.55,10.76,10.76,0,0,1-1.58.31l-.81.07-.65,0-2.52.08c-3.37.09-6.74.12-10.1.13s-6.73-.05-10.1-.14l-2.52-.07-.65,0-.81-.07a10.76,10.76,0,0,1-1.58-.31,10.54,10.54,0,0,1-2.9-1.36,10.73,10.73,0,0,1-2.27-2.19,9.49,9.49,0,0,1-1.91-5.79,9.64,9.64,0,0,1,.14-1.51c.11-.48.22-1,.34-1.37l.74-2.43C479.52,464,480.56,460.73,481.81,457.56Z" class="cls-13"/><line x1="486.34" x2="496.47" y1="474.75" y2="479.93" class="cls-14"/><line x1="513.65" x2="503.53" y1="474.75" y2="479.93" class="cls-14"/><path d="M525.36,421.83a29.41,29.41,0,0,1,6.15-3,44,44,0,0,1,6.09-1.69,48.93,48.93,0,0,1,12-.82,49.59,49.59,0,0,1,11.89,2.1,42.74,42.74,0,0,1,5.87,2.31,29.88,29.88,0,0,1,5.81,3.63l0,.8-6-.12-6-.24-12-.49-12-.76-6-.39-6-.51Z" class="cls-13"/><path d="M573.18,424.73a9.06,9.06,0,0,0-3.44-6,21.82,21.82,0,0,0-6-3.53,46.26,46.26,0,0,0-27.92-1.46,21.93,21.93,0,0,0-6.39,2.88,9.09,9.09,0,0,0-4,5.62,7.45,7.45,0,0,1,.79-3.68,4,4,0,0,1,.47-.84c.19-.27.35-.56.55-.81a13.62,13.62,0,0,1,1.31-1.43,20.42,20.42,0,0,1,6.56-4,32.76,32.76,0,0,1,7.39-1.89,47.06,47.06,0,0,1,7.6-.31,46.56,46.56,0,0,1,7.52,1.11,32.71,32.71,0,0,1,7.15,2.65,20.27,20.27,0,0,1,6.11,4.62,14.57,14.57,0,0,1,1.15,1.56,8.84,8.84,0,0,1,.46.86,4.07,4.07,0,0,1,.39.88A7.64,7.64,0,0,1,573.18,424.73Z" class="cls-13"/><polygon points="564.69 422.29 585.99 426.41 564.4 424.27 564.69 422.29" class="cls-13"/><polygon points="564.36 422.3 585.85 419.34 564.72 424.26 564.36 422.3" class="cls-13"/><polygon points="564.01 422.43 582.9 411.77 565.07 424.13 564.01 422.43" class="cls-13"/><polygon points="564.06 423.08 574.16 409.24 565.74 424.16 564.06 423.08" class="cls-13"/><path d="M475,422.6l-6,.51-6,.38-11.95.76-12,.5-6,.24-6,.12,0-.8a29.41,29.41,0,0,1,5.81-3.63,42.81,42.81,0,0,1,5.87-2.32,49.57,49.57,0,0,1,11.89-2.09,48.44,48.44,0,0,1,12,.82,41,41,0,0,1,6.09,1.69,29.35,29.35,0,0,1,6.15,3Z" class="cls-13"/><path d="M427.15,424.71a7.62,7.62,0,0,1,.4-3.74,4.15,4.15,0,0,1,.39-.89,8.68,8.68,0,0,1,.46-.85,13.63,13.63,0,0,1,1.15-1.56,20.27,20.27,0,0,1,6.11-4.62,32.42,32.42,0,0,1,7.15-2.66,47.7,47.7,0,0,1,7.52-1.11,47.06,47.06,0,0,1,7.6.32,32.76,32.76,0,0,1,7.39,1.89,20.24,20.24,0,0,1,6.56,4,13.62,13.62,0,0,1,1.31,1.43c.21.24.36.54.55.8a5.36,5.36,0,0,1,.48.84,7.59,7.59,0,0,1,.78,3.68,9.15,9.15,0,0,0-4.05-5.62,22.47,22.47,0,0,0-6.39-2.88,46.46,46.46,0,0,0-27.92,1.46,22.1,22.1,0,0,0-6.05,3.54A9,9,0,0,0,427.15,424.71Z" class="cls-13"/><polygon points="435.93 424.25 414.35 426.38 435.64 422.27 435.93 424.25" class="cls-13"/><polygon points="435.61 424.24 414.48 419.32 435.97 422.27 435.61 424.24" class="cls-13"/><polygon points="435.26 424.1 417.43 411.75 436.32 422.41 435.26 424.1" class="cls-13"/><polygon points="434.59 424.14 426.17 409.22 436.27 423.06 434.59 424.14" class="cls-13"/><path d="M463.83,517.49c0,18.9,16.2,34.22,36.17,34.22s36.17-15.32,36.17-34.22" class="cls-15"/><path d="M463.83,517.49a34.63,34.63,0,0,0,12,23.37,37.45,37.45,0,0,0,37,6.59,36.56,36.56,0,0,0,11.31-6.59,34.74,34.74,0,0,0,12-23.37,30.43,30.43,0,0,1-2,13.82,34,34,0,0,1-7.91,11.85A36.94,36.94,0,0,1,514.19,551a38.31,38.31,0,0,1-28.38,0,36.78,36.78,0,0,1-12.07-7.83,33.9,33.9,0,0,1-7.91-11.84A30.56,30.56,0,0,1,463.83,517.49Z" class="cls-13"/><path d="M520.81,385.92c3.11-.3,6.22-.53,9.33-.77s6.23-.47,9.35-.67c6.22-.42,12.45-.82,18.69-1.15l4.68-.25,2.43-.11a16.37,16.37,0,0,1,2.89.15,17.2,17.2,0,0,1,5.49,1.7,15.23,15.23,0,0,1,2.43,1.52c.39.28.75.59,1.11.9l.52.48.42.4c4.46,4.38,8.84,8.85,12.94,13.62L589,404.09c-5.17-3.58-10.07-7.47-14.89-11.44l-.45-.38-.38-.29a7.61,7.61,0,0,0-.75-.51,11.16,11.16,0,0,0-1.6-.85,11,11,0,0,0-3.47-.87,10.58,10.58,0,0,0-1.78,0l-2.24.24-4.66.5c-6.2.66-12.42,1.25-18.64,1.83-3.1.29-6.21.59-9.32.83s-6.23.52-9.34.72Z" class="cls-13"/><path d="M478.49,394.46c-3.11-.25-6.22-.55-9.32-.84s-6.22-.62-9.32-.95c-6.21-.66-12.42-1.33-18.62-2.08l-4.65-.56-1.16-.14c-.37-.05-.83-.11-1.07-.12a10.44,10.44,0,0,0-5.24.85,11.2,11.2,0,0,0-1.61.84c-.26.16-.5.34-.75.52l-.37.29-.45.37c-4.82,4-9.73,7.87-14.9,11.45l-2.12-2.35c4.1-4.78,8.49-9.24,12.95-13.62l.42-.41.52-.48c.36-.31.72-.62,1.11-.9a15.18,15.18,0,0,1,2.43-1.51,17.17,17.17,0,0,1,8.4-1.85c.55,0,.86,0,1.27.07l1.17.07,4.68.31c6.24.41,12.47.89,18.7,1.4,3.11.24,6.23.48,9.34.78s6.23.56,9.33.89Z" class="cls-13"/><path d="M500,516.32l-49.26-6.26s28.12,30,49.26,30,49.26-30,49.26-30L500,516.32Z" class="cls-16"/><path d="M531.46,468.74c4.91,3.29,9.62,6.81,14.27,10.4,2.34,1.78,4.61,3.63,6.92,5.45l6.81,5.59,3.35,2.84a22.31,22.31,0,0,1,3.34,3.27,16.1,16.1,0,0,1,3.35,8.81,15.06,15.06,0,0,1-.39,4.69,17.37,17.37,0,0,1-.71,2.22,15.4,15.4,0,0,1-1,2.07,15.7,15.7,0,0,1-2.89,3.52q-1.62,1.5-3.28,3,1.3-1.79,2.67-3.53c.44-.59.85-1.16,1.23-1.76a13.87,13.87,0,0,0,1-1.88,15.26,15.26,0,0,0,.73-1.95,17.76,17.76,0,0,0,.4-2,14.59,14.59,0,0,0-3.24-11.34,22,22,0,0,0-3-2.81l-3.41-2.79-6.7-5.71c-2.2-1.95-4.43-3.85-6.6-5.84C539.87,477,535.57,473,531.46,468.74Z" class="cls-13"/><path d="M450.74,494.65a61.38,61.38,0,0,1-8,3c-.67.21-1.35.41-2,.59-.36.09-.62.21-.92.3a4.35,4.35,0,0,0-.84.34,9.18,9.18,0,0,0-2.9,2.06,9.73,9.73,0,0,0-2.59,6.6,9.48,9.48,0,0,0,.71,3.74c.49,1.3,1.07,2.62,1.49,4A41.36,41.36,0,0,1,432.9,512a9.57,9.57,0,0,1-1.77-4.25,10.62,10.62,0,0,1,2.76-8.86,10.44,10.44,0,0,1,4-2.64,6.63,6.63,0,0,1,1.15-.35,8.94,8.94,0,0,1,1.12-.23c.69-.12,1.39-.22,2.09-.31A62.7,62.7,0,0,1,450.74,494.65Z" class="cls-13"/><path d="M503.53,238.1c-3.11,2-48.75,39.4-48.75,39.4l-34,58.93-25.2,83.73-3.47,88.64S379.37,502,373.17,502c10.41-89,13.3-199.53,13.3-199.53l22.58-40.62,42.06-26.75Z" class="cls-17"/><path d="M508.59,234.85v14.93l60.94,54.56L620,431.24l-4.46-122.57a29.48,29.48,0,0,0-2.61-11.12l-8.24-18.21A48.69,48.69,0,0,0,582.28,256l-41.86-21.13Z" class="cls-17"/><path d="M500,517.49c-14.77,0-42.69-3-55.58-9.77,5.61,1.22,33-5,43.17-7.36a10.14,10.14,0,0,1,7.35,1.1h0a10.11,10.11,0,0,0,10.12,0h0a10.14,10.14,0,0,1,7.35-1.1c10.18,2.39,37.56,8.58,43.17,7.36C542.69,514.49,514.77,517.49,500,517.49Z" class="cls-18"/><path d="M318.11,671.38c39.63,0,77.42-111.26,77.42-213.82S455.35,248.1,500,248.1c29.19,0,104.47,68.6,104.47,169.64" class="cls-12"/><path d="M469.57,673.9l30.43-22-12.4-9.15a11.31,11.31,0,0,0-18,9.1Z" class="cls-7"/><path d="M530.43,673.9l-30.43-22,12.4-9.15a11.31,11.31,0,0,1,18,9.1Z" class="cls-7"/></g></svg>