<svg xmlns="http://www.w3.org/2000/svg" viewBox="0 0 1000 1000"><defs><style>.cls-1{fill:#3d3d4f}.cls-1,.cls-13,.cls-18,.cls-19,.cls-2,.cls-3,.cls-4,.cls-5,.cls-6,.cls-7,.cls-8,.cls-9{stroke:#252535;stroke-linejoin:round}.cls-1,.cls-2,.cls-3,.cls-4,.cls-5,.cls-7{stroke-width:8px}.cls-12,.cls-2{fill:#f0d0b4}.cls-14,.cls-15,.cls-3{fill:#252535}.cls-4{fill:#2e2e3f}.cls-19,.cls-5,.cls-6{fill:#fff}.cls-6{stroke-width:2px}.cls-7{fill:#d8d8d8}.cls-23,.cls-8,.cls-9{fill:#8c715d}.cls-8{stroke-width:14px}.cls-9{stroke-width:16.84px}.cls-10{fill:#dfb28b}.cls-11{fill:#f5e0cd}.cls-13{fill:none;stroke-width:16.84px}.cls-14{opacity:.3}.cls-16{fill:#567891}.cls-17{fill:#543e36}.cls-18{fill:#db9c94}.cls-18,.cls-19{stroke-width:3px}.cls-20{fill:#b08874}.cls-21{fill:#cf9e76}.cls-22{fill:#ecc19c}</style></defs><title>sos_fred-bosse</title><g id="sos1_fred-bosse"><path d="M499.86,795H471.63a52,52,0,0,0,2.49,48.14L500,886.9Z" class="cls-1"/><path d="M499.86,795h28.23a52,52,0,0,1-2.49,48.14L499.72,886.9Z" class="cls-1"/><path d="M543.5,757.76h22.62a0,0,0,0,1,0,0v0a22.62,22.62,0,0,1-22.62,22.62h0a0,0,0,0,1,0,0V757.76A0,0,0,0,1,543.5,757.76Z" class="cls-2"/><path d="M433.88,757.76h0a22.62,22.62,0,0,1,22.62,22.62v0a0,0,0,0,1,0,0H433.88a0,0,0,0,1,0,0V757.76A0,0,0,0,1,433.88,757.76Z" class="cls-2" transform="translate(890.37 1538.14) rotate(-180)"/><path d="M575.35,757.76h-40.6V647.32h0a30.67,30.67,0,0,1,30.45,27Z" class="cls-3"/><path d="M424.65,757.76h40.6V647.32h0a30.67,30.67,0,0,0-30.45,27Z" class="cls-1"/><path d="M538.91,640.49h-78.1A15.37,15.37,0,0,0,446,659.8l14.89,56.26-20,139.31h118l-20-139.31,14.89-56.26A15.37,15.37,0,0,0,538.91,640.49Z" class="cls-4"/><polygon points="450.25 736.48 500 736.48 500 662.17 472.76 662.17 450.25 736.48" class="cls-5"/><line x1="492.53" x2="488.53" y1="662.17" y2="736.48" class="cls-6"/><line x1="486.13" x2="476.13" y1="662.17" y2="735.75" class="cls-6"/><line x1="480.49" x2="462.77" y1="661.51" y2="735.75" class="cls-6"/><polygon points="549.75 736.48 500 736.48 500 662.17 527.24 662.17 549.75 736.48" class="cls-7"/><line x1="507.47" x2="511.47" y1="662.17" y2="736.48" class="cls-6"/><line x1="513.87" x2="523.87" y1="662.17" y2="735.75" class="cls-6"/><line x1="519.51" x2="537.23" y1="661.51" y2="735.75" class="cls-6"/><path d="M536.2,617H463.8v28.5a42.26,42.26,0,0,0,16.14,33.22L500,694.52l20.06-15.79a42.26,42.26,0,0,0,16.14-33.22Z" class="cls-5"/><circle cx="500" cy="612.71" r="34.39" class="cls-2"/><path d="M415.78,292.56c-3.65,5-6.72,11-12.57,22.49C395.92,329.38,370.74,367.33,367,383s14.52,19.95,10.82,35.6-21.92,11.34-25.61,27,14.52,20,10.82,35.6-21.92,11.34-25.62,27,14.52,20,10.83,35.6-21.92,11.34-25.62,27,14.52,20,10.82,35.61H490V293.4l-42.28-22.61Z" class="cls-8"/><path d="M568.26,293.4c17.36,0,34.33,6.78,46,19.68a16.12,16.12,0,0,1,3.73,7.31c3.7,15.65-14.52,19.95-10.82,35.6s21.91,11.34,25.61,27-14.52,19.95-10.82,35.6,21.91,11.34,25.61,27-14.52,20-10.82,35.6,21.91,11.34,25.61,27-14.52,20-10.82,35.6,21.92,11.34,25.62,27-14.52,20-10.82,35.61H509.73V293.4Z" class="cls-8"/><path d="M488.37,245.28h23.26A79.34,79.34,0,0,1,591,324.62V361.2a0,0,0,0,1,0,0H409a0,0,0,0,1,0,0V324.62A79.34,79.34,0,0,1,488.37,245.28Z" class="cls-9"/><path d="M591,344.78V495a88.52,88.52,0,0,1-15.58,50.16l-39.67,57.66A43.36,43.36,0,0,1,500,621.64h-.14a43.32,43.32,0,0,1-35.58-18.79l-39.67-57.66A88.52,88.52,0,0,1,409,495V344.78a66.68,66.68,0,0,1,66.68-66.68h48.58A66.68,66.68,0,0,1,591,344.78Z" class="cls-10"/><path d="M499.86,278.1V621.64a43.32,43.32,0,0,1-35.58-18.79l-39.67-57.66A88.52,88.52,0,0,1,409,495V344.78a66.68,66.68,0,0,1,66.68-66.68Z" class="cls-11"/><path d="M564.1,344.78V495c0,17.91-3.83,35.4-11,50.16l-28,57.66c-5.7,11.76-15.11,18.79-25.17,18.79h0c-10.06,0-19.47-7-25.17-18.79l-27.95-57.66c-7.15-14.76-11-32.25-11-50.16V344.78c0-36.83,21-66.68,47-66.68h34.24C543.06,278.1,564.1,308,564.1,344.78Z" class="cls-12"/><circle cx="547.89" cy="462.81" r="29.71" class="cls-12"/><circle cx="452.13" cy="462.81" r="29.71" class="cls-12"/><path d="M591,344.78V495a88.52,88.52,0,0,1-15.58,50.16l-39.67,57.66A43.36,43.36,0,0,1,500,621.64h0a43.36,43.36,0,0,1-35.72-18.79l-39.67-57.66A88.52,88.52,0,0,1,409,495V344.78a66.68,66.68,0,0,1,66.68-66.68h48.58A66.68,66.68,0,0,1,591,344.78Z" class="cls-13"/><ellipse cx="500" cy="886.9" class="cls-14" rx="199.48" ry="11.28"/><path d="M509.35,478.47c.81-.14,1.61-.25,2.41-.37a13.35,13.35,0,0,1,2.53-.21,6.35,6.35,0,0,1,4.75,2.76,6.62,6.62,0,0,1,1.08,2.77c.07.55.09.92.13,1.32l.1,1.21a7.2,7.2,0,0,1-2.28,5.74,7.37,7.37,0,0,1-2.82,1.66,7,7,0,0,1-1.63.32l-.65.05a2.38,2.38,0,0,0-.37.06,3.56,3.56,0,0,0-1.3.58,6.29,6.29,0,0,0-1.18,1.29l-.77.93-.38.47c-.14.16-.23.28-.45.52a7.9,7.9,0,0,1-2.81,2,7.45,7.45,0,0,1-1.67.49,8.39,8.39,0,0,1-.86.1l-.44,0H497.3l-.44,0a8.58,8.58,0,0,1-.87-.1,7.58,7.58,0,0,1-1.67-.48,8,8,0,0,1-2.82-2c-.22-.24-.32-.38-.45-.53l-.39-.47-.76-.93-.68-.82a2.9,2.9,0,0,0-.51-.48,3.48,3.48,0,0,0-1.3-.58,2.25,2.25,0,0,0-.36-.06l-.64-.05a6.92,6.92,0,0,1-1.63-.32A7.41,7.41,0,0,1,482,491.7a7.22,7.22,0,0,1-2.29-5.74l.1-1.2c0-.4.06-.78.13-1.33a6.47,6.47,0,0,1,1.07-2.77,6.39,6.39,0,0,1,4.75-2.77,13.38,13.38,0,0,1,2.53.2c.8.13,1.6.24,2.41.38-.81.15-1.61.25-2.41.38a13,13,0,0,0-2.28.4,4.64,4.64,0,0,0-2.87,2.63,4,4,0,0,0-.34,1.79l.08,1.09.1,1.2a3.89,3.89,0,0,0,1.58,2.76,3.43,3.43,0,0,0,1.39.6,3.76,3.76,0,0,0,.74.06h.57c.28,0,.56,0,.84.05a7.58,7.58,0,0,1,3.17,1.11,7.27,7.27,0,0,1,1.34,1.06l.3.3.22.24.4.44,1.56,1.71a3.07,3.07,0,0,0,1.13.72,2.74,2.74,0,0,0,.64.17l.33,0h5.74l.33,0a2.88,2.88,0,0,0,.64-.17,3,3,0,0,0,1.12-.72l1.57-1.72c.3-.32.47-.53.92-1a8,8,0,0,1,1.35-1.05,7.5,7.5,0,0,1,3.18-1.09,7.86,7.86,0,0,1,.83-.05h.56a3.71,3.71,0,0,0,.74-.07,3.37,3.37,0,0,0,1.39-.6,3.85,3.85,0,0,0,1.58-2.77l.1-1.2.08-1.09a4.17,4.17,0,0,0-.35-1.79,4.64,4.64,0,0,0-2.87-2.63,14.33,14.33,0,0,0-2.29-.39C511,478.72,510.16,478.62,509.35,478.47Z" class="cls-15"/><path d="M507.67,457.73c-.64-5.85-1.29-11.66-2.35-17.35a68.59,68.59,0,0,0-2-8.34,22.36,22.36,0,0,0-1.55-3.8,6.88,6.88,0,0,0-1-1.48,1.38,1.38,0,0,0-.82-.51,1.4,1.4,0,0,0-.81.51,6.88,6.88,0,0,0-1,1.48,22.36,22.36,0,0,0-1.55,3.8,67.22,67.22,0,0,0-2,8.34c-1.06,5.69-1.71,11.5-2.35,17.35a83.69,83.69,0,0,1,0-17.69,55.27,55.27,0,0,1,1.64-8.83,22.94,22.94,0,0,1,1.69-4.36,9.58,9.58,0,0,1,1.45-2.13,5.19,5.19,0,0,1,1.2-1,3.7,3.7,0,0,1,1.77-.5,3.86,3.86,0,0,1,1.78.5,5.39,5.39,0,0,1,1.19,1,10,10,0,0,1,1.46,2.13,22.89,22.89,0,0,1,1.68,4.36,54.18,54.18,0,0,1,1.64,8.83A84.36,84.36,0,0,1,507.67,457.73Z" class="cls-10"/><path d="M556.46,431.66a7.87,7.87,0,0,0-2.37-4.53,14.42,14.42,0,0,0-4.28-2.76,22.19,22.19,0,0,0-4.93-1.46,27.6,27.6,0,0,0-5.14-.46,28.45,28.45,0,0,0-5.13.46,21.7,21.7,0,0,0-4.93,1.47,14.39,14.39,0,0,0-4.28,2.75,7.94,7.94,0,0,0-2.38,4.53,7.43,7.43,0,0,1,1.64-5.18A13.8,13.8,0,0,1,529,423a24.17,24.17,0,0,1,21.49,0,13.76,13.76,0,0,1,4.33,3.52A7.35,7.35,0,0,1,556.46,431.66Z" class="cls-15"/><polygon points="551.79 429.67 576.52 433.66 551.55 431.65 551.79 429.67" class="cls-15"/><polygon points="551.36 429.71 566.09 426 551.98 431.61 551.36 429.71" class="cls-15"/><polygon points="548.7 430 561.25 421.45 549.94 431.58 548.7 430" class="cls-15"/><polygon points="546.94 429.29 556.46 417.46 548.57 430.44 546.94 429.29" class="cls-15"/><path d="M523,431.26a20.32,20.32,0,0,1,4.18-3.34,23.83,23.83,0,0,1,12.54-3.46,24.77,24.77,0,0,1,8.36,1.47,23.81,23.81,0,0,1,4.18,2,20.25,20.25,0,0,1,4.18,3.32v.8l-4.18.2-4.18.11c-2.78.06-5.57.06-8.36.09s-5.57,0-8.36-.09l-4.18-.11-4.18-.2Z" class="cls-15"/><path d="M523,432.05a26.46,26.46,0,0,1,8.36-3.34,38.43,38.43,0,0,1,8.36-.91,38.93,38.93,0,0,1,8.36.92,26.58,26.58,0,0,1,8.36,3.33v.5l-4.18.12-4.18.05-8.36.08-8.36-.08-4.18,0-4.18-.13Z" class="cls-16"/><path d="M443.56,431.66a7.38,7.38,0,0,1,1.63-5.17,13.8,13.8,0,0,1,4.34-3.52A24.17,24.17,0,0,1,471,423a13.91,13.91,0,0,1,4.34,3.51,7.42,7.42,0,0,1,1.63,5.18,7.87,7.87,0,0,0-2.37-4.53,14.39,14.39,0,0,0-4.28-2.75,21.7,21.7,0,0,0-4.93-1.47,28.48,28.48,0,0,0-5.14-.46,27.57,27.57,0,0,0-5.13.46,22.19,22.19,0,0,0-4.93,1.46,14.42,14.42,0,0,0-4.28,2.76A7.87,7.87,0,0,0,443.56,431.66Z" class="cls-15"/><polygon points="448.47 431.65 423.5 433.66 448.23 429.67 448.47 431.65" class="cls-15"/><polygon points="448.04 431.61 433.93 426 448.65 429.71 448.04 431.61" class="cls-15"/><polygon points="450.08 431.58 438.77 421.45 451.31 430 450.08 431.58" class="cls-15"/><polygon points="451.44 430.44 443.56 417.46 453.08 429.29 451.44 430.44" class="cls-15"/><path d="M477,432.06l-4.18.2-4.18.11c-2.78.06-5.57.06-8.36.09s-5.57,0-8.35-.09l-4.18-.11-4.18-.2v-.8a20,20,0,0,1,4.18-3.32,23.81,23.81,0,0,1,4.18-2,24.75,24.75,0,0,1,8.35-1.47,24.49,24.49,0,0,1,8.36,1.45,23.81,23.81,0,0,1,4.18,2,19.8,19.8,0,0,1,4.18,3.34Z" class="cls-15"/><path d="M477,432.55l-4.18.13-4.18,0-8.36.08-8.35-.08-4.18-.05-4.18-.12v-.5a26.48,26.48,0,0,1,8.36-3.33,38.91,38.91,0,0,1,8.35-.92,38.29,38.29,0,0,1,8.36.91,26.28,26.28,0,0,1,8.36,3.34Z" class="cls-16"/><path d="M476.92,404.13c-4.82-.07-9.63-.22-14.45-.42s-9.64-.48-14.46-.77l-3.61-.24a5.79,5.79,0,0,0-2.6.42,6.32,6.32,0,0,0-2.25,1.49,5.59,5.59,0,0,0-.45.52c-.15.2-.26.35-.44.63l-1,1.51c-2.72,4-5.52,8-8.59,11.79a.11.11,0,0,1-.16,0,.11.11,0,0,1,0-.13c1.69-4.59,3.65-9,5.71-13.43l.77-1.64c.11-.24.32-.61.5-.92s.41-.63.64-.93a10.18,10.18,0,0,1,3.46-2.88,10.41,10.41,0,0,1,4.42-1.13L448,398c4.84-.06,9.68-.1,14.53-.08s9.69.1,14.53.26a3,3,0,0,1-.14,6Z" class="cls-17"/><path d="M522.7,398.13c4.85-.16,9.69-.23,14.54-.26s9.69,0,14.53.08l3.63.07a10.45,10.45,0,0,1,4.42,1.13,10.18,10.18,0,0,1,3.46,2.88,9.5,9.5,0,0,1,.63.93c.19.31.39.68.51.92l.77,1.64c2,4.4,4,8.84,5.71,13.43a.12.12,0,0,1-.07.15.1.1,0,0,1-.12,0c-3.07-3.81-5.88-7.78-8.59-11.79l-1-1.51c-.18-.28-.29-.43-.44-.63a5.59,5.59,0,0,0-.45-.52,6.41,6.41,0,0,0-2.25-1.49,5.81,5.81,0,0,0-2.6-.42l-3.62.24c-4.82.29-9.64.56-14.45.77s-9.64.35-14.45.42a3,3,0,0,1-.15-6Z" class="cls-17"/><path d="M537.12,502.53a90.66,90.66,0,0,1,9.73,3.92c.8.36,1.59.72,2.37,1.1l1.17.57c.4.2.76.36,1.22.63a9.91,9.91,0,0,1,2.38,1.9,10.26,10.26,0,0,1,1.64,2.58,9.63,9.63,0,0,1,.53,6A9.16,9.16,0,0,1,555,522a11.12,11.12,0,0,1-1.87,2.19,91.58,91.58,0,0,1-7.86,6.95,91.51,91.51,0,0,1,6.12-8.52,12,12,0,0,0,.74-1,7.71,7.71,0,0,0,.57-.95,7.21,7.21,0,0,0,.67-2.06,7.05,7.05,0,0,0,.06-2.15,7.3,7.3,0,0,0-3.29-5.31c-.26-.2-.68-.42-1-.64l-1.12-.67c-.75-.44-1.49-.9-2.22-1.37A92.78,92.78,0,0,1,537.12,502.53Z" class="cls-15"/><path d="M462.2,519.23c8.2,13.21,22.08,21.89,37.83,21.89,15.53,0,29.26-8.45,37.5-21.36" class="cls-18"/><path d="M462.48,516.84c0,8.2,16.8,14.85,37.52,14.85s37.53-6.65,37.53-14.85Z" class="cls-19"/><path d="M482.93,482.5l-26.8,19.12c-1.12.8-2.26,1.59-3.25,2.41a14.53,14.53,0,0,0-2.54,3,13.32,13.32,0,0,0-1.62,3.61,13.46,13.46,0,0,0-.57,3.94,14.28,14.28,0,0,0,2.19,7.65c.74,1.13,1.62,2.19,2.48,3.26l2.58,3.2-2.72-3.08c-.91-1-1.83-2-2.65-3.17a14.83,14.83,0,0,1-2.63-7.84,14.15,14.15,0,0,1,.41-4.2,14.59,14.59,0,0,1,1.56-3.95,16.12,16.12,0,0,1,2.62-3.38c1.08-1,2.16-1.79,3.24-2.64l25.9-20.32Z" class="cls-15"/><path d="M522.88,572a3.39,3.39,0,0,0-1.94-2.16,14.3,14.3,0,0,0-2.82-1.08,42.83,42.83,0,0,0-6-1.16c-2-.24-4.07-.46-6.12-.55s-4.1-.18-6.15-.16a100.5,100.5,0,0,0-12.27.71,41.45,41.45,0,0,0-6,1.17,13.61,13.61,0,0,0-2.81,1.08,3.34,3.34,0,0,0-2,2.15,2.5,2.5,0,0,1,.38-1.58,5.42,5.42,0,0,1,1.09-1.25,13.2,13.2,0,0,1,2.75-1.78,29.92,29.92,0,0,1,6.1-2.09,55.56,55.56,0,0,1,12.7-1.41,56.64,56.64,0,0,1,12.7,1.41,30.57,30.57,0,0,1,6.1,2.1,13.15,13.15,0,0,1,2.75,1.77,5.27,5.27,0,0,1,1.09,1.26A2.46,2.46,0,0,1,522.88,572Z" class="cls-15"/><path d="M500,522.67c-15.28,0-32.31-1-46.25-6.73A142.27,142.27,0,0,0,488.91,512a14.06,14.06,0,0,1,7.2.15h0a13.91,13.91,0,0,0,7.78,0h0a14.06,14.06,0,0,1,7.2-.15,142.27,142.27,0,0,0,35.16,3.92C532.31,521.67,515.28,522.67,500,522.67Z" class="cls-18"/><circle cx="439.44" cy="480.99" r="1.7" class="cls-20"/><circle cx="427.26" cy="477.21" r="1.7" class="cls-20"/><path d="M564.46,500.07a78.07,78.07,0,0,1,.06,16.46,59,59,0,0,1-1.35,8.28c-.72,2.77-1.66,5.33-2.56,7.91s-2,5.08-3.05,7.57-2.17,5-3.4,7.41a121.48,121.48,0,0,1-8,14.28l-.28-.11c4.09-10,8.14-20,11.9-30.19.94-2.53,1.9-5.07,2.65-7.65a77.52,77.52,0,0,0,1.74-7.89c.9-5.33,1.53-10.7,2-16.09Z" class="cls-21"/><path d="M435.84,500.05c.44,5.39,1.07,10.76,2,16.09a77.52,77.52,0,0,0,1.74,7.89c.75,2.58,1.71,5.12,2.65,7.65,3.76,10.14,7.81,20.17,11.9,30.19l-.28.11a121.48,121.48,0,0,1-8-14.28c-1.23-2.43-2.28-4.93-3.4-7.41s-2.05-5-3.05-7.57-1.84-5.14-2.56-7.91a59,59,0,0,1-1.35-8.28,78.07,78.07,0,0,1,.06-16.46Z" class="cls-22"/><path d="M503.62,264.85s25.4,26.4,36.12,48.77,47.44,153,47.44,218.07c25.76,20.5,37.65-26.7,37.65-26.7L610,384.74h0c-10.47-18.52-13.44-29.73-7.14-53.14l2.63-6.83c-.62-5.65-6.07-15.83-10.43-19.48l-48.24-40.44Z" class="cls-23"/><path d="M666.29,613.34a114.4,114.4,0,0,1-26.5-3,81.49,81.49,0,0,1-25.08-10.71A74.68,74.68,0,0,1,603.9,591,73.69,73.69,0,0,1,595,580.41a80.48,80.48,0,0,1-11.51-24.73,90.39,90.39,0,0,1-2.62-13.3c-.27-2.25-.45-4.5-.56-6.76-.07-1.13,0-2.27-.08-3.4l0-3.14q-.07-12.33-.74-24.68c-.89-16.46-2.49-32.91-4.73-49.26s-5.09-32.64-8.62-48.76-7.7-32.07-12.74-47.7-11-30.95-18.49-45.11a105.76,105.76,0,0,0-13-19.43,39.49,39.49,0,0,0-7.88-7.05,15.11,15.11,0,0,0-7.93-2.74V270a27.17,27.17,0,0,1,8.52,1.5,33.06,33.06,0,0,1,7.17,3.55,53.45,53.45,0,0,1,10.82,9.6,119.47,119.47,0,0,1,14.85,22.15,241.13,241.13,0,0,1,10.8,23.45c3.19,7.94,6,16,8.63,24,5.2,16.17,9.46,32.55,13,49.05s6.48,33.15,8.76,49.87,3.88,33.54,4.78,50.42q.68,12.65.73,25.36l0,3.12c0,1,0,1.91.07,2.86.09,1.91.24,3.82.47,5.72a77.69,77.69,0,0,0,2.21,11.23c4,14.71,12.84,27.86,25.44,35.94a67.28,67.28,0,0,0,20.76,8.84,100.45,100.45,0,0,0,23.15,2.62Z" class="cls-15"/><path d="M604.91,304.8c-7.94-5.71-18.74-7.43-29.29-24.48" class="cls-8"/></g></svg>