<svg xmlns="http://www.w3.org/2000/svg" viewBox="0 0 1000 1000"><defs><style>.cls-1{fill:#4a626b}.cls-1,.cls-10,.cls-11,.cls-16,.cls-18,.cls-19,.cls-2,.cls-20,.cls-21,.cls-22,.cls-25,.cls-4,.cls-5,.cls-6,.cls-9{stroke:#252535}.cls-1,.cls-10,.cls-11,.cls-16,.cls-18,.cls-19,.cls-2,.cls-20,.cls-21,.cls-22,.cls-23,.cls-24,.cls-25,.cls-26,.cls-4,.cls-5,.cls-6,.cls-9{stroke-linejoin:round}.cls-1,.cls-2,.cls-9{stroke-width:10px}.cls-2{fill:#6b8896}.cls-11,.cls-15,.cls-17,.cls-26,.cls-3{fill:#252535}.cls-3{opacity:.3}.cls-10,.cls-16,.cls-22,.cls-23,.cls-24,.cls-25,.cls-4,.cls-9{fill:none}.cls-4{stroke-width:12px}.cls-5,.cls-7{fill:#3d3d4f}.cls-25,.cls-5,.cls-6{stroke-width:8px}.cls-14,.cls-6{fill:#b19177}.cls-8{fill:#5a5a6b}.cls-10,.cls-18,.cls-21,.cls-23,.cls-24{stroke-linecap:round}.cls-10,.cls-18,.cls-21,.cls-22,.cls-23,.cls-24{stroke-width:6px}.cls-11,.cls-16,.cls-19,.cls-20{stroke-width:16.84px}.cls-12,.cls-19{fill:#72594b}.cls-13,.cls-20{fill:#c0a58d}.cls-15{opacity:.3}.cls-18{fill:#cea28b}.cls-21{fill:#b08874}.cls-23,.cls-24{stroke:#e0e0e0}.cls-24{stroke-dasharray:0 39.52}.cls-26{stroke:#9999a3;stroke-width:3px}</style></defs><title>sos_wensley-vaval</title><g id="sos7_Wensley_Vaval" data-name="sos7_Wensley Vaval"><polygon points="522.89 865.7 500 865.7 500 760.93 533.46 760.93 522.89 865.7" class="cls-1"/><polygon points="477.11 865.7 500 865.7 500 760.93 466.54 760.93 477.11 865.7" class="cls-2"/><ellipse cx="500" cy="886.9" class="cls-3" rx="199.48" ry="11.28"/><line x1="499.86" x2="440.17" y1="880.15" y2="880.15" class="cls-4"/><line x1="499.86" x2="559.55" y1="880.15" y2="880.15" class="cls-4"/><path d="M425.62,631.5h18.66a0,0,0,0,1,0,0v96.29a18.66,18.66,0,0,1-18.66,18.66h0a0,0,0,0,1,0,0v-115A0,0,0,0,1,425.62,631.5Z" class="cls-5" transform="translate(869.89 1377.96) rotate(180)"/><path d="M428.2,746.45h0a16.08,16.08,0,0,1,16.08,16.08v25.53a0,0,0,0,1,0,0H428.2a0,0,0,0,1,0,0V746.45A0,0,0,0,1,428.2,746.45Z" class="cls-6" transform="translate(872.47 1534.51) rotate(-180)"/><path d="M555.72,631.5h0a18.66,18.66,0,0,1,18.66,18.66v96.29a0,0,0,0,1,0,0H555.72a0,0,0,0,1,0,0v-115A0,0,0,0,1,555.72,631.5Z" class="cls-5"/><path d="M555.72,746.45H571.8a0,0,0,0,1,0,0V772a16.08,16.08,0,0,1-16.08,16.08h0a0,0,0,0,1,0,0V746.45A0,0,0,0,1,555.72,746.45Z" class="cls-6"/><polygon points="554.4 623.51 500 584.4 445.6 623.51 445.6 764.02 500 804.94 554.4 764.02 554.4 623.51" class="cls-7"/><rect width="107.91" height="39.63" x="446.05" y="663.16" class="cls-8"/><polygon points="554.4 623.51 498.76 584.4 445.6 623.51 445.6 764.02 497.88 804.94 554.4 764.02 554.4 623.51" class="cls-9"/><circle cx="605.54" cy="474.83" r="16.75" class="cls-10"/><circle cx="599.96" cy="455.96" r="16.75" class="cls-10"/><circle cx="498.76" cy="601.15" r="16.75" class="cls-10"/><circle cx="515.51" cy="601.15" r="16.75" class="cls-10"/><circle cx="532.54" cy="599.64" r="16.75" class="cls-10"/><circle cx="544.03" cy="593.51" r="16.75" class="cls-10"/><circle cx="559" cy="582.9" r="16.75" class="cls-10"/><circle cx="564.75" cy="570.98" r="16.75" class="cls-10"/><circle cx="575.4" cy="554.24" r="16.75" class="cls-10"/><circle cx="582.96" cy="537.49" r="16.75" class="cls-10"/><circle cx="593.22" cy="524.07" r="16.75" class="cls-10"/><circle cx="599.71" cy="507.33" r="16.75" class="cls-10"/><circle cx="603.91" cy="490.58" r="16.75" class="cls-10"/><circle cx="394.46" cy="474.83" r="16.75" class="cls-10"/><circle cx="484.49" cy="601.15" r="16.75" class="cls-10"/><circle cx="467.46" cy="599.64" r="16.75" class="cls-10"/><circle cx="455.97" cy="593.51" r="16.75" class="cls-10"/><circle cx="441.01" cy="582.9" r="16.75" class="cls-10"/><circle cx="435.26" cy="570.98" r="16.75" class="cls-10"/><circle cx="424.6" cy="554.24" r="16.75" class="cls-10"/><circle cx="417.04" cy="537.49" r="16.75" class="cls-10"/><circle cx="406.78" cy="524.07" r="16.75" class="cls-10"/><circle cx="400.29" cy="507.33" r="16.75" class="cls-10"/><circle cx="396.09" cy="490.58" r="16.75" class="cls-10"/><circle cx="400.04" cy="455.96" r="16.75" class="cls-10"/><path d="M472.24,177.82h55.52a83.74,83.74,0,0,1,83.74,83.74v85.91a25.07,25.07,0,0,1-25.07,25.07H413.58a25.07,25.07,0,0,1-25.07-25.07V261.55a83.74,83.74,0,0,1,83.74-83.74Z" class="cls-11"/><path d="M603.47,265.3V493.75a46.45,46.45,0,0,1-5,21l-41.24,81.46a46.43,46.43,0,0,1-41.42,25.46H484.19a46.43,46.43,0,0,1-41.42-25.46l-41.24-81.46a46.45,46.45,0,0,1-5-21V265.3a73.73,73.73,0,0,1,73.72-73.72h59.5A73.73,73.73,0,0,1,603.47,265.3Z" class="cls-12"/><path d="M500,191.58V621.64H484.19a46.43,46.43,0,0,1-41.42-25.46l-41.24-81.46a46.45,46.45,0,0,1-5-21V265.3a73.73,73.73,0,0,1,73.72-73.72Z" class="cls-13"/><path d="M574.65,265.3V493.75a61.61,61.61,0,0,1-3.61,21l-29.75,81.46c-5.71,15.62-17.26,25.46-29.88,25.46H488.59c-12.62,0-24.17-9.84-29.88-25.46L429,514.72a61.61,61.61,0,0,1-3.61-21V265.3c0-40.71,23.82-73.72,53.19-73.72h42.92C550.83,191.58,574.65,224.59,574.65,265.3Z" class="cls-14"/><circle cx="554.52" cy="401.34" r="34.81" class="cls-14"/><path d="M559.34,451.78,500,441l-61.54,10.86a13.8,13.8,0,0,0-11.41,13.59H570.67v-.06A13.8,13.8,0,0,0,559.34,451.78Z" class="cls-15"/><circle cx="445.48" cy="401.34" r="34.81" class="cls-14"/><path d="M603.47,265.3V493.75a46.45,46.45,0,0,1-5,21l-41.24,81.46a46.43,46.43,0,0,1-41.42,25.46H484.19a46.43,46.43,0,0,1-41.42-25.46l-41.24-81.46a46.45,46.45,0,0,1-5-21V265.3a73.7,73.7,0,0,1,73.72-73.72h59.5a73.7,73.7,0,0,1,73.72,73.72Z" class="cls-16"/><path d="M526,429.43l-9.19,6.31A29.71,29.71,0,0,1,500,441h0a29.71,29.71,0,0,1-16.82-5.23L474,429.43" class="cls-10"/><path d="M480.55,398a83.17,83.17,0,0,1-6.63,12.16c-2.48,3.84-5.15,7.54-8,11.1l-2.15,2.66-.23.27-.18.23a5.25,5.25,0,0,0-.33.49,8,8,0,0,0-.54,1.05,7.62,7.62,0,0,0-.31,4.85,8.46,8.46,0,0,0,3,4.45,9.58,9.58,0,0,0,2.69,1.42l.78.23.85.19c.57.16,1.14.28,1.71.46-.57.17-1.14.3-1.71.45a14.85,14.85,0,0,1-1.78.33,9.4,9.4,0,0,1-3.84-.44,10.63,10.63,0,0,1-6.1-5.28,11.5,11.5,0,0,1-.72-8.5,12.17,12.17,0,0,1,2-3.88l2.09-2.7q4.23-5.34,9-10.3A83.8,83.8,0,0,1,480.55,398Z" class="cls-17"/><path d="M519.45,398a83.8,83.8,0,0,1,10.32,9.24q4.76,5,9,10.3l2.09,2.7a12.17,12.17,0,0,1,2,3.88,11.5,11.5,0,0,1-.72,8.5,10.63,10.63,0,0,1-6.1,5.28,9.4,9.4,0,0,1-3.84.44,14.85,14.85,0,0,1-1.78-.33c-.57-.15-1.14-.28-1.71-.45.57-.18,1.14-.3,1.71-.46l.85-.19.78-.23a9.58,9.58,0,0,0,2.69-1.42,8.46,8.46,0,0,0,3-4.45,7.62,7.62,0,0,0-.31-4.85,8,8,0,0,0-.54-1.05,5.25,5.25,0,0,0-.33-.49l-.18-.23-.23-.27-2.15-2.66c-2.82-3.56-5.49-7.26-8-11.1A83.17,83.17,0,0,1,519.45,398Z" class="cls-17"/><path d="M500,482.5c-21.28,0-59.83-12.47-59.83-12.47S469.3,504.91,500,504.91,559.83,470,559.83,470Z" class="cls-18"/><path d="M554.52,435.67c5,1.95,9.94,3.82,14.79,6.21a53.6,53.6,0,0,1,7.08,4.15,30.41,30.41,0,0,1,6.31,5.78,19.42,19.42,0,0,1,3.8,16.79A33.88,33.88,0,0,1,578.8,483c1.72-5.1,3.41-10.1,3.81-15a19.41,19.41,0,0,0-.63-7,18,18,0,0,0-3.2-6.08c-3-3.69-7.16-6.69-11.45-9.64S558.46,439.38,554.52,435.67Z" class="cls-17"/><path d="M445.48,435.67c-3.94,3.71-8.51,6.63-12.81,9.6s-8.49,6-11.45,9.64A18,18,0,0,0,418,461a19.41,19.41,0,0,0-.63,7c.4,4.93,2.09,9.93,3.81,15a33.88,33.88,0,0,1-7.7-14.44,19.42,19.42,0,0,1,3.8-16.79,30.41,30.41,0,0,1,6.31-5.78,53.6,53.6,0,0,1,7.08-4.15C435.54,439.49,440.46,437.62,445.48,435.67Z" class="cls-17"/><circle cx="532.89" cy="398.01" r="3.33" class="cls-12"/><path d="M525.41,360.3a29.85,29.85,0,0,1,6.16-3.42,43.61,43.61,0,0,1,6.15-2.07A51.33,51.33,0,0,1,550,353.3a49.9,49.9,0,0,1,12.31,1.5,42.31,42.31,0,0,1,6.15,2.06,30.24,30.24,0,0,1,6.16,3.44,45.94,45.94,0,0,1-12.31,3.81,71.11,71.11,0,0,1-12.31,1,72,72,0,0,1-12.31-1A46.9,46.9,0,0,1,525.41,360.3Z" class="cls-17"/><path d="M474.59,360.3a46.9,46.9,0,0,1-12.31,3.8,72,72,0,0,1-12.31,1,71.11,71.11,0,0,1-12.31-1,45.94,45.94,0,0,1-12.31-3.81,30.24,30.24,0,0,1,6.16-3.44,42.31,42.31,0,0,1,6.15-2.06A49.9,49.9,0,0,1,450,353.3a51.33,51.33,0,0,1,12.31,1.51,43.61,43.61,0,0,1,6.15,2.07A29.85,29.85,0,0,1,474.59,360.3Z" class="cls-17"/><path d="M574.65,359.16a14.9,14.9,0,0,0-3.37-7.28,20.73,20.73,0,0,0-6.1-4.87,33.89,33.89,0,0,0-30.3,0,20.54,20.54,0,0,0-6.1,4.86,15,15,0,0,0-3.37,7.28,13.26,13.26,0,0,1,1.75-8.39,19.81,19.81,0,0,1,6.08-6.41,31.07,31.07,0,0,1,33.57,0,19.61,19.61,0,0,1,6.08,6.41A13.22,13.22,0,0,1,574.65,359.16Z" class="cls-17"/><polygon points="554 354.04 586.49 361.3 553.22 359.99 554 354.04" class="cls-17"/><path d="M518.05,308.72c6.85-.26,13.7-.27,20.55-.14,3.42,0,6.85.14,10.27.25s6.85.24,10.28.4l2.56.13c.9.05,1.61.07,2.74.15a28.29,28.29,0,0,1,16.7,7.11,22.64,22.64,0,0,1,2.12,2.15c.33.38.65.76.94,1.17s.61.82.83,1.16c.94,1.45,1.86,2.92,2.71,4.44a51.4,51.4,0,0,1,4.39,9.75,51,51,0,0,1-8.91-5.91c-1.37-1.08-2.67-2.23-4-3.38-.33-.33-.59-.53-.87-.77s-.56-.45-.83-.68c-.56-.45-1.14-.86-1.73-1.26a20.09,20.09,0,0,0-7.69-3.05,20.34,20.34,0,0,0-4-.27l-5,.25c-3.43.16-6.85.3-10.28.39s-6.85.22-10.27.26c-6.85.12-13.7.11-20.55-.15Z" class="cls-17"/><path d="M425.35,359.16a13.22,13.22,0,0,1,1.76-8.38,19.61,19.61,0,0,1,6.08-6.41,31.07,31.07,0,0,1,33.57,0,19.81,19.81,0,0,1,6.08,6.41,13.26,13.26,0,0,1,1.75,8.39,15,15,0,0,0-3.37-7.28,20.54,20.54,0,0,0-6.1-4.86,33.89,33.89,0,0,0-30.3,0,20.73,20.73,0,0,0-6.1,4.87A14.9,14.9,0,0,0,425.35,359.16Z" class="cls-17"/><polygon points="446.78 359.99 413.51 361.3 446 354.04 446.78 359.99" class="cls-17"/><path d="M482,320.72c-6.85.26-13.7.27-20.55.15-3.42,0-6.85-.15-10.27-.26s-6.85-.23-10.28-.39l-5-.25a20.34,20.34,0,0,0-4,.27,20.09,20.09,0,0,0-7.69,3.05c-.59.4-1.17.81-1.73,1.26-.27.23-.56.44-.83.68s-.54.44-.87.77c-1.28,1.15-2.58,2.3-4,3.38a51,51,0,0,1-8.91,5.91,51.4,51.4,0,0,1,4.39-9.75c.85-1.52,1.77-3,2.71-4.44.22-.34.54-.76.83-1.16s.61-.79.94-1.17a22.64,22.64,0,0,1,2.12-2.15,28.29,28.29,0,0,1,16.7-7.11c1.13-.08,1.84-.1,2.74-.15l2.56-.13c3.43-.16,6.85-.3,10.28-.4s6.85-.22,10.27-.25c6.85-.13,13.7-.12,20.55.14Z" class="cls-17"/><path d="M459.44,504.91c.68,4.18,3.4,7.3,6.55,9.54a38.07,38.07,0,0,0,10.56,5.1,82.68,82.68,0,0,0,46.9,0A38.13,38.13,0,0,0,534,514.45c3.16-2.24,5.87-5.36,6.56-9.54a11.67,11.67,0,0,1,0,3.18,13.37,13.37,0,0,1-.92,3.13,18.66,18.66,0,0,1-3.7,5.44,34.48,34.48,0,0,1-10.79,7.28,65.86,65.86,0,0,1-50.32,0,34.59,34.59,0,0,1-10.79-7.28,19.15,19.15,0,0,1-3.7-5.43,12.88,12.88,0,0,1-.91-3.13A11.29,11.29,0,0,1,459.44,504.91Z" class="cls-17"/><path d="M603.47,459.38v34.37a46.45,46.45,0,0,1-5,21l-41.24,81.46a46.43,46.43,0,0,1-41.42,25.46H484.19a46.43,46.43,0,0,1-41.42-25.46l-41.24-81.46a46.45,46.45,0,0,1-5-21V459.38l37.52,63.29a65.12,65.12,0,0,0,56,31.92h19.84a65.12,65.12,0,0,0,56-31.92Z" class="cls-17"/><path d="M634.32,344.28h0a16.15,16.15,0,0,1,16.15,16.15v29.79a30.85,30.85,0,0,1-30.85,30.85h0a16.15,16.15,0,0,1-16.15-16.15V375.13a30.85,30.85,0,0,1,30.85-30.85Z" class="cls-19"/><path d="M365.68,344.28h0a30.85,30.85,0,0,1,30.85,30.85v29.79a16.15,16.15,0,0,1-16.15,16.15h0a30.85,30.85,0,0,1-30.85-30.85V360.43a16.15,16.15,0,0,1,16.15-16.15Z" class="cls-20" transform="translate(746.06 765.35) rotate(-180)"/><path d="M499.36,481.79c-18.35,0-55.89-9.19-70.94-17.84,6.64.91,41.84-2.06,54.34-5.06a22.75,22.75,0,0,1,10.94.09h0A22.61,22.61,0,0,0,505,459h0a22.75,22.75,0,0,1,10.94-.09c12.5,3,48.7,7,55.34,6.06C556.25,473.6,517.71,481.79,499.36,481.79Z" class="cls-21"/><path d="M606.86,309.44h0c-12,0-21.68-12.76-21.68-28.49v-66.2L606.86,240Z" class="cls-17"/><path d="M393.14,309.44h0c12,0,21.68-12.76,21.68-28.49v-66.2L393.14,240Z" class="cls-17"/><path d="M603.47,435.67l-2.22,1.88a128,128,0,0,0-45.09,97.53v11.26l45.45-59.87Z" class="cls-15"/><path d="M396.53,435.67l2.22,1.88a128,128,0,0,1,45.09,97.53v11.26l-45.45-59.87Z" class="cls-15"/><path d="M481.7,525.94h38.89a0,0,0,0,1,0,0v0A14.57,14.57,0,0,1,506,540.51h-9.74a14.57,14.57,0,0,1-14.57-14.57v0A0,0,0,0,1,481.7,525.94Z" class="cls-17"/><line x1="500" x2="500" y1="621.64" y2="804.94" class="cls-22"/><line x1="511.51" x2="511.51" y1="644.35" y2="644.35" class="cls-23"/><line x1="511.51" x2="511.51" y1="683.88" y2="743.17" class="cls-24"/><line x1="511.51" x2="511.51" y1="762.93" y2="762.93" class="cls-23"/><line x1="556.16" x2="571.8" y1="755.74" y2="755.74" class="cls-25"/><circle cx="571.8" cy="755.74" r="7.19" class="cls-26"/></g></svg>