<svg xmlns="http://www.w3.org/2000/svg" viewBox="0 0 1000 1000"><defs><style>.cls-1,.cls-17{fill:#3d3d4f;}.cls-1,.cls-11,.cls-12,.cls-13,.cls-14,.cls-15,.cls-17,.cls-18,.cls-19,.cls-2,.cls-20,.cls-21,.cls-3,.cls-4,.cls-8{stroke:#252535;}.cls-1,.cls-11,.cls-12,.cls-13,.cls-14,.cls-15,.cls-16,.cls-17,.cls-18,.cls-19,.cls-2,.cls-20,.cls-21,.cls-22,.cls-3,.cls-4,.cls-8{stroke-linejoin:round;}.cls-1,.cls-11,.cls-14,.cls-2{stroke-width:8px;}.cls-2,.cls-4{fill:#f0d0b4;}.cls-10,.cls-14,.cls-18,.cls-3,.cls-9{fill:#252535;}.cls-3,.cls-8{stroke-width:16.84px;}.cls-17,.cls-18,.cls-19,.cls-20,.cls-21,.cls-4{stroke-width:12px;}.cls-5{fill:#cea28b;}.cls-6{fill:#f1dbcb;}.cls-7{fill:#efc7b0;}.cls-11,.cls-12,.cls-15,.cls-22,.cls-8{fill:none;}.cls-9{opacity:0.3;}.cls-12{stroke-width:14px;}.cls-13,.cls-16{fill:#fff;}.cls-13,.cls-15{stroke-width:6px;}.cls-16,.cls-22{stroke:#e8c595;}.cls-16{stroke-width:2px;}.cls-19{fill:#48485b;}.cls-20{fill:#383847;}.cls-21{fill:#2e2e3f;}.cls-22{stroke-width:4px;}</style></defs><title>sos_hayat-dehar</title><g id="sos2_Hayat_Dehar" data-name="sos2_Hayat Dehar"><path class="cls-1" d="M434.52,642.84H452a0,0,0,0,1,0,0V688.9a17.51,17.51,0,0,1-17.51,17.51h0a0,0,0,0,1,0,0V642.84A0,0,0,0,1,434.52,642.84Z" transform="translate(279.69 1465.1) rotate(-135)"/><path class="cls-2" d="M402.53,693.16h4.07A13.45,13.45,0,0,1,420,706.61v13.46a0,0,0,0,1,0,0H402.53a0,0,0,0,1,0,0v-26.9A0,0,0,0,1,402.53,693.16Z" transform="translate(202.47 1497.09) rotate(-135)"/><path class="cls-3" d="M659.32,621.64H500V234.45a20.13,20.13,0,0,1,20.13-20.13h0a91.26,91.26,0,0,1,90.28,77.86C622.64,374.55,628.61,536.85,659.32,621.64Z"/><path class="cls-3" d="M340.68,621.64H500V234.45a20.13,20.13,0,0,0-20.13-20.13h0a91.26,91.26,0,0,0-90.28,77.86C377.36,374.55,371.39,536.85,340.68,621.64Z"/><path class="cls-4" d="M471.55,665.51a17.84,17.84,0,0,1,.45-24A21.24,21.24,0,0,0,477.73,627v-41.5h44.54V627a21.23,21.23,0,0,0,5.44,14.22,18,18,0,0,1,.22,24.23L499.18,697Z"/><path class="cls-5" d="M598.85,310V476A129.4,129.4,0,0,1,567,561.09l-32.13,36.82a46.2,46.2,0,0,1-69.64,0l-32.13-36.82A129.4,129.4,0,0,1,401.15,476V310a67.9,67.9,0,0,1,67.91-67.91h61.88A67.9,67.9,0,0,1,598.85,310Z"/><path class="cls-6" d="M500,242.1V613.74a46.16,46.16,0,0,1-34.82-15.83l-32.13-36.82A129.4,129.4,0,0,1,401.15,476V310a67.9,67.9,0,0,1,67.91-67.91Z"/><path class="cls-7" d="M562.83,310V476c0,31.28-7.21,61.51-20.28,85.08l-20.42,36.82C516.55,608,508.48,613.74,500,613.74h0c-8.48,0-16.55-5.77-22.13-15.83l-20.42-36.82c-13.07-23.57-20.28-53.8-20.28-85.08V310c0-37.51,19.33-67.91,43.16-67.91h39.34C543.5,242.1,562.83,272.5,562.83,310Z"/><ellipse class="cls-7" cx="557.66" cy="456.32" rx="29.33" ry="28"/><ellipse class="cls-7" cx="440.7" cy="456.32" rx="29.33" ry="28"/><path class="cls-8" d="M598.85,310V476A129.4,129.4,0,0,1,567,561.09l-32.13,36.82A46.19,46.19,0,0,1,500,613.74h0a46.19,46.19,0,0,1-34.82-15.83l-32.13-36.82A129.4,129.4,0,0,1,401.15,476V310a67.9,67.9,0,0,1,67.91-67.91h61.88A67.9,67.9,0,0,1,598.85,310Z"/><ellipse class="cls-9" cx="500" cy="886.9" rx="199.48" ry="11.28"/><path class="cls-10" d="M514.78,465.65c3.66,3.12,7.12,6.42,10.59,9.71l1.28,1.25.65.62c.21.2.48.5.71.76a10.11,10.11,0,0,1,2,3.85,10.39,10.39,0,0,1-1.51,8.59,10.76,10.76,0,0,1-3.35,3.12,10.09,10.09,0,0,1-1,.54l-.54.22-.48.18-1.68.62-6.73,2.41-6.75,2.33c-.53.19-1.22.42-1.87.59s-1.32.32-2,.44a24.25,24.25,0,0,1-4.07.37,23.25,23.25,0,0,1-4.07-.37c-.67-.12-1.33-.26-2-.44s-1.34-.4-1.87-.58l-6.76-2.33c-2.24-.8-4.49-1.59-6.73-2.42l-1.67-.61-.48-.18-.54-.22c-.35-.18-.71-.33-1-.54a10.87,10.87,0,0,1-3.35-3.12,10.41,10.41,0,0,1-1.51-8.6,10,10,0,0,1,2-3.85,8.9,8.9,0,0,1,.71-.76l.64-.63,1.29-1.25c3.47-3.28,6.93-6.58,10.59-9.7-2.66,4-5.53,7.83-8.39,11.66l-1.09,1.43-.54.71a5.63,5.63,0,0,0-.42.61,6.79,6.79,0,0,0-.94,2.61,6.35,6.35,0,0,0,1.44,4.94,5.82,5.82,0,0,0,2,1.53c.18.1.38.16.57.25l.66.2,1.72.5c2.29.65,4.57,1.35,6.85,2l6.83,2.11c.61.19,1,.33,1.55.46a14.76,14.76,0,0,0,1.5.31,18.16,18.16,0,0,0,3,.25,17.16,17.16,0,0,0,3-.24c.51-.09,1-.19,1.5-.32s.94-.27,1.55-.46l6.83-2.11,6.85-2,1.72-.49.66-.21c.19-.08.39-.14.58-.24a6,6,0,0,0,2-1.53,6.39,6.39,0,0,0,1.44-4.95,6.79,6.79,0,0,0-.94-2.61c-.13-.21-.24-.37-.42-.62l-.55-.71-1.08-1.42C520.32,473.47,517.45,469.65,514.78,465.65Z"/><path class="cls-10" d="M512,456.68a77.9,77.9,0,0,0-3.46-16.81,30.57,30.57,0,0,0-3.62-7.44c-1.48-2.2-3.57-4-5.71-4s-4.23,1.79-5.72,4a30.72,30.72,0,0,0-3.61,7.44,77.9,77.9,0,0,0-3.46,16.81,48.78,48.78,0,0,1,1.22-17.49,29.16,29.16,0,0,1,3.49-8.34,14.17,14.17,0,0,1,3.19-3.58,7.44,7.44,0,0,1,9.77,0,14.17,14.17,0,0,1,3.19,3.58,29.28,29.28,0,0,1,3.49,8.34A49.24,49.24,0,0,1,512,456.68Z"/><path class="cls-10" d="M522.27,427.78a29.56,29.56,0,0,1,10.14-4.68,40,40,0,0,1,10.14-1.27,41,41,0,0,1,10.14,1.29,29.87,29.87,0,0,1,10.14,4.66v.7l-5.07.17-5.07.06-10.14.12-10.14-.12-5.07-.06-5.07-.17Z"/><path class="cls-10" d="M562.83,428.13a9.58,9.58,0,0,0-3-5.39,17.75,17.75,0,0,0-5.19-3.23,26.86,26.86,0,0,0-5.93-1.7,34.44,34.44,0,0,0-6.17-.54,32.16,32.16,0,0,0-12.1,2.24,17.88,17.88,0,0,0-5.19,3.23,9.67,9.67,0,0,0-3,5.39,8.9,8.9,0,0,1,1.89-6.36,16.55,16.55,0,0,1,5.27-4.36,29,29,0,0,1,26.24,0,16.66,16.66,0,0,1,5.27,4.36A8.9,8.9,0,0,1,562.83,428.13Z"/><path class="cls-10" d="M522.66,381.06l40.44,6.17.18,0a1.82,1.82,0,0,1,1.27.85L574.14,404l-1.39,1L561.1,390.52l1.45.89L521.89,387Z"/><polygon class="cls-10" points="552.81 425.64 576.75 429.13 552.56 428.63 552.81 425.64"/><path class="cls-10" d="M477.73,428.48l-5.07.17-5.07.06-10.14.12-10.14-.12-5.07-.06-5.07-.17v-.7a29.87,29.87,0,0,1,10.14-4.66,41,41,0,0,1,10.14-1.29,40,40,0,0,1,10.14,1.27,29.56,29.56,0,0,1,10.14,4.68Z"/><path class="cls-10" d="M437.17,428.13a8.9,8.9,0,0,1,1.89-6.36,16.66,16.66,0,0,1,5.27-4.36,29,29,0,0,1,26.24,0,16.55,16.55,0,0,1,5.27,4.36,8.9,8.9,0,0,1,1.89,6.36,9.67,9.67,0,0,0-3-5.39,17.88,17.88,0,0,0-5.19-3.23,32.16,32.16,0,0,0-12.1-2.24,34.44,34.44,0,0,0-6.17.54,26.86,26.86,0,0,0-5.93,1.7,17.75,17.75,0,0,0-5.19,3.23A9.58,9.58,0,0,0,437.17,428.13Z"/><path class="cls-10" d="M478.11,392.29l-40.66,4.4,1.45-.88-11.66,14.47-1.38-1,9.59-15.91a1.81,1.81,0,0,1,1.27-.86l.18,0,40.44-6.17Z"/><polygon class="cls-10" points="447.44 428.63 423.25 429.13 447.19 425.64 447.44 428.63"/><path class="cls-11" d="M565.07,465.65H544.55a30.63,30.63,0,0,1-28.75-20.09l-8-21.76a14.22,14.22,0,0,1,10.92-18.9l89.63-15.58-13.63,53.29A30.64,30.64,0,0,1,565.07,465.65Z"/><path class="cls-11" d="M433.28,465.65H453.8a30.64,30.64,0,0,0,28.76-20.09l8-21.76a14.22,14.22,0,0,0-10.92-18.9L390,389.32l13.62,53.29A30.64,30.64,0,0,0,433.28,465.65Z"/><line class="cls-12" x1="492.69" y1="422.77" x2="507.31" y2="422.77"/><path class="cls-13" d="M500,534.72H486.64A18.86,18.86,0,0,1,472.09,528l-16.8-20.35,35,6.72a51.67,51.67,0,0,0,19.44,0l35-6.72L527.91,528a18.86,18.86,0,0,1-14.55,6.73Z"/><path class="cls-10" d="M526.92,477.17l14.48,8.91,7.24,4.45c.6.37,1.2.73,1.82,1.18.3.21.62.41.91.64l.85.73a19.76,19.76,0,0,1,1.57,1.6,21.06,21.06,0,0,1,1.31,1.79,16.52,16.52,0,0,1,.65,16.75c-.18.32-.33.65-.53.95l-.62.89c-.41.61-.87,1.13-1.3,1.7l-2.62,3.34-5.24,6.69,4.94-6.91,2.47-3.46c.4-.58.85-1.14,1.21-1.74l.55-.87c.18-.3.32-.62.47-.93a15.39,15.39,0,0,0-1.22-15.57c-.38-.56-.84-1.06-1.27-1.58a17.27,17.27,0,0,0-1.47-1.37l-.79-.62c-.27-.2-.57-.36-.85-.54-.54-.37-1.17-.71-1.79-1.05L540.26,488l-14.85-8.26Z"/><path class="cls-10" d="M457.32,499.77a10.82,10.82,0,0,0-6.48,2.14,9.13,9.13,0,0,0-2.69,11.29A10.74,10.74,0,0,0,453,518a8.48,8.48,0,0,1-6.82-3.6,9.86,9.86,0,0,1,3.47-14.52A8.5,8.5,0,0,1,457.32,499.77Z"/><path class="cls-5" d="M466.09,561.14c1.28,9.61,4.9,18.61,10.9,25.44a34.34,34.34,0,0,0,10.45,8.19,27.67,27.67,0,0,0,25.12,0A34.46,34.46,0,0,0,523,586.58c6-6.84,9.61-15.83,10.9-25.44a40.26,40.26,0,0,1-7.2,28.37,35.45,35.45,0,0,1-11.5,10.29c-.29.16-.56.35-.86.49l-.9.41-1.81.8a14.79,14.79,0,0,1-1.87.66l-1.89.59c-1.28.33-2.6.51-3.91.76s-2.65.19-4,.27a31.61,31.61,0,0,1-15.2-4,35.48,35.48,0,0,1-11.5-10.3A40.28,40.28,0,0,1,466.09,561.14Z"/><path class="cls-3" d="M500,242.1s98.85,56,98.85,141.93V272.78l-57.17-44.59Z"/><path class="cls-3" d="M500,242.1s-98.85,56-98.85,141.93V272.78l57.17-44.59Z"/><polygon class="cls-7" points="500.4 214.32 505.41 264.85 494.39 264.85 499.4 214.32 500.4 214.32"/><path class="cls-14" d="M548,642.84h0a17.51,17.51,0,0,1,17.51,17.51v46.06a0,0,0,0,1,0,0H548a0,0,0,0,1,0,0V642.84A0,0,0,0,1,548,642.84Z" transform="translate(-313.97 591.26) rotate(-45)"/><path class="cls-2" d="M580,693.16h17.51a0,0,0,0,1,0,0v13.46A13.45,13.45,0,0,1,584,720.06H580a0,0,0,0,1,0,0v-26.9A0,0,0,0,1,580,693.16Z" transform="translate(-327.22 623.24) rotate(-45)"/><line class="cls-15" x1="580.26" y1="710.54" x2="592.64" y2="698.16"/><circle class="cls-16" cx="593.85" cy="696.95" r="4.05"/><path class="cls-17" d="M479.61,644.69,500,670.1v59H468.67L467,697l-8-9.36a23.26,23.26,0,0,1-1.52-28.22l10-14.68Z"/><path class="cls-18" d="M520.39,644.69,500,670.1v59h31.33L533,697l8-9.36a23.26,23.26,0,0,0,1.52-28.22l-10-14.68Z"/><path class="cls-19" d="M498.9,766.84H464.14a64,64,0,0,0,3.06,59.28L499.07,880Z"/><path class="cls-20" d="M499.25,766.84H534A64,64,0,0,1,531,826.12L499.07,880Z"/><path class="cls-21" d="M433.21,803.14H500V726.29h-9.46c-19.58,0-37,13-43.09,32.23Z"/><path class="cls-18" d="M566.79,803.14H500V726.29h9.46c19.58,0,36.95,13,43.09,32.23Z"/><line class="cls-22" x1="511.97" y1="766.67" x2="511.97" y2="784.04"/><line class="cls-22" x1="488.03" y1="766.67" x2="488.03" y2="784.04"/></g></svg>