<svg xmlns="http://www.w3.org/2000/svg" viewBox="0 0 416.57 789.7"><defs><style>.cls-1{fill:#48434f;}.cls-1,.cls-10,.cls-11,.cls-15,.cls-16,.cls-17,.cls-2,.cls-23,.cls-25,.cls-27,.cls-28,.cls-3,.cls-30,.cls-4,.cls-5,.cls-6,.cls-7,.cls-8,.cls-9{stroke:#252535;}.cls-1,.cls-10,.cls-11,.cls-13,.cls-15,.cls-16,.cls-17,.cls-2,.cls-23,.cls-25,.cls-27,.cls-28,.cls-29,.cls-3,.cls-30,.cls-4,.cls-5,.cls-6,.cls-7,.cls-8,.cls-9{stroke-linejoin:round;}.cls-1,.cls-11,.cls-13,.cls-2,.cls-3,.cls-30{stroke-width:12px;}.cls-2,.cls-32{fill:#e1cbe7;}.cls-21,.cls-3{fill:#edcdb1;}.cls-4{fill:#e75a24;}.cls-10,.cls-29,.cls-4,.cls-5,.cls-6,.cls-7,.cls-8,.cls-9{stroke-linecap:round;}.cls-25,.cls-4,.cls-6,.cls-7,.cls-9{stroke-width:5px;}.cls-5{fill:#a27b4e;}.cls-5,.cls-8{stroke-width:8px;}.cls-6{fill:#82bc3f;}.cls-15,.cls-20,.cls-22,.cls-30,.cls-7{fill:#534741;}.cls-8{fill:#d0a775;}.cls-9{fill:#f1a63b;}.cls-10,.cls-13,.cls-23,.cls-27,.cls-29{fill:none;}.cls-10,.cls-29{stroke-width:3px;}.cls-11{fill:#696572;}.cls-12,.cls-14,.cls-28{fill:#252535;}.cls-12,.cls-20{opacity:0.4;}.cls-13{stroke:#826239;}.cls-15,.cls-16,.cls-17,.cls-23{stroke-width:16.84px;}.cls-16,.cls-18{fill:#dcaf88;}.cls-17,.cls-19{fill:#f2ddca;}.cls-24{fill:#55758b;}.cls-25,.cls-26{fill:#fff;}.cls-26{opacity:0.3;}.cls-27,.cls-28{stroke-width:7px;}.cls-29{stroke:#fff;}.cls-31{fill:#83526e;}</style></defs><title>thierry</title><g id="Layer_2" data-name="Layer 2"><g id="thierry-rassam"><path class="cls-1" d="M268.33,485.83h23.42a0,0,0,0,1,0,0V563a23.42,23.42,0,0,1-23.42,23.42h0a0,0,0,0,1,0,0V485.83A0,0,0,0,1,268.33,485.83Z" transform="translate(816.18 256.11) rotate(90)"/><rect class="cls-2" x="318.64" y="524.44" width="23.42" height="23.42" transform="translate(866.49 205.8) rotate(90)"/><path class="cls-3" d="M341.72,524.77h.68a22.74,22.74,0,0,1,22.74,22.74v0a0,0,0,0,1,0,0H341.72a0,0,0,0,1,0,0V524.77A0,0,0,0,1,341.72,524.77Z" transform="translate(889.58 182.71) rotate(90)"/><rect class="cls-4" x="324.65" y="461.31" width="80.31" height="11.46" rx="5.19"/><path class="cls-5" d="M324.65,496.41H405a0,0,0,0,1,0,0v6a19.64,19.64,0,0,1-19.64,19.64h-41a19.64,19.64,0,0,1-19.64-19.64v-6A0,0,0,0,1,324.65,496.41Z"/><path class="cls-6" d="M388.12,496.41a11.66,11.66,0,0,0,23.31,0Z"/><path class="cls-6" d="M341.49,496.41a11.66,11.66,0,0,1-23.31,0Z"/><path class="cls-6" d="M353.15,496.41a11.66,11.66,0,0,0,23.31,0Z"/><path class="cls-6" d="M376.46,496.41a11.66,11.66,0,0,0,23.31,0Z"/><path class="cls-6" d="M353.15,496.41a11.66,11.66,0,0,1-23.31,0Z"/><path class="cls-7" d="M402.24,496.41H327.37a6.91,6.91,0,0,1,0-13.82h74.87a6.91,6.91,0,0,1,0,13.82Z"/><path class="cls-8" d="M350.33,433.46h28.94a27.86,27.86,0,0,1,27.86,27.86v0a0,0,0,0,1,0,0H322.48a0,0,0,0,1,0,0v0A27.86,27.86,0,0,1,350.33,433.46Z"/><rect class="cls-9" x="315.54" y="472.77" width="98.52" height="9.82"/><line class="cls-10" x1="350.33" y1="433.46" x2="350.33" y2="442.6"/><line class="cls-10" x1="379.27" y1="433.46" x2="379.27" y2="442.6"/><line class="cls-10" x1="364.8" y1="433.46" x2="364.8" y2="442.6"/><polygon class="cls-2" points="238.12 519.97 200.75 485.28 163.38 519.97 163.38 667.92 238.12 667.92 238.12 519.97"/><polygon class="cls-1" points="220.74 755.03 198.4 755.03 198.4 667.92 225.74 667.92 220.74 755.03"/><polygon class="cls-11" points="176.07 755.03 198.4 755.03 198.4 667.92 171.07 667.92 176.07 755.03"/><ellipse class="cls-12" cx="199.48" cy="778.42" rx="199.48" ry="11.28"/><line class="cls-13" x1="198.4" y1="770.28" x2="144.34" y2="770.28"/><line class="cls-13" x1="198.4" y1="770.28" x2="252.47" y2="770.28"/><path class="cls-1" d="M258.06,677.92H246.79a22.27,22.27,0,0,1-22.27-22.27V508.84L258.06,518Z"/><path class="cls-11" d="M141,677.92h11.27a22.27,22.27,0,0,0,22.27-22.27V508.84L141,518Z"/><path class="cls-11" d="M117.54,523.95H141a0,0,0,0,1,0,0v77.2a23.42,23.42,0,0,1-23.42,23.42h0a0,0,0,0,1,0,0V523.95A0,0,0,0,1,117.54,523.95Z" transform="translate(258.5 1148.52) rotate(-180)"/><rect class="cls-2" x="117.54" y="612.86" width="23.42" height="23.42" transform="translate(258.5 1249.14) rotate(-180)"/><path class="cls-3" d="M117.54,636.28h.68A22.74,22.74,0,0,1,141,659v0a0,0,0,0,1,0,0H117.54a0,0,0,0,1,0,0V636.28A0,0,0,0,1,117.54,636.28Z" transform="translate(258.5 1295.3) rotate(-180)"/><path class="cls-14" d="M149.38,0A76.59,76.59,0,0,0,128,21.05,74.65,74.65,0,0,0,116.67,48a72.45,72.45,0,0,0-.11,28.37,70.19,70.19,0,0,0,10.51,25.47l-14.67,8.26A85,85,0,0,1,104,77.85a82.87,82.87,0,0,1,4.54-32.15,81,81,0,0,1,16.12-27.25A78.63,78.63,0,0,1,149.38,0Z"/><path class="cls-15" d="M83.48,274.69h116V87.25l-101,4.89a26.51,26.51,0,0,0-25.17,28.23Z"/><path class="cls-15" d="M315.48,274.69h-116V87.25l101,4.89a26.51,26.51,0,0,1,25.17,28.23Z"/><path class="cls-15" d="M167.84,27.93h10.72a128.7,128.7,0,0,1,128.7,128.7v51.76a0,0,0,0,1,0,0H118.59a0,0,0,0,1,0,0V77.18a49.25,49.25,0,0,1,49.25-49.25Z" transform="translate(17.15 -26.65) rotate(7.46)"/><path class="cls-16" d="M358.48,259.54l-43,14v84.25H331.8a44.68,44.68,0,0,0,44.68-44.68V272.62A13.75,13.75,0,0,0,358.48,259.54Z"/><path class="cls-17" d="M40.48,259.54l43,14v84.25H67.16a44.67,44.67,0,0,1-44.68-44.68V272.62A13.75,13.75,0,0,1,40.48,259.54Z"/><path class="cls-18" d="M315.48,183.37V409a17.25,17.25,0,0,1-4.92,12l-52.5,53.59-33.54,34.23A17.23,17.23,0,0,1,212.21,514H186.75a17.23,17.23,0,0,1-12.31-5.17L140.9,474.61,88.4,421a17.25,17.25,0,0,1-4.92-12V183.37a45.85,45.85,0,0,1,45.85-45.85h140.3A45.85,45.85,0,0,1,315.48,183.37Z"/><path class="cls-19" d="M199.51,137.52V514H186.75a17.23,17.23,0,0,1-12.31-5.17L140.9,474.61,88.4,421a17.25,17.25,0,0,1-4.92-12V183.37a45.85,45.85,0,0,1,45.85-45.85Z"/><polygon class="cls-20" points="240.89 474.61 316.98 363.17 315.48 418.61 240.89 492.13 240.89 474.61"/><polygon class="cls-20" points="158.07 474.61 81.98 363.17 83.48 418.61 158.07 492.13 158.07 474.61"/><circle class="cls-21" cx="269.41" cy="332.18" r="38.9"/><circle class="cls-21" cx="129.55" cy="332.18" r="38.9"/><path class="cls-21" d="M281.48,183.37V409A21.44,21.44,0,0,1,278,421l-37.11,53.59-23.71,34.23c-2.29,3.31-5.43,5.17-8.7,5.17h-18c-3.27,0-6.41-1.86-8.7-5.17l-23.71-34.23L121,421a21.44,21.44,0,0,1-3.48-12V183.37c0-25.32,14.51-45.85,32.41-45.85h99.18C267,137.52,281.48,158.05,281.48,183.37Z"/><rect class="cls-22" x="189.15" y="441.95" width="20.67" height="32.66"/><path class="cls-22" d="M258.06,474.61l-33.54,34.23A17.23,17.23,0,0,1,212.21,514H186.75a17.23,17.23,0,0,1-12.31-5.17L140.9,474.61Z"/><path class="cls-23" d="M315.48,183.37V409a17.25,17.25,0,0,1-4.92,12l-52.5,53.59-33.54,34.23A17.23,17.23,0,0,1,212.21,514H186.75a17.23,17.23,0,0,1-12.31-5.17L140.9,474.61,88.4,421a17.25,17.25,0,0,1-4.92-12V183.37a45.85,45.85,0,0,1,45.85-45.85h140.3A45.85,45.85,0,0,1,315.48,183.37Z"/><path class="cls-22" d="M260.65,390.55l-55.38,12.73a26,26,0,0,1-11.58,0l-55.36-12.73a4,4,0,0,1-1.5-7.05,11.54,11.54,0,0,1,7.7-2.39l54.95,3,55-3a11.63,11.63,0,0,1,7.94,2.57A4,4,0,0,1,260.65,390.55Z"/><path class="cls-14" d="M228.41,372.9a12.78,12.78,0,0,0,4.94-4.79,10.09,10.09,0,0,0,1.28-4.94,10,10,0,0,0-1.29-4.93,12.9,12.9,0,0,0-4.93-4.8c2.57-1.51,6.16-1,8.82.91a11,11,0,0,1,0,17.64C234.57,373.93,231,374.4,228.41,372.9Z"/><path class="cls-14" d="M170.55,372.9c-2.57,1.5-6.16,1-8.82-.91a11,11,0,0,1,0-17.64c2.66-2,6.25-2.42,8.82-.91a12.9,12.9,0,0,0-4.93,4.8,10.05,10.05,0,0,0,0,9.87A12.78,12.78,0,0,0,170.55,372.9Z"/><path class="cls-14" d="M218.15,341.28a138.53,138.53,0,0,0-4.79-26.79,55.26,55.26,0,0,0-5.15-12.19,21.79,21.79,0,0,0-3.88-4.89,6.58,6.58,0,0,0-9.7,0,21.2,21.2,0,0,0-3.87,4.88,54.32,54.32,0,0,0-5.15,12.19,137.79,137.79,0,0,0-4.8,26.79,88.19,88.19,0,0,1,1.78-27.59,56,56,0,0,1,2-6.76,44.64,44.64,0,0,1,2.92-6.53,23.9,23.9,0,0,1,4.54-5.89,10.22,10.22,0,0,1,14.91,0,23.42,23.42,0,0,1,4.54,5.89,45.12,45.12,0,0,1,2.92,6.53,54.28,54.28,0,0,1,2,6.76A88.19,88.19,0,0,1,218.15,341.28Z"/><path class="cls-24" d="M226.41,289.19a35.74,35.74,0,0,1,11.43-4.7,50.63,50.63,0,0,1,11.44-1.3,50,50,0,0,1,11.43,1.28,35.49,35.49,0,0,1,11.44,4.72,35.3,35.3,0,0,1-11.44,4.73,49.45,49.45,0,0,1-11.43,1.27,50.06,50.06,0,0,1-11.44-1.29A35.54,35.54,0,0,1,226.41,289.19Z"/><path class="cls-22" d="M216.77,273.39c3.35-1.63,6.57-3,9.9-4.38s6.66-2.61,10-3.79c6.75-2.37,13.61-4.49,20.58-6.25s14-3.33,21.17-4.47,14.4-2,21.7-2.55v12.83c-6.88.1-13.75.32-20.6,1s-13.68,1.64-20.45,2.9-13.49,2.81-20.13,4.65c-3.32.91-6.61,1.92-9.88,3s-6.54,2.24-9.57,3.48Z"/><path class="cls-22" d="M178.51,279.25c-2.65-1.94-5.58-3.88-8.45-5.71s-5.85-3.6-8.83-5.28c-6-3.39-12.06-6.54-18.27-9.36s-12.49-5.44-18.89-7.67-12.84-4.15-19.31-5.87l4-12.19c6.72,2.31,13.41,4.74,19.88,7.65s12.86,6,19.09,9.39,12.28,7.08,18.19,11c3,2,5.86,4,8.73,6.1s5.64,4.25,8.47,6.66Z"/><path class="cls-24" d="M172.55,288.61a35.54,35.54,0,0,1-11.43,4.71,51.72,51.72,0,0,1-22.87,0,35.21,35.21,0,0,1-11.44-4.73,35.4,35.4,0,0,1,11.44-4.72,50,50,0,0,1,11.43-1.28,50.7,50.7,0,0,1,11.44,1.3A35.51,35.51,0,0,1,172.55,288.61Z"/><path class="cls-14" d="M226.41,281.47a65.57,65.57,0,0,1,15-1.79,72.75,72.75,0,0,1,15.12,1.39,47.82,47.82,0,0,1,14.41,5.29,25.17,25.17,0,0,1,10.56,10.92,35.56,35.56,0,0,0-12-8.12A70.74,70.74,0,0,0,255.7,285c-4.74-1-9.58-1.65-14.46-2.17S231.42,281.89,226.41,281.47Z"/><path class="cls-14" d="M172.55,281.47c-5,.42-9.94.8-14.83,1.35S148,284,143.25,285a70.85,70.85,0,0,0-13.79,4.17,35.46,35.46,0,0,0-12,8.12A25.2,25.2,0,0,1,128,286.36a48,48,0,0,1,14.42-5.29,72.69,72.69,0,0,1,15.12-1.39A65.64,65.64,0,0,1,172.55,281.47Z"/><path class="cls-14" d="M253.94,360c5.79,4.22,11.3,8.73,16.72,13.33,2.74,2.28,5.38,4.66,8.06,7l1,.89.49.45.53.52a18.19,18.19,0,0,1,1.95,2.25,17.62,17.62,0,0,1,2.12,17,18.93,18.93,0,0,1-3.08,5q-1.74,2-3.53,4c-4.73,5.32-9.57,10.54-14.72,15.51,3.86-6,8-11.8,12.31-17.48,1.06-1.43,2.13-2.85,3.23-4.25a15.37,15.37,0,0,0,2.25-4.15,14.32,14.32,0,0,0,.25-9.21,14.05,14.05,0,0,0-2-4.21A14.3,14.3,0,0,0,278,385l-.41-.43-.48-.46-1-.92c-2.54-2.49-5.12-4.94-7.61-7.48C263.53,370.62,258.6,365.48,253.94,360Z"/><path class="cls-14" d="M157.48,418.61A16.7,16.7,0,0,0,164,429.07,37.55,37.55,0,0,0,174.84,435a78,78,0,0,0,49.27,0A37.42,37.42,0,0,0,235,429.06a16.74,16.74,0,0,0,6.5-10.45,13.25,13.25,0,0,1-.82,6.67,19.59,19.59,0,0,1-3.62,5.89A34.77,34.77,0,0,1,226,439.29a64.77,64.77,0,0,1-53,0,34.62,34.62,0,0,1-11.07-8.12,19.83,19.83,0,0,1-3.62-5.88A13.25,13.25,0,0,1,157.48,418.61Z"/><path class="cls-25" d="M170.42,419.55,132.81,395l52.62,14a48.05,48.05,0,0,0,28.1,0l52.62-14-37.61,24.51C210.57,432.21,188.39,432.21,170.42,419.55Z"/><path class="cls-26" d="M305.81,306v5a30.3,30.3,0,0,1-30.3,30.3h-3.36V275.69h3.36A30.29,30.29,0,0,1,305.81,306Z"/><path class="cls-26" d="M93.15,306v5a30.3,30.3,0,0,0,30.3,30.3h3.36V275.69h-3.36A30.29,30.29,0,0,0,93.15,306Z"/><path class="cls-27" d="M305.81,306v5a30.3,30.3,0,0,1-30.3,30.3H245.45a30.3,30.3,0,0,1-30.3-30.3v-5a30.29,30.29,0,0,1,30.3-30.3h30.06A30.29,30.29,0,0,1,305.81,306Z"/><rect class="cls-27" x="93.15" y="275.69" width="90.67" height="65.59" rx="30.3" transform="translate(276.96 616.97) rotate(-180)"/><line class="cls-27" x1="180.19" y1="288.95" x2="218.77" y2="288.95"/><path class="cls-28" d="M71.48,275.69v12.78l23.27,7.81c3.12-9.88,12.92-20.59,27.47-20.59Z"/><path class="cls-28" d="M327.48,275.69v12.78l-23.27,7.81c-3.12-9.88-12.93-20.59-27.47-20.59Z"/><line class="cls-29" x1="307.98" y1="284.61" x2="316.98" y2="284.61"/><line class="cls-29" x1="90.98" y1="284.61" x2="81.98" y2="284.61"/><path class="cls-14" d="M134.81,376.85a18.84,18.84,0,0,0-9.65,6.35,15.56,15.56,0,0,0,0,19.3,18.87,18.87,0,0,0,9.64,6.35,14.26,14.26,0,0,1-13-3,17,17,0,0,1,0-25.95,15.34,15.34,0,0,1,6.29-3.16A12.9,12.9,0,0,1,134.81,376.85Z"/><path class="cls-27" d="M170.55,363.17l15.35,15.35a19.21,19.21,0,0,0,27.16,0l15.35-15.35"/><path class="cls-30" d="M149.62,128c0,11,22.28,26,49.76,26s49.77-15,49.77-26"/><polygon class="cls-31" points="199.66 542.05 211.42 644.01 198.41 657.02 185.39 644.01 197.16 542.05 185.39 530.28 211.42 530.28 199.66 542.05"/><path class="cls-32" d="M235.27,556.19a9.64,9.64,0,0,1,2.93-1.36,12.31,12.31,0,0,1,2.92-.45,9.41,9.41,0,0,1,2.93.31,7.58,7.58,0,0,1,2.93,1.5v4.18H235.27Z"/></g></g></svg>