<svg xmlns="http://www.w3.org/2000/svg" width="110" height="114" viewBox="0 0 110 114"><defs><style>.a{fill:#13152b;opacity:0.2;}.b{fill:#eb991a;}.c{fill:#fdb128;}.d{fill:#101424;}.e{fill:#2d335a;}.f{fill:#1b1e3c;}.g{fill:#fff;}.h{fill:#fb5234;}.i{fill:#26bb50;}</style></defs><g transform="translate(-585 -305)"><ellipse class="a" cx="55" cy="3" rx="55" ry="3" transform="translate(585 413)"/><g transform="translate(585 305)"><rect class="b" width="15.1" height="10.4" transform="translate(56.5 93.3)"/><path class="b" d="M56.5,110.5H78.9a6.914,6.914,0,0,0-6.9-6.9H56.5Z"/><rect class="c" width="15.1" height="10.4" transform="translate(33.6 93.3)"/><path class="d" d="M92,78.2H70.5A17.775,17.775,0,0,1,88.3,60.4h21.5A17.775,17.775,0,0,1,92,78.2Z"/><path class="c" d="M33.6,110.5H56a6.914,6.914,0,0,0-6.9-6.9H33.6Z"/><path class="e" d="M69.2,53H25.1a6.594,6.594,0,0,0-6.6,6.6V87.1a6.594,6.594,0,0,0,6.6,6.6H69.2a6.594,6.594,0,0,0,6.6-6.6V59.6A6.594,6.594,0,0,0,69.2,53Z"/><path class="f" d="M87.3,59.6V87.1a6.594,6.594,0,0,1-6.6,6.6H36.6A6.594,6.594,0,0,1,30,87.1V59.6a6.719,6.719,0,0,1,1.6-4.3A6.64,6.64,0,0,1,36.7,53H80.8A6.448,6.448,0,0,1,87.3,59.6Z"/><path class="d" d="M87.3,59.6v16L31.6,55.3,25.2,53H80.8A6.448,6.448,0,0,1,87.3,59.6Z"/><path class="g" d="M43,70.8l-3.6,1.9.7-4-2.8-2.8,3.9-.6L43,61.8l1.8,3.5,3.9.6-2.8,2.8.6,4Z"/><path class="e" d="M11.3,47.9V16a5.121,5.121,0,0,1,5.1-5.1h70A5.121,5.121,0,0,1,91.5,16V47.9A5.121,5.121,0,0,1,86.4,53h-70A5.121,5.121,0,0,1,11.3,47.9Z"/><path class="f" d="M21.4,47.9V16a5.121,5.121,0,0,1,5.1-5.1h70a5.121,5.121,0,0,1,5.1,5.1V47.9A5.121,5.121,0,0,1,96.5,53h-70A5.058,5.058,0,0,1,21.4,47.9Z"/><circle class="d" cx="9.1" cy="9.1" r="9.1" transform="translate(36.5 24.9)"/><circle class="d" cx="9.1" cy="9.1" r="9.1" transform="translate(68.2 24.9)"/><circle class="h" cx="9.1" cy="9.1" r="9.1" transform="translate(36.5 22.9)"/><circle class="i" cx="9.1" cy="9.1" r="9.1" transform="translate(68.2 22.9)"/><path class="b" d="M72.6,48.7a2.732,2.732,0,0,1-.8,1.9l-8.5,8.5a2.656,2.656,0,0,1-3.8,0L51,50.6a2.656,2.656,0,0,1,0-3.8l.8-.8,7.6-7.7a2.656,2.656,0,0,1,3.8,0L70.8,46l.8.8A2.285,2.285,0,0,1,72.6,48.7Z"/><path class="c" d="M71,45.9l-7.6,7.6a2.656,2.656,0,0,1-3.8,0L52,45.9l7.6-7.7a2.656,2.656,0,0,1,3.8,0Z"/><circle class="f" cx="3.7" cy="3.7" r="3.7" transform="translate(79.1 28.3)"/><circle class="f" cx="3.7" cy="3.7" r="3.7" transform="translate(47.5 28.3)"/><path class="f" d="M21.4,0H48.3A13.87,13.87,0,0,1,62.2,13.9h-27A13.849,13.849,0,0,1,21.4,0Z"/><path class="f" d="M101.5,0H74.6A13.87,13.87,0,0,0,60.7,13.9H87.6A13.934,13.934,0,0,0,101.5,0Z"/><path class="g" d="M21.4,0Q31.6,7.35,41.5,15c3.3,2.5,6.6,5.1,9.9,7.7l4.9,3.9a8.411,8.411,0,0,0,10.4,0l4.9-3.9c3.3-2.6,6.6-5.1,9.9-7.7C88,9.9,94.7,4.9,101.5,0,95.2,5.5,88.9,10.9,82.4,16.2c-3.2,2.7-6.5,5.3-9.7,7.9L67.8,28a10.649,10.649,0,0,1-6.4,2.3A10.049,10.049,0,0,1,55,28l-4.9-3.9c-3.2-2.6-6.5-5.3-9.7-7.9C34,10.9,27.6,5.5,21.4,0Z"/><path class="f" d="M17.8,78.2H39.3A17.775,17.775,0,0,0,21.5,60.4H0A17.712,17.712,0,0,0,17.8,78.2Z"/></g></g></svg>