<svg xmlns="http://www.w3.org/2000/svg" width="90.2" height="60" viewBox="0 0 90.2 60"><defs><style>.a{fill:#2d335a}.b{fill:#1b1e3c}.c{fill:#101424}.d{fill:#fb5234}.e{fill:#26bb50}.f{fill:#eb991a}.g{fill:#fdb128}.h{fill:#fff}</style></defs><g transform="translate(0 -13.7)"><path d="M0,61.6V29.8a5.121,5.121,0,0,1,5.1-5.1h70a5.121,5.121,0,0,1,5.1,5.1V61.7a5.121,5.121,0,0,1-5.1,5.1H5.1A5.276,5.276,0,0,1,0,61.6Z" class="a"/><path d="M10,61.6V29.8a5.121,5.121,0,0,1,5.1-5.1h70a5.121,5.121,0,0,1,5.1,5.1V61.7a5.121,5.121,0,0,1-5.1,5.1h-70A5.276,5.276,0,0,1,10,61.6Z" class="b"/><circle cx="9.1" cy="9.1" r="9.1" class="c" transform="translate(25.1 38.6)"/><circle cx="9.1" cy="9.1" r="9.1" class="c" transform="translate(56.9 38.6)"/><circle cx="9.1" cy="9.1" r="9.1" class="d" transform="translate(25.1 36.6)"/><circle cx="9.1" cy="9.1" r="9.1" class="e" transform="translate(56.9 36.6)"/><path d="M61.3,62.4a2.732,2.732,0,0,1-.8,1.9L52,72.9a2.656,2.656,0,0,1-3.8,0l-8.5-8.5a2.656,2.656,0,0,1,0-3.8l.8-.8,7.6-7.7a2.656,2.656,0,0,1,3.8,0l7.6,7.7.8.8A2.006,2.006,0,0,1,61.3,62.4Z" class="f"/><path d="M59.7,59.7,52,67.3a2.656,2.656,0,0,1-3.8,0l-7.6-7.6L48.2,52A2.656,2.656,0,0,1,52,52Z" class="g"/><circle cx="3.7" cy="3.7" r="3.7" class="b" transform="translate(67.8 42)"/><circle cx="3.7" cy="3.7" r="3.7" class="b" transform="translate(36.2 42)"/><path d="M10,13.7H36.9A13.87,13.87,0,0,1,50.8,27.6H23.9A13.934,13.934,0,0,1,10,13.7Z" class="b"/><path d="M90.2,13.7H63.3A13.87,13.87,0,0,0,49.4,27.6H76.3A13.934,13.934,0,0,0,90.2,13.7Z" class="b"/><path d="M10,13.7q10.2,7.35,20.1,15c3.3,2.5,6.6,5.1,9.9,7.7l4.9,3.9a8.411,8.411,0,0,0,10.4,0l4.9-3.9c3.3-2.6,6.6-5.1,9.9-7.7q9.9-7.65,20.1-15c-6.3,5.6-12.7,11-19.1,16.3-3.2,2.7-6.5,5.3-9.7,7.9l-4.9,3.9a10.649,10.649,0,0,1-6.4,2.3,10.049,10.049,0,0,1-6.4-2.3l-4.9-3.9c-3.2-2.6-6.5-5.3-9.7-7.9C22.7,24.7,16.3,19.2,10,13.7Z" class="h"/></g></svg>