<svg xmlns="http://www.w3.org/2000/svg" width="291.758" height="42" viewBox="0 0 291.758 42"><defs><style>.a{fill:#fff;}.b{fill:#1b1e3c;}.c{fill:#fb5234;}.d{fill:#fdb128;}.e{fill:#26bb50;}</style></defs><g transform="translate(-153.45 -16)"><path class="a" d="M5.5-6.468V0H1.44V-17.484H7.128a11.672,11.672,0,0,1,3.234.39,6.072,6.072,0,0,1,2.184,1.086,4.11,4.11,0,0,1,1.23,1.644A5.446,5.446,0,0,1,14.16-12.3a5.541,5.541,0,0,1-.228,1.608,4.869,4.869,0,0,1-.678,1.4,5.247,5.247,0,0,1-1.1,1.146,5.862,5.862,0,0,1-1.506.828,3.812,3.812,0,0,1,.762.5,3,3,0,0,1,.618.732L15.744,0H12.072a1.558,1.558,0,0,1-1.464-.768L7.7-5.844a1.222,1.222,0,0,0-.45-.48,1.506,1.506,0,0,0-.726-.144Zm0-2.8H7.128a4.173,4.173,0,0,0,1.41-.21,2.548,2.548,0,0,0,.954-.582,2.216,2.216,0,0,0,.54-.87A3.339,3.339,0,0,0,10.2-12a2.252,2.252,0,0,0-.75-1.8,3.491,3.491,0,0,0-2.322-.648H5.5Zm17.448-3.372a7.187,7.187,0,0,1,2.58.444,5.659,5.659,0,0,1,2,1.272,5.73,5.73,0,0,1,1.3,2.01,7.251,7.251,0,0,1,.462,2.658,7.383,7.383,0,0,1-.462,2.682,5.77,5.77,0,0,1-1.3,2.028,5.686,5.686,0,0,1-2,1.284,7.1,7.1,0,0,1-2.58.45,7.184,7.184,0,0,1-2.6-.45A5.8,5.8,0,0,1,18.33-1.542,5.686,5.686,0,0,1,17.022-3.57a7.383,7.383,0,0,1-.462-2.682,7.251,7.251,0,0,1,.462-2.658,5.647,5.647,0,0,1,1.308-2.01,5.77,5.77,0,0,1,2.016-1.272A7.271,7.271,0,0,1,22.944-12.636Zm0,10.068a2.113,2.113,0,0,0,1.89-.906,5.011,5.011,0,0,0,.606-2.754,4.979,4.979,0,0,0-.606-2.748,2.118,2.118,0,0,0-1.89-.9,2.17,2.17,0,0,0-1.932.9A4.939,4.939,0,0,0,20.4-6.228a4.971,4.971,0,0,0,.612,2.754A2.165,2.165,0,0,0,22.944-2.568ZM34.8-12.444v7.9a2.171,2.171,0,0,0,.42,1.428,1.517,1.517,0,0,0,1.236.5A2.651,2.651,0,0,0,37.6-2.868a4.274,4.274,0,0,0,1.038-.708v-8.868h3.72V0h-2.3a.875.875,0,0,1-.912-.624l-.228-.72a7.221,7.221,0,0,1-.744.63,4.553,4.553,0,0,1-.822.48,4.91,4.91,0,0,1-.942.312,5.005,5.005,0,0,1-1.1.114A4.357,4.357,0,0,1,33.5-.162a3.716,3.716,0,0,1-1.326-.99,4.318,4.318,0,0,1-.816-1.5,6.2,6.2,0,0,1-.276-1.9v-7.9Zm14.832-.216a6.875,6.875,0,0,1,1.494.156,6.011,6.011,0,0,1,1.3.444h3.756V-10.7a.678.678,0,0,1-.174.492,1.192,1.192,0,0,1-.594.276l-.912.2a3.735,3.735,0,0,1,.168,1.116,3.563,3.563,0,0,1-.39,1.68A3.821,3.821,0,0,1,53.214-5.67a4.981,4.981,0,0,1-1.6.8,6.75,6.75,0,0,1-1.98.282,8,8,0,0,1-1.1-.072.672.672,0,0,0-.408.552.467.467,0,0,0,.33.45,3.1,3.1,0,0,0,.87.192q.54.054,1.236.072t1.416.084a11.1,11.1,0,0,1,1.416.222,3.791,3.791,0,0,1,1.236.5,2.628,2.628,0,0,1,.87.93,2.977,2.977,0,0,1,.33,1.482,3.6,3.6,0,0,1-.408,1.644,4.293,4.293,0,0,1-1.2,1.428,6.269,6.269,0,0,1-1.944,1,8.461,8.461,0,0,1-2.64.378,10.138,10.138,0,0,1-2.526-.276,6.115,6.115,0,0,1-1.764-.726A3.059,3.059,0,0,1,44.3,2.244a2.434,2.434,0,0,1-.336-1.224,2.035,2.035,0,0,1,.5-1.4,3.349,3.349,0,0,1,1.38-.894,2.107,2.107,0,0,1-.672-.708,2.142,2.142,0,0,1-.252-1.092,1.945,1.945,0,0,1,.1-.582,2.13,2.13,0,0,1,.3-.594A3,3,0,0,1,45.84-4.8a3.377,3.377,0,0,1,.744-.468,4.065,4.065,0,0,1-1.53-1.368,3.532,3.532,0,0,1-.558-1.98,3.555,3.555,0,0,1,.4-1.686,3.81,3.81,0,0,1,1.086-1.272,5.11,5.11,0,0,1,1.626-.8A7,7,0,0,1,49.632-12.66ZM52.392.456a.637.637,0,0,0-.186-.48,1.326,1.326,0,0,0-.5-.288,3.569,3.569,0,0,0-.744-.156q-.426-.048-.918-.072T49.02-.582Q48.492-.6,47.976-.66a2.442,2.442,0,0,0-.57.534,1.077,1.077,0,0,0-.222.666,1.012,1.012,0,0,0,.114.48.939.939,0,0,0,.4.372,2.671,2.671,0,0,0,.774.246,6.945,6.945,0,0,0,1.23.09,7.44,7.44,0,0,0,1.32-.1,2.794,2.794,0,0,0,.822-.264.993.993,0,0,0,.426-.4A1.1,1.1,0,0,0,52.392.456Zm-2.76-7.332a1.716,1.716,0,0,0,1.338-.462,1.721,1.721,0,0,0,.414-1.194A1.646,1.646,0,0,0,50.97-9.72a1.787,1.787,0,0,0-1.338-.432,1.787,1.787,0,0,0-1.338.432,1.646,1.646,0,0,0-.414,1.188,2.039,2.039,0,0,0,.1.66,1.371,1.371,0,0,0,.318.522A1.49,1.49,0,0,0,48.846-7,2.2,2.2,0,0,0,49.632-6.876Zm13.488-5.76a6.407,6.407,0,0,1,2.262.384,4.917,4.917,0,0,1,1.764,1.116A5.094,5.094,0,0,1,68.3-9.342a6.583,6.583,0,0,1,.414,2.406,5.253,5.253,0,0,1-.036.684,1.083,1.083,0,0,1-.132.42.5.5,0,0,1-.258.216,1.208,1.208,0,0,1-.414.06H60.7a3.508,3.508,0,0,0,.948,2.262,2.821,2.821,0,0,0,1.98.7,3.544,3.544,0,0,0,1.116-.156,5.63,5.63,0,0,0,.834-.348q.366-.192.672-.348a1.4,1.4,0,0,1,.642-.156.769.769,0,0,1,.672.324l1.08,1.332A5.529,5.529,0,0,1,67.4-.87a6.454,6.454,0,0,1-1.368.648,7.415,7.415,0,0,1-1.4.324,10.536,10.536,0,0,1-1.338.09,6.986,6.986,0,0,1-2.454-.426,5.639,5.639,0,0,1-2-1.266,5.974,5.974,0,0,1-1.356-2.088,7.8,7.8,0,0,1-.5-2.9A6.572,6.572,0,0,1,57.4-8.856a5.822,5.822,0,0,1,1.224-1.956,5.828,5.828,0,0,1,1.932-1.332A6.377,6.377,0,0,1,63.12-12.636Zm.072,2.568a2.242,2.242,0,0,0-1.668.606,3.157,3.157,0,0,0-.792,1.746h4.644a3.284,3.284,0,0,0-.114-.864,2.094,2.094,0,0,0-.372-.75,1.893,1.893,0,0,0-.678-.534A2.319,2.319,0,0,0,63.192-10.068ZM82.92-6.336a9.108,9.108,0,0,1-.366,2.664,5.629,5.629,0,0,1-1.1,2.058A4.959,4.959,0,0,1,79.6-.282a6.688,6.688,0,0,1-2.628.474A12.552,12.552,0,0,1,75.618.12a11.591,11.591,0,0,1-1.386-.24l.216-2.364a.711.711,0,0,1,.246-.5.915.915,0,0,1,.618-.192,2.42,2.42,0,0,1,.5.066,3.4,3.4,0,0,0,.72.066,2.954,2.954,0,0,0,1.026-.162,1.59,1.59,0,0,0,.726-.54,2.6,2.6,0,0,0,.432-.99,6.726,6.726,0,0,0,.144-1.512V-17.484H82.92ZM94.392,0a1.743,1.743,0,0,1-.8-.144,1.1,1.1,0,0,1-.45-.6l-.264-.684q-.468.4-.9.7a5.7,5.7,0,0,1-.894.51A4.415,4.415,0,0,1,90.1.09a6.056,6.056,0,0,1-1.158.1A5.077,5.077,0,0,1,87.4-.03a3.23,3.23,0,0,1-1.182-.654,2.876,2.876,0,0,1-.75-1.074A3.873,3.873,0,0,1,85.2-3.24,3.108,3.108,0,0,1,85.536-4.6,3.345,3.345,0,0,1,86.7-5.862a7.4,7.4,0,0,1,2.232-.954,14.976,14.976,0,0,1,3.54-.432v-.528a2.282,2.282,0,0,0-.45-1.578,1.655,1.655,0,0,0-1.278-.486,3.39,3.39,0,0,0-1.08.144,4.855,4.855,0,0,0-.75.324q-.33.18-.642.324a1.763,1.763,0,0,1-.744.144,1.125,1.125,0,0,1-.654-.186,1.382,1.382,0,0,1-.426-.462l-.672-1.164a7.564,7.564,0,0,1,2.5-1.482,8.771,8.771,0,0,1,2.946-.486,5.388,5.388,0,0,1,2.034.366,4.377,4.377,0,0,1,1.536,1.02,4.457,4.457,0,0,1,.966,1.554A5.585,5.585,0,0,1,96.1-7.776V0ZM90.12-2.268a2.952,2.952,0,0,0,1.26-.252,3.839,3.839,0,0,0,1.092-.816V-5.064a12.35,12.35,0,0,0-1.836.192,4.46,4.46,0,0,0-1.14.36,1.38,1.38,0,0,0-.582.492,1.164,1.164,0,0,0-.162.6,1.043,1.043,0,0,0,.348.894A1.7,1.7,0,0,0,90.12-2.268Zm12.1-10.176v7.9a2.171,2.171,0,0,0,.42,1.428,1.517,1.517,0,0,0,1.236.5,2.651,2.651,0,0,0,1.146-.252,4.274,4.274,0,0,0,1.038-.708v-8.868h3.72V0h-2.3a.875.875,0,0,1-.912-.624l-.228-.72a7.22,7.22,0,0,1-.744.63,4.554,4.554,0,0,1-.822.48,4.91,4.91,0,0,1-.942.312,5.005,5.005,0,0,1-1.1.114,4.357,4.357,0,0,1-1.806-.354,3.716,3.716,0,0,1-1.326-.99,4.318,4.318,0,0,1-.816-1.5,6.2,6.2,0,0,1-.276-1.9v-7.9ZM112.656,0V-12.444h2.3a1.027,1.027,0,0,1,.582.156.833.833,0,0,1,.33.468l.216.72a9.038,9.038,0,0,1,.744-.624,4.357,4.357,0,0,1,.822-.486,4.879,4.879,0,0,1,.948-.312,5.087,5.087,0,0,1,1.11-.114,4.357,4.357,0,0,1,1.806.354,3.748,3.748,0,0,1,1.326.984,4.247,4.247,0,0,1,.816,1.5,6.22,6.22,0,0,1,.276,1.89V0h-3.72V-7.908a2.176,2.176,0,0,0-.42-1.422,1.509,1.509,0,0,0-1.236-.51,2.589,2.589,0,0,0-1.152.264,4.479,4.479,0,0,0-1.032.708V0ZM131.9-12.636a6.407,6.407,0,0,1,2.262.384,4.917,4.917,0,0,1,1.764,1.116,5.094,5.094,0,0,1,1.152,1.794,6.583,6.583,0,0,1,.414,2.406,5.252,5.252,0,0,1-.036.684,1.083,1.083,0,0,1-.132.42.5.5,0,0,1-.258.216,1.208,1.208,0,0,1-.414.06H129.48a3.508,3.508,0,0,0,.948,2.262,2.821,2.821,0,0,0,1.98.7,3.544,3.544,0,0,0,1.116-.156,5.63,5.63,0,0,0,.834-.348q.366-.192.672-.348a1.4,1.4,0,0,1,.642-.156.769.769,0,0,1,.672.324l1.08,1.332A5.529,5.529,0,0,1,136.182-.87a6.454,6.454,0,0,1-1.368.648,7.415,7.415,0,0,1-1.4.324,10.536,10.536,0,0,1-1.338.09,6.986,6.986,0,0,1-2.454-.426,5.639,5.639,0,0,1-2-1.266,5.974,5.974,0,0,1-1.356-2.088,7.8,7.8,0,0,1-.5-2.9,6.572,6.572,0,0,1,.426-2.364,5.822,5.822,0,0,1,1.224-1.956,5.828,5.828,0,0,1,1.932-1.332A6.377,6.377,0,0,1,131.9-12.636Zm.072,2.568a2.242,2.242,0,0,0-1.668.606,3.158,3.158,0,0,0-.792,1.746h4.644a3.283,3.283,0,0,0-.114-.864,2.1,2.1,0,0,0-.372-.75A1.893,1.893,0,0,0,133-9.864,2.319,2.319,0,0,0,131.976-10.068Zm10.848-7.416h3.264a1.452,1.452,0,0,1,.864.24,1.315,1.315,0,0,1,.48.636l3.384,9.36q.228.612.462,1.332t.438,1.512q.168-.792.39-1.512t.438-1.332l3.36-9.36a1.351,1.351,0,0,1,.468-.606,1.348,1.348,0,0,1,.852-.27h3.288L153.5,0h-3.672Zm22.9,4.848a6.407,6.407,0,0,1,2.262.384,4.917,4.917,0,0,1,1.764,1.116A5.094,5.094,0,0,1,170.9-9.342a6.583,6.583,0,0,1,.414,2.406,5.252,5.252,0,0,1-.036.684,1.083,1.083,0,0,1-.132.42.5.5,0,0,1-.258.216,1.208,1.208,0,0,1-.414.06H163.3a3.508,3.508,0,0,0,.948,2.262,2.821,2.821,0,0,0,1.98.7,3.544,3.544,0,0,0,1.116-.156,5.63,5.63,0,0,0,.834-.348q.366-.192.672-.348a1.4,1.4,0,0,1,.642-.156.769.769,0,0,1,.672.324l1.08,1.332A5.529,5.529,0,0,1,170-.87a6.454,6.454,0,0,1-1.368.648,7.415,7.415,0,0,1-1.4.324,10.536,10.536,0,0,1-1.338.09,6.986,6.986,0,0,1-2.454-.426,5.639,5.639,0,0,1-2-1.266,5.974,5.974,0,0,1-1.356-2.088,7.8,7.8,0,0,1-.5-2.9A6.572,6.572,0,0,1,160-8.856a5.822,5.822,0,0,1,1.224-1.956,5.828,5.828,0,0,1,1.932-1.332A6.377,6.377,0,0,1,165.72-12.636Zm.072,2.568a2.242,2.242,0,0,0-1.668.606,3.158,3.158,0,0,0-.792,1.746h4.644a3.283,3.283,0,0,0-.114-.864,2.1,2.1,0,0,0-.372-.75,1.893,1.893,0,0,0-.678-.534A2.319,2.319,0,0,0,165.792-10.068ZM173.448,0V-12.444h2.208a1.883,1.883,0,0,1,.462.048.81.81,0,0,1,.312.15.64.64,0,0,1,.192.27,2.435,2.435,0,0,1,.114.408l.2,1.164a6.1,6.1,0,0,1,1.536-1.668,3.121,3.121,0,0,1,1.86-.612,2.143,2.143,0,0,1,1.368.408l-.48,2.736a.534.534,0,0,1-.192.354.652.652,0,0,1-.384.1,2.547,2.547,0,0,1-.48-.054,3.721,3.721,0,0,0-.7-.054,2.555,2.555,0,0,0-2.3,1.56V0Zm14.28.192a4.387,4.387,0,0,1-1.566-.258,3.11,3.11,0,0,1-1.14-.732,3.12,3.12,0,0,1-.7-1.146,4.437,4.437,0,0,1-.24-1.5V-9.876h-1.056a.7.7,0,0,1-.492-.186.7.7,0,0,1-.2-.546V-12.06l1.98-.384.732-3.036a.739.739,0,0,1,.816-.576H187.8v3.636h3.024v2.544H187.8V-3.7a1.163,1.163,0,0,0,.21.714.709.709,0,0,0,.606.282,1.191,1.191,0,0,0,.342-.042,1.362,1.362,0,0,0,.24-.1q.1-.054.192-.1a.492.492,0,0,1,.21-.042.433.433,0,0,1,.27.078.966.966,0,0,1,.21.246l1.128,1.764a5.134,5.134,0,0,1-1.62.81A6.438,6.438,0,0,1,187.728.192Z" transform="translate(254 48)"/><g transform="translate(153.45 16)"><path class="b" d="M11.5,36.6V5.4A5.378,5.378,0,0,1,16.9,0H97.8a5.378,5.378,0,0,1,5.4,5.4V36.6A5.378,5.378,0,0,1,97.8,42H16.9A5.378,5.378,0,0,1,11.5,36.6Z" transform="translate(-11.5)"/><circle class="c" cx="9.1" cy="9.1" r="9.1" transform="translate(8.4 11.9)"/><g transform="translate(-11.5)"><path class="d" d="M68.9,21a2.732,2.732,0,0,0-.8-1.9l-8.5-8.5a2.656,2.656,0,0,0-3.8,0l-8.5,8.5a2.656,2.656,0,0,0,0,3.8l8.5,8.5a2.656,2.656,0,0,0,3.8,0l8.5-8.5A2.732,2.732,0,0,0,68.9,21Z"/></g><path class="e" d="M95.3,22.3l-13.8,8a1.725,1.725,0,0,1-2.6-1.5V12.9a1.744,1.744,0,0,1,2.6-1.5l13.8,8A1.687,1.687,0,0,1,95.3,22.3Z" transform="translate(-11.5)"/></g></g></svg>