<svg xmlns="http://www.w3.org/2000/svg" width="47.8" height="47.8" viewBox="0 0 47.8 47.8"><defs><style>.a{fill:#1f63d1}</style></defs><g><path d="M389.7,84.2a23.9,23.9,0,1,0,23.9,23.9A23.9,23.9,0,0,0,389.7,84.2ZM402,124.7a21.11,21.11,0,0,1-12.3,4.1,20.216,20.216,0,0,1-12.3-4.1v-1.3a6.231,6.231,0,0,1,6.2-6.2c1.1,0,2.6,1.1,6.2,1.1,3.5,0,5.1-1.1,6.2-1.1a6.231,6.231,0,0,1,6.2,6.2v1.3Zm2.9-2.6a9.246,9.246,0,0,0-9.1-7.9c-2,0-2.9,1.1-6.2,1.1s-4.2-1.1-6.2-1.1a9.246,9.246,0,0,0-9.1,7.9A20.8,20.8,0,1,1,410.4,108,19.966,19.966,0,0,1,404.9,122.1ZM389.7,94.9a8.5,8.5,0,1,0,8.5,8.5A8.493,8.493,0,0,0,389.7,94.9Zm0,13.9a5.4,5.4,0,1,1,5.4-5.4A5.378,5.378,0,0,1,389.7,108.8Z" class="a" transform="translate(-365.8 -84.2)"/></g></svg>