<?xml version="1.0" encoding="UTF-8"?>
<svg width="235px" height="120px" viewBox="0 0 235 120" version="1.1" xmlns="http://www.w3.org/2000/svg" xmlns:xlink="http://www.w3.org/1999/xlink">
    <!-- Generator: Sketch 49.3 (51167) - http://www.bohemiancoding.com/sketch -->
    <title>logomark-lawyers-horizontal</title>
    <desc>Created with Sketch.</desc>
    <defs></defs>
    <g id="ui-design" stroke="none" stroke-width="1" fill="none" fill-rule="evenodd">
        <g id="Home" transform="translate(-120.000000, -4876.000000)" fill-rule="nonzero">
            <g id="Footer" transform="translate(0.000000, 4772.000000)">
                <g id="logomark-lawyers-horizontal" transform="translate(119.000000, 104.000000)">
                    <path d="M160.24,54.55 L158.34,54.55 C158.150721,54.5550749 157.964853,54.4989638 157.81,54.39 C157.680088,54.2819691 157.577334,54.1449645 157.51,53.99 L156.51,51.29 L151,51.29 L150,53.99 C149.941186,54.1415266 149.840634,54.2732836 149.71,54.37 C149.564755,54.4920015 149.379588,54.5560978 149.19,54.55 L147.27,54.55 L152.48,41.3 L155,41.3 L160.24,54.55 Z M155.89,49.55 L154.28,45.14 C154.2,44.95 154.12,44.71 154.03,44.44 C153.94,44.17 153.86,43.89 153.78,43.57 C153.7,43.89 153.61,44.18 153.53,44.45 C153.45,44.72 153.36,44.96 153.28,45.16 L151.68,49.55 L155.89,49.55 Z" id="Shape" fill="#FFFFFF"></path>
                    <path d="M172.64,41.3 L167.29,54.55 L165.07,54.55 L159.72,41.3 L161.72,41.3 C161.90681,41.2900827 162.091078,41.3467805 162.24,41.46 C162.375009,41.5630816 162.478844,41.7015284 162.54,41.86 L165.67,49.94 C165.77,50.2 165.87,50.49 165.96,50.81 C166.05,51.13 166.15,51.45 166.23,51.81 C166.31,51.47 166.39,51.14 166.47,50.81 C166.548538,50.5142686 166.645391,50.2237077 166.76,49.94 L169.86,41.86 C169.918814,41.7084734 170.019366,41.5767164 170.15,41.48 C170.298778,41.3573273 170.487286,41.2933056 170.68,41.3 L172.64,41.3 Z" id="Shape" fill="#FFFFFF"></path>
                    <path d="M187,47.93 C187.009547,48.8487872 186.846734,49.7612185 186.52,50.62 C186.219895,51.4228403 185.756846,52.1548654 185.16,52.77 C184.549119,53.3914864 183.812749,53.8755815 183,54.19 C181.23412,54.8564463 179.28588,54.8564463 177.52,54.19 C176.721553,53.8706106 175.99924,53.3867974 175.4,52.77 C174.789221,52.1582273 174.312445,51.4260368 174,50.62 C173.347008,48.8826652 173.347008,46.9673348 174,45.23 C174.303582,44.4265594 174.770013,43.6945692 175.37,43.08 C175.969814,42.4663448 176.692161,41.9859156 177.49,41.67 C178.360521,41.3201356 179.291897,41.1467772 180.23,41.16 C180.867404,41.1526639 181.502959,41.2300066 182.12,41.39 C182.688917,41.5406054 183.236571,41.7623548 183.75,42.05 C184.238793,42.3181409 184.686671,42.6548918 185.08,43.05 C185.47183,43.4572675 185.808078,43.9145653 186.08,44.41 C186.355962,44.9278977 186.56433,45.4790649 186.7,46.05 C186.880639,46.6611108 186.981476,47.2930198 187,47.93 Z M184.48,47.93 C184.492292,47.2520269 184.394349,46.5765603 184.19,45.93 C184.01614,45.3865351 183.729948,44.8857003 183.35,44.46 C182.988048,44.0563028 182.540481,43.7385648 182.04,43.53 C180.915751,43.1035326 179.674249,43.1035326 178.55,43.53 C178.046576,43.738455 177.595724,44.0561006 177.23,44.46 C176.853571,44.8882237 176.567821,45.3882862 176.39,45.93 C176.003051,47.2046129 176.003051,48.5653871 176.39,49.84 C176.567821,50.3817138 176.853571,50.8817763 177.23,51.31 C177.596089,51.7110355 178.047045,52.0253377 178.55,52.23 C179.674249,52.6564674 180.915751,52.6564674 182.04,52.23 C182.540014,52.0252331 182.987685,51.7108378 183.35,51.31 C183.729948,50.8842997 184.01614,50.3834649 184.19,49.84 C184.368314,49.2195802 184.449278,48.5752481 184.43,47.93 L184.48,47.93 Z" id="Shape" fill="#FFFFFF"></path>
                    <path d="M199,51.42 C199.135867,51.4260958 199.26443,51.4832351 199.36,51.58 L200.36,52.63 C199.827324,53.2946959 199.140915,53.8197995 198.36,54.16 C197.469304,54.5382399 196.507244,54.7190525 195.54,54.69 C194.631644,54.7077862 193.729423,54.5375558 192.89,54.19 C192.13111,53.8713239 191.449182,53.3939742 190.89,52.79 C190.318176,52.1741775 189.882093,51.4451013 189.61,50.65 C189.303725,49.7762065 189.151464,48.8558763 189.16,47.93 C189.148679,46.9948015 189.311449,46.065659 189.64,45.19 C189.940607,44.3949988 190.396081,43.6676002 190.98,43.05 C191.550469,42.4525531 192.23816,41.9793395 193,41.66 C193.840235,41.3151784 194.741884,41.1450559 195.65,41.16 C196.529383,41.1443884 197.403061,41.3041661 198.22,41.63 C198.929203,41.9236163 199.577063,42.3476087 200.13,42.88 L199.28,44 C199.230149,44.0782898 199.165632,44.1462027 199.09,44.2 C198.993324,44.2570748 198.882161,44.2848655 198.77,44.28 C198.6717,44.275566 198.575805,44.2481674 198.49,44.2 L198.17,44.01 L197.77,43.76 C197.601534,43.657531 197.424144,43.5705098 197.24,43.5 C197.01118,43.4210787 196.777321,43.3576027 196.54,43.31 C196.233083,43.2550717 195.921789,43.2282938 195.61,43.23 C195.053807,43.2248494 194.502461,43.3337572 193.99,43.55 C193.502871,43.7572643 193.068766,44.0717344 192.72,44.47 C192.341616,44.9163217 192.06214,45.4377829 191.9,46 C191.688679,46.6451563 191.587267,47.3212355 191.6,48 C191.588327,48.6802901 191.696651,49.3573135 191.92,50 C192.108662,50.5411173 192.400749,51.0403836 192.78,51.47 C193.131173,51.8631353 193.564833,52.1738674 194.05,52.38 C194.545805,52.5933496 195.080245,52.7022798 195.62,52.7 C195.927704,52.7019368 196.235154,52.6818857 196.54,52.64 C196.794743,52.6067829 197.045831,52.5498696 197.29,52.47 C197.515831,52.387094 197.733439,52.2833115 197.94,52.16 C198.153323,52.0203838 198.357108,51.8667102 198.55,51.7 C198.606515,51.6447251 198.670465,51.5976044 198.74,51.56 C198.810595,51.4882216 198.901215,51.4394264 199,51.42 Z" id="Shape" fill="#FFFFFF"></path>
                    <path d="M214.05,54.55 L212.15,54.55 C211.960721,54.5550749 211.774853,54.4989638 211.62,54.39 C211.490088,54.2819691 211.387334,54.1449645 211.32,53.99 L210.32,51.29 L204.84,51.29 L203.84,53.99 C203.781186,54.1415266 203.680634,54.2732836 203.55,54.37 C203.404755,54.4920015 203.219588,54.5560978 203.03,54.55 L201.11,54.55 L206.32,41.3 L208.83,41.3 L214.05,54.55 Z M209.7,49.55 L208.09,45.14 C208.01,44.95 207.93,44.71 207.84,44.44 C207.75,44.17 207.67,43.89 207.58,43.57 C207.51,43.89 207.42,44.18 207.34,44.45 C207.26,44.72 207.17,44.96 207.09,45.16 L205.49,49.55 L209.7,49.55 Z" id="Shape" fill="#FFFFFF"></path>
                    <polygon id="Shape" fill="#FFFFFF" points="224.12 43.33 220.12 43.33 220.12 54.55 217.65 54.55 217.65 43.33 213.65 43.33 213.65 41.33 224.1 41.33"></polygon>
                    <path d="M233.62,43.71 C233.55805,43.8174051 233.476667,43.9123526 233.38,43.99 C233.292539,44.0520129 233.187153,44.0836287 233.08,44.08 C232.93,44.0717299 232.784962,44.0233841 232.66,43.94 C232.51,43.84 232.33,43.74 232.12,43.62 C231.887388,43.4903786 231.642949,43.3832273 231.39,43.3 C231.066479,43.1993453 230.728724,43.1520595 230.39,43.16 C230.084865,43.153089 229.780707,43.1970229 229.49,43.29 C229.255609,43.3582466 229.037761,43.4739782 228.85,43.63 C228.675349,43.7690028 228.540759,43.951907 228.46,44.16 C228.369872,44.3716574 228.325568,44.5999953 228.33,44.83 C228.322113,45.1125047 228.414188,45.3887285 228.59,45.61 C228.780683,45.8326834 229.015678,46.0131869 229.28,46.14 C229.600769,46.3001647 229.935492,46.4307066 230.28,46.53 L231.41,46.9 C231.79,47.04 232.17,47.19 232.54,47.36 C232.901684,47.5336992 233.238093,47.7557294 233.54,48.02 C233.831749,48.306212 234.06597,48.6456623 234.23,49.02 C234.413646,49.4633411 234.502221,49.9402837 234.49,50.42 C234.496391,50.9947873 234.391109,51.5653468 234.18,52.1 C233.985489,52.6149386 233.677938,53.0796826 233.28,53.46 C232.870131,53.8646364 232.379423,54.1781445 231.84,54.38 C231.215917,54.6093298 230.55479,54.7212129 229.89,54.71 C229.470449,54.7101873 229.051853,54.6700021 228.64,54.59 C228.239646,54.5112541 227.847829,54.3940438 227.47,54.24 C227.101768,54.0869324 226.747166,53.902941 226.41,53.69 C226.091231,53.4828875 225.796134,53.2414445 225.53,52.97 L226.25,51.79 C226.312777,51.7024666 226.394908,51.6306018 226.49,51.58 C226.582958,51.5217659 226.690309,51.4905993 226.8,51.49 C226.98277,51.4978773 227.158122,51.564511 227.3,51.68 L227.93,52.09 C228.199059,52.2634989 228.487741,52.4044831 228.79,52.51 C229.164463,52.6468012 229.561491,52.7112758 229.96,52.7 C230.546107,52.7375127 231.125741,52.5597109 231.59,52.2 C231.991881,51.8371381 232.205568,51.310289 232.17,50.77 C232.181689,50.4623569 232.090169,50.1596396 231.91,49.91 C231.720499,49.6809336 231.485552,49.4936567 231.22,49.36 C230.900821,49.1988293 230.565666,49.0714703 230.22,48.98 C229.85,48.88 229.48,48.76 229.1,48.64 C228.717859,48.5168247 228.343796,48.3698712 227.98,48.2 C227.611703,48.0338745 227.273724,47.8074286 226.98,47.53 C226.68844,47.2436288 226.454246,46.9042173 226.29,46.53 C226.105564,46.0449933 226.017257,45.5287346 226.03,45.01 C226.032639,44.5254644 226.131201,44.0462475 226.32,43.6 C226.510029,43.1382108 226.796404,42.7222843 227.16,42.38 C227.547331,42.0075753 228.006747,41.7183135 228.51,41.53 C229.100142,41.3045962 229.728434,41.1959186 230.36,41.21 C231.095527,41.2025756 231.826639,41.3244277 232.52,41.57 C233.143895,41.7883474 233.718305,42.1282346 234.21,42.57 L233.62,43.71 Z" id="Shape" fill="#FFFFFF"></path>
                    <polygon id="Shape" fill="#FFFFFF" points="156.65 73.15 156.65 75.15 148.89 75.15 148.89 61.94 151.36 61.94 151.36 73.15"></polygon>
                    <path d="M170.49,75.18 L168.59,75.18 C168.400127,75.1897211 168.212776,75.1331624 168.06,75.02 C167.929079,74.9170147 167.825958,74.7829569 167.76,74.63 L166.76,71.92 L161.28,71.92 L160.28,74.63 C160.219812,74.7752306 160.123413,74.9026154 160,75 C159.853779,75.1192517 159.668427,75.1798477 159.48,75.17 L157.56,75.17 L162.77,61.93 L165.28,61.93 L170.49,75.18 Z M166.14,70.18 L164.53,65.78 C164.45,65.58 164.37,65.35 164.28,65.08 L164.02,64.21 C163.95,64.52 163.86,64.82 163.78,65.09 C163.7,65.36 163.61,65.6 163.53,65.8 L161.93,70.18 L166.14,70.18 Z" id="Shape" fill="#FFFFFF"></path>
                    <path d="M189.35,61.94 L185.24,75.18 L183,75.18 L180.11,66.18 C180.014665,65.9164625 179.941085,65.645556 179.89,65.37 C179.89,65.52 179.81,65.67 179.78,65.8 L179.66,66.18 L176.74,75.18 L174.5,75.18 L170.4,61.94 L172.46,61.94 C172.648002,61.9333809 172.833351,61.9858385 172.99,62.09 C173.136167,62.1838998 173.240145,62.3309039 173.28,62.5 L175.54,70.42 C175.54,70.62 175.63,70.83 175.68,71.06 C175.73,71.29 175.77,71.53 175.82,71.78 C175.82,71.52 175.92,71.28 175.98,71.05 C176.04,70.82 176.1,70.62 176.17,70.42 L178.77,62.5 C178.827656,62.3450911 178.928248,62.209812 179.06,62.11 C179.212213,61.9947481 179.399147,61.9347881 179.59,61.94 L180.31,61.94 C180.49681,61.9300827 180.681078,61.9867805 180.83,62.1 C180.96968,62.1983606 181.074684,62.3383664 181.13,62.5 L183.73,70.42 C183.866002,70.850467 183.979489,71.2877261 184.07,71.73 C184.15,71.25 184.24,70.81 184.34,70.42 L186.59,62.5 C186.63444,62.3410571 186.73361,62.2029274 186.87,62.11 C187.026699,61.996069 187.216295,61.9363814 187.41,61.94 L189.35,61.94 Z" id="Shape" fill="#FFFFFF"></path>
                    <path d="M197.4,70.06 L197.4,75.18 L195,75.18 L195,70.06 L190.17,61.94 L192.34,61.94 C192.523765,61.9298213 192.704981,61.9866734 192.85,62.1 C192.979059,62.207293 193.084593,62.3400608 193.16,62.49 L195.58,66.91 C195.72,67.18 195.85,67.42 195.95,67.66 C196.059335,67.884468 196.15615,68.1148209 196.24,68.35 C196.320373,68.1149508 196.413852,67.8845898 196.52,67.66 C196.62,67.42 196.74,67.18 196.87,66.91 L199.28,62.49 C199.358885,62.3452127 199.464005,62.216356 199.59,62.11 C199.734055,61.9939023 199.915097,61.9335551 200.1,61.94 L202.28,61.94 L197.4,70.06 Z" id="Shape" fill="#FFFFFF"></path>
                    <polygon id="Shape" fill="#FFFFFF" points="206.79 63.9 206.79 67.57 211.42 67.57 211.42 69.47 206.79 69.47 206.79 73.22 212.67 73.22 212.67 75.22 204.32 75.22 204.32 61.94 212.67 61.94 212.67 63.94"></polygon>
                    <path d="M225.92,75.18 L223.7,75.18 C223.325725,75.2020463 222.970562,75.0128836 222.78,74.69 L220,70.45 C219.913198,70.3095046 219.792952,70.1926939 219.65,70.11 C219.477682,70.0319365 219.288768,69.9975884 219.1,70.01 L218,70.01 L218,75.18 L215.54,75.18 L215.54,61.94 L219.54,61.94 C220.319395,61.9230522 221.097225,62.0173346 221.85,62.22 C222.426065,62.3731024 222.966343,62.6381443 223.44,63 C223.837192,63.3233551 224.149547,63.7386842 224.35,64.21 C224.698837,65.1086762 224.734073,66.0988004 224.45,67.02 C224.350025,67.3988612 224.198617,67.7622398 224,68.1 C223.717577,68.4521484 223.379849,68.7561034 223,69 C222.6166,69.2493173 222.198864,69.4413411 221.76,69.57 C221.918779,69.6628489 222.066407,69.7735698 222.2,69.9 C222.341024,70.0308307 222.465303,70.178622 222.57,70.34 L225.92,75.18 Z M219.58,68.24 C219.993005,68.2466647 220.40455,68.1893182 220.8,68.07 C221.112228,67.9676494 221.401112,67.804515 221.65,67.59 C221.869078,67.3870482 222.039925,67.1376113 222.15,66.86 C222.261418,66.5628405 222.315703,66.2473093 222.31,65.93 C222.345139,65.3413138 222.100524,64.7705448 221.65,64.39 C221.062296,63.9918079 220.358253,63.8017163 219.65,63.85 L218,63.85 L218,68.24 L219.58,68.24 Z" id="Shape" fill="#FFFFFF"></path>
                    <path d="M235.15,64.35 C235.08805,64.4574051 235.006667,64.5523526 234.91,64.63 C234.822539,64.6920129 234.717153,64.7236287 234.61,64.72 C234.458268,64.7125263 234.312138,64.6603368 234.19,64.57 C234.04,64.48 233.86,64.37 233.65,64.26 C233.416473,64.1322305 233.172207,64.0251549 232.92,63.94 C232.596479,63.8393453 232.258724,63.7920595 231.92,63.8 C231.615702,63.7950217 231.312363,63.8354668 231.02,63.92 C230.787015,63.9964472 230.570074,64.1150867 230.38,64.27 C230.206074,64.405571 230.071449,64.5850716 229.99,64.79 C229.899926,65.0051829 229.855653,65.2367661 229.86,65.47 C229.852113,65.7525047 229.944188,66.0287285 230.12,66.25 C230.313326,66.4698772 230.547707,66.6499092 230.81,66.78 C231.132701,66.9357687 231.467046,67.0661631 231.81,67.17 L232.94,67.54 C233.321495,67.6726548 233.695395,67.8262207 234.06,68 C234.428602,68.1612352 234.766834,68.3844684 235.06,68.66 C235.358125,68.9429391 235.596194,69.283038 235.76,69.66 C235.928725,70.0861455 236.010332,70.5417846 236,71 C235.999491,71.5741737 235.894444,72.1434571 235.69,72.68 C235.493109,73.1937172 235.185883,73.6579691 234.79,74.04 C234.377411,74.4412156 233.887462,74.7542383 233.35,74.96 C232.725917,75.1893298 232.06479,75.3012129 231.4,75.29 C230.980449,75.2901873 230.561853,75.2500021 230.15,75.17 C229.74817,75.0924988 229.355892,74.971798 228.98,74.81 C228.6102,74.664336 228.255239,74.4835065 227.92,74.27 C227.603561,74.0597157 227.308782,73.8185327 227.04,73.55 L227.76,72.37 C227.822418,72.2795345 227.904458,72.204331 228,72.15 C228.095494,72.0990411 228.201772,72.0716143 228.31,72.07 C228.492483,72.0792568 228.667421,72.1457328 228.81,72.26 L229.44,72.67 C229.71344,72.8356018 230.001275,72.9761726 230.3,73.09 C230.675499,73.2227933 231.071776,73.2871459 231.47,73.28 C232.055889,73.3156691 232.634887,73.1380623 233.1,72.78 C233.502249,72.4131722 233.715701,71.8832243 233.68,71.34 C233.690212,71.0356446 233.598728,70.736562 233.42,70.49 C233.230912,70.2605138 232.995869,70.0731609 232.73,69.94 C232.410821,69.7788293 232.075666,69.6514703 231.73,69.56 L230.61,69.22 C230.227859,69.0968247 229.853796,68.9498712 229.49,68.78 C229.121703,68.6138745 228.783724,68.3874286 228.49,68.11 C228.195265,67.8263128 227.96061,67.4862334 227.8,67.11 C227.615564,66.6249933 227.527257,66.1087346 227.54,65.59 C227.541582,65.1021229 227.64016,64.6194301 227.83,64.17 C228.022843,63.7126596 228.308932,63.3005557 228.67,62.96 C229.057461,62.5853047 229.516653,62.2927822 230.02,62.1 C230.611489,61.8795419 231.238826,61.7710297 231.87,61.78 C232.606121,61.775784 233.33725,61.9010238 234.03,62.15 C234.655156,62.3656307 235.230079,62.7058222 235.72,63.15 L235.15,64.35 Z" id="Shape" fill="#FFFFFF"></path>
                    <path d="M61,119.92 C57.1259614,119.93131 53.408945,118.389757 50.68,115.64 L5.28,70.28 C2.53936222,67.5448798 0.999223272,63.8319476 0.999223272,59.96 C0.999223272,56.0880524 2.53936222,52.3751202 5.28,49.64 L50.64,4.27 C56.3430735,-1.42113493 65.5769265,-1.42113493 71.28,4.27 L116.64,49.64 C119.380638,52.3751202 120.920777,56.0880524 120.920777,59.96 C120.920777,63.8319476 119.380638,67.5448798 116.64,70.28 L71.28,115.64 C68.5601827,118.378952 64.8599562,119.919513 61,119.92 Z" id="Shape" fill="#FBB03B"></path>
                    <path d="M43.43,42.2 C43.2890428,42.4435272 43.1022733,42.6574631 42.88,42.83 C42.660253,42.9822664 42.3971794,43.0594347 42.13,43.05 C41.8227624,43.0377991 41.5235519,42.9483798 41.26,42.79 L40.2,42.22 C39.7697497,41.9935126 39.3215663,41.8028674 38.86,41.65 C38.301217,41.470225 37.7169412,41.3824147 37.13,41.39 C36.242118,41.324409 35.3597665,41.5760032 34.64,42.1 C34.0960062,42.5786358 33.7951058,43.2758442 33.82,44 C33.8065801,44.4778341 33.9827298,44.9415753 34.31,45.29 C34.6855181,45.6607962 35.1262286,45.9591233 35.61,46.17 C36.2032709,46.4366166 36.8148268,46.6605196 37.44,46.84 C38.1066667,47.0533333 38.8066667,47.2833333 39.54,47.53 C40.2610375,47.7828092 40.9657206,48.0800452 41.65,48.42 C42.3245561,48.754422 42.9421443,49.1931459 43.48,49.72 C44.0284309,50.2757634 44.466203,50.9307248 44.77,51.65 C45.1191322,52.5201736 45.2859081,53.4527572 45.26,54.39 C45.2703171,55.5254469 45.0632603,56.6523791 44.65,57.71 C44.2508962,58.7293409 43.6409059,59.6528457 42.86,60.42 C42.04535,61.2259896 41.0711714,61.8527339 40,62.26 C38.7550982,62.7178895 37.4362633,62.9416507 36.11,62.92 C35.2902626,62.9202254 34.4726595,62.8364546 33.67,62.67 C32.0477628,62.3600734 30.493567,61.7641291 29.08,60.91 C28.435309,60.5242547 27.8379215,60.0644677 27.3,59.54 L29,56.76 C29.134689,56.5440906 29.3245539,56.3680341 29.55,56.25 C29.7817736,56.1187284 30.0436333,56.0498179 30.31,56.05 C30.6883895,56.060736 31.0559626,56.1786369 31.37,56.39 L32.59,57.13 C33.0859416,57.4179182 33.6042872,57.6653865 34.14,57.87 C34.8080904,58.1032223 35.5125307,58.2149845 36.22,58.2 C37.1158624,58.2527189 38.0034283,58.0026508 38.74,57.49 C39.3789232,56.9202654 39.712353,56.0829862 39.64,55.23 C39.662676,54.6978 39.4841716,54.1765673 39.14,53.77 C38.7803861,53.3699926 38.3409435,53.0497786 37.85,52.83 C37.2606513,52.5676012 36.6522374,52.3503105 36.03,52.18 C35.35,51.99 34.65,51.79 33.93,51.56 C33.2129821,51.3295376 32.5143396,51.0454007 31.84,50.71 C31.1599781,50.3812054 30.5437451,49.9342672 30.02,49.39 C29.4594764,48.8152171 29.0177261,48.1356012 28.72,47.39 C28.3685752,46.4299444 28.2023074,45.4119781 28.23,44.39 C28.2304033,43.4204254 28.4277251,42.4610336 28.81,41.57 C29.2061892,40.6477543 29.7883127,39.817122 30.52,39.13 C31.3183814,38.3813199 32.2561642,37.7969045 33.28,37.41 C34.4786178,36.9626952 35.7508717,36.7455638 37.03,36.77 C37.8002354,36.76869 38.5693459,36.8288813 39.33,36.95 C40.0509702,37.0729511 40.7601884,37.2569464 41.45,37.5 C42.0970968,37.7318869 42.7227898,38.0196388 43.32,38.36 C43.8841474,38.675579 44.4079668,39.0583701 44.88,39.5 L43.43,42.2 Z" id="Shape" fill="#212121"></path>
                    <path d="M93.21,42.2 C93.0690428,42.4435272 92.8822733,42.6574631 92.66,42.83 C92.440253,42.9822664 92.1771794,43.0594347 91.91,43.05 C91.6027624,43.0377991 91.3035519,42.9483798 91.04,42.79 L90,42.22 C89.5697497,41.9935126 89.1215663,41.8028674 88.66,41.65 C88.101217,41.470225 87.5169412,41.3824147 86.93,41.39 C86.042118,41.324409 85.1597665,41.5760032 84.44,42.1 C83.893201,42.5782428 83.5857327,43.2737068 83.6,44 C83.5859025,44.4798295 83.7662059,44.9450122 84.1,45.29 C84.4718091,45.6606698 84.9092261,45.9590628 85.39,46.17 C85.9839253,46.4350063 86.5953668,46.6588675 87.22,46.84 C87.8866667,47.0533333 88.5866667,47.2833333 89.32,47.53 C90.0410375,47.7828092 90.7457206,48.0800452 91.43,48.42 C92.1059609,48.7520681 92.7239045,49.1910444 93.26,49.72 C93.8084309,50.2757634 94.246203,50.9307248 94.55,51.65 C94.9028254,52.5193744 95.07302,53.4520407 95.05,54.39 C95.0568862,55.5260733 94.8464395,56.6529815 94.43,57.71 C94.0308962,58.7293409 93.4209059,59.6528457 92.64,60.42 C91.8157905,61.2163776 90.8350482,61.8327469 89.76,62.23 C88.5114216,62.6871058 87.1894586,62.9108227 85.86,62.89 C85.0403018,62.8894605 84.2227763,62.8056976 83.42,62.64 C81.799088,62.3254332 80.2456839,61.7297924 78.83,60.88 C78.185309,60.4942547 77.5879215,60.0344677 77.05,59.51 L78.82,56.73 C78.9507978,56.5144807 79.1373642,56.338279 79.36,56.22 C79.5922818,56.0899821 79.8538081,56.0211594 80.12,56.02 C80.4983895,56.030736 80.8659626,56.1486369 81.18,56.36 L82.4,57.1 C82.8984381,57.3897685 83.4202604,57.6372996 83.96,57.84 C84.613114,58.0806071 85.3039804,58.2025247 86,58.2 C86.8958624,58.2527189 87.7834283,58.0026508 88.52,57.49 C89.1589232,56.9202654 89.492353,56.0829862 89.42,55.23 C89.4614108,54.7085312 89.3121731,54.1897529 89,53.77 C88.6387051,53.3674942 88.1954431,53.0469817 87.7,52.83 C87.1106513,52.5676012 86.5022374,52.3503105 85.88,52.18 C85.2,51.99 84.5,51.79 83.78,51.56 C83.0629821,51.3295376 82.3643396,51.0454007 81.69,50.71 C81.0099781,50.3812054 80.3937451,49.9342672 79.87,49.39 C79.3094764,48.8152171 78.8677261,48.1356012 78.57,47.39 C78.2233803,46.4286908 78.0572616,45.4116377 78.08,44.39 C78.0804033,43.4204254 78.2777251,42.4610336 78.66,41.57 C79.0561892,40.6477543 79.6383127,39.817122 80.37,39.13 C81.1683814,38.3813199 82.1061642,37.7969045 83.13,37.41 C84.3286178,36.9626952 85.6008717,36.7455638 86.88,36.77 C87.6502354,36.76869 88.4193459,36.8288813 89.18,36.95 C89.9009702,37.0729511 90.6101884,37.2569464 91.3,37.5 C91.9495304,37.7337928 92.5783856,38.0214606 93.18,38.36 C93.7392128,38.678474 94.2593906,39.0610564 94.73,39.5 L93.21,42.2 Z" id="Shape" fill="#212121"></path>
                    <polygon id="Shape" fill="#212121" points="38.57 69.43 38.57 71.91 34.77 71.91 34.77 82.91 31.63 82.91 31.63 71.91 27.83 71.91 27.83 69.43"></polygon>
                    <polygon id="Shape" fill="#212121" points="44 82.94 40.89 82.94 40.89 69.43 44 69.43"></polygon>
                    <path d="M56.36,79.44 C56.4326375,79.4257137 56.5073625,79.4257137 56.58,79.44 C56.6617021,79.4711696 56.7340173,79.5228233 56.79,79.59 L58,80.93 C57.4780779,81.6251038 56.7905345,82.1785762 56,82.54 C55.0811265,82.918774 54.0936222,83.1026541 53.1,83.08 C52.1540795,83.097717 51.2146212,82.9207176 50.34,82.56 C49.5535176,82.2315814 48.8473736,81.7369395 48.27,81.11 C47.705337,80.4754331 47.2735086,79.7341843 47,78.93 C46.6904194,78.046413 46.5348263,77.1162368 46.54,76.18 C46.512858,75.2323557 46.6690534,74.2883922 47,73.4 C47.3316951,72.5831544 47.8248794,71.8416772 48.45,71.22 C49.0893935,70.5979537 49.8479115,70.1115498 50.68,69.79 C51.5961192,69.4411628 52.5697851,69.268142 53.55,69.28 C54.0297968,69.2758413 54.5088187,69.3193887 54.98,69.41 C55.4097348,69.4973699 55.8312555,69.6211497 56.24,69.78 C56.614852,69.9336946 56.973318,70.1246531 57.31,70.35 C57.6278101,70.5581233 57.9198452,70.8031643 58.18,71.08 L57.15,72.5 C57.0774792,72.5841083 56.9971167,72.6611223 56.91,72.73 C56.79447,72.8060421 56.6582376,72.8444666 56.52,72.84 C56.4098924,72.8368998 56.3013456,72.8131552 56.2,72.77 C56.0915104,72.7154917 55.9878098,72.6519333 55.89,72.58 L55.52,72.35 C55.3704808,72.2595163 55.2131914,72.1825449 55.05,72.12 C54.841408,72.0442667 54.6274884,71.9841018 54.41,71.94 C54.126319,71.8885473 53.8382677,71.8651013 53.55,71.87 C53.0150247,71.863045 52.4842377,71.9651195 51.99,72.17 C51.5293521,72.3660261 51.1165743,72.6594053 50.78,73.03 C50.43555,73.4293728 50.1707803,73.8910226 50,74.39 C49.8094264,74.9673445 49.7148376,75.5720376 49.72,76.18 C49.7154757,76.7977314 49.8100085,77.4121941 50,78 C50.1686627,78.4978092 50.4299168,78.959245 50.77,79.36 C51.0849562,79.7189573 51.4738545,80.0055139 51.91,80.2 C52.3476664,80.3937063 52.8213899,80.4925407 53.3,80.49 C53.5607877,80.4895968 53.8212953,80.4728976 54.08,80.44 C54.3016381,80.4204959 54.5199848,80.3734674 54.73,80.3 C54.9294965,80.2277945 55.1233618,80.1408894 55.31,80.04 C55.5032826,79.9172132 55.687127,79.7801656 55.86,79.63 C55.9324842,79.5688748 56.0132933,79.5183691 56.1,79.48 C56.1831046,79.4493552 56.2715273,79.4357517 56.36,79.44 Z" id="Shape" fill="#212121"></path>
                    <path d="M63.34,74.9 L63.84,74.9 C64.2264818,74.9330113 64.6032298,74.7672422 64.84,74.46 L67.84,70.05 C67.9776047,69.8341023 68.175895,69.6636422 68.41,69.56 C68.6624301,69.4659168 68.9307328,69.4217657 69.2,69.43 L72,69.43 L68,74.89 C67.8707732,75.0712595 67.7196261,75.2358419 67.55,75.38 C67.4071719,75.5056958 67.2492992,75.6131836 67.08,75.7 C67.3098278,75.787977 67.5254681,75.9092747 67.72,76.06 C67.9370628,76.2272404 68.1203218,76.4342552 68.26,76.67 L72.33,82.94 L69.5,82.94 C69.3469243,82.9525715 69.1930757,82.9525715 69.04,82.94 C68.925507,82.9185205 68.8144821,82.8815122 68.71,82.83 C68.6203911,82.7840125 68.5392385,82.723148 68.47,82.65 C68.3955724,82.5731834 68.3286053,82.4894745 68.27,82.4 L65.21,77.7 C65.1080748,77.5392011 64.9623662,77.4108388 64.79,77.33 C64.5683593,77.2534723 64.3342472,77.219543 64.1,77.23 L63.34,77.23 L63.34,82.98 L60.21,82.98 L60.21,69.43 L63.34,69.43 L63.34,74.9 Z" id="Shape" fill="#212121"></path>
                    <polygon id="Shape" fill="#212121" points="82.88 69.43 82.88 71.84 77.34 71.84 77.34 75 81.58 75 81.58 77.32 77.34 77.32 77.34 80.53 82.88 80.53 82.88 82.95 74.19 82.95 74.19 69.43"></polygon>
                    <polygon id="Shape" fill="#212121" points="95.21 69.43 95.21 71.91 91.41 71.91 91.41 82.91 88.28 82.91 88.28 71.91 84.48 71.91 84.48 69.43"></polygon>
                    <path d="M74.78,50.24 C74.7882858,56.8075898 69.9911722,62.3933023 63.4976698,63.3770356 C57.0041674,64.3607689 50.7678636,60.4465642 48.8305086,54.1712188 C46.8931537,47.8958734 49.8376059,41.1473414 55.755565,38.2993483 C61.6735241,35.4513553 68.7845565,37.3607273 72.48,42.79 L61.38,53.89 L56.33,48.83 L54.17,51 L61.38,58.22 L74,45.63 C74.5345523,47.1074043 74.7987661,48.6689756 74.78,50.24 Z" id="Shape" fill="#212121"></path>
                </g>
            </g>
        </g>
    </g>
</svg>